0
SECTION
2
HEADER
9
$ACADVER
1
AC1015
9
$DWGCODEPAGE
3
ANSI_1252
9
$INSBASE
10
0
20
0
30
0
9
$EXTMIN
10
-15.21979011184726
20
-315.35059083903843
30
0
9
$EXTMAX
10
786.8652514726374
20
543
30
0
9
$LIMMIN
10
0
20
-309.6730676404534
9
$LIMMAX
10
390.8849
20
0
9
$TILEMODE
70
1
9
$INSUNITS
70
0
9
$PEXTMIN
10
-2.4185765072887433
20
-0.4964999892767965
30
0
9
$PEXTMAX
10
12.918575786401071
20
11.417954476160205
30
0
9
$HANDSEED
5
218
0
ENDSEC
0
SECTION
2
TABLES
0
TABLE
2
VPORT
5
20
330
0
100
AcDbSymbolTable
70
1
0
VPORT
5
215
330
20
100
AcDbSymbolTableRecord
100
AcDbViewportTableRecord
2
*Active
70
0
10
0
20
0
11
1
21
1
12
385.82273068039507
22
113.82470458048078
13
0
23
0
14
10
24
10
15
10
25
10
16
0
26
0
36
1
17
0
27
0
37
0
40
901.2681203809904
41
0.9344492217340304
42
50
43
0
44
0
50
0
51
0
71
0
72
1000
73
1
74
3
75
0
76
0
77
0
78
0
0
ENDTAB
0
TABLE
2
LTYPE
5
21
330
0
100
AcDbSymbolTable
70
14
0
LTYPE
5
34
330
21
100
AcDbSymbolTableRecord
100
AcDbLinetypeTableRecord
2
ByBlock
70
0
3

72
65
73
0
40
0
0
LTYPE
5
35
330
21
100
AcDbSymbolTableRecord
100
AcDbLinetypeTableRecord
2
ByLayer
70
0
3

72
65
73
0
40
0
0
LTYPE
5
36
330
21
100
AcDbSymbolTableRecord
100
AcDbLinetypeTableRecord
2
Continuous
70
0
3
Solid line
72
65
73
0
40
0
0
LTYPE
5
37
330
21
100
AcDbSymbolTableRecord
100
AcDbLinetypeTableRecord
2
CENTER
70
0
3
____ _ ____ _ ____ _ ____ _ ____ _ ____ _ ____ 
72
65
73
5
40
20
49
8.8
74
0
49
-1
74
0
49
0.4
74
0
49
-1
74
0
49
8.8
74
0
0
LTYPE
5
38
330
21
100
AcDbSymbolTableRecord
100
AcDbLinetypeTableRecord
2
HIDDEN
70
0
3
__ __ __ __ __ __ __ __ __ __ __ __ __ __ __ __
72
65
73
3
40
4
49
1.5
74
0
49
-1
74
0
49
1.5
74
0
0
LTYPE
5
39
330
21
100
AcDbSymbolTableRecord
100
AcDbLinetypeTableRecord
2
PHANTOM2
70
0
3
Phantom (.5x) ___ _ _ ___ _ _ ___ _ _ ___ _ _
72
65
73
6
40
1.25
49
0.625
74
0
49
-0.125
74
0
49
0.125
74
0
49
-0.125
74
0
49
0.125
74
0
49
-0.125
74
0
0
LTYPE
5
3A
330
21
100
AcDbSymbolTableRecord
100
AcDbLinetypeTableRecord
2
Amconstr
70
0
3
_______________________
72
65
73
2
40
9999
49
9999
74
0
49
0
74
0
0
LTYPE
5
3B
330
21
100
AcDbSymbolTableRecord
100
AcDbLinetypeTableRecord
2
CENTER2
70
0
3
Center (.5x) ___ _ ___ _ ___ _ ___ _ ___ _ ___
72
65
73
4
40
1.125
49
0.75
74
0
49
-0.125
74
0
49
0.125
74
0
49
-0.125
74
0
0
LTYPE
5
3C
330
21
100
AcDbSymbolTableRecord
100
AcDbLinetypeTableRecord
2
HIDDEN2
70
0
3
Hidden (.5x) _ _ _ _ _ _ _ _ _ _ _ _ _ _ _ _ _
72
65
73
2
40
0.1875
49
0.125
74
0
49
-0.0625
74
0
0
LTYPE
5
3D
330
21
100
AcDbSymbolTableRecord
100
AcDbLinetypeTableRecord
2
Amzigzag2
70
0
3
/\/-/\/-/\/-/\/-/\/-/\/
72
65
73
2
40
0.4401
49
0.0001
74
0
49
-0.44
74
0
0
LTYPE
5
3E
330
21
100
AcDbSymbolTableRecord
100
AcDbLinetypeTableRecord
2
ACANSTGB
70
0
3
__ . . __ . .
72
65
73
6
40
0.35433070866
49
0.15748031496
74
0
49
-0.03937007874
74
0
49
0.03937007874
74
0
49
-0.03937007874
74
0
49
0.03937007874
74
0
49
-0.03937007874
74
0
0
LTYPE
5
3F
330
21
100
AcDbSymbolTableRecord
100
AcDbLinetypeTableRecord
2
ACANSTGL
70
0
3
_ _ _ _ _
72
65
73
2
40
0.11811023622
49
0.07874015748
74
0
49
-0.03937007874
74
0
0
LTYPE
5
40
330
21
100
AcDbSymbolTableRecord
100
AcDbLinetypeTableRecord
2
ASULTYPE
70
0
3
\U+5BE6\U+7DDA
72
65
73
2
40
3
49
2.5
74
0
49
0.5
74
0
0
LTYPE
5
41
330
21
100
AcDbSymbolTableRecord
100
AcDbLinetypeTableRecord
2
ASVLTYPE
70
0
3
__ __ __ __ __ __ __ __ __ __ __ __ __ __ __ __ __ __ __ __ __
72
65
73
2
40
0.75
49
0.5
74
0
49
-0.25
74
0
0
ENDTAB
0
TABLE
2
LAYER
5
22
330
0
100
AcDbSymbolTable
70
9
0
LAYER
5
42
330
22
100
AcDbSymbolTableRecord
100
AcDbLayerTableRecord
2
0
70
0
62
7
6
Continuous
370
0
390
0
0
LAYER
5
43
330
22
100
AcDbSymbolTableRecord
100
AcDbLayerTableRecord
2
CON
70
0
62
4
6
Continuous
370
0
390
0
0
LAYER
5
44
330
22
100
AcDbSymbolTableRecord
100
AcDbLayerTableRecord
2
HID
70
0
62
2
6
HIDDEN
370
0
390
0
0
LAYER
5
45
330
22
100
AcDbSymbolTableRecord
100
AcDbLayerTableRecord
2
DIM
70
0
62
3
6
Continuous
370
0
390
0
0
LAYER
5
46
330
22
100
AcDbSymbolTableRecord
100
AcDbLayerTableRecord
2
Defpoints
70
0
62
-7
6
Continuous
370
0
390
0
0
LAYER
5
47
330
22
100
AcDbSymbolTableRecord
100
AcDbLayerTableRecord
2
DCS
70
0
62
7
6
Continuous
370
0
390
0
0
LAYER
5
48
330
22
100
AcDbSymbolTableRecord
100
AcDbLayerTableRecord
2
TXT1
70
0
62
3
6
Continuous
370
0
390
0
0
LAYER
5
49
330
22
100
AcDbSymbolTableRecord
100
AcDbLayerTableRecord
2
I-WIRE
70
0
62
7
6
Continuous
370
0
390
0
0
LAYER
5
4A
330
22
100
AcDbSymbolTableRecord
100
AcDbLayerTableRecord
2
LINE
70
0
62
4
6
Continuous
370
0
390
0
0
ENDTAB
0
TABLE
2
STYLE
5
23
330
0
100
AcDbSymbolTable
70
6
0
STYLE
5
4B
330
23
100
AcDbSymbolTableRecord
100
AcDbTextStyleTableRecord
2
STANDARD
70
0
40
0
41
1
50
0
71
0
42
0.2
3
ROMANS
4

0
STYLE
5
4C
330
23
100
AcDbSymbolTableRecord
100
AcDbTextStyleTableRecord
2
ROMANS
70
0
40
0
41
0.8
50
0
71
0
42
1.630318727057329
3
romans
4

0
STYLE
5
4D
330
23
100
AcDbSymbolTableRecord
100
AcDbTextStyleTableRecord
2
CHINA
70
0
40
0
41
0.85
50
0
71
0
42
3
3
ROMANS.shx
4

0
STYLE
5
4E
330
23
100
AcDbSymbolTableRecord
100
AcDbTextStyleTableRecord
2
STYLE_B7A
70
0
40
0
41
1
50
0
71
0
42
2.3
3
ltypeshp.shx
4

0
STYLE
5
4F
330
23
100
AcDbSymbolTableRecord
100
AcDbTextStyleTableRecord
2
ACANSTS
70
0
40
1
41
1
50
0
71
0
42
2.3
3
romans.shx
4

0
STYLE
5
50
330
23
100
AcDbSymbolTableRecord
100
AcDbTextStyleTableRecord
2
ACANSGDT
70
0
40
0
41
1
50
0
71
0
42
2.3
3
amgdtans.shx
4

0
ENDTAB
0
TABLE
2
VIEW
5
24
330
0
100
AcDbSymbolTable
70
0
0
ENDTAB
0
TABLE
2
UCS
5
25
330
0
100
AcDbSymbolTable
70
0
0
ENDTAB
0
TABLE
2
APPID
5
26
330
0
100
AcDbSymbolTable
70
1
0
APPID
5
216
330
26
100
AcDbSymbolTableRecord
100
AcDbRegAppTableRecord
2
ACAD
70
0
0
ENDTAB
0
TABLE
2
DIMSTYLE
5
27
330
0
100
AcDbSymbolTable
70
1
100
AcDbDimStyleTable
0
DIMSTYLE
105
217
330
27
100
AcDbSymbolTableRecord
100
AcDbDimStyleTableRecord
2
Standard
70
0
0
ENDTAB
0
TABLE
2
BLOCK_RECORD
5
28
330
0
100
AcDbSymbolTable
70
6
0
BLOCK_RECORD
5
2C
330
28
100
AcDbSymbolTableRecord
100
AcDbBlockTableRecord
2
*Model_Space
340
2E
0
BLOCK_RECORD
5
2D
330
28
100
AcDbSymbolTableRecord
100
AcDbBlockTableRecord
2
*Paper_Space
340
2F
0
BLOCK_RECORD
5
51
330
28
100
AcDbSymbolTableRecord
100
AcDbBlockTableRecord
2
GENAXEH
340
0
0
BLOCK_RECORD
5
106
330
28
100
AcDbSymbolTableRecord
100
AcDbBlockTableRecord
2
WMF6
340
0
0
BLOCK_RECORD
5
10D
330
28
100
AcDbSymbolTableRecord
100
AcDbBlockTableRecord
2
test
340
0
0
BLOCK_RECORD
5
195
330
28
100
AcDbSymbolTableRecord
100
AcDbBlockTableRecord
2
00_FORM
340
0
0
ENDTAB
0
ENDSEC
0
SECTION
2
BLOCKS
0
BLOCK
5
30
330
2C
100
AcDbEntity
8
0
100
AcDbBlockBegin
2
*Model_Space
70
0
10
0
20
0
30
0
3
*Model_Space
1

0
ENDBLK
5
31
330
2C
100
AcDbEntity
8
0
100
AcDbBlockEnd
0
BLOCK
5
32
330
2D
100
AcDbEntity
67
1
8
0
100
AcDbBlockBegin
2
*Paper_Space
70
0
10
0
20
0
30
0
3
*Paper_Space
1

0
ENDBLK
5
33
330
2D
100
AcDbEntity
67
1
8
0
100
AcDbBlockEnd
0
BLOCK
5
20C
330
51
100
AcDbEntity
8
0
100
AcDbBlockBegin
2
GENAXEH
70
0
10
0
20
0
30
0
3
GENAXEH
1

0
LINE
5
20D
330
51
100
AcDbEntity
8
0
100
AcDbLine
10
-1
20
0
30
0
11
1
21
0
31
0
0
ENDBLK
5
20E
330
51
100
AcDbEntity
8
0
100
AcDbBlockEnd
0
BLOCK
5
20F
330
106
100
AcDbEntity
8
0
100
AcDbBlockBegin
2
WMF6
70
0
10
290.05311517445585
20
-290.05311517445585
30
0
3
WMF6
1

0
ENDBLK
5
210
330
106
100
AcDbEntity
8
0
100
AcDbBlockEnd
0
BLOCK
5
211
330
10D
100
AcDbEntity
8
0
100
AcDbBlockBegin
2
test
70
0
10
0
20
0
30
0
3
test
1

0
ENDBLK
5
212
330
10D
100
AcDbEntity
8
0
100
AcDbBlockEnd
0
BLOCK
5
213
330
195
100
AcDbEntity
8
0
100
AcDbBlockBegin
2
00_FORM
70
0
10
0
20
0
30
0
3
00_FORM
1

0
ENDBLK
5
214
330
195
100
AcDbEntity
8
0
100
AcDbBlockEnd
0
ENDSEC
0
SECTION
2
ENTITIES
0
TEXT
5
52
330
2C
100
AcDbEntity
8
CON
100
AcDbText
10
755.2504434399202
20
543
30
0
40
3
1
    
41
0.8
7
ROMANS
72
4
11
760.0504434399202
21
543
31
0
100
AcDbText
0
TEXT
5
53
330
2C
100
AcDbEntity
8
CON
100
AcDbText
10
786.8652514726374
20
287.43948469584313
30
0
40
3
1
    
7
ROMANS
72
4
11
792.8652514726374
21
287.43948469584313
31
0
100
AcDbText
0
TEXT
5
54
330
2C
100
AcDbEntity
8
CON
100
AcDbText
10
774.8148080327171
20
369.4393092295795
30
0
40
3
1
    
7
ROMANS
72
4
11
780.8148080327171
21
369.4393092295795
31
0
100
AcDbText
0
TEXT
5
55
330
2C
100
AcDbEntity
8
CON
100
AcDbText
10
753.8148080327171
20
513.4394846958431
30
0
40
3
1
    
7
ROMANS
72
4
11
759.8148080327171
21
513.4394846958431
31
0
100
AcDbText
0
TEXT
5
56
330
2C
100
AcDbEntity
8
CON
100
AcDbText
10
148.40000000000006
20
190.1428571428572
30
0
40
3
1
   
41
0.8
7
ROMANS
72
4
11
152.00000000000006
21
190.1428571428572
31
0
100
AcDbText
0
TEXT
5
57
330
2C
100
AcDbEntity
8
CON
100
AcDbText
10
184.76436459279694
20
459.7293007227441
30
0
40
3
1
  
7
ROMANS
72
4
11
187.76436459279694
21
459.7293007227441
31
0
100
AcDbText
0
TEXT
5
58
330
2C
100
AcDbEntity
8
CON
100
AcDbText
10
182.75064090825902
20
454.40123929958537
30
0
40
3
1
    
7
ROMANS
72
4
11
188.75064090825902
21
454.40123929958537
31
0
100
AcDbText
0
TEXT
5
59
330
2C
100
AcDbEntity
8
CON
100
AcDbText
10
226.85044343992024
20
533.2857142857142
30
0
40
3
1
 
41
0.8
7
ROMANS
72
4
11
228.05044343992023
21
533.2857142857142
31
0
100
AcDbText
0
TEXT
5
5A
330
2C
100
AcDbEntity
8
CON
100
AcDbText
10
226.85044343992024
20
538.1428571428571
30
0
40
3
1
 
41
0.8
7
ROMANS
72
4
11
228.05044343992023
21
538.1428571428571
31
0
100
AcDbText
0
TEXT
5
5B
330
2C
100
AcDbEntity
8
CON
100
AcDbText
10
150.79999999999998
20
167
30
0
40
3
1
 
41
0.8
7
ROMANS
72
4
11
151.99999999999997
21
167
31
0
100
AcDbText
0
TEXT
5
5C
330
2C
100
AcDbEntity
8
CON
100
AcDbText
10
150.8
20
190.14285714285714
30
0
40
3
1
 
41
0.8
7
ROMANS
72
4
11
152
21
190.14285714285714
31
0
100
AcDbText
0
TEXT
5
5D
330
2C
100
AcDbEntity
8
CON
100
AcDbText
10
150.8
20
195
30
0
40
3
1
 
41
0.8
7
ROMANS
72
4
11
152
21
195
31
0
100
AcDbText
0
TEXT
5
5E
330
2C
100
AcDbEntity
8
CON
100
AcDbText
10
226.85044343992024
20
543
30
0
40
3
1
 
41
0.8
7
ROMANS
72
4
11
228.05044343992023
21
543
31
0
100
AcDbText
0
TEXT
5
5F
330
2C
100
AcDbEntity
8
CON
100
AcDbText
10
149.65044343992022
20
538.1428571428571
30
0
40
3
1
  
41
0.8
7
ROMANS
72
4
11
152.05044343992023
21
538.1428571428571
31
0
100
AcDbText
0
TEXT
5
60
330
2C
100
AcDbEntity
8
CON
100
AcDbText
10
149.65044343992022
20
533.2857142857142
30
0
40
3
1
  
41
0.8
7
ROMANS
72
4
11
152.05044343992023
21
533.2857142857142
31
0
100
AcDbText
0
TEXT
5
61
330
2C
100
AcDbEntity
8
CON
100
AcDbText
10
302.31480803271717
20
518.7294761890075
30
0
40
3
1
 
7
ROMANS
72
4
11
303.81480803271717
21
518.7294761890075
31
0
100
AcDbText
0
TEXT
5
62
330
2C
100
AcDbEntity
8
CON
100
AcDbText
10
323.31480803271717
20
374.7293007227439
30
0
40
3
1
 
7
ROMANS
72
4
11
324.81480803271717
21
374.7293007227439
31
0
100
AcDbText
0
TEXT
5
63
330
2C
100
AcDbEntity
8
CON
100
AcDbText
10
335.3652514726374
20
292.7294761890075
30
0
40
3
1
 
7
ROMANS
72
4
11
336.8652514726374
21
292.7294761890075
31
0
100
AcDbText
0
TEXT
5
64
330
2C
100
AcDbEntity
8
CON
100
AcDbText
10
302
20
409
30
0
40
4
1
 
7
STANDARD
72
4
11
304
21
409
31
0
100
AcDbText
0
TEXT
5
65
330
2C
100
AcDbEntity
8
CON
100
AcDbText
10
302.85044343992024
20
533.2857142857142
30
0
40
3
1
 
41
0.8
7
ROMANS
72
4
11
304.05044343992023
21
533.2857142857142
31
0
100
AcDbText
0
TEXT
5
66
330
2C
100
AcDbEntity
8
CON
100
AcDbText
10
302.85044343992024
20
538.1428571428571
30
0
40
3
1
 
41
0.8
7
ROMANS
72
4
11
304.05044343992023
21
538.1428571428571
31
0
100
AcDbText
0
TEXT
5
67
330
2C
100
AcDbEntity
8
CON
100
AcDbText
10
302.85044343992024
20
543
30
0
40
3
1
 
41
0.8
7
ROMANS
72
4
11
304.05044343992023
21
543
31
0
100
AcDbText
0
TEXT
5
68
330
2C
100
AcDbEntity
8
CON
100
AcDbText
10
319
20
368
30
0
40
3
1
 
41
4
7
ROMANS
72
5
11
331
21
368
31
0
100
AcDbText
0
TEXT
5
69
330
2C
100
AcDbEntity
8
CON
100
AcDbText
10
226.79999999999998
20
167
30
0
40
3
1
 
41
0.8
7
ROMANS
72
4
11
227.99999999999997
21
167
31
0
100
AcDbText
0
TEXT
5
6A
330
2C
100
AcDbEntity
8
CON
100
AcDbText
10
226.8
20
195
30
0
40
3
1
 
41
0.8
7
ROMANS
72
4
11
228
21
195
31
0
100
AcDbText
0
TEXT
5
6B
330
2C
100
AcDbEntity
8
CON
100
AcDbText
10
226.31480803271717
20
518.7294761890075
30
0
40
3
1
 
7
ROMANS
72
4
11
227.81480803271717
21
518.7294761890075
31
0
100
AcDbText
0
TEXT
5
6C
330
2C
100
AcDbEntity
8
CON
100
AcDbText
10
378.8
20
166.99999999999997
30
0
40
3
1
 
41
0.8
7
ROMANS
72
4
11
380
21
166.99999999999997
31
0
100
AcDbText
0
TEXT
5
6D
330
2C
100
AcDbEntity
8
CON
100
AcDbText
10
378.8
20
195
30
0
40
3
1
 
41
0.8
7
ROMANS
72
4
11
380
21
195
31
0
100
AcDbText
0
TEXT
5
6E
330
2C
100
AcDbEntity
8
CON
100
AcDbText
10
414.26436459279694
20
459.7293007227441
30
0
40
3
1
 
7
ROMANS
72
4
11
415.76436459279694
21
459.7293007227441
31
0
100
AcDbText
0
TEXT
5
6F
330
2C
100
AcDbEntity
8
CON
100
AcDbText
10
415.250640908259
20
454.40123929958537
30
0
40
3
1
 
7
ROMANS
72
4
11
416.750640908259
21
454.40123929958537
31
0
100
AcDbText
0
TEXT
5
70
330
2C
100
AcDbEntity
8
CON
100
AcDbText
10
378.85044343992024
20
538.1428571428571
30
0
40
3
1
 
41
0.8
7
ROMANS
72
4
11
380.05044343992023
21
538.1428571428571
31
0
100
AcDbText
0
TEXT
5
71
330
2C
100
AcDbEntity
8
CON
100
AcDbText
10
490.26436459279694
20
459.7293007227441
30
0
40
3
1
 
7
ROMANS
72
4
11
491.76436459279694
21
459.7293007227441
31
0
100
AcDbText
0
TEXT
5
72
330
2C
100
AcDbEntity
8
CON
100
AcDbText
10
491.250640908259
20
454.40123929958537
30
0
40
3
1
 
7
ROMANS
72
4
11
492.750640908259
21
454.40123929958537
31
0
100
AcDbText
0
TEXT
5
73
330
2C
100
AcDbEntity
8
CON
100
AcDbText
10
530.8
20
166.99999999999997
30
0
40
3
1
 
41
0.8
7
ROMANS
72
4
11
532
21
166.99999999999997
31
0
100
AcDbText
0
TEXT
5
74
330
2C
100
AcDbEntity
8
CON
100
AcDbText
10
530.8
20
195
30
0
40
3
1
 
41
0.8
7
ROMANS
72
4
11
532
21
195
31
0
100
AcDbText
0
TEXT
5
75
330
2C
100
AcDbEntity
8
CON
100
AcDbText
10
566.2643645927969
20
459.7293007227441
30
0
40
3
1
 
7
ROMANS
72
4
11
567.7643645927969
21
459.7293007227441
31
0
100
AcDbText
0
TEXT
5
76
330
2C
100
AcDbEntity
8
CON
100
AcDbText
10
567.250640908259
20
454.40123929958537
30
0
40
3
1
 
7
ROMANS
72
4
11
568.750640908259
21
454.40123929958537
31
0
100
AcDbText
0
TEXT
5
77
330
2C
100
AcDbEntity
8
CON
100
AcDbText
10
366.6
20
369
30
0
40
3
1
  
41
0.8
7
ROMANS
72
4
11
369
21
369
31
0
100
AcDbText
0
TEXT
5
78
330
2C
100
AcDbEntity
8
CON
100
AcDbText
10
110.25064090825903
20
454.4012392995854
30
0
40
3
1
 
7
ROMANS
72
4
11
111.75064090825903
21
454.4012392995854
31
0
100
AcDbText
0
TEXT
5
79
330
2C
100
AcDbEntity
8
CON
100
AcDbText
10
110.26436459279695
20
459.72930072274414
30
0
40
3
1
 
7
ROMANS
72
4
11
111.76436459279695
21
459.72930072274414
31
0
100
AcDbText
0
TEXT
5
7A
330
2C
100
AcDbEntity
8
CON
100
AcDbText
10
73.60000000000005
20
195.00000000000006
30
0
40
3
1
  
41
0.8
7
ROMANS
72
4
11
76.00000000000006
21
195.00000000000006
31
0
100
AcDbText
0
TEXT
5
7B
330
2C
100
AcDbEntity
8
CON
100
AcDbText
10
73.60000000000005
20
190.1428571428572
30
0
40
3
1
  
41
0.8
7
ROMANS
72
4
11
76.00000000000006
21
190.1428571428572
31
0
100
AcDbText
0
TEXT
5
7C
330
2C
100
AcDbEntity
8
CON
100
AcDbText
10
171
20
281.5714285714286
30
0
40
5
1
  
41
0.8
7
ROMANS
11
171
21
279.9047619047619
31
0
100
AcDbText
73
1
0
TEXT
5
7D
330
2C
100
AcDbEntity
8
CON
100
AcDbText
10
379.68146763548157
20
152.22001060654088
30
0
40
2.5
1
   
41
2.1399285319928367
7
STANDARD
72
5
11
395.73093162542784
21
152.22001060654088
31
0
100
AcDbText
0
TEXT
5
7E
330
2C
100
AcDbEntity
8
CON
100
AcDbText
10
41.861521350465416
20
144.02790685752257
30
0
40
2.5
1
 
41
0.9
7
STANDARD
11
41.861521350465416
21
143.19457352418922
31
0
100
AcDbText
73
1
0
LINE
5
7F
330
2C
100
AcDbEntity
8
HID
100
AcDbLine
10
2.4668889192781838
20
-33.08450356502783
30
0
11
113.21688891927842
21
-33.08450356502783
31
0
0
LINE
5
80
330
2C
100
AcDbEntity
8
HID
100
AcDbLine
10
23.21688891927841
20
-25.08241495743073
30
0
11
23.21688891927841
21
-195.23531357811146
31
0
0
LINE
5
81
330
2C
100
AcDbEntity
8
HID
100
AcDbLine
10
45.71688891927841
20
-25.08241495743073
30
0
11
45.71688891927842
21
-290.1828389147053
31
0
0
LINE
5
82
330
2C
100
AcDbEntity
8
HID
100
AcDbLine
10
68.21688891927842
20
-28.58450356502783
30
0
11
68.21688891927842
21
-290.02651877422016
31
0
0
LINE
5
83
330
2C
100
AcDbEntity
8
HID
100
AcDbLine
10
113.21688891927836
20
-28.58450356502783
30
0
11
113.21688891927842
21
-290.02651877422016
31
0
0
LINE
5
84
330
2C
100
AcDbEntity
8
HID
100
AcDbLine
10
374.2168889192784
20
-25.08241495743073
30
0
11
374.21688891927835
21
-105.08450356502783
31
0
0
LINE
5
85
330
2C
100
AcDbEntity
8
HID
100
AcDbLine
10
351.7168889192784
20
-25.08241495743073
30
0
11
351.71688891927846
21
-289.93612376257994
31
0
0
LINE
5
86
330
2C
100
AcDbEntity
8
HID
100
AcDbLine
10
311.2168889192784
20
-28.58450356502783
30
0
11
311.21688891927846
21
-290.055254490663
31
0
0
LINE
5
87
330
2C
100
AcDbEntity
8
HID
100
AcDbLine
10
311.2168889192784
20
-33.08450356502783
30
0
11
392.46688891928045
21
-33.08450356502783
31
0
0
LINE
5
88
330
2C
100
AcDbEntity
8
HID
100
AcDbLine
10
2.4668889192781838
20
-42.08450356502783
30
0
11
113.21688891927842
21
-42.08450356502783
31
0
0
LINE
5
89
330
2C
100
AcDbEntity
8
HID
100
AcDbLine
10
2.4668889192781838
20
-51.08450356502783
30
0
11
113.21688891927842
21
-51.08450356502783
31
0
0
LINE
5
8A
330
2C
100
AcDbEntity
8
HID
100
AcDbLine
10
2.4668889192781838
20
-60.08450356502783
30
0
11
113.21688891927842
21
-60.08450356502783
31
0
0
LINE
5
8B
330
2C
100
AcDbEntity
8
HID
100
AcDbLine
10
2.4668889192781838
20
-69.08450356502783
30
0
11
113.21688891927842
21
-69.08450356502783
31
0
0
LINE
5
8C
330
2C
100
AcDbEntity
8
HID
100
AcDbLine
10
2.4668889192781838
20
-78.08450356502783
30
0
11
113.21688891927842
21
-78.08450356502783
31
0
0
LINE
5
8D
330
2C
100
AcDbEntity
8
HID
100
AcDbLine
10
2.4668889192781838
20
-87.08450356502783
30
0
11
113.21688891927842
21
-87.08450356502783
31
0
0
LINE
5
8E
330
2C
100
AcDbEntity
8
HID
100
AcDbLine
10
2.4668889192781838
20
-96.08450356502783
30
0
11
113.21688891927842
21
-96.08450356502783
31
0
0
LINE
5
8F
330
2C
100
AcDbEntity
8
HID
100
AcDbLine
10
2.4668889192781838
20
-105.08450356502783
30
0
11
113.21688891927842
21
-105.08450356502783
31
0
0
LINE
5
90
330
2C
100
AcDbEntity
8
HID
100
AcDbLine
10
2.4668889192781838
20
-114.08450356502783
30
0
11
113.21688891927842
21
-114.08450356502783
31
0
0
LINE
5
91
330
2C
100
AcDbEntity
8
HID
100
AcDbLine
10
2.4668889192781838
20
-123.08450356502783
30
0
11
113.21688891927842
21
-123.0845035650278
31
0
0
LINE
5
92
330
2C
100
AcDbEntity
8
HID
100
AcDbLine
10
2.4668889192781838
20
-132.08450356502783
30
0
11
113.21688891927842
21
-132.08450356502783
31
0
0
LINE
5
93
330
2C
100
AcDbEntity
8
HID
100
AcDbLine
10
2.4668889192781838
20
-150.08450356502783
30
0
11
113.21688891927842
21
-150.08450356502783
31
0
0
LINE
5
94
330
2C
100
AcDbEntity
8
HID
100
AcDbLine
10
2.4668889192781838
20
-158.9118284297507
30
0
11
113.21688891927842
21
-158.9118284297507
31
0
0
LINE
5
95
330
2C
100
AcDbEntity
8
HID
100
AcDbLine
10
2.4668889192781838
20
-186.08450356502783
30
0
11
113.21688891927842
21
-186.08450356502783
31
0
0
LINE
5
96
330
2C
100
AcDbEntity
8
HID
100
AcDbLine
10
2.4668889192781838
20
-195.08450356502783
30
0
11
113.21688891927842
21
-195.08450356502783
31
0
0
LINE
5
97
330
2C
100
AcDbEntity
8
HID
100
AcDbLine
10
2.4668889192781838
20
-249.08450356502783
30
0
11
113.21688891927842
21
-249.08450356502783
31
0
0
LINE
5
98
330
2C
100
AcDbEntity
8
HID
100
AcDbLine
10
2.4668889192781838
20
-213.5444776299582
30
0
11
113.21688891927842
21
-213.5444776299582
31
0
0
LINE
5
99
330
2C
100
AcDbEntity
8
HID
100
AcDbLine
10
311.2168889192784
20
-42.08450356502783
30
0
11
392.46688891928045
21
-42.08450356502783
31
0
0
LINE
5
9A
330
2C
100
AcDbEntity
8
HID
100
AcDbLine
10
311.2168889192784
20
-51.08450356502783
30
0
11
392.46688891928045
21
-51.08450356502783
31
0
0
LINE
5
9B
330
2C
100
AcDbEntity
8
HID
100
AcDbLine
10
311.2168889192784
20
-60.08450356502783
30
0
11
392.46688891928045
21
-60.08450356502783
31
0
0
LINE
5
9C
330
2C
100
AcDbEntity
8
HID
100
AcDbLine
10
311.2168889192784
20
-69.08450356502783
30
0
11
392.46688891928045
21
-69.08450356502783
31
0
0
LINE
5
9D
330
2C
100
AcDbEntity
8
HID
100
AcDbLine
10
311.2168889192784
20
-87.08450356502783
30
0
11
392.46688891928045
21
-87.08450356502783
31
0
0
LINE
5
9E
330
2C
100
AcDbEntity
8
HID
100
AcDbLine
10
311.2168889192784
20
-96.08450356502783
30
0
11
392.46688891928045
21
-96.08450356502783
31
0
0
LINE
5
9F
330
2C
100
AcDbEntity
8
HID
100
AcDbLine
10
311.2168889192784
20
-105.08450356502783
30
0
11
392.46688891928045
21
-105.08450356502783
31
0
0
LINE
5
A0
330
2C
100
AcDbEntity
8
HID
100
AcDbLine
10
311.2168889192784
20
-123.0845035650278
30
0
11
392.46688891928045
21
-123.08450356502783
31
0
0
LINE
5
A1
330
2C
100
AcDbEntity
8
HID
100
AcDbLine
10
311.2168889192784
20
-132.08450356502783
30
0
11
392.46688891928045
21
-132.08450356502783
31
0
0
LINE
5
A2
330
2C
100
AcDbEntity
8
HID
100
AcDbLine
10
311.2168889192784
20
-141.0845035650278
30
0
11
392.46688891928045
21
-141.08450356502783
31
0
0
LINE
5
A3
330
2C
100
AcDbEntity
8
HID
100
AcDbLine
10
311.2168889192784
20
-150.08450356502783
30
0
11
392.46688891928045
21
-150.08450356502783
31
0
0
LINE
5
A4
330
2C
100
AcDbEntity
8
HID
100
AcDbLine
10
311.2168889192784
20
-159.08450356502783
30
0
11
392.46688891928045
21
-159.08450356502783
31
0
0
LINE
5
A5
330
2C
100
AcDbEntity
8
HID
100
AcDbLine
10
311.2168889192784
20
-168.08450356502783
30
0
11
392.46688891928045
21
-168.08450356502783
31
0
0
LINE
5
A6
330
2C
100
AcDbEntity
8
HID
100
AcDbLine
10
311.2168889192784
20
-186.08450356502783
30
0
11
392.46688891928045
21
-186.08450356502783
31
0
0
LINE
5
A7
330
2C
100
AcDbEntity
8
HID
100
AcDbLine
10
311.2168889192784
20
-249.08450356502783
30
0
11
392.46688891928045
21
-249.08450356502783
31
0
0
LINE
5
A8
330
2C
100
AcDbEntity
8
HID
100
AcDbLine
10
311.2168889192784
20
-258.08450356502783
30
0
11
392.46688891928045
21
-258.08450356502783
31
0
0
LINE
5
A9
330
2C
100
AcDbEntity
8
HID
100
AcDbLine
10
311.2168889192784
20
-267.08450356502783
30
0
11
392.46688891928045
21
-267.08450356502783
31
0
0
LINE
5
AA
330
2C
100
AcDbEntity
8
HID
100
AcDbLine
10
311.2168889192784
20
-213.58922927426266
30
0
11
392.46688891928045
21
-213.58922927426266
31
0
0
LINE
5
AB
330
2C
100
AcDbEntity
8
HID
100
AcDbLine
10
311.2168889192784
20
-204.08450356502783
30
0
11
392.46688891928045
21
-204.08450356502783
31
0
0
TEXT
5
AC
330
2C
100
AcDbEntity
8
CON
100
AcDbText
10
38.4073651097546
20
-38.83450356502783
30
0
40
2.5
1
 1
41
0.8
7
ROMANS
72
4
11
41.21688891927841
21
-37.58450356502783
31
0
100
AcDbText
0
TEXT
5
AD
330
2C
100
AcDbEntity
8
CON
100
AcDbText
10
38.26450796689746
20
-47.83450356502783
30
0
40
2.5
1
 2
41
0.8
7
ROMANS
72
4
11
41.21688891927841
21
-46.58450356502783
31
0
100
AcDbText
0
TEXT
5
AE
330
2C
100
AcDbEntity
8
CON
100
AcDbText
10
38.264507966897455
20
-56.83450356502783
30
0
40
2.5
1
 3
41
0.8
7
ROMANS
72
4
11
41.21688891927841
21
-55.58450356502783
31
0
100
AcDbText
0
TEXT
5
AF
330
2C
100
AcDbEntity
8
CON
100
AcDbText
10
38.21688891927841
20
-65.83450356502783
30
0
40
2.5
1
 4
41
0.8
7
ROMANS
72
4
11
41.21688891927841
21
-64.58450356502783
31
0
100
AcDbText
0
TEXT
5
B0
330
2C
100
AcDbEntity
8
CON
100
AcDbText
10
38.264507966897455
20
-74.83450356502783
30
0
40
2.5
1
 5
41
0.8
7
ROMANS
72
4
11
41.21688891927841
21
-73.58450356502783
31
0
100
AcDbText
0
LINE
5
B1
330
2C
100
AcDbEntity
8
HID
100
AcDbLine
10
36.71688891927841
20
-25.08241495743073
30
0
11
36.71688891927842
21
-290.02651877422016
31
0
0
TEXT
5
B2
330
2C
100
AcDbEntity
8
CON
100
AcDbText
10
38.21688891927841
20
-83.83450356502783
30
0
40
2.5
1
 6
41
0.8
7
ROMANS
72
4
11
41.21688891927841
21
-82.58450356502783
31
0
100
AcDbText
0
TEXT
5
B3
330
2C
100
AcDbEntity
8
CON
100
AcDbText
10
38.264507966897455
20
-92.83450356502783
30
0
40
2.5
1
 7
41
0.8
7
ROMANS
72
4
11
41.21688891927841
21
-91.58450356502783
31
0
100
AcDbText
0
TEXT
5
B4
330
2C
100
AcDbEntity
8
CON
100
AcDbText
10
38.264507966897455
20
-101.83450356502783
30
0
40
2.5
1
 8
41
0.8
7
ROMANS
72
4
11
41.21688891927841
21
-100.58450356502783
31
0
100
AcDbText
0
TEXT
5
B5
330
2C
100
AcDbEntity
8
CON
100
AcDbText
10
38.312127014516506
20
-110.83450356502783
30
0
40
2.5
1
 9
41
0.8
7
ROMANS
72
4
11
41.21688891927841
21
-109.58450356502783
31
0
100
AcDbText
0
TEXT
5
B6
330
2C
100
AcDbEntity
8
CON
100
AcDbText
10
39.16926987165936
20
-119.83450356502783
30
0
40
2.5
1
10
41
0.8
7
ROMANS
72
4
11
41.21688891927841
21
-118.58450356502783
31
0
100
AcDbText
0
TEXT
5
B7
330
2C
100
AcDbEntity
8
CON
100
AcDbText
10
39.45498415737365
20
-128.83450356502783
30
0
40
2.5
1
11
41
0.8
7
ROMANS
72
4
11
41.21688891927841
21
-127.58450356502783
31
0
100
AcDbText
0
TEXT
5
B8
330
2C
100
AcDbEntity
8
CON
100
AcDbText
10
39.16926987165937
20
-137.83450356502783
30
0
40
2.5
1
12
41
0.8
7
ROMANS
72
4
11
41.21688891927841
21
-136.58450356502783
31
0
100
AcDbText
0
TEXT
5
B9
330
2C
100
AcDbEntity
8
CON
100
AcDbText
10
39.16926987165937
20
-146.83450356502783
30
0
40
2.5
1
13
41
0.8
7
ROMANS
72
4
11
41.21688891927841
21
-145.58450356502783
31
0
100
AcDbText
0
TEXT
5
BA
330
2C
100
AcDbEntity
8
CON
100
AcDbText
10
39.121650824040316
20
-155.83450356502783
30
0
40
2.5
1
14
41
0.8
7
ROMANS
72
4
11
41.21688891927841
21
-154.58450356502783
31
0
100
AcDbText
0
TEXT
5
BB
330
2C
100
AcDbEntity
8
CON
100
AcDbText
10
39.16926987165937
20
-164.83450356502783
30
0
40
2.5
1
15
41
0.8
7
ROMANS
72
4
11
41.21688891927841
21
-163.58450356502783
31
0
100
AcDbText
0
TEXT
5
BC
330
2C
100
AcDbEntity
8
CON
100
AcDbText
10
39.16926987165937
20
-173.83450356502783
30
0
40
2.5
1
16
41
0.8
7
ROMANS
72
4
11
41.21688891927841
21
-172.58450356502783
31
0
100
AcDbText
0
TEXT
5
BD
330
2C
100
AcDbEntity
8
CON
100
AcDbText
10
39.16926987165937
20
-182.83450356502783
30
0
40
2.5
1
17
41
0.8
7
ROMANS
72
4
11
41.21688891927841
21
-181.58450356502783
31
0
100
AcDbText
0
TEXT
5
BE
330
2C
100
AcDbEntity
8
CON
100
AcDbText
10
39.16926987165937
20
-191.83450356502783
30
0
40
2.5
1
18
41
0.8
7
ROMANS
72
4
11
41.21688891927841
21
-190.58450356502783
31
0
100
AcDbText
0
TEXT
5
BF
330
2C
100
AcDbEntity
8
CON
100
AcDbText
10
39.21688891927841
20
-200.83450356502783
30
0
40
2.5
1
19
41
0.8
7
ROMANS
72
4
11
41.21688891927841
21
-199.58450356502783
31
0
100
AcDbText
0
TEXT
5
C0
330
2C
100
AcDbEntity
8
CON
100
AcDbText
10
39.312127014516506
20
-209.83450356502783
30
0
40
2.5
1
20
41
0.8
7
ROMANS
72
4
11
41.21688891927841
21
-208.58450356502783
31
0
100
AcDbText
0
TEXT
5
C1
330
2C
100
AcDbEntity
8
CON
100
AcDbText
10
39.59784130023079
20
-218.83450356502783
30
0
40
2.5
1
21
41
0.8
7
ROMANS
72
4
11
41.21688891927841
21
-217.58450356502783
31
0
100
AcDbText
0
TEXT
5
C2
330
2C
100
AcDbEntity
8
CON
100
AcDbText
10
39.312127014516506
20
-227.83450356502783
30
0
40
2.5
1
22
41
0.8
7
ROMANS
72
4
11
41.21688891927841
21
-226.58450356502783
31
0
100
AcDbText
0
TEXT
5
C3
330
2C
100
AcDbEntity
8
CON
100
AcDbText
10
39.312127014516506
20
-236.83450356502783
30
0
40
2.5
1
23
41
0.8
7
ROMANS
72
4
11
41.21688891927841
21
-235.58450356502783
31
0
100
AcDbText
0
TEXT
5
C4
330
2C
100
AcDbEntity
8
CON
100
AcDbText
10
39.26450796689746
20
-245.83450356502783
30
0
40
2.5
1
24
41
0.8
7
ROMANS
72
4
11
41.21688891927841
21
-244.58450356502783
31
0
100
AcDbText
0
TEXT
5
C5
330
2C
100
AcDbEntity
8
CON
100
AcDbText
10
39.312127014516506
20
-254.83450356502783
30
0
40
2.5
1
25
41
0.8
7
ROMANS
72
4
11
41.21688891927841
21
-253.58450356502783
31
0
100
AcDbText
0
TEXT
5
C6
330
2C
100
AcDbEntity
8
CON
100
AcDbText
10
39.312127014516506
20
-263.83450356502783
30
0
40
2.5
1
26
41
0.8
7
ROMANS
72
4
11
41.21688891927841
21
-262.58450356502783
31
0
100
AcDbText
0
TEXT
5
C7
330
2C
100
AcDbEntity
8
CON
100
AcDbText
10
39.312127014516506
20
-272.83450356502783
30
0
40
2.5
1
27
41
0.8
7
ROMANS
72
4
11
41.21688891927841
21
-271.58450356502783
31
0
100
AcDbText
0
TEXT
5
C8
330
2C
100
AcDbEntity
8
CON
100
AcDbText
10
39.312127014516506
20
-281.83450356502783
30
0
40
2.5
1
28
41
0.8
7
ROMANS
72
4
11
41.21688891927841
21
-280.58450356502783
31
0
100
AcDbText
0
LINE
5
C9
330
2C
100
AcDbEntity
8
HID
100
AcDbLine
10
311.2168889192784
20
-114.08450356502783
30
0
11
392.46688891928045
21
-114.08450356502783
31
0
0
LINE
5
CA
330
2C
100
AcDbEntity
8
HID
100
AcDbLine
10
360.7168889192784
20
-25.08241495743073
30
0
11
360.71688891927835
21
-290.055254490663
31
0
0
TEXT
5
CB
330
2C
100
AcDbEntity
8
CON
100
AcDbText
10
354.3121270145165
20
-272.83450356502783
30
0
40
2.5
1
77
41
0.8
7
ROMANS
72
4
11
356.2168889192784
21
-271.58450356502783
31
0
100
AcDbText
0
TEXT
5
CC
330
2C
100
AcDbEntity
8
CON
100
AcDbText
10
354.3121270145165
20
-263.83450356502783
30
0
40
2.5
1
76
41
0.8
7
ROMANS
72
4
11
356.2168889192784
21
-262.58450356502783
31
0
100
AcDbText
0
TEXT
5
CD
330
2C
100
AcDbEntity
8
CON
100
AcDbText
10
354.3121270145165
20
-254.83450356502783
30
0
40
2.5
1
75
41
0.8
7
ROMANS
72
4
11
356.2168889192784
21
-253.58450356502783
31
0
100
AcDbText
0
TEXT
5
CE
330
2C
100
AcDbEntity
8
CON
100
AcDbText
10
354.26450796689744
20
-245.83450356502783
30
0
40
2.5
1
74
41
0.8
7
ROMANS
72
4
11
356.2168889192784
21
-244.58450356502783
31
0
100
AcDbText
0
TEXT
5
CF
330
2C
100
AcDbEntity
8
CON
100
AcDbText
10
354.3121270145165
20
-236.83450356502783
30
0
40
2.5
1
73
41
0.8
7
ROMANS
72
4
11
356.2168889192784
21
-235.58450356502783
31
0
100
AcDbText
0
TEXT
5
D0
330
2C
100
AcDbEntity
8
CON
100
AcDbText
10
354.3121270145165
20
-227.83450356502783
30
0
40
2.5
1
72
41
0.8
7
ROMANS
72
4
11
356.2168889192784
21
-226.58450356502783
31
0
100
AcDbText
0
TEXT
5
D1
330
2C
100
AcDbEntity
8
CON
100
AcDbText
10
354.5978413002308
20
-218.83450356502783
30
0
40
2.5
1
71
41
0.8
7
ROMANS
72
4
11
356.2168889192784
21
-217.58450356502783
31
0
100
AcDbText
0
TEXT
5
D2
330
2C
100
AcDbEntity
8
CON
100
AcDbText
10
354.3121270145165
20
-209.83450356502783
30
0
40
2.5
1
70
41
0.8
7
ROMANS
72
4
11
356.2168889192784
21
-208.58450356502783
31
0
100
AcDbText
0
TEXT
5
D3
330
2C
100
AcDbEntity
8
CON
100
AcDbText
10
354.3121270145165
20
-200.83450356502783
30
0
40
2.5
1
69
41
0.8
7
ROMANS
72
4
11
356.2168889192784
21
-199.58450356502783
31
0
100
AcDbText
0
TEXT
5
D4
330
2C
100
AcDbEntity
8
CON
100
AcDbText
10
354.26450796689744
20
-191.83450356502783
30
0
40
2.5
1
68
41
0.8
7
ROMANS
72
4
11
356.2168889192784
21
-190.58450356502783
31
0
100
AcDbText
0
TEXT
5
D5
330
2C
100
AcDbEntity
8
CON
100
AcDbText
10
354.26450796689744
20
-182.83450356502783
30
0
40
2.5
1
67
41
0.8
7
ROMANS
72
4
11
356.2168889192784
21
-181.58450356502783
31
0
100
AcDbText
0
TEXT
5
D6
330
2C
100
AcDbEntity
8
CON
100
AcDbText
10
354.26450796689744
20
-173.83450356502783
30
0
40
2.5
1
66
41
0.8
7
ROMANS
72
4
11
356.2168889192784
21
-172.58450356502783
31
0
100
AcDbText
0
TEXT
5
D7
330
2C
100
AcDbEntity
8
CON
100
AcDbText
10
354.26450796689744
20
-164.83450356502783
30
0
40
2.5
1
65
41
0.8
7
ROMANS
72
4
11
356.2168889192784
21
-163.58450356502783
31
0
100
AcDbText
0
TEXT
5
D8
330
2C
100
AcDbEntity
8
CON
100
AcDbText
10
354.2168889192784
20
-155.83450356502783
30
0
40
2.5
1
64
41
0.8
7
ROMANS
72
4
11
356.2168889192784
21
-154.58450356502783
31
0
100
AcDbText
0
TEXT
5
D9
330
2C
100
AcDbEntity
8
CON
100
AcDbText
10
354.26450796689744
20
-146.83450356502783
30
0
40
2.5
1
63
41
0.8
7
ROMANS
72
4
11
356.2168889192784
21
-145.58450356502783
31
0
100
AcDbText
0
TEXT
5
DA
330
2C
100
AcDbEntity
8
CON
100
AcDbText
10
354.26450796689744
20
-137.83450356502783
30
0
40
2.5
1
62
41
0.8
7
ROMANS
72
4
11
356.2168889192784
21
-136.58450356502783
31
0
100
AcDbText
0
TEXT
5
DB
330
2C
100
AcDbEntity
8
CON
100
AcDbText
10
354.5502222526117
20
-128.83450356502783
30
0
40
2.5
1
61
41
0.8
7
ROMANS
72
4
11
356.2168889192784
21
-127.58450356502783
31
0
100
AcDbText
0
TEXT
5
DC
330
2C
100
AcDbEntity
8
CON
100
AcDbText
10
354.26450796689744
20
-119.83450356502783
30
0
40
2.5
1
60
41
0.8
7
ROMANS
72
4
11
356.2168889192784
21
-118.58450356502783
31
0
100
AcDbText
0
TEXT
5
DD
330
2C
100
AcDbEntity
8
CON
100
AcDbText
10
354.35974606213557
20
-110.83450356502783
30
0
40
2.5
1
59
41
0.8
7
ROMANS
72
4
11
356.2168889192784
21
-109.58450356502783
31
0
100
AcDbText
0
TEXT
5
DE
330
2C
100
AcDbEntity
8
CON
100
AcDbText
10
354.3121270145165
20
-101.83450356502783
30
0
40
2.5
1
58
41
0.8
7
ROMANS
72
4
11
356.2168889192784
21
-100.58450356502783
31
0
100
AcDbText
0
TEXT
5
DF
330
2C
100
AcDbEntity
8
CON
100
AcDbText
10
354.3121270145165
20
-92.83450356502783
30
0
40
2.5
1
57
41
0.8
7
ROMANS
72
4
11
356.2168889192784
21
-91.58450356502783
31
0
100
AcDbText
0
TEXT
5
E0
330
2C
100
AcDbEntity
8
CON
100
AcDbText
10
354.3121270145165
20
-83.83450356502783
30
0
40
2.5
1
56
41
0.8
7
ROMANS
72
4
11
356.2168889192784
21
-82.58450356502783
31
0
100
AcDbText
0
TEXT
5
E1
330
2C
100
AcDbEntity
8
CON
100
AcDbText
10
354.3121270145165
20
-74.83450356502783
30
0
40
2.5
1
55
41
0.8
7
ROMANS
72
4
11
356.2168889192784
21
-73.58450356502783
31
0
100
AcDbText
0
TEXT
5
E2
330
2C
100
AcDbEntity
8
CON
100
AcDbText
10
354.26450796689744
20
-65.83450356502783
30
0
40
2.5
1
54
41
0.8
7
ROMANS
72
4
11
356.2168889192784
21
-64.58450356502783
31
0
100
AcDbText
0
TEXT
5
E3
330
2C
100
AcDbEntity
8
CON
100
AcDbText
10
354.3121270145165
20
-56.83450356502783
30
0
40
2.5
1
53
41
0.8
7
ROMANS
72
4
11
356.2168889192784
21
-55.58450356502783
31
0
100
AcDbText
0
TEXT
5
E4
330
2C
100
AcDbEntity
8
CON
100
AcDbText
10
354.3121270145165
20
-47.83450356502783
30
0
40
2.5
1
52
41
0.8
7
ROMANS
72
4
11
356.2168889192784
21
-46.58450356502783
31
0
100
AcDbText
0
TEXT
5
E5
330
2C
100
AcDbEntity
8
CON
100
AcDbText
10
354.5978413002308
20
-38.83450356502783
30
0
40
2.5
1
51
41
0.8
7
ROMANS
72
4
11
356.2168889192784
21
-37.58450356502783
31
0
100
AcDbText
0
TEXT
5
E6
330
2C
100
AcDbEntity
8
CON
100
AcDbText
10
5.669269871659364
20
-29.83450356502783
30
0
40
2.5
1
FROM
41
0.8
7
ROMANS
72
4
11
9.71688891927841
21
-28.58450356502783
31
0
100
AcDbText
0
TEXT
5
E7
330
2C
100
AcDbEntity
8
CON
100
AcDbText
10
24.026272121375946
20
-29.988181897922193
30
0
40
2
1
LOCATION
41
0.8
7
ROMANS
11
24.026272121375946
21
-30.65484856458886
31
0
100
AcDbText
73
1
0
TEXT
5
E8
330
2C
100
AcDbEntity
8
CON
100
AcDbText
10
38.696969534199575
20
-30.949001429893997
30
0
40
2.5
1
NO.
41
0.8
7
ROMANS
72
4
11
41.268398105628144
21
-29.699001429893997
31
0
100
AcDbText
0
LINE
5
E9
330
2C
100
AcDbEntity
8
HID
100
AcDbLine
10
45.71688891927841
20
-28.58450356502783
30
0
11
351.7168889192784
21
-28.58450356502783
31
0
0
TEXT
5
EA
330
2C
100
AcDbEntity
8
CON
100
AcDbText
10
361.526272121376
20
-29.988181897922193
30
0
40
2
1
LOCATION
41
0.8
7
ROMANS
11
361.526272121376
21
-30.65484856458886
31
0
100
AcDbText
73
1
0
TEXT
5
EB
330
2C
100
AcDbEntity
8
CON
100
AcDbText
10
353.64546034784985
20
-29.83450356502783
30
0
40
2.5
1
NO.
41
0.8
7
ROMANS
72
4
11
356.2168889192784
21
-28.58450356502783
31
0
100
AcDbText
0
TEXT
5
EC
330
2C
100
AcDbEntity
8
CON
100
AcDbText
10
325.19318892922524
20
-32.42535853081722
30
0
40
2.5
1
SERVICE
41
0.8
7
ROMANS
72
4
11
331.2408079768443
21
-31.17535853081722
31
0
100
AcDbText
0
TEXT
5
ED
330
2C
100
AcDbEntity
8
CON
100
AcDbText
10
49.95514796844006
20
-32.38722440925915
30
0
40
2.5
1
TAG. NO. 
41
0.8
7
ROMANS
72
4
11
57.62181463510672
21
-31.137224409259147
31
0
100
AcDbText
0
TEXT
5
EE
330
2C
100
AcDbEntity
8
CON
100
AcDbText
10
83.18161145691715
20
-32.38722440925915
30
0
40
2.5
1
SERVICE
41
0.8
7
ROMANS
72
4
11
89.2292305045362
21
-31.137224409259147
31
0
100
AcDbText
0
TEXT
5
EF
330
2C
100
AcDbEntity
8
CON
100
AcDbText
10
172.9786518544594
20
-27.947164896578517
30
0
40
2.5
1
L     O     G     I     C  (I N T E R L O C K)
41
0.8
7
ROMANS
72
4
11
216.50246137826895
21
-26.875736325149944
31
0
100
AcDbText
0
TEXT
5
F0
330
2C
100
AcDbEntity
8
CON
100
AcDbText
10
381.5026032049927
20
-29.83450356502783
30
0
40
2.5
1
TO
41
0.8
7
ROMANS
72
4
11
383.2168889192784
21
-28.58450356502783
31
0
100
AcDbText
0
TEXT
5
F1
330
2C
100
AcDbEntity
8
CON
100
AcDbText
10
171
20
479.5714285714286
30
0
40
5
1
 
41
0.8
7
ROMANS
11
171
21
477.9047619047619
31
0
100
AcDbText
73
1
0
TEXT
5
F2
330
2C
100
AcDbEntity
8
CON
100
AcDbText
10
171
20
191.57142857142856
30
0
40
5
1
 
41
0.8
7
ROMANS
11
171
21
189.9047619047619
31
0
100
AcDbText
73
1
0
TEXT
5
F3
330
2C
100
AcDbEntity
8
CON
100
AcDbText
10
171
20
443.5714285714286
30
0
40
5
1
 
41
0.8
7
ROMANS
11
171
21
441.9047619047619
31
0
100
AcDbText
73
1
0
TEXT
5
F4
330
2C
100
AcDbEntity
8
CON
100
AcDbText
10
193.12926509186707
20
157.8455125793207
30
0
40
5
1
 
41
0.8
7
ROMANS
72
4
11
195.12926509186707
21
157.8455125793207
31
0
100
AcDbText
0
TEXT
5
F5
330
2C
100
AcDbEntity
8
CON
100
AcDbText
10
193.12926509186707
20
121.84551257932071
30
0
40
5
1
 
41
0.8
7
ROMANS
72
4
11
195.12926509186707
21
121.84551257932071
31
0
100
AcDbText
0
LINE
5
F6
330
2C
100
AcDbEntity
8
HID
100
AcDbLine
10
2.4668889192781838
20
-258.08450356502783
30
0
11
113.21688891927842
21
-258.08450356502783
31
0
0
LINE
5
F7
330
2C
100
AcDbEntity
8
HID
100
AcDbLine
10
311.2168889192784
20
-195.08450356502783
30
0
11
392.46688891928045
21
-195.08450356502783
31
0
0
LINE
5
F8
330
2C
100
AcDbEntity
8
HID
100
AcDbLine
10
311.2168889192784
20
-78.08450356502783
30
0
11
392.46688891928045
21
-78.08450356502783
31
0
0
LINE
5
F9
330
2C
100
AcDbEntity
8
HID
100
AcDbLine
10
23.21688891927841
20
-195.23531357811146
30
0
11
23.216888919278418
21
-249.08450356502783
31
0
0
LINE
5
FA
330
2C
100
AcDbEntity
8
HID
100
AcDbLine
10
374.21688891927835
20
-105.08450356502783
30
0
11
374.2168889192784
21
-289.81699376320097
31
0
0
LINE
5
FB
330
2C
100
AcDbEntity
8
HID
100
AcDbLine
10
2.4668889192781838
20
-139.94557497180557
30
0
11
113.21688891927842
21
-139.94557497180557
31
0
0
LINE
5
FC
330
2C
100
AcDbEntity
8
HID
100
AcDbLine
10
2.4668889192781838
20
-204.3391285393707
30
0
11
113.21688891927842
21
-204.3391285393707
31
0
0
LINE
5
FD
330
2C
100
AcDbEntity
8
HID
100
AcDbLine
10
23.21688891927841
20
-249.08450356502783
30
0
11
23.21688891927841
21
-289.8701993624391
31
0
0
LINE
5
FE
330
2C
100
AcDbEntity
8
HID
100
AcDbLine
10
2.4668889192781838
20
-177.90808188261028
30
0
11
113.21688891927842
21
-177.90808188261028
31
0
0
LINE
5
FF
330
2C
100
AcDbEntity
8
HID
100
AcDbLine
10
2.4668889192781838
20
-267.08450356502783
30
0
11
113.21688891927842
21
-267.08450356502783
31
0
0
LINE
5
100
330
2C
100
AcDbEntity
8
HID
100
AcDbLine
10
311.2168889192784
20
-222.08450356502783
30
0
11
392.46688891928045
21
-222.08450356502786
31
0
0
LINE
5
101
330
2C
100
AcDbEntity
8
HID
100
AcDbLine
10
311.2168889192784
20
-231.08450356502783
30
0
11
392.46688891928045
21
-231.08450356502786
31
0
0
LINE
5
102
330
2C
100
AcDbEntity
8
HID
100
AcDbLine
10
311.2168889192784
20
-177.96122473451487
30
0
11
392.46688891928045
21
-177.96122473451487
31
0
0
LINE
5
103
330
2C
100
AcDbEntity
8
HID
100
AcDbLine
10
2.4668889192781838
20
-231.2766642039272
30
0
11
113.21688891927842
21
-231.2766642039272
31
0
0
LINE
5
104
330
2C
100
AcDbEntity
8
HID
100
AcDbLine
10
2.4668889192781838
20
-222.59375351371358
30
0
11
113.21688891927842
21
-222.59375351371358
31
0
0
TEXT
5
105
330
2C
100
AcDbEntity
8
CON
100
AcDbText
10
354.3121270145165
20
-281.736994410657
30
0
40
2.5
1
78
41
0.8
7
ROMANS
72
4
11
356.2168889192784
21
-280.486994410657
31
0
100
AcDbText
0
INSERT
5
107
330
2C
100
AcDbEntity
8
CON
100
AcDbBlockReference
2
WMF6
10
0
20
0
30
0
0
LINE
5
108
330
2C
100
AcDbEntity
8
HID
100
AcDbLine
10
2.4668889192781838
20
-168.9147585730194
30
0
11
113.21688891927842
21
-168.9147585730194
31
0
0
LINE
5
109
330
2C
100
AcDbEntity
8
HID
100
AcDbLine
10
311.2168889192784
20
-240.4527088399259
30
0
11
392.46688891928045
21
-240.4527088399259
31
0
0
LINE
5
10A
330
2C
100
AcDbEntity
8
HID
100
AcDbLine
10
311.2168889192784
20
-276.68193185493385
30
0
11
392.46688891928045
21
-276.68193185493385
31
0
0
LINE
5
10B
330
2C
100
AcDbEntity
8
HID
100
AcDbLine
10
2.4668889192781838
20
-276.38491788808744
30
0
11
113.21688891927842
21
-276.38491788808744
31
0
0
LINE
5
10C
330
2C
100
AcDbEntity
8
HID
100
AcDbLine
10
2.4668889192781838
20
-240.04841597335871
30
0
11
113.21688891927842
21
-240.04841597335871
31
0
0
INSERT
5
10E
330
2C
100
AcDbEntity
8
CON
100
AcDbBlockReference
2
test
10
0
20
0
30
0
0
TEXT
5
10F
330
2C
100
AcDbEntity
8
TXT1
100
AcDbText
10
8.328751713971307
20
-65.50217447459241
30
0
40
2.2
1
10-64
41
0.7
7
ROMANS
11
8.328751713971307
21
-64.40217447459241
31
0
100
AcDbText
73
2
0
TEXT
5
110
330
2C
100
AcDbEntity
8
TXT1
100
AcDbText
10
8.328751713971307
20
-74.59720807402928
30
0
40
2.2
1
16-53
41
0.7
7
ROMANS
11
8.328751713971307
21
-73.49720807402929
31
0
100
AcDbText
73
2
0
TEXT
5
111
330
2C
100
AcDbEntity
8
TXT1
100
AcDbText
10
8.328751713971307
20
-119.58329402044913
30
0
40
2.2
1
08-55
41
0.7
7
ROMANS
11
8.328751713971307
21
-118.48329402044914
31
0
100
AcDbText
73
2
0
TEXT
5
112
330
2C
100
AcDbEntity
8
TXT1
100
AcDbText
10
69.87363961163989
20
-63.75688799130584
30
0
40
2.2
1
IGNITER A IN INSERT POSITION
41
0.7
7
ROMANS
11
69.87363961163989
21
-62.65688799130584
31
0
100
AcDbText
73
2
0
TEXT
5
113
330
2C
100
AcDbEntity
8
TXT1
100
AcDbText
10
69.73943146771468
20
-226.24119307489755
30
0
40
2.2
1
BURNER A OIL FV
41
0.7
7
ROMANS
11
69.73943146771468
21
-225.14119307489756
31
0
100
AcDbText
73
2
0
TEXT
5
114
330
2C
100
AcDbEntity
8
TXT1
100
AcDbText
10
69.64958509694863
20
-230.0111829502803
30
0
40
2.2
1
IGNITION POSITION
41
0.7
7
ROMANS
11
69.64958509694863
21
-228.9111829502803
31
0
100
AcDbText
73
2
0
TEXT
5
115
330
2C
100
AcDbEntity
8
TXT1
100
AcDbText
10
313.0805892235064
20
-257.01223985635846
30
0
40
2.2
1
(SUPPLY LINE)
41
0.7
7
ROMANS
11
313.0805892235064
21
-255.91223985635844
31
0
100
AcDbText
73
2
0
TEXT
5
116
330
2C
100
AcDbEntity
8
TXT1
100
AcDbText
10
312.9001634262486
20
-253.0231460479295
30
0
40
2.2
1
OPEN BURNER A OIL VALVE
41
0.7
7
ROMANS
11
312.9001634262486
21
-251.9231460479295
31
0
100
AcDbText
73
2
0
LINE
5
117
330
2C
100
AcDbEntity
8
CON
100
AcDbLine
10
192.18718663933504
20
-93.8101722863812
30
0
11
192.18718663933504
21
-102.69607415406094
31
0
0
LWPOLYLINE
5
118
330
2C
100
AcDbEntity
8
CON
100
AcDbPolyline
90
2
70
0
43
1
10
183.1871866393351
20
-91.62778665091508
40
1
41
1
10
183.1871866393351
20
-105.2435092329336
40
1
41
1
0
LINE
5
119
330
2C
100
AcDbEntity
8
CON
100
AcDbLine
10
192.18718663933498
20
-102.69607415406097
30
0
11
183.1871866393351
21
-102.69607415406097
31
0
0
TEXT
5
11A
330
2C
100
AcDbEntity
8
CON
100
AcDbText
10
184.87766282981124
20
-99.60283882250832
30
0
40
2.5
1
AND
41
0.8
7
ROMANS
72
4
11
187.68718663933504
21
-98.35283882250832
31
0
100
AcDbText
0
LINE
5
11B
330
2C
100
AcDbEntity
8
CON
100
AcDbLine
10
183.1871866393351
20
-93.8013353051341
30
0
11
192.18718663933498
21
-93.8013353051341
31
0
0
SOLID
5
11C
330
2C
100
AcDbEntity
8
CON
100
AcDbTrace
10
308.2168889192784
20
-199.00809554560226
30
0
11
308.2168889192784
21
-200.00809554560226
31
0
12
311.2168889192784
22
-199.50809554560226
32
0
13
311.2168889192784
23
-199.50809554560226
33
0
0
TEXT
5
11D
330
2C
100
AcDbEntity
8
TXT1
100
AcDbText
10
8.630128339772007
20
-283.2562759013694
30
0
40
2.2
1
14-71
41
0.7
7
ROMANS
11
8.630128339772007
21
-282.1562759013694
31
0
100
AcDbText
73
2
0
TEXT
5
11E
330
2C
100
AcDbEntity
8
TXT1
100
AcDbText
10
8.663564085919468
20
-263.7080615584893
30
0
40
2.2
1
07-71
41
0.7
7
ROMANS
11
8.663564085919468
21
-262.6080615584893
31
0
100
AcDbText
73
2
0
TEXT
5
11F
330
2C
100
AcDbEntity
8
TXT1
100
AcDbText
10
69.87209827989888
20
-45.701963294710175
30
0
40
2.2
1
BURNER A LIGHTING CYCLE
41
0.7
7
ROMANS
11
69.87209827989888
21
-44.601963294710174
31
0
100
AcDbText
73
2
0
LINE
5
120
330
2C
100
AcDbEntity
8
CON
100
AcDbLine
10
309.3476947955669
20
-199.50809554560226
30
0
11
259.4378668249442
21
-199.51477881374922
31
0
0
LINE
5
121
330
2C
100
AcDbEntity
8
CON
100
AcDbLine
10
214.44291649695214
20
-248.5185702339777
30
0
11
214.44291649695214
21
-257.4044721016574
31
0
0
LWPOLYLINE
5
122
330
2C
100
AcDbEntity
8
CON
100
AcDbPolyline
90
2
70
0
43
1
10
205.4429164969522
20
-242.8305926469465
40
1
41
1
10
205.4429164969522
20
-265.3319383886506
40
1
41
1
0
LINE
5
123
330
2C
100
AcDbEntity
8
CON
100
AcDbLine
10
214.44291649695208
20
-257.40447210165746
30
0
11
205.4429164969522
21
-257.40447210165746
31
0
0
TEXT
5
124
330
2C
100
AcDbEntity
8
CON
100
AcDbText
10
207.13339268742834
20
-254.60066690440914
30
0
40
2.5
1
AND
41
0.8
7
ROMANS
72
4
11
209.94291649695214
21
-253.35066690440914
31
0
100
AcDbText
0
LINE
5
125
330
2C
100
AcDbEntity
8
CON
100
AcDbLine
10
205.4429164969522
20
-248.5097332527306
30
0
11
214.44291649695208
21
-248.5097332527306
31
0
0
LINE
5
126
330
2C
100
AcDbEntity
8
CON
100
AcDbLine
10
193.87714842593317
20
-212.9760190413865
30
0
11
193.87714842593317
21
-221.86192090906624
31
0
0
LWPOLYLINE
5
127
330
2C
100
AcDbEntity
8
CON
100
AcDbPolyline
90
2
70
0
43
1
10
184.87714842593323
20
-206.20563411871336
40
1
41
1
10
184.87714842593323
20
-229.75197428327834
40
1
41
1
0
LINE
5
128
330
2C
100
AcDbEntity
8
CON
100
AcDbLine
10
193.87714842593311
20
-221.86192090906627
30
0
11
184.87714842593323
21
-221.86192090906627
31
0
0
TEXT
5
129
330
2C
100
AcDbEntity
8
CON
100
AcDbText
10
186.56762461640938
20
-219.05811571181792
30
0
40
2.5
1
AND
41
0.8
7
ROMANS
72
4
11
189.37714842593317
21
-217.80811571181792
31
0
100
AcDbText
0
LINE
5
12A
330
2C
100
AcDbEntity
8
CON
100
AcDbLine
10
184.87714842593323
20
-212.9671820601394
30
0
11
193.87714842593311
21
-212.9671820601394
31
0
0
SOLID
5
12B
330
2C
100
AcDbEntity
8
CON
100
AcDbTrace
10
308.169596547747
20
-252.96726627601788
30
0
11
308.169596547747
21
-253.96726627601788
31
0
12
311.169596547747
22
-253.46726627601788
32
0
13
311.169596547747
23
-253.46726627601788
33
0
0
SOLID
5
12C
330
2C
100
AcDbEntity
8
CON
100
AcDbTrace
10
181.36119742282224
20
-208.84618304290143
30
0
11
181.36119742282224
21
-209.84618304290143
31
0
12
184.36119742282224
22
-209.34618304290143
32
0
13
184.36119742282224
23
-209.34618304290143
33
0
0
LINE
5
12D
330
2C
100
AcDbEntity
8
CON
100
AcDbLine
10
186.78781806334018
20
-72.19351366444164
30
0
11
189.78781806334018
21
-75.19351366444164
31
0
0
LINE
5
12E
330
2C
100
AcDbEntity
8
CON
100
AcDbLine
10
189.78781806334018
20
-72.19351366444164
30
0
11
186.78781806334018
21
-75.19351366444164
31
0
0
LINE
5
12F
330
2C
100
AcDbEntity
8
CON
100
AcDbLine
10
189.78781806334018
20
-75.19351366444164
30
0
11
186.78781806334018
21
-75.19351366444164
31
0
0
LINE
5
130
330
2C
100
AcDbEntity
8
CON
100
AcDbLine
10
189.78781806334018
20
-72.19351366444164
30
0
11
189.78781806334018
21
-75.19351366444164
31
0
0
LINE
5
131
330
2C
100
AcDbEntity
8
CON
100
AcDbLine
10
186.78781806334018
20
-72.19351366444164
30
0
11
189.78781806334018
21
-72.19351366444164
31
0
0
LINE
5
132
330
2C
100
AcDbEntity
8
CON
100
AcDbLine
10
186.78781806334018
20
-75.19351366444164
30
0
11
186.78781806334018
21
-72.19351366444164
31
0
0
TEXT
5
133
330
2C
100
AcDbEntity
8
CON
100
AcDbText
10
185.85572056884274
20
-71.05887864380065
30
0
40
2.5
1
NOT
41
0.8
7
ROMANS
72
4
11
188.85572056884274
21
-69.80887864380065
31
0
100
AcDbText
0
TEXT
5
134
330
2C
100
AcDbEntity
8
TXT1
100
AcDbText
10
8.328751713971307
20
-47.45948259381968
30
0
40
2.2
1
12-62
41
0.7
7
ROMANS
11
8.328751713971307
21
-46.35948259381968
31
0
100
AcDbText
73
2
0
TEXT
5
135
330
2C
100
AcDbEntity
8
TXT1
100
AcDbText
10
69.87922311139097
20
-73.07351312845029
30
0
40
2.2
1
BURNER A IN INSERT POSITION
41
0.7
7
ROMANS
11
69.87922311139097
21
-71.97351312845029
31
0
100
AcDbText
73
2
0
TEXT
5
136
330
2C
100
AcDbEntity
8
TXT1
100
AcDbText
10
69.8449888744956
20
-117.89704145959823
30
0
40
2.2
1
BURNER A PURGE VALVE CLOSED
41
0.7
7
ROMANS
11
69.8449888744956
21
-116.79704145959823
31
0
100
AcDbText
73
2
0
TEXT
5
137
330
2C
100
AcDbEntity
8
TXT1
100
AcDbText
10
69.68327323286304
20
-253.0339811488016
30
0
40
2.2
1
ENERGIZE IGNITER A TRANS.
41
0.7
7
ROMANS
11
69.68327323286304
21
-251.9339811488016
31
0
100
AcDbText
73
2
0
TEXT
5
138
330
2C
100
AcDbEntity
8
TXT1
100
AcDbText
10
69.8964550641572
20
-261.8652281617099
30
0
40
2.2
1
BURNER A OIL & ATOM. AIR
41
0.7
7
ROMANS
11
69.8964550641572
21
-260.7652281617099
31
0
100
AcDbText
73
2
0
TEXT
5
139
330
2C
100
AcDbEntity
8
TXT1
100
AcDbText
10
69.85328246416249
20
-265.91454342522087
30
0
40
2.2
1
VALVE OPENED
41
0.7
7
ROMANS
11
69.85328246416249
21
-264.81454342522085
31
0
100
AcDbText
73
2
0
TEXT
5
13A
330
2C
100
AcDbEntity
8
TXT1
100
AcDbText
10
312.8621108545817
20
-64.07983433399059
30
0
40
2.2
1
INSERT BURNER A COMMAND
41
0.7
7
ROMANS
11
312.8621108545817
21
-62.979834333990595
31
0
100
AcDbText
73
2
0
TEXT
5
13B
330
2C
100
AcDbEntity
8
TXT1
100
AcDbText
10
312.99736001494307
20
-198.8533861157587
30
0
40
2.2
1
SET BURNER A OIL FV
41
0.7
7
ROMANS
11
312.99736001494307
21
-197.7533861157587
31
0
100
AcDbText
73
2
0
TEXT
5
13C
330
2C
100
AcDbEntity
8
TXT1
100
AcDbText
10
312.89541864233456
20
-202.84162280728654
30
0
40
2.2
1
TO IGNITER POSITION
41
0.7
7
ROMANS
11
312.89541864233456
21
-201.74162280728655
31
0
100
AcDbText
73
2
0
TEXT
5
13D
330
2C
100
AcDbEntity
8
TXT1
100
AcDbText
10
312.87004451107714
20
-216.95054623798094
30
0
40
2.2
1
ENERGIZE IGNITER A TRANS.
41
0.7
7
ROMANS
11
312.87004451107714
21
-215.85054623798095
31
0
100
AcDbText
73
2
0
TEXT
5
13E
330
2C
100
AcDbEntity
8
TXT1
100
AcDbText
10
312.8767695490162
20
-220.71057618608418
30
0
40
2.2
1
(BURNER A LIGHTING CYCLE)
41
0.7
7
ROMANS
11
312.8767695490162
21
-219.6105761860842
31
0
100
AcDbText
73
2
0
TEXT
5
13F
330
2C
100
AcDbEntity
8
TXT1
100
AcDbText
10
378.2181627082614
20
-218.62037964812114
30
0
40
2.2
1
10-17
41
0.7
7
ROMANS
11
378.2181627082614
21
-217.52037964812115
31
0
100
AcDbText
73
2
0
TEXT
5
140
330
2C
100
AcDbEntity
8
TXT1
100
AcDbText
10
375.4270661539142
20
-199.3004528206823
30
0
40
2.2
1
ABC-003A,3B
41
0.7
7
ROMANS
11
375.4270661539142
21
-198.2004528206823
31
0
100
AcDbText
73
2
0
LINE
5
141
330
2C
100
AcDbEntity
8
CON
100
AcDbLine
10
113.15691427983576
20
-46.47312317593526
30
0
11
133.10834066057237
21
-46.47312317593526
31
0
0
LINE
5
142
330
2C
100
AcDbEntity
8
CON
100
AcDbLine
10
142.6521722211691
20
-51.15591647331985
30
0
11
142.6521722211691
21
-60.04181834099958
31
0
0
LWPOLYLINE
5
143
330
2C
100
AcDbEntity
8
CON
100
AcDbPolyline
90
2
70
0
43
1
10
133.65217222116917
20
-44.1454847757488
40
1
41
1
10
133.65217222116917
20
-67.34547773678986
40
1
41
1
0
LINE
5
144
330
2C
100
AcDbEntity
8
CON
100
AcDbLine
10
142.65217222116905
20
-60.04181834099961
30
0
11
133.65217222116917
21
-60.04181834099961
31
0
0
TEXT
5
145
330
2C
100
AcDbEntity
8
CON
100
AcDbText
10
135.3426484116453
20
-57.23801314375123
30
0
40
2.5
1
AND
41
0.8
7
ROMANS
72
4
11
138.1521722211691
21
-55.98801314375123
31
0
100
AcDbText
0
LINE
5
146
330
2C
100
AcDbEntity
8
CON
100
AcDbLine
10
133.65217222116917
20
-51.14707949207275
30
0
11
142.65217222116905
21
-51.14707949207275
31
0
0
LINE
5
147
330
2C
100
AcDbEntity
8
CON
100
AcDbLine
10
113.21425061541028
20
-64.56367957069585
30
0
11
133.1679202532307
21
-64.56367957069585
31
0
0
LINE
5
148
330
2C
100
AcDbEntity
8
CON
100
AcDbLine
10
113.24725730471052
20
-73.6920801348349
30
0
11
185.28244690662473
21
-73.6920801348349
31
0
0
LINE
5
149
330
2C
100
AcDbEntity
8
CON
100
AcDbLine
10
142.71094705900282
20
-55.80353759954323
30
0
11
204.87375824869468
21
-55.80353759954323
31
0
0
LINE
5
14A
330
2C
100
AcDbEntity
8
CON
100
AcDbLine
10
216.03339532627018
20
-59.76005814499524
30
0
11
216.03339532627018
21
-68.64596001267498
31
0
0
LWPOLYLINE
5
14B
330
2C
100
AcDbEntity
8
CON
100
AcDbPolyline
90
2
70
0
43
1
10
207.03339532627024
20
-52.317212688921074
40
1
41
1
10
207.03339532627024
20
-77.26137206958396
40
1
41
1
0
LINE
5
14C
330
2C
100
AcDbEntity
8
CON
100
AcDbLine
10
216.03339532627012
20
-68.645960012675
30
0
11
207.03339532627024
21
-68.645960012675
31
0
0
TEXT
5
14D
330
2C
100
AcDbEntity
8
CON
100
AcDbText
10
208.72387151674639
20
-65.84215481542662
30
0
40
2.5
1
AND
41
0.8
7
ROMANS
72
4
11
211.53339532627018
21
-64.59215481542662
31
0
100
AcDbText
0
LINE
5
14E
330
2C
100
AcDbEntity
8
CON
100
AcDbLine
10
207.03339532627024
20
-59.75122116374814
30
0
11
216.03339532627012
21
-59.75122116374814
31
0
0
LINE
5
14F
330
2C
100
AcDbEntity
8
CON
100
AcDbLine
10
311.153339455524
20
-64.54758463677592
30
0
11
252.0438618530609
21
-64.54758463677592
31
0
0
LINE
5
150
330
2C
100
AcDbEntity
8
CON
100
AcDbLine
10
189.75700522482862
20
-73.748414749071
30
0
11
204.63188969555995
21
-73.748414749071
31
0
0
LINE
5
151
330
2C
100
AcDbEntity
8
CON
100
AcDbLine
10
113.22718569271593
20
-118.30324020077512
30
0
11
204.94191791057392
21
-118.30324020077512
31
0
0
LINE
5
152
330
2C
100
AcDbEntity
8
CON
100
AcDbLine
10
216.03339532627018
20
-103.50439664009775
30
0
11
216.03339532627018
21
-112.39029850777749
31
0
0
LWPOLYLINE
5
153
330
2C
100
AcDbEntity
8
CON
100
AcDbPolyline
90
2
70
0
43
1
10
207.03339532627024
20
-96.6590137152732
40
1
41
1
10
207.03339532627024
20
-120.01071597903046
40
1
41
1
0
LINE
5
154
330
2C
100
AcDbEntity
8
CON
100
AcDbLine
10
216.03339532627012
20
-112.39029850777752
30
0
11
207.03339532627024
21
-112.39029850777752
31
0
0
TEXT
5
155
330
2C
100
AcDbEntity
8
CON
100
AcDbText
10
208.72387151674639
20
-109.58649331052914
30
0
40
2.5
1
AND
41
0.8
7
ROMANS
72
4
11
211.53339532627018
21
-108.33649331052914
31
0
100
AcDbText
0
LINE
5
156
330
2C
100
AcDbEntity
8
CON
100
AcDbLine
10
207.03339532627024
20
-103.49555965885065
30
0
11
216.03339532627012
21
-103.49555965885065
31
0
0
LINE
5
157
330
2C
100
AcDbEntity
8
CON
100
AcDbLine
10
169.36120989934625
20
-55.828692481693224
30
0
11
169.36120989934625
21
-93.8949132653803
31
0
0
LINE
5
158
330
2C
100
AcDbEntity
8
CON
100
AcDbLine
10
204.54759777199956
20
-98.5816796826075
30
0
11
192.11297406589233
21
-98.5816796826075
31
0
0
LINE
5
159
330
2C
100
AcDbEntity
8
CON
100
AcDbLine
10
182.6276020828118
20
-93.88620436277984
30
0
11
169.35797137002214
21
-93.88620436277984
31
0
0
LINE
5
15A
330
2C
100
AcDbEntity
8
CON
100
AcDbLine
10
182.69026096123594
20
-102.72500401011757
30
0
11
160.16910570000596
21
-102.72500401011757
31
0
0
LINE
5
15B
330
2C
100
AcDbEntity
8
CON
100
AcDbLine
10
160.16910570000596
20
-102.72500401011757
30
0
11
160.16910570000596
21
-73.72293696748898
31
0
0
LWPOLYLINE
5
15C
330
2C
100
AcDbEntity
8
CON
100
AcDbPolyline
90
2
70
1
43
0.75
10
159.79410570000596
20
-73.72293696748898
40
0.75
41
0.75
42
1
10
160.54410570000596
20
-73.72293696748898
40
0.75
41
0.75
42
1
0
LWPOLYLINE
5
15D
330
2C
100
AcDbEntity
8
CON
100
AcDbPolyline
90
2
70
1
43
0.75
10
168.98620989934625
20
-55.828692481693224
40
0.75
41
0.75
42
1
10
169.73620989934625
20
-55.828692481693224
40
0.75
41
0.75
42
1
0
SOLID
5
15E
330
2C
100
AcDbEntity
8
CON
100
AcDbTrace
10
203.5459532944385
20
-55.30353759954323
30
0
11
203.5459532944385
21
-56.30353759954323
31
0
12
206.5459532944385
22
-55.80353759954323
32
0
13
206.5459532944385
23
-55.80353759954323
33
0
0
SOLID
5
15F
330
2C
100
AcDbEntity
8
CON
100
AcDbTrace
10
203.53250413738442
20
-73.248414749071
30
0
11
203.53250413738442
21
-74.248414749071
31
0
12
206.53250413738442
22
-73.748414749071
32
0
13
206.53250413738442
23
-73.748414749071
33
0
0
SOLID
5
160
330
2C
100
AcDbEntity
8
CON
100
AcDbTrace
10
130.10834066057237
20
-45.97312317593526
30
0
11
130.10834066057237
21
-46.97312317593526
31
0
12
133.10834066057237
22
-46.47312317593526
32
0
13
133.10834066057237
23
-46.47312317593526
33
0
0
SOLID
5
161
330
2C
100
AcDbEntity
8
CON
100
AcDbTrace
10
130.1679202532307
20
-64.06367957069585
30
0
11
130.1679202532307
21
-65.06367957069585
31
0
12
133.1679202532307
22
-64.56367957069585
32
0
13
133.1679202532307
23
-64.56367957069585
33
0
0
SOLID
5
162
330
2C
100
AcDbEntity
8
CON
100
AcDbTrace
10
179.6276020828118
20
-93.38620436277984
30
0
11
179.6276020828118
21
-94.38620436277984
31
0
12
182.6276020828118
22
-93.88620436277984
32
0
13
182.6276020828118
23
-93.88620436277984
33
0
0
SOLID
5
163
330
2C
100
AcDbEntity
8
CON
100
AcDbTrace
10
179.69026096123594
20
-102.22500401011757
30
0
11
179.69026096123594
21
-103.22500401011757
31
0
12
182.69026096123594
22
-102.72500401011757
32
0
13
182.69026096123594
23
-102.72500401011757
33
0
0
SOLID
5
164
330
2C
100
AcDbEntity
8
CON
100
AcDbTrace
10
203.49366082548636
20
-98.0816796826075
30
0
11
203.49366082548636
21
-99.0816796826075
31
0
12
206.49366082548636
22
-98.5816796826075
32
0
13
206.49366082548636
23
-98.5816796826075
33
0
0
SOLID
5
165
330
2C
100
AcDbEntity
8
CON
100
AcDbTrace
10
203.54739687191386
20
-117.80324020077512
30
0
11
203.54739687191386
21
-118.80324020077512
31
0
12
206.54739687191386
22
-118.30324020077512
32
0
13
206.54739687191386
23
-118.30324020077512
33
0
0
SOLID
5
166
330
2C
100
AcDbEntity
8
CON
100
AcDbTrace
10
183.78781806334018
20
-73.248414749071
30
0
11
183.78781806334018
21
-74.248414749071
31
0
12
186.78781806334018
22
-73.748414749071
32
0
13
186.78781806334018
23
-73.748414749071
33
0
0
LINE
5
167
330
2C
100
AcDbEntity
8
CON
100
AcDbLine
10
216.07344346571654
20
-107.99293702189857
30
0
11
224.70632074663558
21
-107.99293702189857
31
0
0
LINE
5
168
330
2C
100
AcDbEntity
8
CON
100
AcDbLine
10
224.70632074663558
20
-107.99293702189857
30
0
11
224.70632074663558
21
-155.7740313043405
31
0
0
LINE
5
169
330
2C
100
AcDbEntity
8
CON
100
AcDbLine
10
224.70632074663558
20
-155.7740313043405
30
0
11
176.70680395364207
21
-155.77736246162087
31
0
0
SOLID
5
16A
330
2C
100
AcDbEntity
8
CON
100
AcDbTrace
10
308.153339455524
20
-64.04758463677592
30
0
11
308.153339455524
21
-65.04758463677592
31
0
12
311.153339455524
22
-64.54758463677592
32
0
13
311.153339455524
23
-64.54758463677592
33
0
0
LINE
5
16B
330
2C
100
AcDbEntity
8
CON
100
AcDbLine
10
176.70680395364207
20
-155.77736246162087
30
0
11
176.70680395364207
21
-209.34618304290143
31
0
0
LINE
5
16C
330
2C
100
AcDbEntity
8
CON
100
AcDbLine
10
311.1493047084077
20
-217.62382491473113
30
0
11
193.87714842593317
21
-217.62382491473113
31
0
0
LINE
5
16D
330
2C
100
AcDbEntity
8
CON
100
AcDbLine
10
113.22822368132893
20
-226.58817927611062
30
0
11
182.46457289835735
21
-226.58817927611062
31
0
0
SOLID
5
16E
330
2C
100
AcDbEntity
8
CON
100
AcDbTrace
10
181.4016937492363
20
-226.08817927611062
30
0
11
181.4016937492363
21
-227.08817927611062
31
0
12
184.4016937492363
22
-226.58817927611062
32
0
13
184.4016937492363
23
-226.58817927611062
33
0
0
LINE
5
16F
330
2C
100
AcDbEntity
8
CON
100
AcDbLine
10
182.3591192684769
20
-209.34618304290143
30
0
11
176.70846562555607
21
-209.34618304290143
31
0
0
LINE
5
170
330
2C
100
AcDbEntity
8
CON
100
AcDbLine
10
113.21846810263719
20
-262.20171382974536
30
0
11
165.41650927811406
21
-262.20171382974536
31
0
0
LINE
5
171
330
2C
100
AcDbEntity
8
CON
100
AcDbLine
10
165.44068030688754
20
-260.60681699851114
30
0
11
168.44068030688754
21
-263.60681699851114
31
0
0
LINE
5
172
330
2C
100
AcDbEntity
8
CON
100
AcDbLine
10
168.44068030688754
20
-260.60681699851114
30
0
11
165.44068030688754
21
-263.60681699851114
31
0
0
LINE
5
173
330
2C
100
AcDbEntity
8
CON
100
AcDbLine
10
168.44068030688754
20
-263.60681699851114
30
0
11
165.44068030688754
21
-263.60681699851114
31
0
0
LINE
5
174
330
2C
100
AcDbEntity
8
CON
100
AcDbLine
10
168.44068030688754
20
-260.60681699851114
30
0
11
168.44068030688754
21
-263.60681699851114
31
0
0
LINE
5
175
330
2C
100
AcDbEntity
8
CON
100
AcDbLine
10
165.44068030688754
20
-260.60681699851114
30
0
11
168.44068030688754
21
-260.60681699851114
31
0
0
LINE
5
176
330
2C
100
AcDbEntity
8
CON
100
AcDbLine
10
165.44068030688754
20
-263.60681699851114
30
0
11
165.44068030688754
21
-260.60681699851114
31
0
0
TEXT
5
177
330
2C
100
AcDbEntity
8
CON
100
AcDbText
10
164.5085828123901
20
-259.47218197787015
30
0
40
2.5
1
NOT
41
0.8
7
ROMANS
72
4
11
167.5085828123901
21
-258.22218197787015
31
0
100
AcDbText
0
LINE
5
178
330
2C
100
AcDbEntity
8
CON
100
AcDbLine
10
168.43200068953115
20
-262.1520060813358
30
0
11
203.16348339515866
21
-262.1520060813358
31
0
0
LINE
5
179
330
2C
100
AcDbEntity
8
CON
100
AcDbLine
10
113.2168889192784
20
-253.5468175274823
30
0
11
203.1809625546939
21
-253.5468175274823
31
0
0
LINE
5
17A
330
2C
100
AcDbEntity
8
CON
100
AcDbLine
10
204.91002405833228
20
-245.7605347706292
30
0
11
198.69237143594955
21
-245.7605347706292
31
0
0
LINE
5
17B
330
2C
100
AcDbEntity
8
CON
100
AcDbLine
10
198.69237143594955
20
-245.7605347706292
30
0
11
198.69237143594955
21
-217.62234489384753
31
0
0
SOLID
5
17C
330
2C
100
AcDbEntity
8
CON
100
AcDbTrace
10
201.91002405833228
20
-245.2605347706292
30
0
11
201.91002405833228
21
-246.2605347706292
31
0
12
204.91002405833228
22
-245.7605347706292
32
0
13
204.91002405833228
23
-245.7605347706292
33
0
0
SOLID
5
17D
330
2C
100
AcDbEntity
8
CON
100
AcDbTrace
10
201.91002405833228
20
-253.0468175274823
30
0
11
201.91002405833228
21
-254.0468175274823
31
0
12
204.91002405833228
22
-253.5468175274823
32
0
13
204.91002405833228
23
-253.5468175274823
33
0
0
SOLID
5
17E
330
2C
100
AcDbEntity
8
CON
100
AcDbTrace
10
201.91002405833228
20
-261.6520060813358
30
0
11
201.91002405833228
21
-262.6520060813358
31
0
12
204.91002405833228
22
-262.1520060813358
32
0
13
204.91002405833228
23
-262.1520060813358
33
0
0
SOLID
5
17F
330
2C
100
AcDbEntity
8
CON
100
AcDbTrace
10
162.41650927811415
20
-261.70171382974536
30
0
11
162.41650927811415
21
-262.70171382974536
31
0
12
165.41650927811415
22
-262.20171382974536
32
0
13
165.41650927811415
23
-262.20171382974536
33
0
0
SOLID
5
180
330
2C
100
AcDbEntity
8
CON
100
AcDbTrace
10
308.14930470840784
20
-217.12382491473113
30
0
11
308.14930470840784
21
-218.12382491473113
31
0
12
311.14930470840784
22
-217.62382491473113
32
0
13
311.14930470840784
23
-217.62382491473113
33
0
0
LINE
5
181
330
2C
100
AcDbEntity
8
CON
100
AcDbLine
10
311.169596547747
20
-253.46726627601788
30
0
11
237.94046422968535
21
-253.46726627601788
31
0
0
LINE
5
182
330
2C
100
AcDbEntity
8
CON
100
AcDbLine
10
229.94046422968535
20
-248.85188537302764
30
0
11
229.94046422968535
21
-266.8518853730276
31
0
0
LINE
5
183
330
2C
100
AcDbEntity
8
CON
100
AcDbLine
10
237.94046422968535
20
-266.8518853730276
30
0
11
237.94046422968535
21
-248.85188537302764
31
0
0
LINE
5
184
330
2C
100
AcDbEntity
8
CON
100
AcDbLine
10
237.94046422968535
20
-248.85188537302764
30
0
11
229.94046422968535
21
-248.85188537302764
31
0
0
LINE
5
185
330
2C
100
AcDbEntity
8
CON
100
AcDbLine
10
229.94046422968535
20
-257.85188537302764
30
0
11
237.94046422968535
21
-257.85188537302764
31
0
0
TEXT
5
186
330
2C
100
AcDbEntity
8
CON
100
AcDbText
10
232.98808327730438
20
-254.5216675891441
30
0
40
2.5
1
S
41
0.8
7
ROMANS
72
4
11
233.94046422968535
21
-253.2716675891441
31
0
100
AcDbText
0
TEXT
5
187
330
2C
100
AcDbEntity
8
CON
100
AcDbText
10
232.8928451820663
20
-263.8062275609329
30
0
40
2.5
1
R
41
0.8
7
ROMANS
72
4
11
233.94046422968535
21
-262.5562275609329
31
0
100
AcDbText
0
LINE
5
188
330
2C
100
AcDbEntity
8
CON
100
AcDbLine
10
237.94046422968535
20
-266.8518853730276
30
0
11
229.94046422968535
21
-266.8518853730276
31
0
0
LINE
5
189
330
2C
100
AcDbEntity
8
CON
100
AcDbLine
10
229.89970545685946
20
-253.32922240219727
30
0
11
214.48152949743894
21
-253.32922240219727
31
0
0
LINE
5
18A
330
2C
100
AcDbEntity
8
CON
100
AcDbLine
10
229.80857486873379
20
-262.42749168010596
30
0
11
221.3776064132387
21
-262.42749168010596
31
0
0
LINE
5
18B
330
2C
100
AcDbEntity
8
CON
100
AcDbLine
10
221.3776064132387
20
-262.42749168010596
30
0
11
221.3776064132387
21
-277.3732817123711
31
0
0
LINE
5
18C
330
2C
100
AcDbEntity
8
CON
100
AcDbLine
10
179.4195057032016
20
-282.2428181277895
30
0
11
113.21816030173181
21
-282.2428181277895
31
0
0
SOLID
5
18D
330
2C
100
AcDbEntity
8
CON
100
AcDbTrace
10
226.94046422968535
20
-261.92749168010596
30
0
11
226.94046422968535
21
-262.92749168010596
31
0
12
229.94046422968535
22
-262.42749168010596
32
0
13
229.94046422968535
23
-262.42749168010596
33
0
0
SOLID
5
18E
330
2C
100
AcDbEntity
8
CON
100
AcDbTrace
10
226.89970545685946
20
-252.82922240219727
30
0
11
226.89970545685946
21
-253.82922240219727
31
0
12
229.89970545685946
22
-253.32922240219727
32
0
13
229.89970545685946
23
-253.32922240219727
33
0
0
LWPOLYLINE
5
18F
330
2C
100
AcDbEntity
8
CON
100
AcDbPolyline
90
2
70
1
43
0.75
10
198.31737143594955
20
-217.62382491473113
40
0.75
41
0.75
42
1
10
199.06737143594955
20
-217.62382491473113
40
0.75
41
0.75
42
1
0
TEXT
5
190
330
2C
100
AcDbEntity
8
TXT1
100
AcDbText
10
8.328751713971307
20
-254.8355121097865
30
0
40
2.2
1
18-74
41
0.7
7
ROMANS
11
8.328751713971307
21
-253.7355121097865
31
0
100
AcDbText
73
2
0
TEXT
5
191
330
2C
100
AcDbEntity
8
TXT1
100
AcDbText
10
6.343405581952091
20
-228.019648493886
30
0
40
2.2
1
ABC-003A
41
0.7
7
ROMANS
11
6.343405581952091
21
-226.919648493886
31
0
100
AcDbText
73
2
0
TEXT
5
192
330
2C
100
AcDbEntity
8
TXT1
100
AcDbText
10
380.2352165549919
20
-65.62037964812112
30
0
40
2.2
1
16-4
41
0.7
7
ROMANS
11
380.2352165549919
21
-64.52037964812112
31
0
100
AcDbText
73
2
0
TEXT
5
193
330
2C
100
AcDbEntity
8
TXT1
100
AcDbText
10
378.17447828020414
20
-253.2981712726437
30
0
40
2.2
1
16-21
41
0.7
7
ROMANS
11
378.17447828020414
21
-252.19817127264372
31
0
100
AcDbText
73
2
0
TEXT
5
194
330
2C
100
AcDbEntity
8
TXT1
100
AcDbText
10
378.1744782802042
20
-256.1642371257331
30
0
40
2.2
1
16-23
41
0.7
7
ROMANS
11
378.1744782802042
21
-255.0642371257331
31
0
100
AcDbText
73
2
0
INSERT
5
196
330
2C
100
AcDbEntity
8
0
100
AcDbBlockReference
2
00_FORM
10
-15.21979011184726
20
-315.35059083903843
30
0
0
SOLID
5
197
330
2C
100
AcDbEntity
8
CON
100
AcDbTrace
10
249.0885396191287
20
-199.05618219638396
30
0
11
249.0885396191287
21
-200.05618219638396
31
0
12
252.0885396191287
22
-199.55618219638396
32
0
13
252.0885396191287
23
-199.55618219638396
33
0
0
TEXT
5
198
330
2C
100
AcDbEntity
8
CON
100
AcDbText
10
250.89426935647802
20
-193.53859548848394
30
0
40
2.2
1
PULSE DELAY
41
0.7
7
ROMANS
72
4
11
258.814269356478
21
-192.43859548848394
31
0
100
AcDbText
0
ARC
5
199
330
2C
100
AcDbEntity
8
CON
100
AcDbCircle
10
254.38495049600806
20
-199.76260865050648
30
0
40
5.0673575993582745
100
AcDbArc
50
270
51
90
0
TEXT
5
19A
330
2C
100
AcDbEntity
8
CON
100
AcDbText
10
253.12662991551682
20
-202.35430811190045
30
0
40
2.2
1
SEC.
41
0.7
7
ROMANS
72
4
11
255.65662991551682
21
-201.25430811190046
31
0
100
AcDbText
0
LINE
5
19B
330
2C
100
AcDbEntity
8
CON
100
AcDbLine
10
252.13279156295994
20
-194.6952510511482
30
0
11
252.13279156295994
21
-204.82996624986475
31
0
0
LINE
5
19C
330
2C
100
AcDbEntity
8
CON
100
AcDbLine
10
252.13279156295994
20
-204.82996624986475
30
0
11
254.38495049600806
21
-204.82996624986475
31
0
0
LINE
5
19D
330
2C
100
AcDbEntity
8
CON
100
AcDbLine
10
252.13279156295994
20
-194.6952510511482
30
0
11
254.38495049600806
21
-194.6952510511482
31
0
0
TEXT
5
19E
330
2C
100
AcDbEntity
8
CON
100
AcDbText
10
254.47850655593743
20
-198.55314999265417
30
0
40
2.2
1
1
41
0.7
7
ROMANS
72
4
11
255.10183988927076
21
-197.45314999265418
31
0
100
AcDbText
0
TEXT
5
19F
330
2C
100
AcDbEntity
8
TXT1
100
AcDbText
10
69.5743966925004
20
-280.1224605822612
30
0
40
2.2
1
BURNER A SHUTDOWN COMMAND
41
0.7
7
ROMANS
11
69.5743966925004
21
-279.0224605822612
31
0
100
AcDbText
73
2
0
TEXT
5
1A0
330
2C
100
AcDbEntity
8
TXT1
100
AcDbText
10
69.55943452700855
20
-283.93946144165255
30
0
40
2.2
1
(CLOSE BURNER A OIL & ATOM. AIR
41
0.7
7
ROMANS
11
69.55943452700855
21
-282.83946144165253
31
0
100
AcDbText
73
2
0
TEXT
5
1A1
330
2C
100
AcDbEntity
8
DCS
6
ByBlock
100
AcDbText
10
46.33668124763211
20
-45.961202004602285
30
0
40
2.1
1
M.0134/234
7
STANDARD
100
AcDbText
0
TEXT
5
1A2
330
2C
100
AcDbEntity
8
DCS
6
ByBlock
100
AcDbText
10
47.68030860550801
20
-63.949666283431554
30
0
40
2.1
1
I.0012/332
7
STANDARD
100
AcDbText
0
TEXT
5
1A3
330
2C
100
AcDbEntity
8
DCS
6
ByBlock
100
AcDbText
10
47.68030860550801
20
-73.18698585178271
30
0
40
2.1
1
I.0010/330
7
STANDARD
100
AcDbText
0
TEXT
5
1A4
330
2C
100
AcDbEntity
8
DCS
6
ByBlock
100
AcDbText
10
46.33668124763211
20
-118.27329455540274
30
0
40
2.1
1
M.012A/22A
7
STANDARD
100
AcDbText
0
TEXT
5
1A5
330
2C
100
AcDbEntity
8
DCS
6
ByBlock
100
AcDbText
10
46.33668124763211
20
-262.0454546002912
30
0
40
2.1
1
M.0124/224
7
STANDARD
100
AcDbText
0
TEXT
5
1A6
330
2C
100
AcDbEntity
8
DCS
6
ByBlock
100
AcDbText
10
46.33668124763211
20
-281.73661764272816
30
0
40
2.1
1
M.0143/243
7
STANDARD
100
AcDbText
0
TEXT
5
1A7
330
2C
100
AcDbEntity
8
DCS
6
ByBlock
100
AcDbText
10
119.66776011920376
20
-225.37118103258825
30
0
40
2.1
1
M.312C/312D/314C/314D
7
STANDARD
100
AcDbText
0
TEXT
5
1A8
330
2C
100
AcDbEntity
8
DCS
6
ByBlock
100
AcDbText
10
121.56982788773018
20
-221.42582208326286
30
0
40
2.1
1
(FROM STATION WIRING)
7
STANDARD
100
AcDbText
0
TEXT
5
1A9
330
2C
100
AcDbEntity
8
DCS
6
ByBlock
100
AcDbText
10
267.5299168112873
20
-62.9002367488784
30
0
40
2.1
1
O.0087/407/727/1047
7
STANDARD
100
AcDbText
0
TEXT
5
1AA
330
2C
100
AcDbEntity
8
DCS
6
ByBlock
100
AcDbText
10
265.0605539730574
20
-198.16365154609122
30
0
40
2.1
1
M.013F/23F/163F/173F
7
STANDARD
100
AcDbText
0
TEXT
5
1AB
330
2C
100
AcDbEntity
8
DCS
6
ByBlock
100
AcDbText
10
263.7994930860906
20
-221.17207326655983
30
0
40
2.1
1
M.013C/23C/163C/173C
7
STANDARD
100
AcDbText
0
TEXT
5
1AC
330
2C
100
AcDbEntity
8
DCS
6
ByBlock
100
AcDbText
10
270.46024146711545
20
-257.4694001348873
30
0
40
2.1
1
O.0080/400/720/1040
7
STANDARD
100
AcDbText
0
TEXT
5
1AD
330
2C
100
AcDbEntity
8
DCS
6
ByBlock
100
AcDbText
10
270.46024146711545
20
-260.93041783729944
30
0
40
2.1
1
O.0081/401/721/1041
7
STANDARD
100
AcDbText
0
TEXT
5
1AE
330
2C
100
AcDbEntity
8
DCS
6
ByBlock
100
AcDbText
10
260.0553251309183
20
-203.36410113471032
30
0
40
2.1
1
(STATION WIRING TO
7
STANDARD
100
AcDbText
0
TEXT
5
1AF
330
2C
100
AcDbEntity
8
DCS
6
ByBlock
100
AcDbText
10
260.0553251309183
20
-206.8806334263872
30
0
40
2.1
1
S1 M.3422/3423/3452/3453)
7
STANDARD
100
AcDbText
0
TEXT
5
1B0
330
2C
100
AcDbEntity
8
DCS
6
ByBlock
100
AcDbText
10
225.89039198243643
20
-133.3890677013772
30
0
40
2.1
1
M.013E/23E/163E/173E
7
STANDARD
100
AcDbText
0
TEXT
5
1B1
330
2C
100
AcDbEntity
8
DCS
6
ByBlock
100
AcDbText
10
236.52258617149516
20
-204.83412264514374
30
0
40
2.1
1
TR25/65
7
STANDARD
100
AcDbText
0
TEXT
5
1B2
330
2C
100
AcDbEntity
8
DCS
6
ByBlock
100
AcDbText
10
395.58683276629984
20
-233.07992882239665
30
0
40
2.1
1
STATION 104 FM0003 P306
7
STANDARD
100
AcDbText
0
TEXT
5
1B3
330
2C
100
AcDbEntity
8
DCS
6
ByBlock
100
AcDbText
10
395.58683276629984
20
-236.6318865270302
30
0
40
2.1
1
STATION 104 FM0004 P406
7
STANDARD
100
AcDbText
0
LWPOLYLINE
5
1B4
330
2C
100
AcDbEntity
8
CON
62
4
100
AcDbPolyline
90
2
70
0
43
1
10
242.52806192158312
20
-57.97620304317985
40
1
41
1
10
242.52806192158312
20
-71.36826992893117
40
1
41
1
0
CIRCLE
5
1B5
330
2C
100
AcDbEntity
8
CON
62
4
100
AcDbCircle
10
247.54359521062815
20
-64.48216632875028
30
0
40
4.5
0
TEXT
5
1B6
330
2C
100
AcDbEntity
8
CON
62
4
100
AcDbText
10
245.49597616300912
20
-65.52650903020964
30
0
40
2.5
1
OR
41
0.8
7
ROMANS
72
4
11
247.54359521062815
21
-64.27650903020964
31
0
100
AcDbText
0
SOLID
5
1B7
330
2C
100
AcDbEntity
8
CON
62
4
100
AcDbTrace
10
238.9972660870137
20
-59.31594587968732
30
0
11
238.9972660870137
21
-60.31594587968732
31
0
12
241.9972660870137
22
-59.81594587968732
32
0
13
241.9972660870137
23
-59.81594587968732
33
0
0
SOLID
5
1B8
330
2C
100
AcDbEntity
8
CON
62
4
100
AcDbTrace
10
239.04427831230964
20
-68.96372701125904
30
0
11
239.04427831230964
21
-69.96372701125904
31
0
12
242.04427831230964
22
-69.46372701125904
32
0
13
242.04427831230964
23
-69.46372701125904
33
0
0
LINE
5
1B9
330
2C
100
AcDbEntity
8
CON
100
AcDbLine
10
216.0441927629413
20
-64.00625228156008
30
0
11
223.30321486340404
21
-64.00625228156008
31
0
0
LINE
5
1BA
330
2C
100
AcDbEntity
8
CON
100
AcDbLine
10
223.30321486340404
20
-64.00625228156008
30
0
11
223.30321486340404
21
-69.41712105219432
31
0
0
LINE
5
1BB
330
2C
100
AcDbEntity
8
CON
100
AcDbLine
10
223.30321486340404
20
-69.41712105219432
30
0
11
240.42504624084904
21
-69.41712105219432
31
0
0
LINE
5
1BC
330
2C
100
AcDbEntity
8
CON
62
4
100
AcDbLine
10
229.54980476885635
20
-39.01519136324737
30
0
11
184.4329834983887
21
-39.021874631394326
31
0
0
SOLID
5
1BD
330
2C
100
AcDbEntity
8
CON
62
4
100
AcDbTrace
10
174.0836562925732
20
-38.563278014029066
30
0
11
174.0836562925732
21
-39.563278014029066
31
0
12
177.0836562925732
22
-39.063278014029066
32
0
13
177.0836562925732
23
-39.063278014029066
33
0
0
TEXT
5
1BE
330
2C
100
AcDbEntity
8
CON
62
4
100
AcDbText
10
175.88938602992252
20
-33.04569130612905
30
0
40
2.2
1
PULSE DELAY
41
0.7
7
ROMANS
72
4
11
183.8093860299225
21
-31.94569130612905
31
0
100
AcDbText
0
ARC
5
1BF
330
2C
100
AcDbEntity
8
CON
62
4
100
AcDbCircle
10
179.38006716945256
20
-39.26970446815159
30
0
40
5.0673575993582745
100
AcDbArc
50
270
51
90
0
TEXT
5
1C0
330
2C
100
AcDbEntity
8
CON
62
4
100
AcDbText
10
178.12174658896132
20
-41.86140392954557
30
0
40
2.2
1
SEC.
41
0.7
7
ROMANS
72
4
11
180.65174658896132
21
-40.761403929545565
31
0
100
AcDbText
0
LINE
5
1C1
330
2C
100
AcDbEntity
8
CON
62
4
100
AcDbLine
10
177.12790823640444
20
-34.20234686879331
30
0
11
177.12790823640444
21
-44.33706206750986
31
0
0
LINE
5
1C2
330
2C
100
AcDbEntity
8
CON
62
4
100
AcDbLine
10
177.12790823640444
20
-44.33706206750986
30
0
11
179.38006716945256
21
-44.33706206750986
31
0
0
LINE
5
1C3
330
2C
100
AcDbEntity
8
CON
62
4
100
AcDbLine
10
177.12790823640444
20
-34.20234686879331
30
0
11
179.38006716945256
21
-34.20234686879331
31
0
0
TEXT
5
1C4
330
2C
100
AcDbEntity
8
CON
62
4
100
AcDbText
10
179.47362322938193
20
-38.060245810299286
30
0
40
2.2
1
1
41
0.7
7
ROMANS
72
4
11
180.09695656271526
21
-36.960245810299284
31
0
100
AcDbText
0
LINE
5
1C5
330
2C
100
AcDbEntity
8
CON
62
4
100
AcDbLine
10
175.26146393580296
20
-39.01519136324737
30
0
11
113.28130956514362
21
-39.021874631394326
31
0
0
LINE
5
1C6
330
2C
100
AcDbEntity
8
CON
62
4
100
AcDbLine
10
240.13058800971407
20
-59.77819078249007
30
0
11
229.55536213984647
21
-59.77819078249007
31
0
0
LINE
5
1C7
330
2C
100
AcDbEntity
8
CON
62
4
100
AcDbLine
10
229.55536213984647
20
-59.77819078249007
30
0
11
229.55536213984647
21
-39.01790357348949
31
0
0
TEXT
5
1C8
330
2C
100
AcDbEntity
8
DCS
6
ByBlock
100
AcDbText
10
185.88718042766698
20
-43.29263056180599
30
0
40
2.1
1
TR23/63/823/863
7
STANDARD
100
AcDbText
0
TEXT
5
1C9
330
2C
100
AcDbEntity
8
TXT1
100
AcDbText
10
69.87209827989888
20
-36.519897767549004
30
0
40
2.2
1
BURNER A CLEANING ON
41
0.7
7
ROMANS
11
69.87209827989888
21
-35.419897767549
31
0
100
AcDbText
73
2
0
TEXT
5
1CA
330
2C
100
AcDbEntity
8
TXT1
100
AcDbText
10
8.328751713971307
20
-38.27741706665851
30
0
40
2.2
1
09-74
41
0.7
7
ROMANS
11
8.328751713971307
21
-37.177417066658506
31
0
100
AcDbText
73
2
0
TEXT
5
1CB
330
2C
100
AcDbEntity
8
DCS
6
ByBlock
100
AcDbText
10
46.33668124763211
20
-36.779136477441114
30
0
40
2.1
1
M.011F/21F
7
STANDARD
100
AcDbText
0
TEXT
5
1CC
330
2C
100
AcDbEntity
8
CON
100
AcDbText
10
396.84467256662924
20
-30.09947642062762
30
0
40
2.5
1
NOTE: THE DIAGRAM IS THE SAME
41
0.7
7
ROMANS
11
396.84467256662924
21
-30.932809753960953
31
0
100
AcDbText
73
1
0
TEXT
5
1CD
330
2C
100
AcDbEntity
8
CON
100
AcDbText
10
405.88091782112656
20
-34.85795556209437
30
0
40
2.5
1
FOR BURNER B,C,D
41
0.7
7
ROMANS
11
405.88091782112656
21
-35.691288895427704
31
0
100
AcDbText
73
1
0
TEXT
5
1CE
330
2C
100
AcDbEntity
8
CON
370
9
100
AcDbText
10
403.5475165109924
20
-307.8999281521402
30
0
40
3
1
DITL-13
41
0.8
7
ROMANS
11
403.5475165109924
21
-308.8999281521402
31
0
100
AcDbText
73
1
0
TEXT
5
1CF
330
2C
100
AcDbEntity
8
CON
370
9
100
AcDbText
10
135.03173417000244
20
-303.6356404326907
30
0
40
2
1
BURNER A LIGHT OFF SEQUENCE (2)
41
0.8
7
ROMANS
11
135.03173417000244
21
-302.6356404326907
31
0
100
AcDbText
73
2
0
TEXT
5
1D0
330
2C
100
AcDbEntity
8
CON
370
9
100
AcDbText
10
448.65838659917085
20
-309.0574906107191
30
0
40
3
1
27
41
0.8
7
ROMANS
11
448.65838659917085
21
-310.0574906107191
31
0
100
AcDbText
73
1
0
TEXT
5
1D1
330
2C
100
AcDbEntity
8
TXT1
100
AcDbText
10
8.663564085919461
20
-236.45064645935398
30
0
40
2.2
1
15-60
41
0.7
7
ROMANS
11
8.663564085919461
21
-235.35064645935398
31
0
100
AcDbText
73
2
0
TEXT
5
1D2
330
2C
100
AcDbEntity
8
TXT1
100
AcDbText
10
69.8964550641572
20
-234.6078130625746
30
0
40
2.2
1
BURNER A ATOM. AIR
41
0.7
7
ROMANS
11
69.8964550641572
21
-233.5078130625746
31
0
100
AcDbText
73
2
0
TEXT
5
1D3
330
2C
100
AcDbEntity
8
TXT1
100
AcDbText
10
69.85328246416249
20
-238.65712832608554
30
0
40
2.2
1
VALVE OPEN COMMAND
41
0.7
7
ROMANS
11
69.85328246416249
21
-237.55712832608555
31
0
100
AcDbText
73
2
0
TEXT
5
1D4
330
2C
100
AcDbEntity
8
DCS
6
ByBlock
100
AcDbText
10
46.33668124763211
20
-234.9799133348717
30
0
40
2.1
1
M.014C/24C
7
STANDARD
100
AcDbText
0
LINE
5
1D5
330
2C
100
AcDbEntity
8
CON
100
AcDbLine
10
310.4597806711388
20
-236.0938898042058
30
0
11
275.9250785282403
21
-236.0938898042058
31
0
0
LWPOLYLINE
5
1D6
330
2C
100
AcDbEntity
8
CON
62
4
100
AcDbPolyline
90
2
70
0
43
1
10
266.4100207704347
20
-229.52250821060971
40
1
41
1
10
266.4100207704347
20
-242.91457509636103
40
1
41
1
0
CIRCLE
5
1D7
330
2C
100
AcDbEntity
8
CON
62
4
100
AcDbCircle
10
271.42555405947974
20
-236.02847149618015
30
0
40
4.5
0
TEXT
5
1D8
330
2C
100
AcDbEntity
8
CON
62
4
100
AcDbText
10
269.3779350118607
20
-237.0728141976395
30
0
40
2.5
1
OR
41
0.8
7
ROMANS
72
4
11
271.42555405947974
21
-235.8228141976395
31
0
100
AcDbText
0
SOLID
5
1D9
330
2C
100
AcDbEntity
8
CON
62
4
100
AcDbTrace
10
262.8792249358653
20
-233.73325242146177
30
0
11
262.8792249358653
21
-234.73325242146177
31
0
12
265.8792249358653
22
-234.23325242146177
32
0
13
265.8792249358653
23
-234.23325242146177
33
0
0
SOLID
5
1DA
330
2C
100
AcDbEntity
8
CON
62
4
100
AcDbTrace
10
263.0073182422423
20
-240.9965186651754
30
0
11
263.0073182422423
21
-241.9965186651754
31
0
12
266.0073182422423
22
-241.4965186651754
32
0
13
266.0073182422423
23
-241.4965186651754
33
0
0
LINE
5
1DB
330
2C
100
AcDbEntity
8
CON
100
AcDbLine
10
262.8792249358653
20
-234.25675773606326
30
0
11
113.2168889192784
21
-234.25675773606326
31
0
0
LINE
5
1DC
330
2C
100
AcDbEntity
8
CON
100
AcDbLine
10
247.32311368363088
20
-241.5100321786889
30
0
11
242.03950673850693
21
-241.5100321786889
31
0
0
LINE
5
1DD
330
2C
100
AcDbEntity
8
CON
100
AcDbLine
10
241.9952547946757
20
-241.5100321786889
30
0
11
241.9952547946757
21
-253.46726627601788
31
0
0
LWPOLYLINE
5
1DE
330
2C
100
AcDbEntity
8
CON
100
AcDbPolyline
90
2
70
1
43
0.75
10
241.61019534830098
20
-253.43477192349428
40
0.75
41
0.75
42
1
10
242.36019534830098
20
-253.43477192349428
40
0.75
41
0.75
42
1
0
TEXT
5
1DF
330
2C
100
AcDbEntity
8
DCS
6
ByBlock
100
AcDbText
10
281.78549623504307
20
-231.42209638469575
30
0
40
2.1
1
O.0084/404
7
STANDARD
100
AcDbText
0
SOLID
5
1E0
330
2C
100
AcDbEntity
8
CON
100
AcDbTrace
10
308.169596547747
20
-235.59326954561664
30
0
11
308.169596547747
21
-236.59326954561664
31
0
12
311.169596547747
22
-236.09326954561664
32
0
13
311.169596547747
23
-236.09326954561664
33
0
0
TEXT
5
1E1
330
2C
100
AcDbEntity
8
TXT1
100
AcDbText
10
313.0805892235064
20
-238.83379280790987
30
0
40
2.2
1
VALVE
41
0.7
7
ROMANS
11
313.0805892235064
21
-237.73379280790988
31
0
100
AcDbText
73
2
0
TEXT
5
1E2
330
2C
100
AcDbEntity
8
TXT1
100
AcDbText
10
312.9001634262486
20
-234.84469899948093
30
0
40
2.2
1
OPEN BURNER A ATOM. AIR
41
0.7
7
ROMANS
11
312.9001634262486
21
-233.74469899948093
31
0
100
AcDbText
73
2
0
TEXT
5
1E3
330
2C
100
AcDbEntity
8
TXT1
100
AcDbText
10
69.55943452700855
20
-288.32330956200275
30
0
40
2.2
1
VALVE)
41
0.7
7
ROMANS
11
69.55943452700855
21
-287.2233095620027
31
0
100
AcDbText
73
2
0
TEXT
5
1E4
330
2C
100
AcDbEntity
8
TXT1
100
AcDbText
10
378.2181627082614
20
-236.78381816028573
30
0
40
2.2
1
17-3
41
0.7
7
ROMANS
11
378.2181627082614
21
-235.68381816028574
31
0
100
AcDbText
73
2
0
LINE
5
1E5
330
2C
100
AcDbEntity
8
CON
100
AcDbLine
10
250.5965537196123
20
-199.51477881374922
30
0
11
176.70680395364207
21
-199.51477881374922
31
0
0
TEXT
5
1E6
330
2C
100
AcDbEntity
8
DCS
6
ByBlock
100
AcDbText
10
46.33668124763211
20
-49.52341048253362
30
0
40
2.1
1
M.1634/1734
7
STANDARD
100
AcDbText
0
TEXT
5
1E7
330
2C
100
AcDbEntity
8
DCS
6
ByBlock
100
AcDbText
10
47.68030860550801
20
-67.51187476136289
30
0
40
2.1
1
I.0652/972
7
STANDARD
100
AcDbText
0
TEXT
5
1E8
330
2C
100
AcDbEntity
8
DCS
6
ByBlock
100
AcDbText
10
47.68030860550801
20
-76.74919432971404
30
0
40
2.1
1
I.0650/970
7
STANDARD
100
AcDbText
0
TEXT
5
1E9
330
2C
100
AcDbEntity
8
DCS
6
ByBlock
100
AcDbText
10
46.33668124763211
20
-121.83550303333408
30
0
40
2.1
1
M.162A/172A
7
STANDARD
100
AcDbText
0
TEXT
5
1EA
330
2C
100
AcDbEntity
8
DCS
6
ByBlock
100
AcDbText
10
46.33668124763211
20
-265.6076630782225
30
0
40
2.1
1
M.1624/1724
7
STANDARD
100
AcDbText
0
TEXT
5
1EB
330
2C
100
AcDbEntity
8
DCS
6
ByBlock
100
AcDbText
10
46.33668124763211
20
-285.2988261206595
30
0
40
2.1
1
M.1643/1743
7
STANDARD
100
AcDbText
0
TEXT
5
1EC
330
2C
100
AcDbEntity
8
DCS
6
ByBlock
100
AcDbText
10
46.33668124763211
20
-40.34134495537245
30
0
40
2.1
1
M.161F/171F
7
STANDARD
100
AcDbText
0
TEXT
5
1ED
330
2C
100
AcDbEntity
8
DCS
6
ByBlock
100
AcDbText
10
46.33668124763211
20
-238.54212181280303
30
0
40
2.1
1
M.164C/174C
7
STANDARD
100
AcDbText
0
TEXT
5
1EE
330
2C
100
AcDbEntity
8
DCS
6
ByBlock
100
AcDbText
10
46.33668124763211
20
-252.87600111146384
30
0
40
2.1
1
M.0146/246
7
STANDARD
100
AcDbText
0
TEXT
5
1EF
330
2C
100
AcDbEntity
8
DCS
6
ByBlock
100
AcDbText
10
46.33668124763211
20
-256.43820958939517
30
0
40
2.1
1
M.1646/1746
7
STANDARD
100
AcDbText
0
TEXT
5
1F0
330
2C
100
AcDbEntity
8
DCS
6
ByBlock
100
AcDbText
10
236.52258617149516
20
-208.52436641242963
30
0
40
2.1
1
TR825/865
7
STANDARD
100
AcDbText
0
TEXT
5
1F1
330
2C
100
AcDbEntity
8
DCS
6
ByBlock
100
AcDbText
10
281.78549623504307
20
-234.811764873468
30
0
40
2.1
1
O.0724/1044
7
STANDARD
100
AcDbText
0
TEXT
5
1F2
330
2C
100
AcDbEntity
8
DCS
6
ByBlock
100
AcDbText
10
395.58683276629984
20
-225.9019352862354
30
0
40
2.1
1
STATION 104 FM0001 P106
7
STANDARD
100
AcDbText
0
TEXT
5
1F3
330
2C
100
AcDbEntity
8
DCS
6
ByBlock
100
AcDbText
10
395.58683276629984
20
-229.45389299086895
30
0
40
2.1
1
STATION 104 FM0002 P206
7
STANDARD
100
AcDbText
0
LWPOLYLINE
5
1F4
330
2C
100
AcDbEntity
8
CON
100
AcDbPolyline
90
2
70
1
43
0.75
10
176.31730823679914
20
-199.53125329364798
40
0.75
41
0.75
42
1
10
177.06730823679914
20
-199.53125329364798
40
0.75
41
0.75
42
1
0
TEXT
5
1F5
330
2C
100
AcDbEntity
8
TXT1
100
AcDbText
10
69.68327323286304
20
-271.13171117603537
30
0
40
2.2
1
BURNER A IGNITER FAILURE
41
0.7
7
ROMANS
11
69.68327323286304
21
-270.03171117603534
31
0
100
AcDbText
73
2
0
TEXT
5
1F6
330
2C
100
AcDbEntity
8
TXT1
100
AcDbText
10
8.328751713971307
20
-272.9332421370203
30
0
40
2.2
1
12-77
41
0.7
7
ROMANS
11
8.328751713971307
21
-271.83324213702025
31
0
100
AcDbText
73
2
0
TEXT
5
1F7
330
2C
100
AcDbEntity
8
DCS
6
ByBlock
100
AcDbText
10
46.33668124763211
20
-270.9737311386976
30
0
40
2.1
1
M.0147/247
7
STANDARD
100
AcDbText
0
TEXT
5
1F8
330
2C
100
AcDbEntity
8
DCS
6
ByBlock
100
AcDbText
10
46.33668124763211
20
-274.5359396166289
30
0
40
2.1
1
M.1647/1747
7
STANDARD
100
AcDbText
0
LINE
5
1F9
330
2C
100
AcDbEntity
8
CON
100
AcDbLine
10
221.3776064132387
20
-277.3732817123711
30
0
11
191.0432769150143
21
-277.3732817123711
31
0
0
LWPOLYLINE
5
1FA
330
2C
100
AcDbEntity
8
CON
62
4
100
AcDbPolyline
90
2
70
0
43
1
10
181.52747698353653
20
-270.80190011877505
40
1
41
1
10
181.52747698353653
20
-284.19396700452637
40
1
41
1
0
CIRCLE
5
1FB
330
2C
100
AcDbEntity
8
CON
62
4
100
AcDbCircle
10
186.54301027258157
20
-277.3078634043455
30
0
40
4.5
0
TEXT
5
1FC
330
2C
100
AcDbEntity
8
CON
62
4
100
AcDbText
10
184.49539122496253
20
-278.35220610580484
30
0
40
2.5
1
OR
41
0.8
7
ROMANS
72
4
11
186.54301027258157
21
-277.10220610580484
31
0
100
AcDbText
0
SOLID
5
1FD
330
2C
100
AcDbEntity
8
CON
62
4
100
AcDbTrace
10
177.99668114896713
20
-272.1416429552825
30
0
11
177.99668114896713
21
-273.1416429552825
31
0
12
180.99668114896713
22
-272.6416429552825
32
0
13
180.99668114896713
23
-272.6416429552825
33
0
0
SOLID
5
1FE
330
2C
100
AcDbEntity
8
CON
62
4
100
AcDbTrace
10
178.04369337426306
20
-281.78942408685424
30
0
11
178.04369337426306
21
-282.78942408685424
31
0
12
181.04369337426306
22
-282.28942408685424
32
0
13
181.04369337426306
23
-282.28942408685424
33
0
0
LINE
5
1FF
330
2C
100
AcDbEntity
8
CON
62
4
100
AcDbLine
10
179.1300030716675
20
-272.6038878580853
30
0
11
113.21688891927842
21
-272.6038878580853
31
0
0
SOLID
5
200
330
2C
100
AcDbEntity
8
CON
100
AcDbTrace
10
247.32311368363088
20
-241.0100321786889
30
0
11
247.32311368363088
21
-242.0100321786889
31
0
12
250.32311368363088
22
-241.5100321786889
32
0
13
250.32311368363088
23
-241.5100321786889
33
0
0
ARC
5
201
330
2C
100
AcDbEntity
8
CON
100
AcDbCircle
10
252.575272616679
20
-241.5100321786889
30
0
40
5.0673575993582745
100
AcDbArc
50
270
51
90
0
TEXT
5
202
330
2C
100
AcDbEntity
8
CON
100
AcDbText
10
251.31695203618776
20
-244.10173164008287
30
0
40
2.2
1
SEC.
41
0.7
7
ROMANS
72
4
11
253.84695203618776
21
-243.00173164008288
31
0
100
AcDbText
0
LINE
5
203
330
2C
100
AcDbEntity
8
CON
100
AcDbLine
10
250.32311368363088
20
-236.44267457933063
30
0
11
250.32311368363088
21
-246.57738977804718
31
0
0
TEXT
5
204
330
2C
100
AcDbEntity
8
CON
100
AcDbText
10
252.66882867660837
20
-240.3005735208366
30
0
40
2.2
1
1
41
0.7
7
ROMANS
72
4
11
253.2921620099417
21
-239.2005735208366
31
0
100
AcDbText
0
LINE
5
205
330
2C
100
AcDbEntity
8
CON
100
AcDbLine
10
250.32311368363088
20
-246.57738977804718
30
0
11
252.575272616679
21
-246.57738977804718
31
0
0
LINE
5
206
330
2C
100
AcDbEntity
8
CON
100
AcDbLine
10
250.32311368363088
20
-236.44267457933063
30
0
11
252.575272616679
21
-236.44267457933063
31
0
0
TEXT
5
207
330
2C
100
AcDbEntity
8
CON
62
4
100
AcDbText
10
236.61673229971268
20
-239.56485130654292
30
0
40
2.2
1
OFF DELAY
41
0.7
7
ROMANS
72
4
11
242.99673229971268
21
-238.46485130654293
31
0
100
AcDbText
0
TEXT
5
208
330
2C
100
AcDbEntity
8
DCS
6
ByBlock
100
AcDbText
10
245.0945518054308
20
-249.48525476493677
30
0
40
2.1
1
TR894/895/896/897
7
STANDARD
100
AcDbText
0
LINE
5
209
330
2C
100
AcDbEntity
8
CON
100
AcDbLine
10
257.6426302160373
20
-241.5100321786889
30
0
11
262.9262371611612
21
-241.5100321786889
31
0
0
TEXT
5
20A
330
2C
100
AcDbEntity
8
TXT1
100
AcDbText
10
375.4270661539142
20
-202.6889039274752
30
0
40
2.2
1
ABC-003C,3D
41
0.7
7
ROMANS
11
375.4270661539142
21
-201.5889039274752
31
0
100
AcDbText
73
2
0
VIEWPORT
5
20B
330
2D
100
AcDbEntity
67
1
8
0
100
AcDbViewport
10
5.2499996395561634
20
5.4607272434417045
30
0
40
15.337152293689813
41
11.914454465437002
68
1
69
1
12
5.2499996395561634
22
5.4607272434417045
13
0
23
0
14
10
24
10
15
10
25
10
16
0
26
0
36
1
17
0
27
0
37
0
42
50
43
0
44
0
45
11.914454465437002
50
0
51
0
72
1000
90
32800
1

281
0
71
1
74
0
110
0
120
0
130
0
111
1
121
0
131
0
112
0
122
1
132
0
79
0
146
0
0
ENDSEC
0
SECTION
2
OBJECTS
0
DICTIONARY
5
29
330
0
100
AcDbDictionary
281
1
3
ACAD_GROUP
350
2A
3
ACAD_LAYOUT
350
2B
0
DICTIONARY
5
2A
330
29
100
AcDbDictionary
281
1
0
DICTIONARY
5
2B
330
29
100
AcDbDictionary
281
1
3
Layout1
350
2F
3
Model
350
2E
0
LAYOUT
5
2E
330
2B
100
AcDbPlotSettings
1

4
A3
6

40
7.5
41
20
42
7.5
43
20
44
420
45
297
46
0
47
0
48
0
49
0
140
0
141
0
142
1
143
1
70
1024
72
1
73
0
74
5
7

75
16
76
0
77
2
78
300
147
1
148
0
149
0
100
AcDbLayout
1
Model
70
1
71
0
10
0
20
-309.6730676404534
11
390.8849
21
0
12
0
22
0
32
0
14
-15.21979011184726
24
-315.35059083903843
34
0
15
786.8652514726374
25
543
35
0
146
0
13
0
23
0
33
0
16
1
26
0
36
0
17
0
27
1
37
0
76
1
330
2C
0
LAYOUT
5
2F
330
2B
100
AcDbPlotSettings
1

4
A3
6

40
7.5
41
20
42
7.5
43
20
44
420
45
297
46
0
47
0
48
0
49
0
140
0
141
0
142
1
143
1
70
0
72
1
73
0
74
5
7

75
16
76
0
77
2
78
300
147
1
148
0
149
0
100
AcDbLayout
1
Layout1
70
1
71
1
10
0
20
-309.6730676404534
11
390.8849
21
0
12
0
22
0
32
0
14
-2.4185765072887433
24
-0.4964999892767965
34
0
15
12.918575786401071
25
11.417954476160205
35
0
146
0
13
0
23
0
33
0
16
1
26
0
36
0
17
0
27
1
37
0
76
1
330
2D
0
ENDSEC
0
EOF
