0
SECTION
2
HEADER
9
$ACADVER
1
AC1015
9
$DWGCODEPAGE
3
ANSI_1252
9
$INSBASE
10
0
20
0
30
0
9
$EXTMIN
10
0
20
0
30
0
9
$EXTMAX
10
786.8652514726374
20
543
30
0
9
$LIMMIN
10
0.1196939928364798
20
-0.0001498107616976438
9
$LIMMAX
10
390.8849
20
313.67945555593246
9
$TILEMODE
70
1
9
$INSUNITS
70
0
9
$PEXTMIN
10
-2.4185765072887433
20
-0.4964999892767965
30
0
9
$PEXTMAX
10
12.918575786401071
20
11.417954476160205
30
0
9
$HANDSEED
5
2AF
0
ENDSEC
0
SECTION
2
TABLES
0
TABLE
2
VPORT
5
20
330
0
100
AcDbSymbolTable
70
1
0
VPORT
5
2AC
330
20
100
AcDbSymbolTableRecord
100
AcDbViewportTableRecord
2
*Active
70
0
10
0
20
0
11
1
21
1
12
393.4326257363187
22
271.5
13
0
23
0
14
10
24
10
15
10
25
10
16
0
26
0
36
1
17
0
27
0
37
0
40
570.15
41
1.4491072771135127
42
50
43
0
44
0
50
0
51
0
71
0
72
1000
73
1
74
3
75
0
76
0
77
0
78
0
0
ENDTAB
0
TABLE
2
LTYPE
5
21
330
0
100
AcDbSymbolTable
70
23
0
LTYPE
5
34
330
21
100
AcDbSymbolTableRecord
100
AcDbLinetypeTableRecord
2
ByBlock
70
0
3

72
65
73
0
40
0
0
LTYPE
5
35
330
21
100
AcDbSymbolTableRecord
100
AcDbLinetypeTableRecord
2
ByLayer
70
0
3

72
65
73
0
40
0
0
LTYPE
5
36
330
21
100
AcDbSymbolTableRecord
100
AcDbLinetypeTableRecord
2
Continuous
70
0
3
Solid line
72
65
73
0
40
0
0
LTYPE
5
37
330
21
100
AcDbSymbolTableRecord
100
AcDbLinetypeTableRecord
2
CENTER
70
0
3
____ _ ____ _ ____ _ ____ _ ____ _ ____ _ ____ 
72
65
73
5
40
20
49
8.8
74
0
49
-1
74
0
49
0.4
74
0
49
-1
74
0
49
8.8
74
0
0
LTYPE
5
38
330
21
100
AcDbSymbolTableRecord
100
AcDbLinetypeTableRecord
2
HIDDEN
70
0
3
__ __ __ __ __ __ __ __ __ __ __ __ __ __ __ __
72
65
73
3
40
4
49
1.5
74
0
49
-1
74
0
49
1.5
74
0
0
LTYPE
5
39
330
21
100
AcDbSymbolTableRecord
100
AcDbLinetypeTableRecord
2
PHANTOM2
70
0
3
Phantom (.5x) ___ _ _ ___ _ _ ___ _ _ ___ _ _
72
65
73
6
40
1.25
49
0.625
74
0
49
-0.125
74
0
49
0.125
74
0
49
-0.125
74
0
49
0.125
74
0
49
-0.125
74
0
0
LTYPE
5
3A
330
21
100
AcDbSymbolTableRecord
100
AcDbLinetypeTableRecord
2
ASULTYPE
70
0
3
\U+5BE6\U+7DDA
72
65
73
2
40
3
49
2.5
74
0
49
0.5
74
0
0
LTYPE
5
3B
330
21
100
AcDbSymbolTableRecord
100
AcDbLinetypeTableRecord
2
ASVLTYPE
70
0
3
__ __ __ __ __ __ __ __ __ __ __ __ __ __ __ __ __ __ __ __ __
72
65
73
2
40
0.75
49
0.5
74
0
49
-0.25
74
0
0
LTYPE
5
3C
330
21
100
AcDbSymbolTableRecord
100
AcDbLinetypeTableRecord
2
AM_ISO02W050
70
0
3
__ __ __ __ __ __ __ __ __ __ __ __ __ __ __
72
65
73
2
40
7.5
49
6
74
0
49
-1.5
74
0
0
LTYPE
5
3D
330
21
100
AcDbSymbolTableRecord
100
AcDbLinetypeTableRecord
2
AM_ISO08W050
70
0
3
____ . ____ . ____ . ____ . ____ . ____ . ____
72
65
73
4
40
18
49
12
74
0
49
-1.5
74
0
49
3
74
0
49
-1.5
74
0
0
LTYPE
5
3E
330
21
100
AcDbSymbolTableRecord
100
AcDbLinetypeTableRecord
2
AM_ISO09W050
70
0
3
_____ . . _____ . . _____ . . ____ .. ____
72
65
73
6
40
22.5
49
12
74
0
49
-1.5
74
0
49
3
74
0
49
-1.5
74
0
49
3
74
0
49
-1.5
74
0
0
LTYPE
5
3F
330
21
100
AcDbSymbolTableRecord
100
AcDbLinetypeTableRecord
2
Amconstr
70
0
3
_______________________
72
65
73
2
40
9999
49
9999
74
0
49
0
74
0
0
LTYPE
5
40
330
21
100
AcDbSymbolTableRecord
100
AcDbLinetypeTableRecord
2
AM_ISO08W050x2
70
0
3
__ . __ . __ . __ . __ . __
72
65
73
4
40
9
49
6
74
0
49
-0.75
74
0
49
1.5
74
0
49
-0.75
74
0
0
LTYPE
5
41
330
21
100
AcDbSymbolTableRecord
100
AcDbLinetypeTableRecord
2
AM_ISO02W050x2
70
0
3
 _ _ _ _ _ _ _ _ _ _ _ _
72
65
73
2
40
3.75
49
3
74
0
49
-0.75
74
0
0
LTYPE
5
42
330
21
100
AcDbSymbolTableRecord
100
AcDbLinetypeTableRecord
2
Amzigzag
70
0
3
/\/-/\/-/\/-/\/-/\/-/\/
72
65
73
2
40
11.0001
49
0.0001
74
0
49
-11
74
0
0
LTYPE
5
43
330
21
100
AcDbSymbolTableRecord
100
AcDbLinetypeTableRecord
2
CENTER2
70
0
3
Center (.5x) ___ _ ___ _ ___ _ ___ _ ___ _ ___
72
65
73
4
40
1.125
49
0.75
74
0
49
-0.125
74
0
49
0.125
74
0
49
-0.125
74
0
0
LTYPE
5
44
330
21
100
AcDbSymbolTableRecord
100
AcDbLinetypeTableRecord
2
HIDDEN2
70
0
3
Hidden (.5x) _ _ _ _ _ _ _ _ _ _ _ _ _ _ _ _ _
72
65
73
2
40
0.1875
49
0.125
74
0
49
-0.0625
74
0
0
LTYPE
5
45
330
21
100
AcDbSymbolTableRecord
100
AcDbLinetypeTableRecord
2
Amzigzag2
70
0
3
/\/-/\/-/\/-/\/-/\/-/\/
72
65
73
2
40
0.4401
49
0.0001
74
0
49
-0.44
74
0
0
LTYPE
5
46
330
21
100
AcDbSymbolTableRecord
100
AcDbLinetypeTableRecord
2
ACANSTGB
70
0
3
__ . . __ . .
72
65
73
6
40
0.35433070866
49
0.15748031496
74
0
49
-0.03937007874
74
0
49
0.03937007874
74
0
49
-0.03937007874
74
0
49
0.03937007874
74
0
49
-0.03937007874
74
0
0
LTYPE
5
47
330
21
100
AcDbSymbolTableRecord
100
AcDbLinetypeTableRecord
2
ACANSTGL
70
0
3
_ _ _ _ _
72
65
73
2
40
0.11811023622
49
0.07874015748
74
0
49
-0.03937007874
74
0
0
LTYPE
5
48
330
21
100
AcDbSymbolTableRecord
100
AcDbLinetypeTableRecord
2
ACISOWELD
70
0
3
_ _ _ _ _
72
65
73
2
40
3
49
2
74
0
49
-1
74
0
0
LTYPE
5
49
330
21
100
AcDbSymbolTableRecord
100
AcDbLinetypeTableRecord
2
ACISOTGB
70
0
3
__ . . __ . .
72
65
73
6
40
9
49
4
74
0
49
-1
74
0
49
1
74
0
49
-1
74
0
49
1
74
0
49
-1
74
0
0
LTYPE
5
4A
330
21
100
AcDbSymbolTableRecord
100
AcDbLinetypeTableRecord
2
ACISOTGL
70
0
3
_ _ _ _ _
72
65
73
2
40
3
49
2
74
0
49
-1
74
0
0
ENDTAB
0
TABLE
2
LAYER
5
22
330
0
100
AcDbSymbolTable
70
11
0
LAYER
5
4B
330
22
100
AcDbSymbolTableRecord
100
AcDbLayerTableRecord
2
0
70
0
62
7
6
Continuous
370
0
390
0
0
LAYER
5
4C
330
22
100
AcDbSymbolTableRecord
100
AcDbLayerTableRecord
2
CON
70
0
62
4
6
Continuous
370
0
390
0
0
LAYER
5
4D
330
22
100
AcDbSymbolTableRecord
100
AcDbLayerTableRecord
2
HID
70
0
62
2
6
HIDDEN
370
0
390
0
0
LAYER
5
4E
330
22
100
AcDbSymbolTableRecord
100
AcDbLayerTableRecord
2
DIM
70
0
62
3
6
Continuous
370
0
390
0
0
LAYER
5
4F
330
22
100
AcDbSymbolTableRecord
100
AcDbLayerTableRecord
2
CEN
70
0
62
1
6
CENTER
370
0
390
0
0
LAYER
5
50
330
22
100
AcDbSymbolTableRecord
100
AcDbLayerTableRecord
2
TEXT
70
0
62
7
6
Continuous
370
0
390
0
0
LAYER
5
51
330
22
100
AcDbSymbolTableRecord
100
AcDbLayerTableRecord
2
Defpoints
70
0
62
-7
6
Continuous
370
0
390
0
0
LAYER
5
52
330
22
100
AcDbSymbolTableRecord
100
AcDbLayerTableRecord
2
chinese
70
0
62
-252
6
Continuous
370
0
390
0
0
LAYER
5
53
330
22
100
AcDbSymbolTableRecord
100
AcDbLayerTableRecord
2
DCS
70
0
62
7
6
Continuous
370
0
390
0
0
LAYER
5
54
330
22
100
AcDbSymbolTableRecord
100
AcDbLayerTableRecord
2
TXT1
70
0
62
3
6
Continuous
370
0
390
0
0
LAYER
5
55
330
22
100
AcDbSymbolTableRecord
100
AcDbLayerTableRecord
2
LINE
70
0
62
4
6
Continuous
370
0
390
0
0
ENDTAB
0
TABLE
2
STYLE
5
23
330
0
100
AcDbSymbolTable
70
9
0
STYLE
5
56
330
23
100
AcDbSymbolTableRecord
100
AcDbTextStyleTableRecord
2
STANDARD
70
0
40
0
41
1
50
0
71
0
42
0.2
3
kaiu.ttf
4

0
STYLE
5
57
330
23
100
AcDbSymbolTableRecord
100
AcDbTextStyleTableRecord
2
ROMANS
70
0
40
0
41
0.8
50
0
71
0
42
1.630318727057329
3
romans
4

0
STYLE
5
58
330
23
100
AcDbSymbolTableRecord
100
AcDbTextStyleTableRecord
2
CHINA
70
0
40
0
41
0.85
50
0
71
0
42
3
3
ROMANS.shx
4

0
STYLE
5
59
330
23
100
AcDbSymbolTableRecord
100
AcDbTextStyleTableRecord
2
STYLE_B7A
70
0
40
0
41
1
50
0
71
0
42
2.3
3
ltypeshp.shx
4

0
STYLE
5
5A
330
23
100
AcDbSymbolTableRecord
100
AcDbTextStyleTableRecord
2
ACANSTS
70
0
40
1
41
1
50
0
71
0
42
2.3
3
romans.shx
4
chineset.shx
0
STYLE
5
5B
330
23
100
AcDbSymbolTableRecord
100
AcDbTextStyleTableRecord
2
ACANSGDT
70
0
40
0
41
1
50
0
71
0
42
2.3
3
amgdtans.shx
4

0
STYLE
5
5C
330
23
100
AcDbSymbolTableRecord
100
AcDbTextStyleTableRecord
2
ACISOTS
70
0
40
1
41
1
50
0
71
0
42
2.5
3
isocp.shx
4
chineset.shx
0
STYLE
5
5D
330
23
100
AcDbSymbolTableRecord
100
AcDbTextStyleTableRecord
2
ACISOGDT
70
0
40
0
41
1
50
0
71
0
42
2.5
3
amgdt.shx
4

0
STYLE
5
5E
330
23
100
AcDbSymbolTableRecord
100
AcDbTextStyleTableRecord
2
DAYUXP
70
0
40
0
41
1
50
0
71
0
42
2.5
3
SIMPLEX.shx
4

0
ENDTAB
0
TABLE
2
VIEW
5
24
330
0
100
AcDbSymbolTable
70
0
0
ENDTAB
0
TABLE
2
UCS
5
25
330
0
100
AcDbSymbolTable
70
0
0
ENDTAB
0
TABLE
2
APPID
5
26
330
0
100
AcDbSymbolTable
70
1
0
APPID
5
2AD
330
26
100
AcDbSymbolTableRecord
100
AcDbRegAppTableRecord
2
ACAD
70
0
0
ENDTAB
0
TABLE
2
DIMSTYLE
5
27
330
0
100
AcDbSymbolTable
70
1
100
AcDbDimStyleTable
0
DIMSTYLE
105
2AE
330
27
100
AcDbSymbolTableRecord
100
AcDbDimStyleTableRecord
2
Standard
70
0
0
ENDTAB
0
TABLE
2
BLOCK_RECORD
5
28
330
0
100
AcDbSymbolTable
70
18
0
BLOCK_RECORD
5
2C
330
28
100
AcDbSymbolTableRecord
100
AcDbBlockTableRecord
2
*Model_Space
340
2E
0
BLOCK_RECORD
5
2D
330
28
100
AcDbSymbolTableRecord
100
AcDbBlockTableRecord
2
*Paper_Space
340
2F
0
BLOCK_RECORD
5
5F
330
28
100
AcDbSymbolTableRecord
100
AcDbBlockTableRecord
2
LAMP1
340
0
0
BLOCK_RECORD
5
60
330
28
100
AcDbSymbolTableRecord
100
AcDbBlockTableRecord
2
ACAD1160
340
0
0
BLOCK_RECORD
5
61
330
28
100
AcDbSymbolTableRecord
100
AcDbBlockTableRecord
2
ACAD1700
340
0
0
BLOCK_RECORD
5
62
330
28
100
AcDbSymbolTableRecord
100
AcDbBlockTableRecord
2
ACAD3D7D
340
0
0
BLOCK_RECORD
5
63
330
28
100
AcDbSymbolTableRecord
100
AcDbBlockTableRecord
2
002
340
0
0
BLOCK_RECORD
5
64
330
28
100
AcDbSymbolTableRecord
100
AcDbBlockTableRecord
2
Q1
340
0
0
BLOCK_RECORD
5
65
330
28
100
AcDbSymbolTableRecord
100
AcDbBlockTableRecord
2
GENAXEH
340
0
0
BLOCK_RECORD
5
66
330
28
100
AcDbSymbolTableRecord
100
AcDbBlockTableRecord
2
A$C0B5D597B
340
0
0
BLOCK_RECORD
5
67
330
28
100
AcDbSymbolTableRecord
100
AcDbBlockTableRecord
2
A$C64CF62AB
340
0
0
BLOCK_RECORD
5
68
330
28
100
AcDbSymbolTableRecord
100
AcDbBlockTableRecord
2
A$C49383ED0
340
0
0
BLOCK_RECORD
5
69
330
28
100
AcDbSymbolTableRecord
100
AcDbBlockTableRecord
2
A$C79444D87
340
0
0
BLOCK_RECORD
5
6A
330
28
100
AcDbSymbolTableRecord
100
AcDbBlockTableRecord
2
A$C343620FF
340
0
0
BLOCK_RECORD
5
6B
330
28
100
AcDbSymbolTableRecord
100
AcDbBlockTableRecord
2
A$C53E55C31
340
0
0
BLOCK_RECORD
5
9B
330
28
100
AcDbSymbolTableRecord
100
AcDbBlockTableRecord
2
WMF6
340
0
0
BLOCK_RECORD
5
9D
330
28
100
AcDbSymbolTableRecord
100
AcDbBlockTableRecord
2
test
340
0
0
BLOCK_RECORD
5
AF
330
28
100
AcDbSymbolTableRecord
100
AcDbBlockTableRecord
2
00_FORM
340
0
0
ENDTAB
0
ENDSEC
0
SECTION
2
BLOCKS
0
BLOCK
5
30
330
2C
100
AcDbEntity
8
0
100
AcDbBlockBegin
2
*Model_Space
70
0
10
0
20
0
30
0
3
*Model_Space
1

0
ENDBLK
5
31
330
2C
100
AcDbEntity
8
0
100
AcDbBlockEnd
0
BLOCK
5
32
330
2D
100
AcDbEntity
67
1
8
0
100
AcDbBlockBegin
2
*Paper_Space
70
0
10
0
20
0
30
0
3
*Paper_Space
1

0
ENDBLK
5
33
330
2D
100
AcDbEntity
67
1
8
0
100
AcDbBlockEnd
0
BLOCK
5
253
330
5F
100
AcDbEntity
8
0
100
AcDbBlockBegin
2
LAMP1
70
0
10
0
20
0
30
0
3
LAMP1
1

0
LINE
5
254
330
5F
100
AcDbEntity
8
CON
100
AcDbLine
10
2.999999999999943
20
-2.8337284425049063
30
0
11
2.999999999999943
21
-5.833728442504906
31
0
0
LINE
5
255
330
5F
100
AcDbEntity
8
CON
100
AcDbLine
10
2.999999999999943
20
-5.833728442504906
30
0
11
8.999999999999943
21
-5.833728442504906
31
0
0
LINE
5
256
330
5F
100
AcDbEntity
8
CON
100
AcDbLine
10
8.999999999999943
20
-5.833728442504906
30
0
11
8.999999999999943
21
-2.8337284425049063
31
0
0
LINE
5
257
330
5F
100
AcDbEntity
8
CON
100
AcDbLine
10
8.999999999999943
20
-2.8337284425049063
30
0
11
2.999999999999943
21
-2.8337284425049063
31
0
0
SOLID
5
258
330
5F
100
AcDbEntity
8
CON
100
AcDbTrace
10
4.499999999999943
20
-2.8337284425049063
30
0
11
2.999999999999943
21
-2.8337284425049063
31
0
12
2.999999999999943
22
-4.333728442504906
32
0
13
2.999999999999943
23
-4.333728442504906
33
0
0
SOLID
5
259
330
5F
100
AcDbEntity
8
CON
100
AcDbTrace
10
2.999999999999943
20
-4.333728442504906
30
0
11
2.999999999999943
21
-5.833728442504906
31
0
12
4.499999999999943
22
-5.833728442504906
32
0
13
4.499999999999943
23
-5.833728442504906
33
0
0
SOLID
5
25A
330
5F
100
AcDbEntity
8
CON
100
AcDbTrace
10
7.499999999999943
20
-2.8337284425049063
30
0
11
8.999999999999943
21
-2.8337284425049063
31
0
12
8.999999999999943
22
-4.333728442504906
32
0
13
8.999999999999943
23
-4.333728442504906
33
0
0
SOLID
5
25B
330
5F
100
AcDbEntity
8
CON
100
AcDbTrace
10
8.999999999999943
20
-4.333728442504906
30
0
11
8.999999999999943
21
-5.833728442504906
31
0
12
7.499999999999943
22
-5.833728442504906
32
0
13
7.499999999999943
23
-5.833728442504906
33
0
0
LINE
5
25C
330
5F
100
AcDbEntity
8
CON
100
AcDbLine
10
2.999999999999943
20
-2.8337284425049063
30
0
11
1.4999999999999432
21
-1.3337284425049063
31
0
0
LINE
5
25D
330
5F
100
AcDbEntity
8
CON
100
AcDbLine
10
8.999999999999943
20
-2.8337284425049063
30
0
11
10.499999999999943
21
-1.3337284425049063
31
0
0
LINE
5
25E
330
5F
100
AcDbEntity
8
CON
100
AcDbLine
10
8.999999999999943
20
-5.833728442504906
30
0
11
10.499999999999943
21
-7.333728442504906
31
0
0
LINE
5
25F
330
5F
100
AcDbEntity
8
CON
100
AcDbLine
10
2.999999999999943
20
-5.833728442504906
30
0
11
1.4999999999999432
21
-7.333728442504906
31
0
0
ENDBLK
5
260
330
5F
100
AcDbEntity
8
0
100
AcDbBlockEnd
0
BLOCK
5
261
330
60
100
AcDbEntity
8
0
100
AcDbBlockBegin
2
ACAD1160
70
0
10
0
20
0
30
0
3
ACAD1160
1

0
INSERT
5
262
330
60
100
AcDbEntity
8
CON
100
AcDbBlockReference
2
ACAD1700
10
0.22458547612729263
20
0.2244580974694741
30
0
0
ENDBLK
5
263
330
60
100
AcDbEntity
8
0
100
AcDbBlockEnd
0
BLOCK
5
264
330
61
100
AcDbEntity
8
0
100
AcDbBlockBegin
2
ACAD1700
70
0
10
0
20
0
30
0
3
ACAD1700
1

0
TEXT
5
265
330
61
100
AcDbEntity
8
CON
100
AcDbText
10
261.21119007319396
20
14.801747175563227
30
0
40
2.7
1
MAI-LIAO, HI-FONG PLANT
41
0.8
7
STANDARD
11
261.21119007319396
21
14.040973694900243
31
0
100
AcDbText
73
1
0
TEXT
5
266
330
61
100
AcDbEntity
8
CON
100
AcDbText
10
252.60073738270347
20
9.077925779172205
30
0
40
2.7
1
500T/H COAL/OIL FIRING BOILER
41
0.8
7
STANDARD
11
252.60073738270347
21
8.317152298509221
31
0
100
AcDbText
73
1
0
ENDBLK
5
267
330
61
100
AcDbEntity
8
0
100
AcDbBlockEnd
0
BLOCK
5
268
330
62
100
AcDbEntity
8
0
100
AcDbBlockBegin
2
ACAD3D7D
70
0
10
0
20
0
30
0
3
ACAD3D7D
1

0
TEXT
5
269
330
62
100
AcDbEntity
8
CON
100
AcDbText
10
125.3157766862803
20
16.76317884997611
30
0
40
2
1
`97-12-12
41
0.8
7
STANDARD
11
125.3157766862803
21
16.199642938373902
31
0
100
AcDbText
73
1
0
ENDBLK
5
26A
330
62
100
AcDbEntity
8
0
100
AcDbBlockEnd
0
BLOCK
5
26B
330
63
100
AcDbEntity
8
0
100
AcDbBlockBegin
2
002
70
0
10
0
20
0
30
0
3
002
1

0
MTEXT
5
26C
330
63
100
AcDbEntity
8
CON
100
AcDbMText
10
3.2845400766710497
20
-0.931571290754956
30
0
40
1.863
41
7.6
71
1
72
5
1
{\f\U+FFB7s\U+FFB2\U+FFD3\U+FFA9\U+FFFA\U+FFC5\U+FFE9|b0|i0|c136|p54;\U+8521\U+660E\U+9713}
7
ROMANS
73
1
44
1
0
TEXT
5
26D
330
63
100
AcDbEntity
8
CON
100
AcDbText
10
150.4674758573598
20
-4.767623208354591
30
0
40
2.7
1
FORMOSA PETROCHEMICAC 
41
0.8
7
STANDARD
11
150.4674758573598
21
-5.528396689017574
31
0
100
AcDbText
73
1
0
TEXT
5
26E
330
63
100
AcDbEntity
8
CON
100
AcDbText
10
150.20980274214972
20
-9.269937017021645
30
0
40
2.7
1
CORP. LTD HP-5 500T/H 
41
0.8
7
STANDARD
11
150.20980274214972
21
-10.030710497684629
31
0
100
AcDbText
73
1
0
TEXT
5
26F
330
63
100
AcDbEntity
8
CON
100
AcDbText
10
150.20980274214972
20
-13.772249497249588
30
0
40
2.7
1
COAL/OIL FIRING BOILER
41
0.8
7
STANDARD
11
150.20980274214972
21
-14.533022977912571
31
0
100
AcDbText
73
1
0
TEXT
5
270
330
63
100
AcDbEntity
8
CON
100
AcDbText
10
268.20422008948606
20
-5.417153495615244
30
0
40
3.6
1
HP5-M1-002
41
0.8
7
ROMANS
100
AcDbText
0
ENDBLK
5
271
330
63
100
AcDbEntity
8
0
100
AcDbBlockEnd
0
BLOCK
5
272
330
64
100
AcDbEntity
8
0
100
AcDbBlockBegin
2
Q1
70
0
10
0
20
0
30
0
3
Q1
1

0
MTEXT
5
273
330
64
100
AcDbEntity
8
CON
100
AcDbMText
10
-11.21843696617421
20
-11.783211013653837
30
0
40
1.863
41
7.6
71
1
72
5
1
{\f\U+FFB7s\U+FFB2\U+FFD3\U+FFA9\U+FFFA\U+FFC5\U+FFE9|b0|i0|c136|p54;\U+8521\U+660E\U+7965}
7
ROMANS
73
1
44
1
0
MTEXT
5
274
330
64
100
AcDbEntity
8
CON
100
AcDbMText
10
-11.21843696617421
20
-0.931571290754956
30
0
40
1.863
41
7.6
71
1
72
5
1
{\f\U+FFB7s\U+FFB2\U+FFD3\U+FFA9\U+FFFA\U+FFC5\U+FFE9|b0|i0|c136|p54;\U+5F90\U+660E\U+739F}
7
ROMANS
73
1
44
1
0
MTEXT
5
275
330
64
100
AcDbEntity
8
CON
100
AcDbMText
10
-11.21843696617421
20
-8.122416487013876
30
0
40
1.863
41
7.6
71
1
72
5
1
{\f\U+FFB7s\U+FFB2\U+FFD3\U+FFA9\U+FFFA\U+FFC5\U+FFE9|b0|i0|c136|p54;\U+8D99\U+5922\U+751F}
7
ROMANS
73
1
44
1
0
MTEXT
5
276
330
64
100
AcDbEntity
8
CON
100
AcDbMText
10
-11.21843696617421
20
-4.5923651343348375
30
0
40
1.863
41
7.6
71
1
72
5
1
{\f\U+FFB7s\U+FFB2\U+FFD3\U+FFA9\U+FFFA\U+FFC5\U+FFE9|b0|i0|c136|p54;\U+6797\U+898B\U+9577}
7
ROMANS
73
1
44
1
0
TEXT
5
277
330
64
100
AcDbEntity
8
DIM
62
4
100
AcDbText
10
3.945486247854194
20
-13.531470020869072
30
0
40
1.5
1
2005.03.04
41
0.75
7
STANDARD
72
4
11
7.923386800340381
21
-12.848804275012718
31
0
100
AcDbText
0
TEXT
5
278
330
64
100
AcDbEntity
8
DIM
62
4
100
AcDbText
10
3.945486247854194
20
-6.340624824610152
30
0
40
1.5
1
2005.03.03
41
0.75
7
STANDARD
72
4
11
7.923386800340381
21
-5.657959078753798
31
0
100
AcDbText
0
TEXT
5
279
330
64
100
AcDbEntity
8
DIM
62
4
100
AcDbText
10
3.945486247854194
20
-10.063973550324384
30
0
40
1.5
1
2005.03.04
41
0.75
7
STANDARD
72
4
11
7.923386800340381
21
-9.38130780446803
31
0
100
AcDbText
0
TEXT
5
27A
330
64
100
AcDbEntity
8
DIM
62
4
100
AcDbText
10
3.945486247854194
20
-2.8731283540654635
30
0
40
1.5
1
2005.03.03
41
0.75
7
STANDARD
72
4
11
7.923386800340381
21
-2.19046260820911
31
0
100
AcDbText
0
ENDBLK
5
27B
330
64
100
AcDbEntity
8
0
100
AcDbBlockEnd
0
BLOCK
5
27C
330
65
100
AcDbEntity
8
0
100
AcDbBlockBegin
2
GENAXEH
70
0
10
0
20
0
30
0
3
GENAXEH
1

0
LINE
5
27D
330
65
100
AcDbEntity
8
0
100
AcDbLine
10
-1
20
0
30
0
11
1
21
0
31
0
0
ENDBLK
5
27E
330
65
100
AcDbEntity
8
0
100
AcDbBlockEnd
0
BLOCK
5
27F
330
66
100
AcDbEntity
8
0
100
AcDbBlockBegin
2
A$C0B5D597B
70
0
10
0
20
0
30
0
3
A$C0B5D597B
1

0
SOLID
5
280
330
66
100
AcDbEntity
8
CON
370
9
100
AcDbTrace
10
-4.774486797032296e-7
20
12.286877865616134
30
0
11
-4.774486797032296e-7
21
11.286877865616134
31
0
12
2.9999995225513203
22
11.786877865616134
32
0
13
2.9999995225513203
23
11.786877865616134
33
0
0
SOLID
5
281
330
66
100
AcDbEntity
8
CON
370
9
100
AcDbTrace
10
-4.774486797032296e-7
20
3.0611899608027215
30
0
11
-4.774486797032296e-7
21
2.0611899608027215
31
0
12
2.9999995225513203
22
2.5611899608027215
32
0
13
2.9999995225513203
23
2.5611899608027215
33
0
0
TEXT
5
282
330
66
100
AcDbEntity
8
CON
370
9
100
AcDbText
10
5.987448497226513
20
5.905588544941338
30
0
40
2.5
1
OR
41
0.8
7
ROMANS
72
4
11
8.03506754484556
21
7.155588544941338
31
0
100
AcDbText
0
LWPOLYLINE
5
283
330
66
100
AcDbEntity
8
CON
100
AcDbPolyline
90
2
70
0
43
1
10
3.421081475950132
20
14.711225328775868
40
1
41
1
10
3.421081475950132
20
0
40
1
41
1
0
ENDBLK
5
284
330
66
100
AcDbEntity
8
0
100
AcDbBlockEnd
0
BLOCK
5
285
330
67
100
AcDbEntity
8
0
100
AcDbBlockBegin
2
A$C64CF62AB
70
0
10
0
20
0
30
0
3
A$C64CF62AB
1

0
LINE
5
286
330
67
100
AcDbEntity
8
CON
370
15
100
AcDbLine
10
12.549112654708608
20
11.896872051101525
30
0
11
12.549112654708608
21
3.0109701834217617
31
0
0
LWPOLYLINE
5
287
330
67
100
AcDbEntity
8
CON
370
15
100
AcDbPolyline
90
2
70
0
43
1
10
3.549112654708665
20
14.371962186551855
40
1
41
1
10
3.549112654708665
20
-2.0664492694777437e-7
40
1
41
1
0
LINE
5
288
330
67
100
AcDbEntity
8
CON
370
15
100
AcDbLine
10
12.549112654708551
20
3.0109701834217333
30
0
11
3.549112654708665
21
3.0109701834217333
31
0
0
TEXT
5
289
330
67
100
AcDbEntity
8
CON
370
15
100
AcDbText
10
5.2395888451848
20
6.182259007865582
30
0
40
2.5
1
AND
41
0.8
7
ROMANS
72
4
11
8.049112654708608
21
7.432259007865582
31
0
100
AcDbText
0
LINE
5
28A
330
67
100
AcDbEntity
8
CON
370
15
100
AcDbLine
10
3.549112654708665
20
11.896872051101468
30
0
11
12.549112654708551
21
11.896872051101468
31
0
0
SOLID
5
28B
330
67
100
AcDbEntity
8
CON
370
15
100
AcDbTrace
10
7.781043223076267e-7
20
3.4213548472596074
30
0
11
7.781043223076267e-7
21
2.4213548472596074
31
0
12
3.0000007781043223
22
2.9213548472596074
32
0
13
3.0000007781043223
23
2.9213548472596074
33
0
0
SOLID
5
28C
330
67
100
AcDbEntity
8
CON
370
15
100
AcDbTrace
10
7.781043223076267e-7
20
12.079656021267823
30
0
11
7.781043223076267e-7
21
11.079656021267823
31
0
12
3.0000007781043223
22
11.579656021267823
32
0
13
3.0000007781043223
23
11.579656021267823
33
0
0
ENDBLK
5
28D
330
67
100
AcDbEntity
8
0
100
AcDbBlockEnd
0
BLOCK
5
28E
330
68
100
AcDbEntity
8
0
100
AcDbBlockBegin
2
A$C49383ED0
70
0
10
0
20
0
30
0
3
A$C49383ED0
1

0
TEXT
5
28F
330
68
100
AcDbEntity
8
CON
370
9
100
AcDbText
10
9.681948291969945
20
5.433408766249887
30
0
40
1.56
1
ON TIMER
41
0.8
7
ROMANS
11
9.681948291969945
21
4.913408766249887
31
0
100
AcDbText
73
1
0
ARC
5
290
330
68
100
AcDbEntity
8
CON
370
9
100
AcDbCircle
10
4.199999437036553
20
4.7249998829793185
30
0
40
4.725
100
AcDbArc
50
270
51
90
0
TEXT
5
291
330
68
100
AcDbEntity
8
CON
370
9
100
AcDbText
10
4.319914135199715
20
5.582917451733778
30
0
40
1.75
1
5
41
0.8
7
ROMANS
72
4
11
4.986580801866381
21
6.457917451733778
31
0
100
AcDbText
0
TEXT
5
292
330
68
100
AcDbEntity
8
CON
370
9
100
AcDbText
10
3.2416004869053476
20
2.922106768261415
30
0
40
1.75
1
MIN.
41
0.8
7
ROMANS
72
4
11
5.374933820238681
21
3.797106768261415
31
0
100
AcDbText
0
LINE
5
293
330
68
100
AcDbEntity
8
CON
370
9
100
AcDbLine
10
2.0999994370365584
20
9.449999882979341
30
0
11
2.0999994370365584
21
-1.1702067581609299e-7
31
0
0
LINE
5
294
330
68
100
AcDbEntity
8
CON
370
9
100
AcDbLine
10
2.0999994370365584
20
-1.1702067581609299e-7
30
0
11
4.199999437036553
21
-1.1702067581609299e-7
31
0
0
SOLID
5
295
330
68
100
AcDbEntity
8
CON
370
9
100
AcDbTrace
10
-5.629634358683688e-7
20
5.074999882979313
30
0
11
-5.629634358683688e-7
21
4.374999882979324
31
0
12
2.0999994370365584
22
4.7249998829793185
32
0
13
2.0999994370365584
23
4.7249998829793185
33
0
0
LINE
5
296
330
68
100
AcDbEntity
8
CON
370
9
100
AcDbLine
10
2.0999994370365584
20
9.449999882979341
30
0
11
4.199999437036553
21
9.449999882979341
31
0
0
ENDBLK
5
297
330
68
100
AcDbEntity
8
0
100
AcDbBlockEnd
0
BLOCK
5
298
330
69
100
AcDbEntity
8
0
100
AcDbBlockBegin
2
A$C79444D87
70
0
10
0
20
0
30
0
3
A$C79444D87
1

0
LWPOLYLINE
5
299
330
69
100
AcDbEntity
8
CON
370
15
100
AcDbPolyline
90
2
70
1
43
0.75
10
0.3749993883729985
20
0.7499996082414668
40
0.75
41
0.75
42
1
10
1.1249993883729985
20
0.7499996082414668
40
0.75
41
0.75
42
1
0
ENDBLK
5
29A
330
69
100
AcDbEntity
8
0
100
AcDbBlockEnd
0
BLOCK
5
29B
330
6A
100
AcDbEntity
8
0
100
AcDbBlockBegin
2
A$C343620FF
70
0
10
0
20
0
30
0
3
A$C343620FF
1

0
LINE
5
29C
330
6A
100
AcDbEntity
8
HID
370
9
100
AcDbLine
10
-110.75000000000023
20
0
30
0
11
0
21
0
31
0
0
ENDBLK
5
29D
330
6A
100
AcDbEntity
8
0
100
AcDbBlockEnd
0
BLOCK
5
29E
330
6B
100
AcDbEntity
8
0
100
AcDbBlockBegin
2
A$C53E55C31
70
0
10
0
20
0
30
0
3
A$C53E55C31
1

0
LINE
5
29F
330
6B
100
AcDbEntity
8
CON
100
AcDbLine
10
0
20
0
30
0
11
65.144909239974
21
0
31
0
0
SOLID
5
2A0
330
6B
100
AcDbEntity
8
CON
370
9
100
AcDbTrace
10
62.1150749387144
20
0.5090643722306822
30
0
11
62.1150749387144
21
-0.5010366381692393
31
0
12
65.14537796991445
22
0.004013867030778329
32
0
13
65.14537796991445
23
0.004013867030778329
33
0
0
LINE
5
2A1
330
6B
100
AcDbEntity
8
CON
100
AcDbLine
10
0
20
-8.371964065238785
30
0
11
65.144909239974
21
-8.371964065238785
31
0
0
SOLID
5
2A2
330
6B
100
AcDbEntity
8
CON
370
9
100
AcDbTrace
10
62.1150749387144
20
-7.862899693008103
30
0
11
62.1150749387144
21
-8.873000703408024
31
0
12
65.14537796991445
22
-8.367950198208007
32
0
13
65.14537796991445
23
-8.367950198208007
33
0
0
LINE
5
2A3
330
6B
100
AcDbEntity
8
CON
100
AcDbLine
10
0
20
-17.97181569549423
30
0
11
65.144909239974
21
-17.97181569549423
31
0
0
SOLID
5
2A4
330
6B
100
AcDbEntity
8
CON
370
9
100
AcDbTrace
10
62.1150749387144
20
-17.462751323263547
30
0
11
62.1150749387144
21
-18.472852333663468
31
0
12
65.14537796991445
22
-17.96780182846345
32
0
13
65.14537796991445
23
-17.96780182846345
33
0
0
ENDBLK
5
2A5
330
6B
100
AcDbEntity
8
0
100
AcDbBlockEnd
0
BLOCK
5
2A6
330
9B
100
AcDbEntity
8
0
100
AcDbBlockBegin
2
WMF6
70
0
10
290.05311517445585
20
-290.05311517445585
30
0
3
WMF6
1

0
ENDBLK
5
2A7
330
9B
100
AcDbEntity
8
0
100
AcDbBlockEnd
0
BLOCK
5
2A8
330
9D
100
AcDbEntity
8
0
100
AcDbBlockBegin
2
test
70
0
10
0
20
0
30
0
3
test
1

0
ENDBLK
5
2A9
330
9D
100
AcDbEntity
8
0
100
AcDbBlockEnd
0
BLOCK
5
2AA
330
AF
100
AcDbEntity
8
0
100
AcDbBlockBegin
2
00_FORM
70
0
10
0
20
0
30
0
3
00_FORM
1

0
ENDBLK
5
2AB
330
AF
100
AcDbEntity
8
0
100
AcDbBlockEnd
0
ENDSEC
0
SECTION
2
ENTITIES
0
TEXT
5
6C
330
2C
100
AcDbEntity
8
CON
100
AcDbText
10
755.2504434399202
20
543
30
0
40
3
1
    
41
0.8
7
ROMANS
72
4
11
760.0504434399202
21
543
31
0
100
AcDbText
0
TEXT
5
6D
330
2C
100
AcDbEntity
8
CON
100
AcDbText
10
786.8652514726374
20
287.43948469584313
30
0
40
3
1
    
7
ROMANS
72
4
11
792.8652514726374
21
287.43948469584313
31
0
100
AcDbText
0
TEXT
5
6E
330
2C
100
AcDbEntity
8
CON
100
AcDbText
10
774.8148080327171
20
369.4393092295795
30
0
40
3
1
    
7
ROMANS
72
4
11
780.8148080327171
21
369.4393092295795
31
0
100
AcDbText
0
TEXT
5
6F
330
2C
100
AcDbEntity
8
CON
100
AcDbText
10
753.8148080327171
20
513.4394846958431
30
0
40
3
1
    
7
ROMANS
72
4
11
759.8148080327171
21
513.4394846958431
31
0
100
AcDbText
0
TEXT
5
70
330
2C
100
AcDbEntity
8
CON
100
AcDbText
10
148.40000000000006
20
190.1428571428572
30
0
40
3
1
   
41
0.8
7
ROMANS
72
4
11
152.00000000000006
21
190.1428571428572
31
0
100
AcDbText
0
TEXT
5
71
330
2C
100
AcDbEntity
8
CON
100
AcDbText
10
184.76436459279694
20
459.7293007227441
30
0
40
3
1
  
7
ROMANS
72
4
11
187.76436459279694
21
459.7293007227441
31
0
100
AcDbText
0
TEXT
5
72
330
2C
100
AcDbEntity
8
CON
100
AcDbText
10
182.75064090825902
20
454.40123929958537
30
0
40
3
1
    
7
ROMANS
72
4
11
188.75064090825902
21
454.40123929958537
31
0
100
AcDbText
0
TEXT
5
73
330
2C
100
AcDbEntity
8
CON
100
AcDbText
10
226.85044343992024
20
533.2857142857142
30
0
40
3
1
 
41
0.8
7
ROMANS
72
4
11
228.05044343992023
21
533.2857142857142
31
0
100
AcDbText
0
TEXT
5
74
330
2C
100
AcDbEntity
8
CON
100
AcDbText
10
226.85044343992024
20
538.1428571428571
30
0
40
3
1
 
41
0.8
7
ROMANS
72
4
11
228.05044343992023
21
538.1428571428571
31
0
100
AcDbText
0
TEXT
5
75
330
2C
100
AcDbEntity
8
CON
100
AcDbText
10
150.79999999999998
20
167
30
0
40
3
1
 
41
0.8
7
ROMANS
72
4
11
151.99999999999997
21
167
31
0
100
AcDbText
0
TEXT
5
76
330
2C
100
AcDbEntity
8
CON
100
AcDbText
10
150.8
20
190.14285714285714
30
0
40
3
1
 
41
0.8
7
ROMANS
72
4
11
152
21
190.14285714285714
31
0
100
AcDbText
0
TEXT
5
77
330
2C
100
AcDbEntity
8
CON
100
AcDbText
10
150.8
20
195
30
0
40
3
1
 
41
0.8
7
ROMANS
72
4
11
152
21
195
31
0
100
AcDbText
0
TEXT
5
78
330
2C
100
AcDbEntity
8
CON
100
AcDbText
10
226.85044343992024
20
543
30
0
40
3
1
 
41
0.8
7
ROMANS
72
4
11
228.05044343992023
21
543
31
0
100
AcDbText
0
TEXT
5
79
330
2C
100
AcDbEntity
8
CON
100
AcDbText
10
149.65044343992022
20
538.1428571428571
30
0
40
3
1
  
41
0.8
7
ROMANS
72
4
11
152.05044343992023
21
538.1428571428571
31
0
100
AcDbText
0
TEXT
5
7A
330
2C
100
AcDbEntity
8
CON
100
AcDbText
10
149.65044343992022
20
533.2857142857142
30
0
40
3
1
  
41
0.8
7
ROMANS
72
4
11
152.05044343992023
21
533.2857142857142
31
0
100
AcDbText
0
TEXT
5
7B
330
2C
100
AcDbEntity
8
CON
100
AcDbText
10
302.31480803271717
20
518.7294761890075
30
0
40
3
1
 
7
ROMANS
72
4
11
303.81480803271717
21
518.7294761890075
31
0
100
AcDbText
0
TEXT
5
7C
330
2C
100
AcDbEntity
8
CON
100
AcDbText
10
323.31480803271717
20
374.7293007227439
30
0
40
3
1
 
7
ROMANS
72
4
11
324.81480803271717
21
374.7293007227439
31
0
100
AcDbText
0
TEXT
5
7D
330
2C
100
AcDbEntity
8
CON
100
AcDbText
10
335.3652514726374
20
292.7294761890075
30
0
40
3
1
 
7
ROMANS
72
4
11
336.8652514726374
21
292.7294761890075
31
0
100
AcDbText
0
TEXT
5
7E
330
2C
100
AcDbEntity
8
CON
100
AcDbText
10
302.85044343992024
20
533.2857142857142
30
0
40
3
1
 
41
0.8
7
ROMANS
72
4
11
304.05044343992023
21
533.2857142857142
31
0
100
AcDbText
0
TEXT
5
7F
330
2C
100
AcDbEntity
8
CON
100
AcDbText
10
302.85044343992024
20
538.1428571428571
30
0
40
3
1
 
41
0.8
7
ROMANS
72
4
11
304.05044343992023
21
538.1428571428571
31
0
100
AcDbText
0
TEXT
5
80
330
2C
100
AcDbEntity
8
CON
100
AcDbText
10
302.85044343992024
20
543
30
0
40
3
1
 
41
0.8
7
ROMANS
72
4
11
304.05044343992023
21
543
31
0
100
AcDbText
0
TEXT
5
81
330
2C
100
AcDbEntity
8
CON
100
AcDbText
10
319
20
368
30
0
40
3
1
 
41
4
7
ROMANS
72
5
11
331
21
368
31
0
100
AcDbText
0
TEXT
5
82
330
2C
100
AcDbEntity
8
CON
100
AcDbText
10
226.79999999999998
20
167
30
0
40
3
1
 
41
0.8
7
ROMANS
72
4
11
227.99999999999997
21
167
31
0
100
AcDbText
0
TEXT
5
83
330
2C
100
AcDbEntity
8
CON
100
AcDbText
10
226.8
20
195
30
0
40
3
1
 
41
0.8
7
ROMANS
72
4
11
228
21
195
31
0
100
AcDbText
0
TEXT
5
84
330
2C
100
AcDbEntity
8
CON
100
AcDbText
10
226.31480803271717
20
518.7294761890075
30
0
40
3
1
 
7
ROMANS
72
4
11
227.81480803271717
21
518.7294761890075
31
0
100
AcDbText
0
TEXT
5
85
330
2C
100
AcDbEntity
8
CON
100
AcDbText
10
378.8
20
166.99999999999997
30
0
40
3
1
 
41
0.8
7
ROMANS
72
4
11
380
21
166.99999999999997
31
0
100
AcDbText
0
TEXT
5
86
330
2C
100
AcDbEntity
8
CON
100
AcDbText
10
378.8
20
195
30
0
40
3
1
 
41
0.8
7
ROMANS
72
4
11
380
21
195
31
0
100
AcDbText
0
TEXT
5
87
330
2C
100
AcDbEntity
8
CON
100
AcDbText
10
414.26436459279694
20
459.7293007227441
30
0
40
3
1
 
7
ROMANS
72
4
11
415.76436459279694
21
459.7293007227441
31
0
100
AcDbText
0
TEXT
5
88
330
2C
100
AcDbEntity
8
CON
100
AcDbText
10
415.250640908259
20
454.40123929958537
30
0
40
3
1
 
7
ROMANS
72
4
11
416.750640908259
21
454.40123929958537
31
0
100
AcDbText
0
TEXT
5
89
330
2C
100
AcDbEntity
8
CON
100
AcDbText
10
378.85044343992024
20
538.1428571428571
30
0
40
3
1
 
41
0.8
7
ROMANS
72
4
11
380.05044343992023
21
538.1428571428571
31
0
100
AcDbText
0
TEXT
5
8A
330
2C
100
AcDbEntity
8
CON
100
AcDbText
10
490.26436459279694
20
459.7293007227441
30
0
40
3
1
 
7
ROMANS
72
4
11
491.76436459279694
21
459.7293007227441
31
0
100
AcDbText
0
TEXT
5
8B
330
2C
100
AcDbEntity
8
CON
100
AcDbText
10
491.250640908259
20
454.40123929958537
30
0
40
3
1
 
7
ROMANS
72
4
11
492.750640908259
21
454.40123929958537
31
0
100
AcDbText
0
TEXT
5
8C
330
2C
100
AcDbEntity
8
CON
100
AcDbText
10
530.8
20
166.99999999999997
30
0
40
3
1
 
41
0.8
7
ROMANS
72
4
11
532
21
166.99999999999997
31
0
100
AcDbText
0
TEXT
5
8D
330
2C
100
AcDbEntity
8
CON
100
AcDbText
10
530.8
20
195
30
0
40
3
1
 
41
0.8
7
ROMANS
72
4
11
532
21
195
31
0
100
AcDbText
0
TEXT
5
8E
330
2C
100
AcDbEntity
8
CON
100
AcDbText
10
566.2643645927969
20
459.7293007227441
30
0
40
3
1
 
7
ROMANS
72
4
11
567.7643645927969
21
459.7293007227441
31
0
100
AcDbText
0
TEXT
5
8F
330
2C
100
AcDbEntity
8
CON
100
AcDbText
10
567.250640908259
20
454.40123929958537
30
0
40
3
1
 
7
ROMANS
72
4
11
568.750640908259
21
454.40123929958537
31
0
100
AcDbText
0
TEXT
5
90
330
2C
100
AcDbEntity
8
CON
100
AcDbText
10
366.6
20
369
30
0
40
3
1
  
41
0.8
7
ROMANS
72
4
11
369
21
369
31
0
100
AcDbText
0
TEXT
5
91
330
2C
100
AcDbEntity
8
CON
100
AcDbText
10
110.25064090825903
20
454.4012392995854
30
0
40
3
1
 
7
ROMANS
72
4
11
111.75064090825903
21
454.4012392995854
31
0
100
AcDbText
0
TEXT
5
92
330
2C
100
AcDbEntity
8
CON
100
AcDbText
10
110.26436459279695
20
459.72930072274414
30
0
40
3
1
 
7
ROMANS
72
4
11
111.76436459279695
21
459.72930072274414
31
0
100
AcDbText
0
TEXT
5
93
330
2C
100
AcDbEntity
8
CON
100
AcDbText
10
73.60000000000005
20
195.00000000000006
30
0
40
3
1
  
41
0.8
7
ROMANS
72
4
11
76.00000000000006
21
195.00000000000006
31
0
100
AcDbText
0
TEXT
5
94
330
2C
100
AcDbEntity
8
CON
100
AcDbText
10
73.60000000000005
20
190.1428571428572
30
0
40
3
1
  
41
0.8
7
ROMANS
72
4
11
76.00000000000006
21
190.1428571428572
31
0
100
AcDbText
0
TEXT
5
95
330
2C
100
AcDbEntity
8
CON
100
AcDbText
10
171
20
281.5714285714286
30
0
40
5
1
  
41
0.8
7
ROMANS
11
171
21
279.9047619047619
31
0
100
AcDbText
73
1
0
TEXT
5
96
330
2C
100
AcDbEntity
8
CON
100
AcDbText
10
171
20
479.5714285714286
30
0
40
5
1
 
41
0.8
7
ROMANS
11
171
21
477.9047619047619
31
0
100
AcDbText
73
1
0
TEXT
5
97
330
2C
100
AcDbEntity
8
CON
100
AcDbText
10
171
20
191.57142857142856
30
0
40
5
1
 
41
0.8
7
ROMANS
11
171
21
189.9047619047619
31
0
100
AcDbText
73
1
0
TEXT
5
98
330
2C
100
AcDbEntity
8
CON
100
AcDbText
10
171
20
443.5714285714286
30
0
40
5
1
 
41
0.8
7
ROMANS
11
171
21
441.9047619047619
31
0
100
AcDbText
73
1
0
TEXT
5
99
330
2C
100
AcDbEntity
8
CON
100
AcDbText
10
193.12926509186707
20
157.8455125793207
30
0
40
5
1
 
41
0.8
7
ROMANS
72
4
11
195.12926509186707
21
157.8455125793207
31
0
100
AcDbText
0
TEXT
5
9A
330
2C
100
AcDbEntity
8
CON
100
AcDbText
10
193.12926509186707
20
121.84551257932071
30
0
40
5
1
 
41
0.8
7
ROMANS
72
4
11
195.12926509186707
21
121.84551257932071
31
0
100
AcDbText
0
INSERT
5
9C
330
2C
100
AcDbEntity
8
CON
100
AcDbBlockReference
2
WMF6
10
0
20
0
30
0
0
INSERT
5
9E
330
2C
100
AcDbEntity
8
CON
100
AcDbBlockReference
2
test
10
0
20
0
30
0
0
TEXT
5
9F
330
2C
100
AcDbEntity
8
chinese
100
AcDbText
10
67.83474967321627
20
171.93585050100575
30
0
40
2
1
(\U+6E05\U+7210\U+689D\U+4EF6\U+5141\U+8A31)
7
STANDARD
11
67.83474967321627
21
172.93585050100575
31
0
100
AcDbText
73
2
0
TEXT
5
A0
330
2C
100
AcDbEntity
8
chinese
100
AcDbText
10
67.83474967321627
20
100.56452157122925
30
0
40
2
1
(\U+4E3B\U+71C3\U+6599\U+8DF3\U+812B\U+4FE1\U+865F\U+7121\U+767C\U+751F)
7
STANDARD
11
67.83474967321627
21
101.56452157122925
31
0
100
AcDbText
73
2
0
TEXT
5
A1
330
2C
100
AcDbEntity
8
chinese
100
AcDbText
10
67.83474967321627
20
63.80590766929407
30
0
40
2
1
(\U+4E3B\U+71C3\U+6599\U+8DF3\U+812B)
7
STANDARD
11
67.83474967321627
21
64.80590766929407
31
0
100
AcDbText
73
2
0
TEXT
5
A2
330
2C
100
AcDbEntity
8
chinese
100
AcDbText
10
67.83474967321627
20
80.7095040674572
30
0
40
2
1
(\U+7210\U+6EAB>650%%DC,\U+5141\U+8A31\U+514D\U+6E05\U+7210)
7
STANDARD
11
67.83474967321627
21
81.7095040674572
31
0
100
AcDbText
73
2
0
TEXT
5
A3
330
2C
100
AcDbEntity
8
chinese
100
AcDbText
10
322.0341584747423
20
252.27441224975195
30
0
40
2
1
(\U+6E05\U+7210\U+52D5\U+4F5C\U+9032\U+884C\U+4E2D)
7
STANDARD
11
322.0341584747423
21
253.27441224975195
31
0
100
AcDbText
73
2
0
TEXT
5
A4
330
2C
100
AcDbEntity
8
chinese
100
AcDbText
10
310.6677884339515
20
235.77415086891386
30
0
40
2
1
(\U+5FA9\U+6B78\U+9996\U+51FA\U+689D\U+4EF6)
7
STANDARD
11
310.6677884339515
21
236.77415086891386
31
0
100
AcDbText
73
2
0
TEXT
5
A5
330
2C
100
AcDbEntity
8
chinese
100
AcDbText
10
310.6677884339515
20
217.55957688336906
30
0
40
2
1
(\U+6E96\U+5099\U+6E05\U+7210)
7
STANDARD
11
310.6677884339515
21
218.55957688336906
31
0
100
AcDbText
73
2
0
TEXT
5
A6
330
2C
100
AcDbEntity
8
chinese
100
AcDbText
10
309.80615011111263
20
185.44226576005684
30
0
40
2
1
(\U+71C3\U+71D2\U+5668\U+4E8C\U+6B21\U+98A8\U+9580\U+81F3\U+5439\U+6383\U+4F4D\U+7F6E\U+547D\U+4EE4)
7
STANDARD
11
309.80615011111263
21
186.44226576005684
31
0
100
AcDbText
73
2
0
TEXT
5
A7
330
2C
100
AcDbEntity
8
chinese
100
AcDbText
10
310.6677884339515
20
172.60041963972498
30
0
40
2
1
(\U+6E05\U+7210\U+52D5\U+4F5C\U+5B8C\U+6210)
7
STANDARD
11
310.6677884339515
21
173.60041963972498
31
0
100
AcDbText
73
2
0
TEXT
5
A8
330
2C
100
AcDbEntity
8
chinese
100
AcDbText
10
323.9849714610093
20
161.9551525791499
30
0
40
2
1
(\U+6E05\U+7210\U+52D5\U+4F5C\U+5B8C\U+6210)
7
STANDARD
11
323.9849714610093
21
162.9551525791499
31
0
100
AcDbText
73
2
0
TEXT
5
A9
330
2C
100
AcDbEntity
8
chinese
100
AcDbText
10
322.10451037242933
20
135.62163306156805
30
0
40
2
1
(\U+6E05\U+7210\U+52D5\U+4F5C\U+8A08\U+66425\U+5206\U+9418)
7
STANDARD
11
322.10451037242933
21
136.62163306156805
31
0
100
AcDbText
73
2
0
TEXT
5
AA
330
2C
100
AcDbEntity
8
chinese
100
AcDbText
10
68.33387755377885
20
280.4174744777226
30
0
40
2
1
(\U+6E05\U+7210\U+958B\U+59CB\U+6309\U+9375)
7
STANDARD
11
68.33387755377885
21
281.4174744777226
31
0
100
AcDbText
73
2
0
TEXT
5
AB
330
2C
100
AcDbEntity
8
chinese
100
AcDbText
10
66.87573470639563
20
297.2983035141211
30
0
40
2
1
(B1008\U+71C3\U+71D2\U+5668\U+4E8C\U+6B21\U+98A8\U+9580\U+5728\U+5439\U+6383\U+4F4D\U+7F6E)
7
STANDARD
11
66.87573470639563
21
298.2983035141211
31
0
100
AcDbText
73
2
0
TEXT
5
AC
330
2C
100
AcDbEntity
8
chinese
100
AcDbText
10
66.87573470639563
20
288.2927876027198
30
0
40
2
1
(B1009\U+71C3\U+71D2\U+5668\U+4E8C\U+6B21\U+98A8\U+9580\U+5728\U+5439\U+6383\U+4F4D\U+7F6E)
7
STANDARD
11
66.87573470639563
21
289.2927876027198
31
0
100
AcDbText
73
2
0
TEXT
5
AD
330
2C
100
AcDbEntity
8
chinese
100
AcDbText
10
66.87573470639563
20
271.35704179181715
30
0
40
2
1
(B1008\U+71C3\U+71D2\U+5668\U+64CB\U+677F\U+5168\U+958B\U+4F4D\U+7F6E)
7
STANDARD
11
66.87573470639563
21
272.35704179181715
31
0
100
AcDbText
73
2
0
TEXT
5
AE
330
2C
100
AcDbEntity
8
chinese
100
AcDbText
10
66.87573470639563
20
262.62034738339077
30
0
40
2
1
(B1009\U+71C3\U+71D2\U+5668\U+64CB\U+677F\U+5168\U+958B\U+4F4D\U+7F6E)
7
STANDARD
11
66.87573470639563
21
263.62034738339077
31
0
100
AcDbText
73
2
0
INSERT
5
B0
330
2C
100
AcDbEntity
8
0
100
AcDbBlockReference
2
00_FORM
10
0.2103552512819249
20
18.056637780463788
30
0
0
TEXT
5
B1
330
2C
100
AcDbEntity
8
CON
370
9
100
AcDbText
10
418.4017869871416
20
25.53002612013563
30
0
40
3
1
DITL-03A
41
0.8
7
ROMANS
11
418.4017869871416
21
24.53002612013563
31
0
100
AcDbText
73
1
0
TEXT
5
B2
330
2C
100
AcDbEntity
8
CON
370
9
100
AcDbText
10
157.1646594071401
20
29.725827832224127
30
0
40
2
1
MASTER FUEL TRIP (1)
41
0.8
7
ROMANS
11
157.1646594071401
21
30.725827832224127
31
0
100
AcDbText
73
2
0
TEXT
5
B3
330
2C
100
AcDbEntity
8
CON
370
9
100
AcDbText
10
465.4376716640327
20
24.0494632420598
30
0
40
3
1
8
41
0.8
7
ROMANS
11
465.4376716640327
21
23.0494632420598
31
0
100
AcDbText
73
1
0
LINE
5
B4
330
2C
100
AcDbEntity
8
HID
370
9
100
AcDbLine
10
17.89703428240736
20
300.03702925706307
30
0
11
128.6470342824076
21
300.03702925706307
31
0
0
LINE
5
B5
330
2C
100
AcDbEntity
8
HID
370
9
100
AcDbLine
10
38.64703428240759
20
308.03911786466017
30
0
11
38.64703428240759
21
137.88621924397944
31
0
0
LINE
5
B6
330
2C
100
AcDbEntity
8
HID
370
9
100
AcDbLine
10
61.14703428240759
20
308.03911786466017
30
0
11
61.14703428240759
21
43.537029257063125
31
0
0
LINE
5
B7
330
2C
100
AcDbEntity
8
HID
370
9
100
AcDbLine
10
83.64703428240759
20
304.53702925706307
30
0
11
83.64703428240759
21
43.537029257063125
31
0
0
LINE
5
B8
330
2C
100
AcDbEntity
8
HID
370
9
100
AcDbLine
10
128.64703428240753
20
304.53702925706307
30
0
11
128.6470342824076
21
43.537029257063125
31
0
0
LINE
5
B9
330
2C
100
AcDbEntity
8
HID
370
9
100
AcDbLine
10
389.6470342824076
20
308.03911786466017
30
0
11
389.6470342824075
21
228.03702925706307
31
0
0
LINE
5
BA
330
2C
100
AcDbEntity
8
HID
370
9
100
AcDbLine
10
367.1470342824076
20
308.03911786466017
30
0
11
367.1470342824076
21
43.537029257063125
31
0
0
LINE
5
BB
330
2C
100
AcDbEntity
8
HID
370
9
100
AcDbLine
10
326.6470342824076
20
304.53702925706307
30
0
11
326.6470342824076
21
43.537029257063125
31
0
0
LINE
5
BC
330
2C
100
AcDbEntity
8
HID
370
9
100
AcDbLine
10
326.6470342824076
20
300.03702925706307
30
0
11
407.89703428240966
21
300.03702925706307
31
0
0
LINE
5
BD
330
2C
100
AcDbEntity
8
HID
370
9
100
AcDbLine
10
17.89703428240736
20
291.03702925706307
30
0
11
128.6470342824076
21
291.03702925706307
31
0
0
LINE
5
BE
330
2C
100
AcDbEntity
8
HID
370
9
100
AcDbLine
10
17.89703428240736
20
282.03702925706307
30
0
11
128.6470342824076
21
282.03702925706307
31
0
0
LINE
5
BF
330
2C
100
AcDbEntity
8
HID
370
9
100
AcDbLine
10
17.89703428240736
20
273.03702925706307
30
0
11
128.6470342824076
21
273.03702925706307
31
0
0
LINE
5
C0
330
2C
100
AcDbEntity
8
HID
370
9
100
AcDbLine
10
17.89703428240736
20
264.03702925706307
30
0
11
128.6470342824076
21
264.03702925706307
31
0
0
LINE
5
C1
330
2C
100
AcDbEntity
8
HID
370
9
100
AcDbLine
10
17.89703428240736
20
255.03702925706307
30
0
11
128.6470342824076
21
255.03702925706307
31
0
0
LINE
5
C2
330
2C
100
AcDbEntity
8
HID
370
9
100
AcDbLine
10
17.89703428240736
20
246.03702925706307
30
0
11
128.6470342824076
21
246.03702925706307
31
0
0
LINE
5
C3
330
2C
100
AcDbEntity
8
HID
370
9
100
AcDbLine
10
17.89703428240736
20
237.03702925706307
30
0
11
128.6470342824076
21
237.03702925706307
31
0
0
LINE
5
C4
330
2C
100
AcDbEntity
8
HID
370
9
100
AcDbLine
10
17.89703428240736
20
228.03702925706307
30
0
11
128.6470342824076
21
228.03702925706307
31
0
0
LINE
5
C5
330
2C
100
AcDbEntity
8
HID
370
9
100
AcDbLine
10
17.89703428240736
20
219.03702925706307
30
0
11
128.6470342824076
21
219.03702925706307
31
0
0
LINE
5
C6
330
2C
100
AcDbEntity
8
HID
370
9
100
AcDbLine
10
17.89703428240736
20
210.03702925706307
30
0
11
128.6470342824076
21
210.0370292570631
31
0
0
LINE
5
C7
330
2C
100
AcDbEntity
8
HID
370
9
100
AcDbLine
10
17.89703428240736
20
201.03702925706307
30
0
11
128.6470342824076
21
201.03702925706307
31
0
0
LINE
5
C8
330
2C
100
AcDbEntity
8
HID
370
9
100
AcDbLine
10
17.89703428240736
20
183.03702925706307
30
0
11
128.6470342824076
21
183.03702925706307
31
0
0
LINE
5
C9
330
2C
100
AcDbEntity
8
HID
370
9
100
AcDbLine
10
17.89703428240736
20
174.2097043923402
30
0
11
128.6470342824076
21
174.2097043923402
31
0
0
LINE
5
CA
330
2C
100
AcDbEntity
8
HID
370
9
100
AcDbLine
10
17.89703428240736
20
147.03702925706307
30
0
11
128.6470342824076
21
147.03702925706307
31
0
0
LINE
5
CB
330
2C
100
AcDbEntity
8
HID
370
9
100
AcDbLine
10
17.89703428240736
20
138.03702925706307
30
0
11
128.6470342824076
21
138.03702925706307
31
0
0
LINE
5
CC
330
2C
100
AcDbEntity
8
HID
370
9
100
AcDbLine
10
17.89703428240736
20
84.03702925706307
30
0
11
128.6470342824076
21
84.03702925706307
31
0
0
LINE
5
CD
330
2C
100
AcDbEntity
8
HID
370
9
100
AcDbLine
10
17.89703428240736
20
119.57705519213269
30
0
11
128.6470342824076
21
119.57705519213269
31
0
0
LINE
5
CE
330
2C
100
AcDbEntity
8
HID
370
9
100
AcDbLine
10
326.6470342824076
20
291.03702925706307
30
0
11
407.89703428240966
21
291.03702925706307
31
0
0
LINE
5
CF
330
2C
100
AcDbEntity
8
HID
370
9
100
AcDbLine
10
326.6470342824076
20
282.03702925706307
30
0
11
407.89703428240966
21
282.03702925706307
31
0
0
LINE
5
D0
330
2C
100
AcDbEntity
8
HID
370
9
100
AcDbLine
10
326.6470342824076
20
273.03702925706307
30
0
11
407.89703428240966
21
273.03702925706307
31
0
0
LINE
5
D1
330
2C
100
AcDbEntity
8
HID
370
9
100
AcDbLine
10
326.6470342824076
20
264.03702925706307
30
0
11
407.89703428240966
21
264.03702925706307
31
0
0
LINE
5
D2
330
2C
100
AcDbEntity
8
HID
370
9
100
AcDbLine
10
326.6470342824076
20
246.03702925706307
30
0
11
407.89703428240966
21
246.03702925706307
31
0
0
LINE
5
D3
330
2C
100
AcDbEntity
8
HID
370
9
100
AcDbLine
10
326.6470342824076
20
237.03702925706307
30
0
11
407.89703428240966
21
237.03702925706307
31
0
0
LINE
5
D4
330
2C
100
AcDbEntity
8
HID
370
9
100
AcDbLine
10
326.6470342824076
20
210.0370292570631
30
0
11
389.6470342824075
21
210.03702925706307
31
0
0
LINE
5
D5
330
2C
100
AcDbEntity
8
HID
370
9
100
AcDbLine
10
326.6470342824076
20
201.03702925706307
30
0
11
389.6777840955474
21
201.03702925706307
31
0
0
LINE
5
D6
330
2C
100
AcDbEntity
8
HID
370
9
100
AcDbLine
10
326.6470342824076
20
192.0370292570631
30
0
11
389.6753539062456
21
192.03702925706307
31
0
0
LINE
5
D7
330
2C
100
AcDbEntity
8
HID
370
9
100
AcDbLine
10
326.6470342824076
20
147.03702925706307
30
0
11
407.89703428240966
21
147.03702925706307
31
0
0
LINE
5
D8
330
2C
100
AcDbEntity
8
HID
370
9
100
AcDbLine
10
326.6470342824076
20
84.03702925706307
30
0
11
407.89703428240966
21
84.03702925706307
31
0
0
LINE
5
D9
330
2C
100
AcDbEntity
8
HID
370
9
100
AcDbLine
10
326.6470342824076
20
75.03702925706307
30
0
11
407.89703428240966
21
75.03702925706307
31
0
0
LINE
5
DA
330
2C
100
AcDbEntity
8
HID
370
9
100
AcDbLine
10
326.6470342824076
20
66.03702925706307
30
0
11
407.89703428240966
21
66.03702925706307
31
0
0
LINE
5
DB
330
2C
100
AcDbEntity
8
HID
370
9
100
AcDbLine
10
326.6470342824076
20
119.53230354782823
30
0
11
407.89703428240966
21
119.53230354782823
31
0
0
LINE
5
DC
330
2C
100
AcDbEntity
8
HID
370
9
100
AcDbLine
10
326.6470342824076
20
129.03702925706307
30
0
11
407.89703428240966
21
129.03702925706307
31
0
0
TEXT
5
DD
330
2C
100
AcDbEntity
8
CON
370
9
100
AcDbText
10
53.83751047288378
20
294.28702925706307
30
0
40
2.5
1
 1
41
0.8
7
ROMANS
72
4
11
56.64703428240759
21
295.53702925706307
31
0
100
AcDbText
0
TEXT
5
DE
330
2C
100
AcDbEntity
8
CON
370
9
100
AcDbText
10
53.69465333002664
20
285.28702925706307
30
0
40
2.5
1
 2
41
0.8
7
ROMANS
72
4
11
56.64703428240759
21
286.53702925706307
31
0
100
AcDbText
0
TEXT
5
DF
330
2C
100
AcDbEntity
8
CON
370
9
100
AcDbText
10
53.69465333002663
20
276.28702925706307
30
0
40
2.5
1
 3
41
0.8
7
ROMANS
72
4
11
56.64703428240759
21
277.53702925706307
31
0
100
AcDbText
0
TEXT
5
E0
330
2C
100
AcDbEntity
8
CON
370
9
100
AcDbText
10
53.64703428240759
20
267.28702925706307
30
0
40
2.5
1
 4
41
0.8
7
ROMANS
72
4
11
56.64703428240759
21
268.53702925706307
31
0
100
AcDbText
0
TEXT
5
E1
330
2C
100
AcDbEntity
8
CON
370
9
100
AcDbText
10
53.69465333002664
20
258.28702925706307
30
0
40
2.5
1
 5
41
0.8
7
ROMANS
72
4
11
56.64703428240759
21
259.53702925706307
31
0
100
AcDbText
0
LINE
5
E2
330
2C
100
AcDbEntity
8
HID
370
9
100
AcDbLine
10
52.14703428240759
20
308.03911786466017
30
0
11
52.14703428240759
21
43.537029257063125
31
0
0
TEXT
5
E3
330
2C
100
AcDbEntity
8
CON
370
9
100
AcDbText
10
53.64703428240759
20
249.28702925706307
30
0
40
2.5
1
 6
41
0.8
7
ROMANS
72
4
11
56.64703428240759
21
250.53702925706307
31
0
100
AcDbText
0
TEXT
5
E4
330
2C
100
AcDbEntity
8
CON
370
9
100
AcDbText
10
53.69465333002664
20
240.28702925706307
30
0
40
2.5
1
 7
41
0.8
7
ROMANS
72
4
11
56.64703428240759
21
241.53702925706307
31
0
100
AcDbText
0
TEXT
5
E5
330
2C
100
AcDbEntity
8
CON
370
9
100
AcDbText
10
53.69465333002664
20
231.28702925706307
30
0
40
2.5
1
 8
41
0.8
7
ROMANS
72
4
11
56.64703428240759
21
232.53702925706307
31
0
100
AcDbText
0
TEXT
5
E6
330
2C
100
AcDbEntity
8
CON
370
9
100
AcDbText
10
53.74227237764568
20
222.28702925706307
30
0
40
2.5
1
 9
41
0.8
7
ROMANS
72
4
11
56.64703428240759
21
223.53702925706307
31
0
100
AcDbText
0
TEXT
5
E7
330
2C
100
AcDbEntity
8
CON
370
9
100
AcDbText
10
54.59941523478854
20
213.28702925706307
30
0
40
2.5
1
10
41
0.8
7
ROMANS
72
4
11
56.64703428240759
21
214.53702925706307
31
0
100
AcDbText
0
TEXT
5
E8
330
2C
100
AcDbEntity
8
CON
370
9
100
AcDbText
10
54.88512952050283
20
204.28702925706307
30
0
40
2.5
1
11
41
0.8
7
ROMANS
72
4
11
56.64703428240759
21
205.53702925706307
31
0
100
AcDbText
0
TEXT
5
E9
330
2C
100
AcDbEntity
8
CON
370
9
100
AcDbText
10
54.59941523478854
20
195.7652750479864
30
0
40
2.5
1
12
41
0.8
7
ROMANS
72
4
11
56.64703428240759
21
197.0152750479864
31
0
100
AcDbText
0
TEXT
5
EA
330
2C
100
AcDbEntity
8
CON
370
9
100
AcDbText
10
54.59941523478854
20
186.8608059178921
30
0
40
2.5
1
13
41
0.8
7
ROMANS
72
4
11
56.64703428240759
21
188.1108059178921
31
0
100
AcDbText
0
TEXT
5
EB
330
2C
100
AcDbEntity
8
CON
370
9
100
AcDbText
10
54.551796187169494
20
177.28702925706307
30
0
40
2.5
1
14
41
0.8
7
ROMANS
72
4
11
56.64703428240759
21
178.53702925706307
31
0
100
AcDbText
0
TEXT
5
EC
330
2C
100
AcDbEntity
8
CON
370
9
100
AcDbText
10
54.59941523478854
20
168.28702925706307
30
0
40
2.5
1
15
41
0.8
7
ROMANS
72
4
11
56.64703428240759
21
169.53702925706307
31
0
100
AcDbText
0
TEXT
5
ED
330
2C
100
AcDbEntity
8
CON
370
9
100
AcDbText
10
54.461633121826665
20
158.4041957051926
30
0
40
2.5
1
16
41
0.8
7
ROMANS
72
4
11
56.509252169445716
21
159.6541957051926
31
0
100
AcDbText
0
TEXT
5
EE
330
2C
100
AcDbEntity
8
CON
370
9
100
AcDbText
10
54.59941523478854
20
150.28702925706307
30
0
40
2.5
1
17
41
0.8
7
ROMANS
72
4
11
56.64703428240759
21
151.53702925706307
31
0
100
AcDbText
0
TEXT
5
EF
330
2C
100
AcDbEntity
8
CON
370
9
100
AcDbText
10
54.59941523478854
20
141.28702925706307
30
0
40
2.5
1
18
41
0.8
7
ROMANS
72
4
11
56.64703428240759
21
142.53702925706307
31
0
100
AcDbText
0
TEXT
5
F0
330
2C
100
AcDbEntity
8
CON
370
9
100
AcDbText
10
54.64703428240759
20
132.28702925706307
30
0
40
2.5
1
19
41
0.8
7
ROMANS
72
4
11
56.64703428240759
21
133.53702925706307
31
0
100
AcDbText
0
TEXT
5
F1
330
2C
100
AcDbEntity
8
CON
370
9
100
AcDbText
10
54.74227237764568
20
123.28702925706307
30
0
40
2.5
1
20
41
0.8
7
ROMANS
72
4
11
56.64703428240759
21
124.53702925706307
31
0
100
AcDbText
0
TEXT
5
F2
330
2C
100
AcDbEntity
8
CON
370
9
100
AcDbText
10
55.02798666335997
20
114.28702925706307
30
0
40
2.5
1
21
41
0.8
7
ROMANS
72
4
11
56.64703428240759
21
115.53702925706307
31
0
100
AcDbText
0
TEXT
5
F3
330
2C
100
AcDbEntity
8
CON
370
9
100
AcDbText
10
54.74227237764568
20
105.28702925706307
30
0
40
2.5
1
22
41
0.8
7
ROMANS
72
4
11
56.64703428240759
21
106.53702925706307
31
0
100
AcDbText
0
TEXT
5
F4
330
2C
100
AcDbEntity
8
CON
370
9
100
AcDbText
10
54.74227237764568
20
96.28702925706307
30
0
40
2.5
1
23
41
0.8
7
ROMANS
72
4
11
56.64703428240759
21
97.53702925706307
31
0
100
AcDbText
0
TEXT
5
F5
330
2C
100
AcDbEntity
8
CON
370
9
100
AcDbText
10
54.69465333002664
20
87.28702925706307
30
0
40
2.5
1
24
41
0.8
7
ROMANS
72
4
11
56.64703428240759
21
88.53702925706307
31
0
100
AcDbText
0
TEXT
5
F6
330
2C
100
AcDbEntity
8
CON
370
9
100
AcDbText
10
54.74227237764568
20
78.28702925706307
30
0
40
2.5
1
25
41
0.8
7
ROMANS
72
4
11
56.64703428240759
21
79.53702925706307
31
0
100
AcDbText
0
TEXT
5
F7
330
2C
100
AcDbEntity
8
CON
370
9
100
AcDbText
10
54.74227237764568
20
69.28702925706307
30
0
40
2.5
1
26
41
0.8
7
ROMANS
72
4
11
56.64703428240759
21
70.53702925706307
31
0
100
AcDbText
0
TEXT
5
F8
330
2C
100
AcDbEntity
8
CON
370
9
100
AcDbText
10
54.74227237764568
20
60.28702925706307
30
0
40
2.5
1
27
41
0.8
7
ROMANS
72
4
11
56.64703428240759
21
61.53702925706307
31
0
100
AcDbText
0
TEXT
5
F9
330
2C
100
AcDbEntity
8
CON
370
9
100
AcDbText
10
54.74227237764568
20
51.28702925706307
30
0
40
2.5
1
28
41
0.8
7
ROMANS
72
4
11
56.64703428240759
21
52.53702925706307
31
0
100
AcDbText
0
LINE
5
FA
330
2C
100
AcDbEntity
8
HID
370
9
100
AcDbLine
10
326.6470342824076
20
219.03702925706307
30
0
11
407.89703428240966
21
219.03702925706307
31
0
0
LINE
5
FB
330
2C
100
AcDbEntity
8
HID
370
9
100
AcDbLine
10
376.1470342824076
20
308.03911786466017
30
0
11
376.1470342824075
21
43.537029257063125
31
0
0
TEXT
5
FC
330
2C
100
AcDbEntity
8
CON
370
9
100
AcDbText
10
369.7422723776457
20
60.28702925706307
30
0
40
2.5
1
77
41
0.8
7
ROMANS
72
4
11
371.6470342824076
21
61.53702925706307
31
0
100
AcDbText
0
TEXT
5
FD
330
2C
100
AcDbEntity
8
CON
370
9
100
AcDbText
10
369.7422723776457
20
69.28702925706307
30
0
40
2.5
1
76
41
0.8
7
ROMANS
72
4
11
371.6470342824076
21
70.53702925706307
31
0
100
AcDbText
0
TEXT
5
FE
330
2C
100
AcDbEntity
8
CON
370
9
100
AcDbText
10
369.7422723776457
20
78.28702925706307
30
0
40
2.5
1
75
41
0.8
7
ROMANS
72
4
11
371.6470342824076
21
79.53702925706307
31
0
100
AcDbText
0
TEXT
5
FF
330
2C
100
AcDbEntity
8
CON
370
9
100
AcDbText
10
369.69465333002665
20
87.28702925706307
30
0
40
2.5
1
74
41
0.8
7
ROMANS
72
4
11
371.6470342824076
21
88.53702925706307
31
0
100
AcDbText
0
TEXT
5
100
330
2C
100
AcDbEntity
8
CON
370
9
100
AcDbText
10
369.7422723776457
20
96.28702925706307
30
0
40
2.5
1
73
41
0.8
7
ROMANS
72
4
11
371.6470342824076
21
97.53702925706307
31
0
100
AcDbText
0
TEXT
5
101
330
2C
100
AcDbEntity
8
CON
370
9
100
AcDbText
10
369.7422723776457
20
105.28702925706307
30
0
40
2.5
1
72
41
0.8
7
ROMANS
72
4
11
371.6470342824076
21
106.53702925706307
31
0
100
AcDbText
0
TEXT
5
102
330
2C
100
AcDbEntity
8
CON
370
9
100
AcDbText
10
370.02798666336
20
114.28702925706307
30
0
40
2.5
1
71
41
0.8
7
ROMANS
72
4
11
371.6470342824076
21
115.53702925706307
31
0
100
AcDbText
0
TEXT
5
103
330
2C
100
AcDbEntity
8
CON
370
9
100
AcDbText
10
369.7422723776457
20
123.28702925706307
30
0
40
2.5
1
70
41
0.8
7
ROMANS
72
4
11
371.6470342824076
21
124.53702925706307
31
0
100
AcDbText
0
TEXT
5
104
330
2C
100
AcDbEntity
8
CON
370
9
100
AcDbText
10
369.7422723776457
20
132.28702925706307
30
0
40
2.5
1
69
41
0.8
7
ROMANS
72
4
11
371.6470342824076
21
133.53702925706307
31
0
100
AcDbText
0
TEXT
5
105
330
2C
100
AcDbEntity
8
CON
370
9
100
AcDbText
10
369.69465333002665
20
141.28702925706307
30
0
40
2.5
1
68
41
0.8
7
ROMANS
72
4
11
371.6470342824076
21
142.53702925706307
31
0
100
AcDbText
0
TEXT
5
106
330
2C
100
AcDbEntity
8
CON
370
9
100
AcDbText
10
369.69465333002665
20
150.28702925706307
30
0
40
2.5
1
67
41
0.8
7
ROMANS
72
4
11
371.6470342824076
21
151.53702925706307
31
0
100
AcDbText
0
TEXT
5
107
330
2C
100
AcDbEntity
8
CON
370
9
100
AcDbText
10
369.69465333002665
20
159.28702925706307
30
0
40
2.5
1
66
41
0.8
7
ROMANS
72
4
11
371.6470342824076
21
160.53702925706307
31
0
100
AcDbText
0
TEXT
5
108
330
2C
100
AcDbEntity
8
CON
370
9
100
AcDbText
10
369.69465333002665
20
168.28702925706307
30
0
40
2.5
1
65
41
0.8
7
ROMANS
72
4
11
371.6470342824076
21
169.53702925706307
31
0
100
AcDbText
0
TEXT
5
109
330
2C
100
AcDbEntity
8
CON
370
9
100
AcDbText
10
369.6470342824076
20
177.28702925706307
30
0
40
2.5
1
64
41
0.8
7
ROMANS
72
4
11
371.6470342824076
21
178.53702925706307
31
0
100
AcDbText
0
TEXT
5
10A
330
2C
100
AcDbEntity
8
CON
370
9
100
AcDbText
10
369.69465333002665
20
186.28702925706307
30
0
40
2.5
1
63
41
0.8
7
ROMANS
72
4
11
371.6470342824076
21
187.53702925706307
31
0
100
AcDbText
0
TEXT
5
10B
330
2C
100
AcDbEntity
8
CON
370
9
100
AcDbText
10
369.69465333002665
20
195.28702925706307
30
0
40
2.5
1
62
41
0.8
7
ROMANS
72
4
11
371.6470342824076
21
196.53702925706307
31
0
100
AcDbText
0
TEXT
5
10C
330
2C
100
AcDbEntity
8
CON
370
9
100
AcDbText
10
369.98036761574093
20
204.28702925706307
30
0
40
2.5
1
61
41
0.8
7
ROMANS
72
4
11
371.6470342824076
21
205.53702925706307
31
0
100
AcDbText
0
TEXT
5
10D
330
2C
100
AcDbEntity
8
CON
370
9
100
AcDbText
10
369.69465333002665
20
213.28702925706307
30
0
40
2.5
1
60
41
0.8
7
ROMANS
72
4
11
371.6470342824076
21
214.53702925706307
31
0
100
AcDbText
0
TEXT
5
10E
330
2C
100
AcDbEntity
8
CON
370
9
100
AcDbText
10
369.7898914252648
20
222.28702925706307
30
0
40
2.5
1
59
41
0.8
7
ROMANS
72
4
11
371.6470342824076
21
223.53702925706307
31
0
100
AcDbText
0
TEXT
5
10F
330
2C
100
AcDbEntity
8
CON
370
9
100
AcDbText
10
369.7422723776457
20
231.28702925706307
30
0
40
2.5
1
58
41
0.8
7
ROMANS
72
4
11
371.6470342824076
21
232.53702925706307
31
0
100
AcDbText
0
TEXT
5
110
330
2C
100
AcDbEntity
8
CON
370
9
100
AcDbText
10
369.7422723776457
20
240.28702925706307
30
0
40
2.5
1
57
41
0.8
7
ROMANS
72
4
11
371.6470342824076
21
241.53702925706307
31
0
100
AcDbText
0
TEXT
5
111
330
2C
100
AcDbEntity
8
CON
370
9
100
AcDbText
10
369.7422723776457
20
249.28702925706307
30
0
40
2.5
1
56
41
0.8
7
ROMANS
72
4
11
371.6470342824076
21
250.53702925706307
31
0
100
AcDbText
0
TEXT
5
112
330
2C
100
AcDbEntity
8
CON
370
9
100
AcDbText
10
369.7422723776457
20
258.28702925706307
30
0
40
2.5
1
55
41
0.8
7
ROMANS
72
4
11
371.6470342824076
21
259.53702925706307
31
0
100
AcDbText
0
TEXT
5
113
330
2C
100
AcDbEntity
8
CON
370
9
100
AcDbText
10
369.69465333002665
20
267.28702925706307
30
0
40
2.5
1
54
41
0.8
7
ROMANS
72
4
11
371.6470342824076
21
268.53702925706307
31
0
100
AcDbText
0
TEXT
5
114
330
2C
100
AcDbEntity
8
CON
370
9
100
AcDbText
10
369.7422723776457
20
276.28702925706307
30
0
40
2.5
1
53
41
0.8
7
ROMANS
72
4
11
371.6470342824076
21
277.53702925706307
31
0
100
AcDbText
0
TEXT
5
115
330
2C
100
AcDbEntity
8
CON
370
9
100
AcDbText
10
369.7422723776457
20
285.28702925706307
30
0
40
2.5
1
52
41
0.8
7
ROMANS
72
4
11
371.6470342824076
21
286.53702925706307
31
0
100
AcDbText
0
TEXT
5
116
330
2C
100
AcDbEntity
8
CON
370
9
100
AcDbText
10
370.02798666336
20
294.28702925706307
30
0
40
2.5
1
51
41
0.8
7
ROMANS
72
4
11
371.6470342824076
21
295.53702925706307
31
0
100
AcDbText
0
TEXT
5
117
330
2C
100
AcDbEntity
8
CON
370
9
100
AcDbText
10
21.09941523478854
20
303.28702925706307
30
0
40
2.5
1
FROM
41
0.8
7
ROMANS
72
4
11
25.14703428240759
21
304.53702925706307
31
0
100
AcDbText
0
TEXT
5
118
330
2C
100
AcDbEntity
8
CON
370
9
100
AcDbText
10
39.456417484505124
20
303.1333509241687
30
0
40
2
1
LOCATION
41
0.8
7
ROMANS
11
39.456417484505124
21
302.46668425750204
31
0
100
AcDbText
73
1
0
TEXT
5
119
330
2C
100
AcDbEntity
8
CON
370
9
100
AcDbText
10
54.12711489732875
20
302.1725313921969
30
0
40
2.5
1
NO.
41
0.8
7
ROMANS
72
4
11
56.69854346875732
21
303.4225313921969
31
0
100
AcDbText
0
LINE
5
11A
330
2C
100
AcDbEntity
8
HID
370
9
100
AcDbLine
10
61.14703428240759
20
304.53702925706307
30
0
11
367.1470342824076
21
304.53702925706307
31
0
0
TEXT
5
11B
330
2C
100
AcDbEntity
8
CON
370
9
100
AcDbText
10
376.9564174845052
20
303.1333509241687
30
0
40
2
1
LOCATION
41
0.8
7
ROMANS
11
376.9564174845052
21
302.46668425750204
31
0
100
AcDbText
73
1
0
TEXT
5
11C
330
2C
100
AcDbEntity
8
CON
370
9
100
AcDbText
10
369.07560571097906
20
303.28702925706307
30
0
40
2.5
1
NO.
41
0.8
7
ROMANS
72
4
11
371.6470342824076
21
304.53702925706307
31
0
100
AcDbText
0
TEXT
5
11D
330
2C
100
AcDbEntity
8
CON
370
9
100
AcDbText
10
340.62333429235446
20
300.6961742912737
30
0
40
2.5
1
SERVICE
41
0.8
7
ROMANS
72
4
11
346.6709533399735
21
301.9461742912737
31
0
100
AcDbText
0
TEXT
5
11E
330
2C
100
AcDbEntity
8
CON
370
9
100
AcDbText
10
65.38529333156923
20
300.73430841283175
30
0
40
2.5
1
TAG. NO. 
41
0.8
7
ROMANS
72
4
11
73.0519599982359
21
301.98430841283175
31
0
100
AcDbText
0
TEXT
5
11F
330
2C
100
AcDbEntity
8
CON
370
9
100
AcDbText
10
98.61175682004632
20
300.73430841283175
30
0
40
2.5
1
SERVICE
41
0.8
7
ROMANS
72
4
11
104.65937586766537
21
301.98430841283175
31
0
100
AcDbText
0
TEXT
5
120
330
2C
100
AcDbEntity
8
CON
370
9
100
AcDbText
10
188.40879721758859
20
305.1743679255124
30
0
40
2.5
1
L     O     G     I     C  (I N T E R L O C K)
41
0.8
7
ROMANS
72
4
11
231.93260674139813
21
306.24579649694095
31
0
100
AcDbText
0
TEXT
5
121
330
2C
100
AcDbEntity
8
CON
370
9
100
AcDbText
10
396.9327485681219
20
303.28702925706307
30
0
40
2.5
1
TO
41
0.8
7
ROMANS
72
4
11
398.6470342824076
21
304.53702925706307
31
0
100
AcDbText
0
LINE
5
122
330
2C
100
AcDbEntity
8
HID
370
9
100
AcDbLine
10
17.89703428240736
20
75.03702925706307
30
0
11
128.6470342824076
21
75.03702925706307
31
0
0
LINE
5
123
330
2C
100
AcDbEntity
8
HID
370
9
100
AcDbLine
10
326.6470342824076
20
138.03702925706307
30
0
11
407.89703428240966
21
138.03702925706307
31
0
0
LINE
5
124
330
2C
100
AcDbEntity
8
HID
370
9
100
AcDbLine
10
326.6470342824076
20
255.03702925706307
30
0
11
407.89703428240966
21
255.03702925706307
31
0
0
LINE
5
125
330
2C
100
AcDbEntity
8
HID
370
9
100
AcDbLine
10
38.64703428240759
20
137.88621924397944
30
0
11
38.64703428240759
21
84.03702925706307
31
0
0
LINE
5
126
330
2C
100
AcDbEntity
8
HID
370
9
100
AcDbLine
10
389.6470342824075
20
228.03702925706307
30
0
11
389.6470342824076
21
43.537029257063125
31
0
0
LINE
5
127
330
2C
100
AcDbEntity
8
HID
370
9
100
AcDbLine
10
17.89703428240736
20
193.17595785028533
30
0
11
128.6470342824076
21
193.17595785028533
31
0
0
LINE
5
128
330
2C
100
AcDbEntity
8
HID
370
9
100
AcDbLine
10
17.89703428240736
20
128.7824042827202
30
0
11
128.6470342824076
21
128.7824042827202
31
0
0
LINE
5
129
330
2C
100
AcDbEntity
8
HID
370
9
100
AcDbLine
10
38.64703428240759
20
84.03702925706307
30
0
11
38.64703428240759
21
43.537029257063125
31
0
0
LINE
5
12A
330
2C
100
AcDbEntity
8
HID
370
9
100
AcDbLine
10
17.89703428240736
20
155.21345093948062
30
0
11
128.6470342824076
21
155.21345093948062
31
0
0
LINE
5
12B
330
2C
100
AcDbEntity
8
HID
370
9
100
AcDbLine
10
326.6470342824076
20
111.03702925706307
30
0
11
407.89703428240966
21
111.03702925706304
31
0
0
LINE
5
12C
330
2C
100
AcDbEntity
8
HID
370
9
100
AcDbLine
10
326.6470342824076
20
102.03702925706307
30
0
11
407.89703428240966
21
102.03702925706304
31
0
0
LINE
5
12D
330
2C
100
AcDbEntity
8
HID
370
9
100
AcDbLine
10
17.89703428240736
20
101.8448686181637
30
0
11
128.6470342824076
21
101.8448686181637
31
0
0
LINE
5
12E
330
2C
100
AcDbEntity
8
HID
370
9
100
AcDbLine
10
17.89703428240736
20
110.52777930837732
30
0
11
128.6470342824076
21
110.52777930837732
31
0
0
TEXT
5
12F
330
2C
100
AcDbEntity
8
CON
370
9
100
AcDbText
10
369.7422723776457
20
51.38453841143391
30
0
40
2.5
1
78
41
0.8
7
ROMANS
72
4
11
371.6470342824076
21
52.63453841143391
31
0
100
AcDbText
0
LINE
5
130
330
2C
100
AcDbEntity
8
HID
370
9
100
AcDbLine
10
17.89703428240736
20
164.2067742490715
30
0
11
128.6470342824076
21
164.2067742490715
31
0
0
LINE
5
131
330
2C
100
AcDbEntity
8
HID
370
9
100
AcDbLine
10
326.6470342824076
20
92.66882398216501
30
0
11
407.89703428240966
21
92.66882398216501
31
0
0
LINE
5
132
330
2C
100
AcDbEntity
8
HID
370
9
100
AcDbLine
10
326.6470342824076
20
56.43960096715705
30
0
11
407.89703428240966
21
56.43960096715705
31
0
0
LINE
5
133
330
2C
100
AcDbEntity
8
HID
370
9
100
AcDbLine
10
17.89703428240736
20
93.07311684873218
30
0
11
128.6470342824076
21
93.07311684873218
31
0
0
TEXT
5
134
330
2C
100
AcDbEntity
8
TXT1
370
9
100
AcDbText
10
23.871727435354217
20
285.39132431605645
30
0
40
2.2
1
03B-55
41
0.7
7
ROMANS
72
1
11
28.528394102020883
21
285.39132431605645
31
0
100
AcDbText
0
TEXT
5
135
330
2C
100
AcDbEntity
8
TXT1
370
9
100
AcDbText
10
24.091727435354215
20
276.3913243133926
30
0
40
2.2
1
03B-61
41
0.7
7
ROMANS
72
1
11
28.528394102020883
21
276.3913243133926
31
0
100
AcDbText
0
TEXT
5
136
330
2C
100
AcDbEntity
8
TXT1
370
9
100
AcDbText
10
23.871727435354217
20
267.3913243107286
30
0
40
2.2
1
03B-67
41
0.7
7
ROMANS
72
1
11
28.528394102020883
21
267.3913243107286
31
0
100
AcDbText
0
TEXT
5
137
330
2C
100
AcDbEntity
8
TXT1
370
9
100
AcDbText
10
23.871727435354217
20
258.3913243080646
30
0
40
2.2
1
03B-75
41
0.7
7
ROMANS
72
1
11
28.528394102020883
21
258.3913243080646
31
0
100
AcDbText
0
TEXT
5
138
330
2C
100
AcDbEntity
8
TXT1
370
9
100
AcDbText
10
23.871727435354217
20
249.39132430540053
30
0
40
2.2
1
03C-55
41
0.7
7
ROMANS
72
1
11
28.528394102020883
21
249.39132430540053
31
0
100
AcDbText
0
TEXT
5
139
330
2C
100
AcDbEntity
8
TXT1
370
9
100
AcDbText
10
23.871727435354217
20
240.3913243027365
30
0
40
2.2
1
03C-76
41
0.7
7
ROMANS
72
1
11
28.528394102020883
21
240.3913243027365
31
0
100
AcDbText
0
TEXT
5
13A
330
2C
100
AcDbEntity
8
TXT1
370
9
100
AcDbText
10
24.091727435354215
20
231.3913243000726
30
0
40
2.2
1
03D-61
41
0.7
7
ROMANS
72
1
11
28.528394102020883
21
231.3913243000726
31
0
100
AcDbText
0
TEXT
5
13B
330
2C
100
AcDbEntity
8
TXT1
370
9
100
AcDbText
10
23.945060768687547
20
222.39132429740857
30
0
40
2.2
1
03E-60
41
0.7
7
ROMANS
72
1
11
28.528394102020883
21
222.39132429740857
31
0
100
AcDbText
0
TEXT
5
13C
330
2C
100
AcDbEntity
8
TXT1
370
9
100
AcDbText
10
24.16506076868755
20
213.39132429474455
30
0
40
2.2
1
03E-71
41
0.7
7
ROMANS
72
1
11
28.528394102020883
21
213.39132429474455
31
0
100
AcDbText
0
TEXT
5
13D
330
2C
100
AcDbEntity
8
TXT1
370
9
100
AcDbText
10
23.981727435354216
20
204.39132429208053
30
0
40
2.2
1
03F-56
41
0.7
7
ROMANS
72
1
11
28.528394102020883
21
204.39132429208053
31
0
100
AcDbText
0
TEXT
5
13E
330
2C
100
AcDbEntity
8
TXT1
370
9
100
AcDbText
10
24.201727435354215
20
195.3913242894165
30
0
40
2.2
1
03F-61
41
0.7
7
ROMANS
72
1
11
28.528394102020883
21
195.3913242894165
31
0
100
AcDbText
0
TEXT
5
13F
330
2C
100
AcDbEntity
8
TXT1
370
9
100
AcDbText
10
23.981727435354216
20
187.14411988664455
30
0
40
2.2
1
03F-67
41
0.7
7
ROMANS
72
1
11
28.528394102020883
21
187.14411988664455
31
0
100
AcDbText
0
TEXT
5
140
330
2C
100
AcDbEntity
8
TXT1
370
9
100
AcDbText
10
24.201727435354215
20
177.39132428408857
30
0
40
2.2
1
03F-71
41
0.7
7
ROMANS
72
1
11
28.528394102020883
21
177.39132428408857
31
0
100
AcDbText
0
TEXT
5
141
330
2C
100
AcDbEntity
8
TXT1
370
9
100
AcDbText
10
23.981727435354216
20
168.56399941675278
30
0
40
2.2
1
03F-77
41
0.7
7
ROMANS
72
1
11
28.528394102020883
21
168.56399941675278
31
0
100
AcDbText
0
TEXT
5
142
330
2C
100
AcDbEntity
8
TXT1
370
9
100
AcDbText
10
24.091727435354215
20
158.83875670787836
30
0
40
2.2
1
03G-61
41
0.7
7
ROMANS
72
1
11
28.528394102020883
21
158.83875670787836
31
0
100
AcDbText
0
TEXT
5
143
330
2C
100
AcDbEntity
8
TXT1
370
9
100
AcDbText
10
43.52027987784051
20
285.39132431605645
30
0
40
2.2
1
IRP
41
0.7
7
ROMANS
72
1
11
45.390279877840506
21
285.39132431605645
31
0
100
AcDbText
0
TEXT
5
144
330
2C
100
AcDbEntity
8
TXT1
370
9
100
AcDbText
10
43.52027987784051
20
276.3913243133926
30
0
40
2.2
1
IRP
41
0.7
7
ROMANS
72
1
11
45.390279877840506
21
276.3913243133926
31
0
100
AcDbText
0
TEXT
5
145
330
2C
100
AcDbEntity
8
TXT1
370
9
100
AcDbText
10
43.52027987784051
20
267.3913243107286
30
0
40
2.2
1
IRP
41
0.7
7
ROMANS
72
1
11
45.390279877840506
21
267.3913243107286
31
0
100
AcDbText
0
TEXT
5
146
330
2C
100
AcDbEntity
8
TXT1
370
9
100
AcDbText
10
43.52027987784051
20
258.3913243080646
30
0
40
2.2
1
IRP
41
0.7
7
ROMANS
72
1
11
45.390279877840506
21
258.3913243080646
31
0
100
AcDbText
0
TEXT
5
147
330
2C
100
AcDbEntity
8
TXT1
370
9
100
AcDbText
10
43.52027987784051
20
249.39132430540053
30
0
40
2.2
1
IRP
41
0.7
7
ROMANS
72
1
11
45.390279877840506
21
249.39132430540053
31
0
100
AcDbText
0
TEXT
5
148
330
2C
100
AcDbEntity
8
TXT1
370
9
100
AcDbText
10
43.52027987784051
20
240.3913243027365
30
0
40
2.2
1
IRP
41
0.7
7
ROMANS
72
1
11
45.390279877840506
21
240.3913243027365
31
0
100
AcDbText
0
TEXT
5
149
330
2C
100
AcDbEntity
8
TXT1
370
9
100
AcDbText
10
43.52027987784051
20
231.3913243000726
30
0
40
2.2
1
IRP
41
0.7
7
ROMANS
72
1
11
45.390279877840506
21
231.3913243000726
31
0
100
AcDbText
0
TEXT
5
14A
330
2C
100
AcDbEntity
8
TXT1
370
9
100
AcDbText
10
43.52027987784051
20
222.39132429740857
30
0
40
2.2
1
IRP
41
0.7
7
ROMANS
72
1
11
45.390279877840506
21
222.39132429740857
31
0
100
AcDbText
0
TEXT
5
14B
330
2C
100
AcDbEntity
8
TXT1
370
9
100
AcDbText
10
43.52027987784051
20
213.39132429474455
30
0
40
2.2
1
IRP
41
0.7
7
ROMANS
72
1
11
45.390279877840506
21
213.39132429474455
31
0
100
AcDbText
0
TEXT
5
14C
330
2C
100
AcDbEntity
8
TXT1
370
9
100
AcDbText
10
43.52027987784051
20
204.39132429208053
30
0
40
2.2
1
IRP
41
0.7
7
ROMANS
72
1
11
45.390279877840506
21
204.39132429208053
31
0
100
AcDbText
0
TEXT
5
14D
330
2C
100
AcDbEntity
8
TXT1
370
9
100
AcDbText
10
43.52027987784051
20
195.3913242894165
30
0
40
2.2
1
IRP
41
0.7
7
ROMANS
72
1
11
45.390279877840506
21
195.3913242894165
31
0
100
AcDbText
0
TEXT
5
14E
330
2C
100
AcDbEntity
8
TXT1
370
9
100
AcDbText
10
43.52027987784051
20
187.53025288031188
30
0
40
2.2
1
IRP
41
0.7
7
ROMANS
72
1
11
45.390279877840506
21
187.53025288031188
31
0
100
AcDbText
0
TEXT
5
14F
330
2C
100
AcDbEntity
8
TXT1
370
9
100
AcDbText
10
43.52027987784051
20
177.39132428408857
30
0
40
2.2
1
IRP
41
0.7
7
ROMANS
72
1
11
45.390279877840506
21
177.39132428408857
31
0
100
AcDbText
0
TEXT
5
150
330
2C
100
AcDbEntity
8
TXT1
370
9
100
AcDbText
10
43.52027987784051
20
168.56399941675278
30
0
40
2.2
1
IRP
41
0.7
7
ROMANS
72
1
11
45.390279877840506
21
168.56399941675278
31
0
100
AcDbText
0
TEXT
5
151
330
2C
100
AcDbEntity
8
TXT1
370
9
100
AcDbText
10
43.52027987784051
20
158.83875670787836
30
0
40
2.2
1
IRP
41
0.7
7
ROMANS
72
1
11
45.390279877840506
21
158.83875670787836
31
0
100
AcDbText
0
TEXT
5
152
330
2C
100
AcDbEntity
8
TXT1
370
9
100
AcDbText
10
85.03080005152043
20
286.95346843569945
30
0
40
2.2
1
IDF STOPPED
41
0.7
7
ROMANS
100
AcDbText
0
TEXT
5
153
330
2C
100
AcDbEntity
8
TXT1
370
9
100
AcDbText
10
85.03080005152043
20
277.95346843303554
30
0
40
2.2
1
SAF STOPPED
41
0.7
7
ROMANS
100
AcDbText
0
TEXT
5
154
330
2C
100
AcDbEntity
8
TXT1
370
9
100
AcDbText
10
85.03080005152043
20
268.9534684303716
30
0
40
2.2
1
ALL FAB STOPPED
41
0.7
7
ROMANS
100
AcDbText
0
TEXT
5
155
330
2C
100
AcDbEntity
8
TXT1
370
9
100
AcDbText
10
85.03080005152043
20
259.95346842770755
30
0
40
2.2
1
PAF STOPPED
41
0.7
7
ROMANS
100
AcDbText
0
TEXT
5
156
330
2C
100
AcDbEntity
8
TXT1
370
9
100
AcDbText
10
85.03080005152043
20
250.95346842504352
30
0
40
2.2
1
TOTAL AIR FLOW < 25%%% MCR
41
0.7
7
ROMANS
100
AcDbText
0
TEXT
5
157
330
2C
100
AcDbEntity
8
TXT1
370
9
100
AcDbText
10
85.03080005152043
20
241.9534684223795
30
0
40
2.2
1
FURNACE PRESSURE H.H.
41
0.7
7
ROMANS
100
AcDbText
0
TEXT
5
158
330
2C
100
AcDbEntity
8
TXT1
370
9
100
AcDbText
10
85.03080005152043
20
232.9534684197156
30
0
40
2.2
1
FURNACE PRESSURE L.L.
41
0.7
7
ROMANS
100
AcDbText
0
TEXT
5
159
330
2C
100
AcDbEntity
8
TXT1
370
9
100
AcDbText
10
85.03080005152043
20
223.95346841705157
30
0
40
2.2
1
DRUM LEVEL H.H.
41
0.7
7
ROMANS
100
AcDbText
0
TEXT
5
15A
330
2C
100
AcDbEntity
8
TXT1
370
9
100
AcDbText
10
85.03080005152043
20
214.9534684143875
30
0
40
2.2
1
DRUM LEVEL L.L.
41
0.7
7
ROMANS
100
AcDbText
0
TEXT
5
15B
330
2C
100
AcDbEntity
8
TXT1
370
9
100
AcDbText
10
85.03080005152043
20
205.95346841172352
30
0
40
2.2
1
LOSS OF ALL FUEL
41
0.7
7
ROMANS
100
AcDbText
0
TEXT
5
15C
330
2C
100
AcDbEntity
8
TXT1
370
9
100
AcDbText
10
85.03080005152043
20
196.9534684090595
30
0
40
2.2
1
PRIMARY AIR FLOW L.L.
41
0.7
7
ROMANS
100
AcDbText
0
TEXT
5
15D
330
2C
100
AcDbEntity
8
TXT1
370
9
100
AcDbText
10
85.03080005152043
20
189.12486162372664
30
0
40
2.2
1
FURNACE TEMP. INADEQUATE FOR
41
0.7
7
ROMANS
100
AcDbText
0
TEXT
5
15E
330
2C
100
AcDbEntity
8
TXT1
370
9
100
AcDbText
10
85.03080005152043
20
178.95346840373156
30
0
40
2.2
1
BOILER EMERGENCY TRIP P.B. ON
41
0.7
7
ROMANS
100
AcDbText
0
TEXT
5
15F
330
2C
100
AcDbEntity
8
TXT1
370
9
100
AcDbText
10
85.03080005152043
20
184.62486162372664
30
0
40
2.2
1
COAL FIRING
41
0.7
7
ROMANS
100
AcDbText
0
TEXT
5
160
330
2C
100
AcDbEntity
8
TXT1
370
9
100
AcDbText
10
85.03080005152043
20
175.35346840373154
30
0
40
2.2
1
(CRT)
41
0.7
7
ROMANS
100
AcDbText
0
TEXT
5
161
330
2C
100
AcDbEntity
8
TXT1
370
9
100
AcDbText
10
85.03080005152043
20
169.95346840106754
30
0
40
2.2
1
BOILER EMERGENCY TRIP P.B. ON
41
0.7
7
ROMANS
100
AcDbText
0
TEXT
5
162
330
2C
100
AcDbEntity
8
TXT1
370
9
100
AcDbText
10
85.03080005152043
20
166.35346840106757
30
0
40
2.2
1
(OPC)
41
0.7
7
ROMANS
100
AcDbText
0
TEXT
5
163
330
2C
100
AcDbEntity
8
TXT1
370
9
100
AcDbText
10
85.03080005152043
20
160.40090082752135
30
0
40
2.2
1
INSTRUMENT AIR PRESSURE L.L.
41
0.7
7
ROMANS
100
AcDbText
0
LINE
5
164
330
2C
100
AcDbEntity
8
CON
100
AcDbLine
10
128.61648529496838
20
286.4773761474046
30
0
11
193.76139453494238
21
286.4773761474046
31
0
0
SOLID
5
165
330
2C
100
AcDbEntity
8
CON
370
9
100
AcDbTrace
10
190.73156023368279
20
286.9864405196353
30
0
11
190.73156023368279
21
285.97633950923534
31
0
12
193.76186326488283
22
286.4813900144354
32
0
13
193.76186326488283
23
286.4813900144354
33
0
0
LINE
5
166
330
2C
100
AcDbEntity
8
CON
100
AcDbLine
10
128.61648529496827
20
277.4773761447407
30
0
11
193.76139453494227
21
277.4773761447407
31
0
0
SOLID
5
167
330
2C
100
AcDbEntity
8
CON
370
9
100
AcDbTrace
10
190.73156023368267
20
277.9864405169714
30
0
11
190.73156023368267
21
276.97633950657143
31
0
12
193.76186326488272
22
277.4813900117715
32
0
13
193.76186326488272
23
277.4813900117715
33
0
0
LINE
5
168
330
2C
100
AcDbEntity
8
CON
100
AcDbLine
10
128.61648529496827
20
268.47737614207665
30
0
11
193.76139453494227
21
268.47737614207665
31
0
0
SOLID
5
169
330
2C
100
AcDbEntity
8
CON
370
9
100
AcDbTrace
10
190.73156023368267
20
268.98644051430745
30
0
11
190.73156023368267
21
267.9763395039074
31
0
12
193.76186326488272
22
268.4813900091075
32
0
13
193.76186326488272
23
268.4813900091075
33
0
0
LINE
5
16A
330
2C
100
AcDbEntity
8
CON
100
AcDbLine
10
128.61648529496827
20
259.47737613941274
30
0
11
193.76139453494227
21
259.47737613941274
31
0
0
SOLID
5
16B
330
2C
100
AcDbEntity
8
CON
370
9
100
AcDbTrace
10
190.73156023368267
20
259.9864405116434
30
0
11
190.73156023368267
21
258.9763395012435
31
0
12
193.76186326488272
22
259.4813900064435
32
0
13
193.76186326488272
23
259.4813900064435
33
0
0
LINE
5
16C
330
2C
100
AcDbEntity
8
CON
100
AcDbLine
10
128.61648529496827
20
250.47737613674866
30
0
11
193.7613945349423
21
250.47737613674866
31
0
0
SOLID
5
16D
330
2C
100
AcDbEntity
8
CON
370
9
100
AcDbTrace
10
190.7315602336827
20
250.9864405089794
30
0
11
190.7315602336827
21
249.97633949857942
31
0
12
193.76186326488275
22
250.48139000377944
32
0
13
193.76186326488275
23
250.48139000377944
33
0
0
LINE
5
16E
330
2C
100
AcDbEntity
8
CON
100
AcDbLine
10
128.61648529496827
20
241.4773761340847
30
0
11
193.7613945349423
21
241.4773761340847
31
0
0
SOLID
5
16F
330
2C
100
AcDbEntity
8
CON
370
9
100
AcDbTrace
10
190.7315602336827
20
241.98644050631538
30
0
11
190.7315602336827
21
240.97633949591545
31
0
12
193.76186326488275
22
241.48139000111547
32
0
13
193.76186326488275
23
241.48139000111547
33
0
0
LINE
5
170
330
2C
100
AcDbEntity
8
CON
100
AcDbLine
10
128.61648529496827
20
232.47737613142067
30
0
11
193.7613945349423
21
232.47737613142067
31
0
0
SOLID
5
171
330
2C
100
AcDbEntity
8
CON
370
9
100
AcDbTrace
10
190.7315602336827
20
232.98644050365147
30
0
11
190.7315602336827
21
231.97633949325143
31
0
12
193.76186326488275
22
232.4813899984515
32
0
13
193.76186326488275
23
232.4813899984515
33
0
0
LINE
5
172
330
2C
100
AcDbEntity
8
CON
100
AcDbLine
10
128.61648529496827
20
223.4773761287567
30
0
11
193.7613945349423
21
223.4773761287567
31
0
0
SOLID
5
173
330
2C
100
AcDbEntity
8
CON
370
9
100
AcDbTrace
10
190.7315602336827
20
223.98644050098744
30
0
11
190.7315602336827
21
222.97633949058746
31
0
12
193.76186326488275
22
223.48138999578748
32
0
13
193.76186326488275
23
223.48138999578748
33
0
0
LINE
5
174
330
2C
100
AcDbEntity
8
CON
100
AcDbLine
10
128.61648529496833
20
214.47737612609262
30
0
11
193.76139453494233
21
214.47737612609262
31
0
0
SOLID
5
175
330
2C
100
AcDbEntity
8
CON
370
9
100
AcDbTrace
10
190.73156023368273
20
214.98644049832342
30
0
11
190.73156023368273
21
213.97633948792338
31
0
12
193.76186326488278
22
214.48138999312346
32
0
13
193.76186326488278
23
214.48138999312346
33
0
0
LINE
5
176
330
2C
100
AcDbEntity
8
CON
100
AcDbLine
10
128.61648529496838
20
205.4773761234287
30
0
11
193.76139453494238
21
205.4773761234287
31
0
0
SOLID
5
177
330
2C
100
AcDbEntity
8
CON
370
9
100
AcDbTrace
10
190.73156023368279
20
205.9864404956594
30
0
11
190.73156023368279
21
204.97633948525947
31
0
12
193.76186326488283
22
205.4813899904595
32
0
13
193.76186326488283
23
205.4813899904595
33
0
0
LINE
5
178
330
2C
100
AcDbEntity
8
CON
100
AcDbLine
10
128.61648529496833
20
196.4773761207647
30
0
11
193.76139453494233
21
196.4773761207647
31
0
0
SOLID
5
179
330
2C
100
AcDbEntity
8
CON
370
9
100
AcDbTrace
10
190.73156023368273
20
196.98644049299537
30
0
11
190.73156023368273
21
195.97633948259545
31
0
12
193.76186326488278
22
196.4813899877954
32
0
13
193.76186326488278
23
196.4813899877954
33
0
0
LINE
5
17A
330
2C
100
AcDbEntity
8
CON
100
AcDbLine
10
128.61648529496833
20
188.61630471166
30
0
11
193.76139453494233
21
188.61630471166
31
0
0
SOLID
5
17B
330
2C
100
AcDbEntity
8
CON
370
9
100
AcDbTrace
10
190.73156023368273
20
189.12536908389075
30
0
11
190.73156023368273
21
188.11526807349077
31
0
12
193.76186326488278
22
188.62031857869079
32
0
13
193.76186326488278
23
188.62031857869079
33
0
0
LINE
5
17C
330
2C
100
AcDbEntity
8
CON
100
AcDbLine
10
128.61648529496838
20
178.4773761154367
30
0
11
193.76139453494238
21
178.4773761154367
31
0
0
SOLID
5
17D
330
2C
100
AcDbEntity
8
CON
370
9
100
AcDbTrace
10
190.73156023368279
20
178.98644048766744
30
0
11
190.73156023368279
21
177.97633947726746
31
0
12
193.76186326488283
22
178.48138998246748
32
0
13
193.76186326488283
23
178.48138998246748
33
0
0
LINE
5
17E
330
2C
100
AcDbEntity
8
CON
100
AcDbLine
10
128.61648529496833
20
169.6500512481009
30
0
11
193.76139453494233
21
169.6500512481009
31
0
0
SOLID
5
17F
330
2C
100
AcDbEntity
8
CON
370
9
100
AcDbTrace
10
190.73156023368273
20
170.15911562033165
30
0
11
190.73156023368273
21
169.14901460993167
31
0
12
193.76186326488278
22
169.6540651151317
32
0
13
193.76186326488278
23
169.6540651151317
33
0
0
LINE
5
180
330
2C
100
AcDbEntity
8
CON
100
AcDbLine
10
128.61648529496833
20
159.64712110187133
30
0
11
193.76139453494233
21
159.64712110187133
31
0
0
SOLID
5
181
330
2C
100
AcDbEntity
8
CON
370
9
100
AcDbTrace
10
190.73156023368273
20
160.15618547410202
30
0
11
190.73156023368273
21
159.1460844637021
31
0
12
193.76186326488278
22
159.6511349689021
32
0
13
193.76186326488278
23
159.6511349689021
33
0
0
LWPOLYLINE
5
182
330
2C
100
AcDbEntity
8
CON
370
9
100
AcDbPolyline
90
2
70
0
43
1.0101010103999999
10
193.92061873165434
20
288.8044051429142
40
1.0101010103999999
41
1.0101010103999999
10
193.92061873165434
20
129.86021837150304
40
1.0101010103999999
41
1.0101010103999999
0
TEXT
5
183
330
2C
100
AcDbEntity
8
CON
370
9
100
AcDbText
10
196.39777120954008
20
222.39621718912898
30
0
40
2.525252526
1
OR
41
0.8
7
ROMANS
72
4
11
198.46607327845436
21
223.65884345212896
31
0
100
AcDbText
0
CIRCLE
5
184
330
2C
100
AcDbEntity
8
CON
370
9
100
AcDbCircle
10
198.46607327845436
20
223.65884345212896
30
0
40
4.5454545468
0
LWPOLYLINE
5
185
330
2C
100
AcDbEntity
8
CON
62
1
370
9
100
AcDbPolyline
90
4
70
1
10
131.2567323272069
20
301.63707192722967
10
145.69841446729933
20
301.63707192722967
10
145.69841446729933
20
294.1109975716115
10
131.2567323272069
20
294.1109975716115
0
TEXT
5
186
330
2C
100
AcDbEntity
8
CON
62
1
370
9
100
AcDbText
10
134.75581558494858
20
296.1476980236537
30
0
40
3.7500000011100005
1
IRP
41
0.8
7
ROMANS
72
4
11
138.398672728884
21
298.0226980242087
31
0
100
AcDbText
0
SOLID
5
187
330
2C
100
AcDbEntity
8
CON
370
9
100
AcDbTrace
10
323.55209079897395
20
178.75354735866324
30
0
11
323.55209079897395
21
177.7535473583672
31
0
12
326.55209079986184
22
178.25354735851522
32
0
13
326.55209079986184
23
178.25354735851522
33
0
0
LINE
5
188
330
2C
100
AcDbEntity
8
CON
370
9
100
AcDbLine
10
253.41843985156555
20
124.35598404655849
30
0
11
253.41843985156555
21
115.26507495295846
31
0
0
LWPOLYLINE
5
189
330
2C
100
AcDbEntity
8
CON
370
9
100
AcDbPolyline
90
2
70
0
43
1.0101010103999999
10
244.2077226137656
20
126.68623327933153
40
1.0101010103999999
41
1.0101010103999999
10
244.2077226137656
20
113.26783049553222
40
1.0101010103999999
41
1.0101010103999999
0
LINE
5
18A
330
2C
100
AcDbEntity
8
CON
370
9
100
AcDbLine
10
253.40287244815704
20
115.27332142827788
30
0
11
244.31174551844498
21
115.27332142827788
31
0
0
TEXT
5
18B
330
2C
100
AcDbEntity
8
CON
370
9
100
AcDbText
10
246.03508246602277
20
118.54790323675842
30
0
40
2.525252526
1
AND
41
0.8
7
ROMANS
72
4
11
248.87298530476562
21
119.81052949975842
31
0
100
AcDbText
0
LINE
5
18C
330
2C
100
AcDbEntity
8
CON
370
9
100
AcDbLine
10
253.40287244815704
20
124.3592042838219
30
0
11
244.31174551844498
21
124.3592042838219
31
0
0
LINE
5
18D
330
2C
100
AcDbEntity
8
CON
370
9
100
AcDbLine
10
253.40766399449154
20
119.79556456139548
30
0
11
263.64661575838784
21
119.79556456139548
31
0
0
SOLID
5
18E
330
2C
100
AcDbEntity
8
CON
370
9
100
AcDbTrace
10
241.01819538585357
20
124.86425478902183
30
0
11
241.01819538585357
21
123.85415377862185
31
0
12
244.04849841705362
22
124.3592042838219
32
0
13
244.04849841705362
23
124.3592042838219
33
0
0
SOLID
5
18F
330
2C
100
AcDbEntity
8
CON
370
9
100
AcDbTrace
10
240.89306422071527
20
115.77837193347793
30
0
11
240.89306422071527
21
114.76827092307795
31
0
12
243.9233672519152
22
115.27332142827788
32
0
13
243.9233672519152
23
115.27332142827788
33
0
0
LINE
5
190
330
2C
100
AcDbEntity
8
CON
100
AcDbLine
10
128.55209074125366
20
115.0583368575459
30
0
11
244.05681982492325
21
115.0583368575459
31
0
0
LINE
5
191
330
2C
100
AcDbEntity
8
CON
370
9
100
AcDbLine
10
277.02297480927894
20
164.7990019053151
30
0
11
277.02297480927894
21
146.6171837181152
31
0
0
LINE
5
192
330
2C
100
AcDbEntity
8
CON
370
9
100
AcDbLine
10
285.103782892479
20
164.7990019053151
30
0
11
277.02297480927894
21
164.7990019053151
31
0
0
LINE
5
193
330
2C
100
AcDbEntity
8
CON
370
9
100
AcDbLine
10
277.02297480927894
20
155.70809281171512
30
0
11
285.103782892479
21
155.70809281171512
31
0
0
TEXT
5
194
330
2C
100
AcDbEntity
8
CON
370
9
100
AcDbText
10
279.8608776480218
20
158.91298946116225
30
0
40
2.525252526
1
S
7
ROMANS
72
4
11
281.06337885087896
21
160.17561572416224
31
0
100
AcDbText
0
TEXT
5
195
330
2C
100
AcDbEntity
8
CON
370
9
100
AcDbText
10
279.7406275277361
20
149.82208036756234
30
0
40
2.525252526
1
R
7
ROMANS
72
4
11
281.06337885087896
21
151.08470663056232
31
0
100
AcDbText
0
LINE
5
196
330
2C
100
AcDbEntity
8
CON
370
9
100
AcDbLine
10
285.103782892479
20
146.6171837181152
30
0
11
277.02297480927894
21
146.6171837181152
31
0
0
SOLID
5
197
330
2C
100
AcDbEntity
8
CON
370
9
100
AcDbTrace
10
273.99267177807894
20
160.75859786371518
30
0
11
273.99267177807894
21
159.7484968533152
31
0
12
277.02297480927894
22
160.25354735851516
32
0
13
277.02297480927894
23
160.25354735851516
33
0
0
SOLID
5
198
330
2C
100
AcDbEntity
8
CON
370
9
100
AcDbTrace
10
274.07144566641944
20
151.68081775150517
30
0
11
274.07144566641944
21
150.6707167411052
31
0
12
277.1017486976193
22
151.17576724630524
32
0
13
277.1017486976193
23
151.17576724630524
33
0
0
LINE
5
199
330
2C
100
AcDbEntity
8
CON
370
9
100
AcDbLine
10
285.103782892479
20
164.7990019053151
30
0
11
285.103782892479
21
146.6171837181152
31
0
0
LINE
5
19A
330
2C
100
AcDbEntity
8
CON
100
AcDbLine
10
244.04849841705362
20
124.3592042838219
30
0
11
231.34719501738488
21
124.3592042838219
31
0
0
TEXT
5
19B
330
2C
100
AcDbEntity
8
CON
370
9
100
AcDbText
10
226.5383495709648
20
127.37359036862294
30
0
40
2.525252526
1
NOT
41
0.8
7
ROMANS
72
4
11
229.5686526021648
21
128.63621663162294
31
0
100
AcDbText
0
LINE
5
19C
330
2C
100
AcDbEntity
8
CON
370
9
100
AcDbLine
10
228.3471950164969
20
125.8592042842659
30
0
11
231.34719501738488
21
122.85920428337789
31
0
0
LINE
5
19D
330
2C
100
AcDbEntity
8
CON
370
9
100
AcDbLine
10
231.34719501738488
20
125.8592042842659
30
0
11
228.3471950164969
21
122.85920428337789
31
0
0
LINE
5
19E
330
2C
100
AcDbEntity
8
CON
370
9
100
AcDbLine
10
231.34719501738488
20
122.85920428337789
30
0
11
228.3471950164969
21
122.85920428337789
31
0
0
LINE
5
19F
330
2C
100
AcDbEntity
8
CON
370
9
100
AcDbLine
10
231.34719501738488
20
125.8592042842659
30
0
11
231.34719501738488
21
122.85920428337789
31
0
0
LINE
5
1A0
330
2C
100
AcDbEntity
8
CON
370
9
100
AcDbLine
10
228.3471950164969
20
125.8592042842659
30
0
11
231.34719501738488
21
125.8592042842659
31
0
0
LINE
5
1A1
330
2C
100
AcDbEntity
8
CON
370
9
100
AcDbLine
10
228.3471950164969
20
122.85920428337789
30
0
11
228.3471950164969
21
125.8592042842659
31
0
0
SOLID
5
1A2
330
2C
100
AcDbEntity
8
CON
370
9
100
AcDbTrace
10
225.31689198529685
20
124.86425478902189
30
0
11
225.31689198529685
21
123.8541537786219
31
0
12
228.3471950164969
22
124.35920428382192
32
0
13
228.3471950164969
23
124.35920428382192
33
0
0
LINE
5
1A3
330
2C
100
AcDbEntity
8
CON
100
AcDbLine
10
277.02297480927894
20
160.25354735851516
30
0
11
220.3938988535108
21
160.25354735851516
31
0
0
LINE
5
1A4
330
2C
100
AcDbEntity
8
CON
100
AcDbLine
10
220.39389885351093
20
124.35920428382195
30
0
11
220.3938988535107
21
223.69190796070438
31
0
0
LINE
5
1A5
330
2C
100
AcDbEntity
8
CON
100
AcDbLine
10
228.3471950164969
20
124.35920428382192
30
0
11
220.3855774456411
21
124.35920428382195
31
0
0
LINE
5
1A6
330
2C
100
AcDbEntity
8
CON
370
9
100
AcDbLine
10
203.0561655586657
20
223.69190796070438
30
0
11
263.97816894920254
21
223.69190796070438
31
0
0
LINE
5
1A7
330
2C
100
AcDbEntity
8
CON
370
9
100
AcDbLine
10
266.97816895009066
20
223.69190796070438
30
0
11
324.6149386964282
21
223.69190796070438
31
0
0
SOLID
5
1A8
330
2C
100
AcDbEntity
8
CON
370
9
100
AcDbTrace
10
323.52178776866174
20
160.75859786371507
30
0
11
323.52178776866174
21
159.74849685331515
31
0
12
326.55209079986184
22
160.25354735851516
32
0
13
326.55209079986184
23
160.25354735851516
33
0
0
LINE
5
1A9
330
2C
100
AcDbEntity
8
CON
100
AcDbLine
10
285.103782892479
20
160.25354735851516
30
0
11
326.55209079986184
21
160.25354735851516
31
0
0
LINE
5
1AA
330
2C
100
AcDbEntity
8
CON
100
AcDbLine
10
277.1017486976193
20
151.17576724630524
30
0
11
263.65493716625747
21
151.17576724630524
31
0
0
LINE
5
1AB
330
2C
100
AcDbEntity
8
CON
100
AcDbLine
10
263.65493716625747
20
151.17576724630524
30
0
11
263.64661575838784
21
119.79556456139548
31
0
0
LINE
5
1AC
330
2C
100
AcDbEntity
8
CON
100
AcDbLine
10
326.55209079986184
20
178.25354735851522
30
0
11
320.77682921469795
21
178.25354735851522
31
0
0
LINE
5
1AD
330
2C
100
AcDbEntity
8
CON
100
AcDbLine
10
304.95095961574077
20
107.13026850961376
30
0
11
304.95095961574077
21
188.13026853358974
31
0
0
SOLID
5
1AE
330
2C
100
AcDbEntity
8
CON
370
9
100
AcDbTrace
10
323.55209079897395
20
188.63026853373776
30
0
11
323.55209079897395
21
187.63026853344172
31
0
12
326.55209079986184
22
188.13026853358974
32
0
13
326.55209079986184
23
188.13026853358974
33
0
0
LINE
5
1AF
330
2C
100
AcDbEntity
8
CON
100
AcDbLine
10
326.55209079986184
20
188.13026853358974
30
0
11
304.95095961574077
21
188.13026853358974
31
0
0
SOLID
5
1B0
330
2C
100
AcDbEntity
8
CON
370
9
100
AcDbTrace
10
323.55209079897395
20
107.63026850976178
30
0
11
323.55209079897395
21
106.63026850946574
31
0
12
326.55209079986184
22
107.13026850961376
32
0
13
326.55209079986184
23
107.13026850961376
33
0
0
LINE
5
1B1
330
2C
100
AcDbEntity
8
CON
100
AcDbLine
10
326.55209079986184
20
107.13026850961376
30
0
11
304.95095961574077
21
107.13026850961376
31
0
0
SOLID
5
1B2
330
2C
100
AcDbEntity
8
CON
370
9
100
AcDbTrace
10
323.55209079897384
20
170.63026852840977
30
0
11
323.55209079897384
21
169.63026852811373
31
0
12
326.55209079986173
22
170.13026852826175
32
0
13
326.55209079986173
23
170.13026852826175
33
0
0
LINE
5
1B3
330
2C
100
AcDbEntity
8
CON
100
AcDbLine
10
326.55209079986173
20
170.13026852826175
30
0
11
304.95095961574066
21
170.13026852826175
31
0
0
TEXT
5
1B4
330
2C
100
AcDbEntity
8
CON
370
9
100
AcDbText
10
262.1693235036705
20
226.70629404550542
30
0
40
2.525252526
1
NOT
41
0.8
7
ROMANS
72
4
11
265.1996265348705
21
227.9689203085054
31
0
100
AcDbText
0
LINE
5
1B5
330
2C
100
AcDbEntity
8
CON
370
9
100
AcDbLine
10
263.97816894920254
20
225.19190796114833
30
0
11
266.97816895009066
21
222.19190796026038
31
0
0
LINE
5
1B6
330
2C
100
AcDbEntity
8
CON
370
9
100
AcDbLine
10
266.97816895009066
20
225.19190796114833
30
0
11
263.97816894920254
21
222.19190796026038
31
0
0
LINE
5
1B7
330
2C
100
AcDbEntity
8
CON
370
9
100
AcDbLine
10
266.97816895009066
20
222.19190796026038
30
0
11
263.97816894920254
21
222.19190796026038
31
0
0
LINE
5
1B8
330
2C
100
AcDbEntity
8
CON
370
9
100
AcDbLine
10
266.97816895009066
20
225.19190796114833
30
0
11
266.97816895009066
21
222.19190796026038
31
0
0
LINE
5
1B9
330
2C
100
AcDbEntity
8
CON
370
9
100
AcDbLine
10
263.97816894920254
20
225.19190796114833
30
0
11
266.97816895009066
21
225.19190796114833
31
0
0
LINE
5
1BA
330
2C
100
AcDbEntity
8
CON
370
9
100
AcDbLine
10
263.97816894920254
20
222.19190796026038
30
0
11
263.97816894920254
21
225.19190796114833
31
0
0
SOLID
5
1BB
330
2C
100
AcDbEntity
8
CON
370
9
100
AcDbTrace
10
260.94786591800255
20
224.19695846590434
30
0
11
260.94786591800255
21
223.18685745550437
31
0
12
263.97816894920254
22
223.69190796070438
32
0
13
263.97816894920254
23
223.69190796070438
33
0
0
TEXT
5
1BC
330
2C
100
AcDbEntity
8
TXT1
370
9
100
AcDbText
10
85.13065355074278
20
115.76064340175509
30
0
40
2.2
1
BOILER PURGE COMPLETED
41
0.7
7
ROMANS
100
AcDbText
0
TEXT
5
1BD
330
2C
100
AcDbEntity
8
TXT1
370
9
100
AcDbText
10
24.922762522729432
20
113.7476782520095
30
0
40
2.2
1
02-65
41
0.7
7
ROMANS
72
1
11
28.8094291893961
21
113.7476782520095
31
0
100
AcDbText
0
INSERT
5
1BE
330
2C
100
AcDbEntity
8
CON
370
9
100
AcDbBlockReference
2
LAMP1
10
325.8467516910216
20
182.508734108456
30
0
0
TEXT
5
1BF
330
2C
100
AcDbEntity
8
TXT1
370
9
100
AcDbText
10
328.14596558602454
20
161.16356425256026
30
0
40
2.2
1
MFT 2
41
0.7
7
ROMANS
100
AcDbText
0
TEXT
5
1C0
330
2C
100
AcDbEntity
8
TXT1
370
9
100
AcDbText
10
328.14596558602454
20
170.1635642552243
30
0
40
2.2
1
MFT 1
41
0.7
7
ROMANS
100
AcDbText
0
TEXT
5
1C1
330
2C
100
AcDbEntity
8
TXT1
370
9
100
AcDbText
10
337.8091671653191
20
179.1635642552243
30
0
40
2.2
1
MFT
41
0.7
7
ROMANS
100
AcDbText
0
TEXT
5
1C2
330
2C
100
AcDbEntity
8
TXT1
370
9
100
AcDbText
10
380.17308074406776
20
168.6150693151871
30
0
40
2.2
1
TCS
41
0.7
7
ROMANS
72
1
11
382.1897474107344
21
168.6150693151871
31
0
100
AcDbText
0
TEXT
5
1C3
330
2C
100
AcDbEntity
8
TXT1
370
9
100
AcDbText
10
380.17308074406776
20
159.82892926957646
30
0
40
2.2
1
TCS
41
0.7
7
ROMANS
72
1
11
382.1897474107344
21
159.82892926957646
31
0
100
AcDbText
0
TEXT
5
1C4
330
2C
100
AcDbEntity
8
TXT1
370
9
100
AcDbText
10
379.8430807440677
20
179.0180864657607
30
0
40
2.2
1
OPC
41
0.7
7
ROMANS
72
1
11
382.1897474107344
21
179.0180864657607
31
0
100
AcDbText
0
TEXT
5
1C5
330
2C
100
AcDbEntity
8
TXT1
370
9
100
AcDbText
10
378.8897474107344
20
175.41808646576072
30
0
40
2.2
1
(ANN)
41
0.7
7
ROMANS
72
1
11
382.1897474107344
21
175.41808646576072
31
0
100
AcDbText
0
TEXT
5
1C6
330
2C
100
AcDbEntity
8
TXT1
370
9
100
AcDbText
10
337.8091671653191
20
188.16356426055233
30
0
40
2.2
1
MFT
41
0.7
7
ROMANS
100
AcDbText
0
TEXT
5
1C7
330
2C
100
AcDbEntity
8
TXT1
370
9
100
AcDbText
10
379.9897474107344
20
188.01808647108874
30
0
40
2.2
1
CRT
41
0.7
7
ROMANS
72
1
11
382.1897474107344
21
188.01808647108874
31
0
100
AcDbText
0
TEXT
5
1C8
330
2C
100
AcDbEntity
8
TXT1
370
9
100
AcDbText
10
378.8897474107344
20
184.41808647108877
30
0
40
2.2
1
(ANN)
41
0.7
7
ROMANS
72
1
11
382.1897474107344
21
184.41808647108877
31
0
100
AcDbText
0
INSERT
5
1C9
330
2C
100
AcDbEntity
8
CON
370
9
100
AcDbBlockReference
2
LAMP1
10
325.8467516910216
20
191.50873411644795
30
0
0
TEXT
5
1CA
330
2C
100
AcDbEntity
8
TXT1
370
9
100
AcDbText
10
328.14596558602466
20
107.16356423657629
30
0
40
2.2
1
MFT
41
0.7
7
ROMANS
100
AcDbText
0
TEXT
5
1CB
330
2C
100
AcDbEntity
8
TXT1
370
9
100
AcDbText
10
380.3197474107344
20
105.45172332924929
30
0
40
2.2
1
IRP
41
0.7
7
ROMANS
72
1
11
382.1897474107344
21
105.45172332924929
31
0
100
AcDbText
0
TEXT
5
1CC
330
2C
100
AcDbEntity
8
TXT1
370
9
100
AcDbText
10
390.1076115550735
20
224.01808648174472
30
0
40
2.2
1
01-15,02-23
41
0.7
7
ROMANS
100
AcDbText
0
SOLID
5
1CD
330
2C
100
AcDbEntity
8
CON
370
9
100
AcDbTrace
10
323.61507932009397
20
224.21704819873594
30
0
11
323.61507932009397
21
223.21704819843984
31
0
12
326.61507932098186
22
223.71704819858792
32
0
13
326.61507932098186
23
223.71704819858792
33
0
0
TEXT
5
1CE
330
2C
100
AcDbEntity
8
TXT1
370
9
100
AcDbText
10
328.14596558602466
20
224.16356427120843
30
0
40
2.2
1
NO BOILER TRIP COMMAND
41
0.7
7
ROMANS
100
AcDbText
0
TEXT
5
1CF
330
2C
100
AcDbEntity
8
TXT1
370
9
100
AcDbText
10
393.8280070096131
20
107.42618359643294
30
0
40
2.2
1
03D-15
41
0.7
7
ROMANS
100
AcDbText
0
TEXT
5
1D0
330
2C
100
AcDbEntity
8
TXT1
370
9
100
AcDbText
10
393.7517155967089
20
103.82618359643294
30
0
40
2.2
1
03E-25
41
0.7
7
ROMANS
100
AcDbText
0
LWPOLYLINE
5
1D1
330
2C
100
AcDbEntity
8
CON
370
15
100
AcDbPolyline
90
2
70
1
43
0.75
10
219.97365836956303
20
223.7328957424858
40
0.75
41
0.75
42
1
10
220.72365836956303
20
223.7328957424858
40
0.75
41
0.75
42
1
0
LWPOLYLINE
5
1D2
330
2C
100
AcDbEntity
8
CON
370
15
100
AcDbPolyline
90
2
70
1
43
0.75
10
219.98930857249727
20
160.2955235145778
40
0.75
41
0.75
42
1
10
220.73930857249727
20
160.2955235145778
40
0.75
41
0.75
42
1
0
LWPOLYLINE
5
1D3
330
2C
100
AcDbEntity
8
CON
370
15
100
AcDbPolyline
90
2
70
1
43
0.75
10
320.38638714378317
20
188.1341605839365
40
0.75
41
0.75
42
1
10
321.13638714378317
20
188.1341605839365
40
0.75
41
0.75
42
1
0
LWPOLYLINE
5
1D4
330
2C
100
AcDbEntity
8
CON
370
15
100
AcDbPolyline
90
2
70
1
43
0.75
10
304.47535077632233
20
170.1291596571406
40
0.75
41
0.75
42
1
10
305.22535077632233
20
170.1291596571406
40
0.75
41
0.75
42
1
0
LWPOLYLINE
5
1D5
330
2C
100
AcDbEntity
8
CON
370
15
100
AcDbPolyline
90
2
70
1
43
0.75
10
304.5057484365009
20
160.31162220816807
40
0.75
41
0.75
42
1
10
305.2557484365009
20
160.31162220816807
40
0.75
41
0.75
42
1
0
LWPOLYLINE
5
1D6
330
2C
100
AcDbEntity
8
CEN
100
AcDbPolyline
90
4
70
0
43
0.5
10
18.239022558226964
20
110.49586115155489
40
0.5
41
0.5
10
128.64703428240756
20
110.49586115155489
40
0.5
41
0.5
10
128.64703428240756
20
119.6208125635369
40
0.5
41
0.5
10
18.079957875741513
20
119.6208125635369
40
0.5
41
0.5
0
LWPOLYLINE
5
1D7
330
2C
100
AcDbEntity
8
CEN
100
AcDbPolyline
90
2
70
0
43
0.5
10
317.80670666361993
20
227.99806020571555
40
0.5
41
0.5
10
407.98527587433637
20
227.99806020571555
40
0.5
41
0.5
0
LWPOLYLINE
5
1D8
330
2C
100
AcDbEntity
8
CEN
100
AcDbPolyline
90
2
70
0
43
0.5
10
326.64608959419365
20
156.374168773713
40
0.5
41
0.5
10
407.9436510255787
20
156.374168773713
40
0.5
41
0.5
0
LWPOLYLINE
5
1D9
330
2C
100
AcDbEntity
8
CEN
100
AcDbPolyline
90
2
70
0
43
0.5
10
317.80745808388156
20
183.0787859611039
40
0.5
41
0.5
10
407.95685363803295
20
183.0787859611039
40
0.5
41
0.5
0
LWPOLYLINE
5
1DA
330
2C
100
AcDbEntity
8
CEN
100
AcDbPolyline
90
2
70
0
43
0.5
10
317.8085036257471
20
174.03248638563764
40
0.5
41
0.5
10
407.942906885452
20
174.03248638563764
40
0.5
41
0.5
0
LWPOLYLINE
5
1DB
330
2C
100
AcDbEntity
8
CEN
100
AcDbPolyline
90
2
70
0
43
0.5
10
326.65665638398923
20
147.03955287792553
40
0.5
41
0.5
10
407.95421781537425
20
147.03955287792553
40
0.5
41
0.5
0
LWPOLYLINE
5
1DC
330
2C
100
AcDbEntity
8
CEN
100
AcDbPolyline
90
2
70
0
43
0.5
10
326.65059555848575
20
174.27899908903998
40
0.5
41
0.5
10
326.65059555848575
20
146.78847913251218
40
0.5
41
0.5
0
LINE
5
1DD
330
2C
100
AcDbEntity
8
CON
370
13
100
AcDbLine
10
123.2153362663392
20
115.15573345065832
30
0
11
124.32215420078711
21
115.15573345065832
31
0
0
LINE
5
1DE
330
2C
100
AcDbEntity
8
CON
370
13
100
AcDbLine
10
124.32215420078711
20
115.15573345065832
30
0
11
124.32215420078711
21
118.17215428625559
31
0
0
LINE
5
1DF
330
2C
100
AcDbEntity
8
CON
370
13
100
AcDbLine
10
124.32215420078711
20
118.17215428625559
30
0
11
125.73083157190246
21
118.17215428625559
31
0
0
LINE
5
1E0
330
2C
100
AcDbEntity
8
CON
370
13
100
AcDbLine
10
125.73083157190246
20
118.17215428625559
30
0
11
125.73083157190246
21
115.15573345065832
31
0
0
LINE
5
1E1
330
2C
100
AcDbEntity
8
CON
370
13
100
AcDbLine
10
125.73083157190246
20
115.15573345065832
30
0
11
126.83765060620095
21
115.15573345065832
31
0
0
TEXT
5
1E2
330
2C
100
AcDbEntity
8
TXT1
370
9
100
AcDbText
10
436.47376236055163
20
212.178443410822
30
0
40
2.2
1
02-27,19-13 FOR S4 I.0560
41
0.7
7
ROMANS
100
AcDbText
0
TEXT
5
1E3
330
2C
100
AcDbEntity
8
TXT1
370
9
100
AcDbText
10
436.47376236055163
20
209.06314297022084
30
0
40
2.2
1
07-02,11-08 FOR S4 I.0560
41
0.7
7
ROMANS
100
AcDbText
0
TEXT
5
1E4
330
2C
100
AcDbEntity
8
TXT1
370
9
100
AcDbText
10
436.47376236055163
20
205.99523648077422
30
0
40
2.2
1
12-19,14-21 FOR S4 I.0560
41
0.7
7
ROMANS
100
AcDbText
0
TEXT
5
1E5
330
2C
100
AcDbEntity
8
TXT1
370
9
100
AcDbText
10
436.47376236055175
20
202.8269055007994
30
0
40
2.2
1
15-10,20-11 FOR S4 I.0560
41
0.7
7
ROMANS
100
AcDbText
0
TEXT
5
1E6
330
2C
100
AcDbEntity
8
TXT1
370
9
100
AcDbText
10
436.47376236055175
20
199.69523647811025
30
0
40
2.2
1
32-10,33-10 FOR S1 I.000F
41
0.7
7
ROMANS
100
AcDbText
0
TEXT
5
1E7
330
2C
100
AcDbEntity
8
TXT1
370
9
100
AcDbText
10
436.50344888709674
20
196.22721257645503
30
0
40
2.2
1
ABC-007 FOR S1 I.000F
41
0.7
7
ROMANS
100
AcDbText
0
TEXT
5
1E8
330
2C
100
AcDbEntity
8
TXT1
370
9
100
AcDbText
10
436.4575789453604
20
192.89742895426286
30
0
40
2.2
1
ABC-011 FOR S1 I.000F
41
0.7
7
ROMANS
100
AcDbText
0
TEXT
5
1E9
330
2C
100
AcDbEntity
8
TXT1
370
9
100
AcDbText
10
436.50344888709674
20
189.2924980400852
30
0
40
2.2
1
ABC-012 FOR S1 I.000F
41
0.7
7
ROMANS
100
AcDbText
0
TEXT
5
1EA
330
2C
100
AcDbEntity
8
TXT1
370
9
100
AcDbText
10
436.47376236055163
20
215.69430793154908
30
0
40
2.2
1
Remark:
41
0.7
7
ROMANS
100
AcDbText
0
TEXT
5
1EB
330
2C
100
AcDbEntity
8
TXT1
370
9
100
AcDbText
10
390.0204210316741
20
215.4980625734185
30
0
40
2.2
1
02-27,19-13
41
0.7
7
ROMANS
100
AcDbText
0
TEXT
5
1EC
330
2C
100
AcDbEntity
8
TXT1
370
9
100
AcDbText
10
390.0204210316741
20
212.79806257341852
30
0
40
2.2
1
07-02,11-08
41
0.7
7
ROMANS
100
AcDbText
0
TEXT
5
1ED
330
2C
100
AcDbEntity
8
TXT1
370
9
100
AcDbText
10
390.0204210316741
20
210.09806257341847
30
0
40
2.2
1
12-19,14-21
41
0.7
7
ROMANS
100
AcDbText
0
TEXT
5
1EE
330
2C
100
AcDbEntity
8
TXT1
370
9
100
AcDbText
10
390.02042103167423
20
206.92973159344365
30
0
40
2.2
1
15-10,20-11
41
0.7
7
ROMANS
100
AcDbText
0
TEXT
5
1EF
330
2C
100
AcDbEntity
8
TXT1
370
9
100
AcDbText
10
390.02042103167423
20
203.7980625707545
30
0
40
2.2
1
32-10,33-10
41
0.7
7
ROMANS
100
AcDbText
0
TEXT
5
1F0
330
2C
100
AcDbEntity
8
TXT1
370
9
100
AcDbText
10
390.0501075582192
20
200.6817428161263
30
0
40
2.2
1
ABC-007,011
41
0.7
7
ROMANS
100
AcDbText
0
TEXT
5
1F1
330
2C
100
AcDbEntity
8
TXT1
370
9
100
AcDbText
10
390.0042376164829
20
197.70336442729626
30
0
40
2.2
1
ABC-012,003A
41
0.7
7
ROMANS
100
AcDbText
0
TEXT
5
1F2
330
2C
100
AcDbEntity
8
TXT1
370
9
100
AcDbText
10
390.0501075582192
20
194.54170193745972
30
0
40
2.2
1
ABC-019,020
41
0.7
7
ROMANS
100
AcDbText
0
SOLID
5
1F3
330
2C
100
AcDbEntity
8
CON
370
9
100
AcDbTrace
10
323.52178776866174
20
150.94426852622723
30
0
11
323.52178776866174
21
149.9341675158273
31
0
12
326.55209079986184
22
150.43921802102733
32
0
13
326.55209079986184
23
150.43921802102733
33
0
0
LINE
5
1F4
330
2C
100
AcDbEntity
8
CON
100
AcDbLine
10
304.9496589847424
20
150.43921802102733
30
0
11
326.55209079986184
21
150.43921802102733
31
0
0
TEXT
5
1F5
330
2C
100
AcDbEntity
8
TXT1
370
9
100
AcDbText
10
328.14596558602454
20
151.34923491507243
30
0
40
2.2
1
MASTER FUEL TRIP (MFT)
41
0.7
7
ROMANS
100
AcDbText
0
TEXT
5
1F6
330
2C
100
AcDbEntity
8
TXT1
370
9
100
AcDbText
10
379.9897474107344
20
150.01459993208863
30
0
40
2.2
1
SER
41
0.7
7
ROMANS
72
1
11
382.1897474107344
21
150.01459993208863
31
0
100
AcDbText
0
LWPOLYLINE
5
1F7
330
2C
100
AcDbEntity
8
CON
370
15
100
AcDbPolyline
90
2
70
1
43
0.75
10
304.5057484365009
20
150.49729287068024
40
0.75
41
0.75
42
1
10
305.2557484365009
20
150.49729287068024
40
0.75
41
0.75
42
1
0
LINE
5
1F8
330
2C
100
AcDbEntity
8
HID
370
9
100
AcDbLine
10
326.6470342824076
20
156.35574840200684
30
0
11
407.89703428240966
21
156.35574840200684
31
0
0
LINE
5
1F9
330
2C
100
AcDbEntity
8
HID
370
9
100
AcDbLine
10
326.6470342824076
20
165.90292845973613
30
0
11
407.89703428240966
21
165.90292845973613
31
0
0
TEXT
5
1FA
330
2C
100
AcDbEntity
8
DCS
6
ByBlock
100
AcDbText
10
67.25142318710138
20
113.75658698984569
30
0
40
2.1
1
M.0513
41
0.8
7
ROMANS
100
AcDbText
0
TEXT
5
1FB
330
2C
100
AcDbEntity
8
DCS
6
ByBlock
100
AcDbText
10
138.0073972309551
20
116.36004488178594
30
0
40
2.1
1
O.0600
41
0.8
7
ROMANS
100
AcDbText
0
TEXT
5
1FC
330
2C
100
AcDbEntity
8
DCS
6
ByBlock
100
AcDbText
10
349.5446016286436
20
185.80147778557887
30
0
40
2.1
1
S4 I.0560
41
0.8
7
ROMANS
100
AcDbText
0
TEXT
5
1FD
330
2C
100
AcDbEntity
8
DCS
6
ByBlock
100
AcDbText
10
346.7999095026306
20
220.2352305833109
30
0
40
2.1
1
I.0561
41
0.8
7
ROMANS
100
AcDbText
0
TEXT
5
1FE
330
2C
100
AcDbEntity
8
DCS
6
ByBlock
100
AcDbText
10
349.5446016286436
20
189.13923753594042
30
0
40
2.1
1
S3 I.000F
41
0.8
7
ROMANS
100
AcDbText
0
TEXT
5
1FF
330
2C
100
AcDbEntity
8
DCS
6
ByBlock
100
AcDbText
10
349.5446016286436
20
193.0943448065383
30
0
40
2.1
1
S2 I.000F
41
0.8
7
ROMANS
100
AcDbText
0
TEXT
5
200
330
2C
100
AcDbEntity
8
DCS
6
ByBlock
100
AcDbText
10
349.5446016286436
20
196.43210455689984
30
0
40
2.1
1
S1 I.000F
41
0.8
7
ROMANS
100
AcDbText
0
TEXT
5
201
330
2C
100
AcDbEntity
8
DCS
6
ByBlock
100
AcDbText
10
411.31486030281474
20
96.60131071848411
30
0
40
2.1
1
STATION 104
41
0.8
7
ROMANS
100
AcDbText
0
LWPOLYLINE
5
202
330
2C
100
AcDbEntity
8
CEN
100
AcDbPolyline
90
2
70
0
43
0.5
10
318.0586367012238
20
228.01110426372384
40
0.5
41
0.5
10
318.0586367012238
20
173.78324524524567
40
0.5
41
0.5
0
LINE
5
203
330
2C
100
AcDbEntity
8
CON
100
AcDbLine
10
320.77682921469795
20
188.13026853358974
30
0
11
320.77682921469795
21
178.25354735851522
31
0
0
TEXT
5
204
330
2C
100
AcDbEntity
8
TXT1
370
9
100
AcDbText
10
390.0501075582192
20
191.6013729200173
30
0
40
2.2
1
ABC-029,054
41
0.7
7
ROMANS
100
AcDbText
0
TEXT
5
205
330
2C
100
AcDbEntity
8
TXT1
370
9
100
AcDbText
10
436.50344888709674
20
185.57155443223758
30
0
40
2.2
1
ABC-003A FOR S1 I.000F
41
0.7
7
ROMANS
100
AcDbText
0
TEXT
5
206
330
2C
100
AcDbEntity
8
TXT1
370
9
100
AcDbText
10
390.0204210316741
20
188.22119490288924
30
0
40
2.2
1
35-10,26B-27
41
0.7
7
ROMANS
100
AcDbText
0
TEXT
5
207
330
2C
100
AcDbEntity
8
TXT1
370
9
100
AcDbText
10
436.50344888709674
20
178.41299159817083
30
0
40
2.2
1
ABC-019 FOR S2 I.000F
41
0.7
7
ROMANS
100
AcDbText
0
TEXT
5
208
330
2C
100
AcDbEntity
8
TXT1
370
9
100
AcDbText
10
436.50344888709674
20
174.9922956089713
30
0
40
2.2
1
ABC-029 FOR S1 I.000F
41
0.7
7
ROMANS
100
AcDbText
0
TEXT
5
209
330
2C
100
AcDbEntity
8
DCS
6
ByBlock
100
AcDbText
10
118.48133166434488
20
111.75278605891708
30
0
40
2.1
1
TR254
41
0.8
7
ROMANS
100
AcDbText
0
TEXT
5
20A
330
2C
100
AcDbEntity
8
DCS
6
ByBlock
100
AcDbText
10
349.5446016286436
20
175.3673374666355
30
0
40
2.1
1
S4 O.1320
41
0.8
7
ROMANS
100
AcDbText
0
TEXT
5
20B
330
2C
100
AcDbEntity
8
TXT1
370
9
100
AcDbText
10
23.835060768687548
20
149.93506593211168
30
0
40
2.2
1
03H-67
41
0.7
7
ROMANS
72
1
11
28.528394102020883
21
149.93506593211168
31
0
100
AcDbText
0
TEXT
5
20C
330
2C
100
AcDbEntity
8
TXT1
370
9
100
AcDbText
10
43.5202798778405
20
149.93506593211168
30
0
40
2.2
1
IRP
41
0.7
7
ROMANS
72
1
11
45.3902798778405
21
149.93506593211168
31
0
100
AcDbText
0
TEXT
5
20D
330
2C
100
AcDbEntity
8
TXT1
370
9
100
AcDbText
10
85.03080005152043
20
151.78901287231042
30
0
40
2.2
1
CYCLONE OUTLET GAS TEMP. H.H.
41
0.7
7
ROMANS
100
AcDbText
0
LINE
5
20E
330
2C
100
AcDbEntity
8
CON
100
AcDbLine
10
128.61648529496833
20
150.74343032610466
30
0
11
193.76139453494233
21
150.74343032610466
31
0
0
SOLID
5
20F
330
2C
100
AcDbEntity
8
CON
370
9
100
AcDbTrace
10
190.73156023368273
20
151.25249469833534
30
0
11
190.73156023368273
21
150.24239368793542
31
0
12
193.76186326488278
22
150.74744419313544
32
0
13
193.76186326488278
23
150.74744419313544
33
0
0
TEXT
5
210
330
2C
100
AcDbEntity
8
TXT1
370
9
100
AcDbText
10
23.798394102020882
20
132.19929338923657
30
0
40
2.2
1
03H-54
41
0.7
7
ROMANS
72
1
11
28.528394102020883
21
132.19929338923657
31
0
100
AcDbText
0
TEXT
5
211
330
2C
100
AcDbEntity
8
TXT1
370
9
100
AcDbText
10
43.26361321117383
20
132.19929338923657
30
0
40
2.2
1
ARP
41
0.7
7
ROMANS
72
1
11
45.3902798778405
21
132.19929338923657
31
0
100
AcDbText
0
TEXT
5
212
330
2C
100
AcDbEntity
8
TXT1
370
9
100
AcDbText
10
85.03080005152043
20
133.76143750887957
30
0
40
2.2
1
TURBINE TRIP
41
0.7
7
ROMANS
100
AcDbText
0
LINE
5
213
330
2C
100
AcDbEntity
8
CON
100
AcDbLine
10
128.61648529496833
20
142.37146626086587
30
0
11
193.76139453494233
21
142.37146626086587
31
0
0
SOLID
5
214
330
2C
100
AcDbEntity
8
CON
370
9
100
AcDbTrace
10
190.73156023368273
20
142.88053063309655
30
0
11
190.73156023368273
21
141.87042962269663
31
0
12
193.76186326488278
22
142.37548012789665
32
0
13
193.76186326488278
23
142.37548012789665
33
0
0
LINE
5
215
330
2C
100
AcDbEntity
8
CON
100
AcDbLine
10
128.61648529496833
20
132.77161463061043
30
0
11
193.76139453494233
21
132.77161463061043
31
0
0
SOLID
5
216
330
2C
100
AcDbEntity
8
CON
370
9
100
AcDbTrace
10
190.73156023368273
20
133.2806790028411
30
0
11
190.73156023368273
21
132.2705779924412
31
0
12
193.76186326488278
22
132.7756284976412
32
0
13
193.76186326488278
23
132.7756284976412
33
0
0
TEXT
5
217
330
2C
100
AcDbEntity
8
TXT1
370
9
100
AcDbText
10
85.03080005152043
20
148.22549813763283
30
0
40
2.2
1
(NO REHEATER STEAM)
41
0.7
7
ROMANS
100
AcDbText
0
TEXT
5
218
330
2C
100
AcDbEntity
8
TXT1
370
9
100
AcDbText
10
24.05506076868755
20
141.13234970178746
30
0
40
2.2
1
03H-61
41
0.7
7
ROMANS
72
1
11
28.528394102020883
21
141.13234970178746
31
0
100
AcDbText
0
TEXT
5
219
330
2C
100
AcDbEntity
8
TXT1
370
9
100
AcDbText
10
43.5202798778405
20
141.13234970178746
30
0
40
2.2
1
IRP
41
0.7
7
ROMANS
72
1
11
45.3902798778405
21
141.13234970178746
31
0
100
AcDbText
0
TEXT
5
21A
330
2C
100
AcDbEntity
8
TXT1
370
9
100
AcDbText
10
85.03080005152043
20
142.9862966419862
30
0
40
2.2
1
REHEATER OUTLET HEADER
41
0.7
7
ROMANS
100
AcDbText
0
TEXT
5
21B
330
2C
100
AcDbEntity
8
TXT1
370
9
100
AcDbText
10
85.03080005152043
20
139.4227819073086
30
0
40
2.2
1
TEMP. H.H.
41
0.7
7
ROMANS
100
AcDbText
0
TEXT
5
21C
330
2C
100
AcDbEntity
8
TXT1
370
9
100
AcDbText
10
436.47376236055175
20
181.87605567271964
30
0
40
2.2
1
35-10 FOR S2 I.000F
41
0.7
7
ROMANS
100
AcDbText
0
TEXT
5
21D
330
2C
100
AcDbEntity
8
TXT1
370
9
100
AcDbText
10
436.50344888709674
20
171.57078902663147
30
0
40
2.2
1
ABC-020 FOR S2 I.000F
41
0.7
7
ROMANS
100
AcDbText
0
TEXT
5
21E
330
2C
100
AcDbEntity
8
TXT1
370
9
100
AcDbText
10
436.47376236055175
20
167.7826296058845
30
0
40
2.2
1
26B-27 FOR S3 I.000F
41
0.7
7
ROMANS
100
AcDbText
0
TEXT
5
21F
330
2C
100
AcDbEntity
8
TXT1
370
9
100
AcDbText
10
436.50344888709674
20
164.1199106846467
30
0
40
2.2
1
ABC-054 FOR S1 I.000F
41
0.7
7
ROMANS
100
AcDbText
0
TEXT
5
220
330
2C
100
AcDbEntity
8
TXT1
370
9
100
AcDbText
10
390.0501075582192
20
184.84667034903384
30
0
40
2.2
1
ABC-050,055,035,036,037,038,039
41
0.7
7
ROMANS
100
AcDbText
0
TEXT
5
221
330
2C
100
AcDbEntity
8
TXT1
370
9
100
AcDbText
10
436.50344888709674
20
160.64431968290512
30
0
40
2.2
1
ABC-055 FOR S1 I.000F
41
0.7
7
ROMANS
100
AcDbText
0
TEXT
5
222
330
2C
100
AcDbEntity
8
TXT1
370
9
100
AcDbText
10
436.50344888709674
20
157.04813407260212
30
0
40
2.2
1
ABC-050 FOR S2 I.000F
41
0.7
7
ROMANS
100
AcDbText
0
LINE
5
223
330
2C
100
AcDbEntity
8
HID
370
9
100
AcDbLine
10
17.89703428240736
20
66.03702925706307
30
0
11
128.6470342824076
21
66.03702925706307
31
0
0
LINE
5
224
330
2C
100
AcDbEntity
8
HID
370
9
100
AcDbLine
10
17.89703428240736
20
57.03702925706307
30
0
11
128.6470342824076
21
57.03702925706307
31
0
0
LINE
5
225
330
2C
100
AcDbEntity
8
CEN
370
35
100
AcDbLine
10
407.905022046073
20
93.11687422013651
30
0
11
18.079957875741513
21
93.1168742201364
31
0
0
TEXT
5
226
330
2C
100
AcDbEntity
8
TXT1
370
9
100
AcDbText
10
23.798394102020882
20
87.43555618410662
30
0
40
2.2
1
03H-64
41
0.7
7
ROMANS
72
1
11
28.528394102020883
21
87.43555618410662
31
0
100
AcDbText
0
TEXT
5
227
330
2C
100
AcDbEntity
8
TXT1
370
9
100
AcDbText
10
85.03080005152043
20
89.64867878156198
30
0
40
2.2
1
CYCLONE OUTLET GAS TEMP. H.H.
41
0.7
7
ROMANS
100
AcDbText
0
TEXT
5
228
330
2C
100
AcDbEntity
8
TXT1
370
9
100
AcDbText
10
85.03080005152043
20
86.08516404688439
30
0
40
2.2
1
(NO REHEATER STEAM)
41
0.7
7
ROMANS
100
AcDbText
0
TEXT
5
229
330
2C
100
AcDbEntity
8
TXT1
370
9
100
AcDbText
10
23.835060768687548
20
78.6328399537824
30
0
40
2.2
1
03H-58
41
0.7
7
ROMANS
72
1
11
28.528394102020883
21
78.6328399537824
31
0
100
AcDbText
0
TEXT
5
22A
330
2C
100
AcDbEntity
8
TXT1
370
9
100
AcDbText
10
85.03080005152043
20
80.23707264772881
30
0
40
2.2
1
REHEATER OUTLET HEADER
41
0.7
7
ROMANS
100
AcDbText
0
TEXT
5
22B
330
2C
100
AcDbEntity
8
TXT1
370
9
100
AcDbText
10
85.03080005152043
20
76.67355791305121
30
0
40
2.2
1
TEMP. H.H.
41
0.7
7
ROMANS
100
AcDbText
0
SOLID
5
22C
330
2C
100
AcDbEntity
8
CON
370
9
100
AcDbTrace
10
201.1140629983483
20
78.75007156934998
30
0
11
201.1140629983483
21
77.73997055895006
31
0
12
204.14436602954834
22
78.24502106415008
32
0
13
204.14436602954834
23
78.24502106415008
33
0
0
LINE
5
22D
330
2C
100
AcDbEntity
8
CON
370
9
100
AcDbLine
10
213.4001499537195
20
84.62386231402425
30
0
11
213.4001499537195
21
75.53295322042422
31
0
0
LWPOLYLINE
5
22E
330
2C
100
AcDbEntity
8
CON
370
9
100
AcDbPolyline
90
2
70
0
43
1.0101010103999999
10
204.18943271591957
20
86.9541115467973
40
1.0101010103999999
41
1.0101010103999999
10
204.18943271591957
20
73.53570876299798
40
1.0101010103999999
41
1.0101010103999999
0
LINE
5
22F
330
2C
100
AcDbEntity
8
CON
370
9
100
AcDbLine
10
213.384582550311
20
75.54119969574364
30
0
11
204.29345562059893
21
75.54119969574364
31
0
0
TEXT
5
230
330
2C
100
AcDbEntity
8
CON
370
9
100
AcDbText
10
206.01679256817673
20
78.81578150422418
30
0
40
2.525252526
1
AND
41
0.8
7
ROMANS
72
4
11
208.85469540691957
21
80.07840776722418
31
0
100
AcDbText
0
LINE
5
231
330
2C
100
AcDbEntity
8
CON
370
9
100
AcDbLine
10
213.384582550311
20
84.62708255128766
30
0
11
204.29345562059893
21
84.62708255128766
31
0
0
SOLID
5
232
330
2C
100
AcDbEntity
8
CON
370
9
100
AcDbTrace
10
200.99990548800753
20
85.13213305648759
30
0
11
200.99990548800753
21
84.12203204608761
31
0
12
204.03020851920758
22
84.62708255128766
32
0
13
204.03020851920758
23
84.62708255128766
33
0
0
LINE
5
233
330
2C
100
AcDbEntity
8
CON
100
AcDbLine
10
200.99990548800753
20
84.6270825512876
30
0
11
190.762109221122
21
84.6270825512876
31
0
0
LINE
5
234
330
2C
100
AcDbEntity
8
CON
100
AcDbLine
10
190.762109221122
20
86.8396028260513
30
0
11
190.762109221122
21
84.6270825512876
31
0
0
LINE
5
235
330
2C
100
AcDbEntity
8
CON
100
AcDbLine
10
213.4001499537195
20
80.07840776722423
30
0
11
326.6470342824076
21
80.07840776722423
31
0
0
SOLID
5
236
330
2C
100
AcDbEntity
8
CON
370
9
100
AcDbTrace
10
323.55209079897395
20
80.57840776737225
30
0
11
323.55209079897395
21
79.57840776707621
31
0
12
326.55209079986184
22
80.07840776722423
32
0
13
326.55209079986184
23
80.07840776722423
33
0
0
TEXT
5
237
330
2C
100
AcDbEntity
8
TXT1
370
9
100
AcDbText
10
328.8209965026065
20
80.51279607366973
30
0
40
2.2
1
FURNACE PURGE
41
0.7
7
ROMANS
100
AcDbText
0
TEXT
5
238
330
2C
100
AcDbEntity
8
TXT1
370
9
100
AcDbText
10
328.75078258122016
20
76.4446985362714
30
0
40
2.2
1
PERMISSIVE
41
0.7
7
ROMANS
100
AcDbText
0
TEXT
5
239
330
2C
100
AcDbEntity
8
TXT1
370
9
100
AcDbText
10
393.286637155774
20
78.40459948919445
30
0
40
2.2
1
01-28
41
0.7
7
ROMANS
100
AcDbText
0
TEXT
5
23A
330
2C
100
AcDbEntity
8
DCS
6
ByBlock
100
AcDbText
10
67.25142318710138
20
86.3532760358305
30
0
40
2.1
1
M.3102
41
0.8
7
ROMANS
100
AcDbText
0
TEXT
5
23B
330
2C
100
AcDbEntity
8
DCS
6
ByBlock
100
AcDbText
10
52.739797921539065
20
90.33173785132033
30
0
40
2.1
1
(FROM STATION WIRING)
41
0.8
7
ROMANS
100
AcDbText
0
TEXT
5
23C
330
2C
100
AcDbEntity
8
DCS
6
ByBlock
100
AcDbText
10
67.25142318710138
20
77.33077052521116
30
0
40
2.1
1
M.3212
41
0.8
7
ROMANS
100
AcDbText
0
TEXT
5
23D
330
2C
100
AcDbEntity
8
DCS
6
ByBlock
100
AcDbText
10
52.739797921539065
20
81.30923234070099
30
0
40
2.1
1
(FROM STATION WIRING)
41
0.8
7
ROMANS
100
AcDbText
0
LINE
5
23E
330
2C
100
AcDbEntity
8
CON
100
AcDbLine
10
190.762109221122
20
86.8396028260513
30
0
11
153.09355409501546
21
86.8396028260513
31
0
0
TEXT
5
23F
330
2C
100
AcDbEntity
8
CON
370
9
100
AcDbText
10
148.2847086485954
20
89.17175224156317
30
0
40
2.525252526
1
NOT
41
0.8
7
ROMANS
72
4
11
151.3150116797954
21
90.43437850456317
31
0
100
AcDbText
0
LINE
5
240
330
2C
100
AcDbEntity
8
CON
370
9
100
AcDbLine
10
150.09355409412748
20
88.33960282649531
30
0
11
153.09355409501546
21
85.3396028256073
31
0
0
LINE
5
241
330
2C
100
AcDbEntity
8
CON
370
9
100
AcDbLine
10
153.09355409501546
20
88.33960282649531
30
0
11
150.09355409412748
21
85.3396028256073
31
0
0
LINE
5
242
330
2C
100
AcDbEntity
8
CON
370
9
100
AcDbLine
10
153.09355409501546
20
85.3396028256073
30
0
11
150.09355409412748
21
85.3396028256073
31
0
0
LINE
5
243
330
2C
100
AcDbEntity
8
CON
370
9
100
AcDbLine
10
153.09355409501546
20
88.33960282649531
30
0
11
153.09355409501546
21
85.3396028256073
31
0
0
LINE
5
244
330
2C
100
AcDbEntity
8
CON
370
9
100
AcDbLine
10
150.09355409412748
20
88.33960282649531
30
0
11
153.09355409501546
21
88.33960282649531
31
0
0
LINE
5
245
330
2C
100
AcDbEntity
8
CON
370
9
100
AcDbLine
10
150.09355409412748
20
85.3396028256073
30
0
11
150.09355409412748
21
88.33960282649531
31
0
0
SOLID
5
246
330
2C
100
AcDbEntity
8
CON
370
9
100
AcDbTrace
10
147.06325106292743
20
87.3446533312513
30
0
11
147.06325106292743
21
86.33455232085132
31
0
12
150.09355409412748
22
86.83960282605133
32
0
13
150.09355409412748
23
86.83960282605133
33
0
0
LINE
5
247
330
2C
100
AcDbEntity
8
CON
100
AcDbLine
10
148.85436450041152
20
86.83960282605133
30
0
11
128.6470342824076
21
86.83960282605136
31
0
0
LINE
5
248
330
2C
100
AcDbEntity
8
CON
100
AcDbLine
10
202.99176229904492
20
78.22891809304167
30
0
11
153.09355409501546
21
78.22891809304167
31
0
0
TEXT
5
249
330
2C
100
AcDbEntity
8
CON
370
9
100
AcDbText
10
148.2847086485954
20
80.56106750855353
30
0
40
2.525252526
1
NOT
41
0.8
7
ROMANS
72
4
11
151.3150116797954
21
81.82369377155354
31
0
100
AcDbText
0
LINE
5
24A
330
2C
100
AcDbEntity
8
CON
370
9
100
AcDbLine
10
150.09355409412748
20
79.72891809348567
30
0
11
153.09355409501546
21
76.72891809259767
31
0
0
LINE
5
24B
330
2C
100
AcDbEntity
8
CON
370
9
100
AcDbLine
10
153.09355409501546
20
79.72891809348567
30
0
11
150.09355409412748
21
76.72891809259767
31
0
0
LINE
5
24C
330
2C
100
AcDbEntity
8
CON
370
9
100
AcDbLine
10
153.09355409501546
20
76.72891809259767
30
0
11
150.09355409412748
21
76.72891809259767
31
0
0
LINE
5
24D
330
2C
100
AcDbEntity
8
CON
370
9
100
AcDbLine
10
153.09355409501546
20
79.72891809348567
30
0
11
153.09355409501546
21
76.72891809259767
31
0
0
LINE
5
24E
330
2C
100
AcDbEntity
8
CON
370
9
100
AcDbLine
10
150.09355409412748
20
79.72891809348567
30
0
11
153.09355409501546
21
79.72891809348567
31
0
0
LINE
5
24F
330
2C
100
AcDbEntity
8
CON
370
9
100
AcDbLine
10
150.09355409412748
20
76.72891809259767
30
0
11
150.09355409412748
21
79.72891809348567
31
0
0
SOLID
5
250
330
2C
100
AcDbEntity
8
CON
370
9
100
AcDbTrace
10
147.06325106292743
20
78.73396859824166
30
0
11
147.06325106292743
21
77.72386758784168
31
0
12
150.09355409412748
22
78.2289180930417
32
0
13
150.09355409412748
23
78.2289180930417
33
0
0
LINE
5
251
330
2C
100
AcDbEntity
8
CON
100
AcDbLine
10
148.844413937529
20
78.2289180930417
30
0
11
128.6470342824076
21
78.22891809304173
31
0
0
VIEWPORT
5
252
330
2D
100
AcDbEntity
67
1
8
0
100
AcDbViewport
10
5.2499996395561634
20
5.4607272434417045
30
0
40
15.337152293689813
41
11.914454465437002
68
1
69
1
12
5.2499996395561634
22
5.4607272434417045
13
0
23
0
14
10
24
10
15
10
25
10
16
0
26
0
36
1
17
0
27
0
37
0
42
50
43
0
44
0
45
11.914454465437002
50
0
51
0
72
1000
90
32800
1

281
0
71
1
74
0
110
0
120
0
130
0
111
1
121
0
131
0
112
0
122
1
132
0
79
0
146
0
0
ENDSEC
0
SECTION
2
OBJECTS
0
DICTIONARY
5
29
330
0
100
AcDbDictionary
281
1
3
ACAD_GROUP
350
2A
3
ACAD_LAYOUT
350
2B
0
DICTIONARY
5
2A
330
29
100
AcDbDictionary
281
1
0
DICTIONARY
5
2B
330
29
100
AcDbDictionary
281
1
3
Layout1
350
2F
3
Model
350
2E
0
LAYOUT
5
2E
330
2B
100
AcDbPlotSettings
1

4
A3
6

40
7.5
41
20
42
7.5
43
20
44
420
45
297
46
0
47
0
48
0
49
0
140
0
141
0
142
1
143
1
70
1024
72
1
73
0
74
5
7

75
16
76
0
77
2
78
300
147
1
148
0
149
0
100
AcDbLayout
1
Model
70
1
71
0
10
0.1196939928364798
20
-0.0001498107616976438
11
390.8849
21
313.67945555593246
12
0
22
0
32
0
14
0
24
0
34
0
15
786.8652514726374
25
543
35
0
146
0
13
0
23
0
33
0
16
1
26
0
36
0
17
0
27
1
37
0
76
1
330
2C
0
LAYOUT
5
2F
330
2B
100
AcDbPlotSettings
1

4
A3
6

40
7.5
41
20
42
7.5
43
20
44
420
45
297
46
0
47
0
48
0
49
0
140
0
141
0
142
1
143
1
70
0
72
1
73
0
74
5
7

75
16
76
0
77
2
78
300
147
1
148
0
149
0
100
AcDbLayout
1
Layout1
70
1
71
1
10
0.1196939928364798
20
-0.0001498107616976438
11
390.8849
21
313.67945555593246
12
0
22
0
32
0
14
-2.4185765072887433
24
-0.4964999892767965
34
0
15
12.918575786401071
25
11.417954476160205
35
0
146
0
13
0
23
0
33
0
16
1
26
0
36
0
17
0
27
1
37
0
76
1
330
2D
0
ENDSEC
0
EOF
