0
SECTION
2
HEADER
9
$ACADVER
1
AC1015
9
$DWGCODEPAGE
3
ANSI_1252
9
$INSBASE
10
0
20
0
30
0
9
$EXTMIN
10
0
20
0
30
0
9
$EXTMAX
10
786.8652514726374
20
543
30
0
9
$LIMMIN
10
0.1196939928364798
20
-0.0001498107616976438
9
$LIMMAX
10
390.8849
20
313.67945555593246
9
$TILEMODE
70
1
9
$INSUNITS
70
0
9
$PEXTMIN
10
-2.4185765072887433
20
-0.4964999892767965
30
0
9
$PEXTMAX
10
12.918575786401071
20
11.417954476160205
30
0
9
$HANDSEED
5
22C
0
ENDSEC
0
SECTION
2
TABLES
0
TABLE
2
VPORT
5
20
330
0
100
AcDbSymbolTable
70
1
0
VPORT
5
229
330
20
100
AcDbSymbolTableRecord
100
AcDbViewportTableRecord
2
*Active
70
0
10
0
20
0
11
1
21
1
12
393.4326257363187
22
271.5
13
0
23
0
14
10
24
10
15
10
25
10
16
0
26
0
36
1
17
0
27
0
37
0
40
570.15
41
1.4491072771135127
42
50
43
0
44
0
50
0
51
0
71
0
72
1000
73
1
74
3
75
0
76
0
77
0
78
0
0
ENDTAB
0
TABLE
2
LTYPE
5
21
330
0
100
AcDbSymbolTable
70
23
0
LTYPE
5
34
330
21
100
AcDbSymbolTableRecord
100
AcDbLinetypeTableRecord
2
ByBlock
70
0
3

72
65
73
0
40
0
0
LTYPE
5
35
330
21
100
AcDbSymbolTableRecord
100
AcDbLinetypeTableRecord
2
ByLayer
70
0
3

72
65
73
0
40
0
0
LTYPE
5
36
330
21
100
AcDbSymbolTableRecord
100
AcDbLinetypeTableRecord
2
Continuous
70
0
3
Solid line
72
65
73
0
40
0
0
LTYPE
5
37
330
21
100
AcDbSymbolTableRecord
100
AcDbLinetypeTableRecord
2
CENTER
70
0
3
____ _ ____ _ ____ _ ____ _ ____ _ ____ _ ____ 
72
65
73
5
40
20
49
8.8
74
0
49
-1
74
0
49
0.4
74
0
49
-1
74
0
49
8.8
74
0
0
LTYPE
5
38
330
21
100
AcDbSymbolTableRecord
100
AcDbLinetypeTableRecord
2
HIDDEN
70
0
3
__ __ __ __ __ __ __ __ __ __ __ __ __ __ __ __
72
65
73
3
40
4
49
1.5
74
0
49
-1
74
0
49
1.5
74
0
0
LTYPE
5
39
330
21
100
AcDbSymbolTableRecord
100
AcDbLinetypeTableRecord
2
PHANTOM2
70
0
3
Phantom (.5x) ___ _ _ ___ _ _ ___ _ _ ___ _ _
72
65
73
6
40
1.25
49
0.625
74
0
49
-0.125
74
0
49
0.125
74
0
49
-0.125
74
0
49
0.125
74
0
49
-0.125
74
0
0
LTYPE
5
3A
330
21
100
AcDbSymbolTableRecord
100
AcDbLinetypeTableRecord
2
ASULTYPE
70
0
3
\U+5BE6\U+7DDA
72
65
73
2
40
3
49
2.5
74
0
49
0.5
74
0
0
LTYPE
5
3B
330
21
100
AcDbSymbolTableRecord
100
AcDbLinetypeTableRecord
2
ASVLTYPE
70
0
3
__ __ __ __ __ __ __ __ __ __ __ __ __ __ __ __ __ __ __ __ __
72
65
73
2
40
0.75
49
0.5
74
0
49
-0.25
74
0
0
LTYPE
5
3C
330
21
100
AcDbSymbolTableRecord
100
AcDbLinetypeTableRecord
2
AM_ISO02W050
70
0
3
__ __ __ __ __ __ __ __ __ __ __ __ __ __ __
72
65
73
2
40
7.5
49
6
74
0
49
-1.5
74
0
0
LTYPE
5
3D
330
21
100
AcDbSymbolTableRecord
100
AcDbLinetypeTableRecord
2
AM_ISO08W050
70
0
3
____ . ____ . ____ . ____ . ____ . ____ . ____
72
65
73
4
40
18
49
12
74
0
49
-1.5
74
0
49
3
74
0
49
-1.5
74
0
0
LTYPE
5
3E
330
21
100
AcDbSymbolTableRecord
100
AcDbLinetypeTableRecord
2
AM_ISO09W050
70
0
3
_____ . . _____ . . _____ . . ____ .. ____
72
65
73
6
40
22.5
49
12
74
0
49
-1.5
74
0
49
3
74
0
49
-1.5
74
0
49
3
74
0
49
-1.5
74
0
0
LTYPE
5
3F
330
21
100
AcDbSymbolTableRecord
100
AcDbLinetypeTableRecord
2
Amconstr
70
0
3
_______________________
72
65
73
2
40
9999
49
9999
74
0
49
0
74
0
0
LTYPE
5
40
330
21
100
AcDbSymbolTableRecord
100
AcDbLinetypeTableRecord
2
AM_ISO08W050x2
70
0
3
__ . __ . __ . __ . __ . __
72
65
73
4
40
9
49
6
74
0
49
-0.75
74
0
49
1.5
74
0
49
-0.75
74
0
0
LTYPE
5
41
330
21
100
AcDbSymbolTableRecord
100
AcDbLinetypeTableRecord
2
AM_ISO02W050x2
70
0
3
 _ _ _ _ _ _ _ _ _ _ _ _
72
65
73
2
40
3.75
49
3
74
0
49
-0.75
74
0
0
LTYPE
5
42
330
21
100
AcDbSymbolTableRecord
100
AcDbLinetypeTableRecord
2
Amzigzag
70
0
3
/\/-/\/-/\/-/\/-/\/-/\/
72
65
73
2
40
11.0001
49
0.0001
74
0
49
-11
74
0
0
LTYPE
5
43
330
21
100
AcDbSymbolTableRecord
100
AcDbLinetypeTableRecord
2
CENTER2
70
0
3
Center (.5x) ___ _ ___ _ ___ _ ___ _ ___ _ ___
72
65
73
4
40
1.125
49
0.75
74
0
49
-0.125
74
0
49
0.125
74
0
49
-0.125
74
0
0
LTYPE
5
44
330
21
100
AcDbSymbolTableRecord
100
AcDbLinetypeTableRecord
2
HIDDEN2
70
0
3
Hidden (.5x) _ _ _ _ _ _ _ _ _ _ _ _ _ _ _ _ _
72
65
73
2
40
0.1875
49
0.125
74
0
49
-0.0625
74
0
0
LTYPE
5
45
330
21
100
AcDbSymbolTableRecord
100
AcDbLinetypeTableRecord
2
Amzigzag2
70
0
3
/\/-/\/-/\/-/\/-/\/-/\/
72
65
73
2
40
0.4401
49
0.0001
74
0
49
-0.44
74
0
0
LTYPE
5
46
330
21
100
AcDbSymbolTableRecord
100
AcDbLinetypeTableRecord
2
ACANSTGB
70
0
3
__ . . __ . .
72
65
73
6
40
0.35433070866
49
0.15748031496
74
0
49
-0.03937007874
74
0
49
0.03937007874
74
0
49
-0.03937007874
74
0
49
0.03937007874
74
0
49
-0.03937007874
74
0
0
LTYPE
5
47
330
21
100
AcDbSymbolTableRecord
100
AcDbLinetypeTableRecord
2
ACANSTGL
70
0
3
_ _ _ _ _
72
65
73
2
40
0.11811023622
49
0.07874015748
74
0
49
-0.03937007874
74
0
0
LTYPE
5
48
330
21
100
AcDbSymbolTableRecord
100
AcDbLinetypeTableRecord
2
ACISOWELD
70
0
3
_ _ _ _ _
72
65
73
2
40
3
49
2
74
0
49
-1
74
0
0
LTYPE
5
49
330
21
100
AcDbSymbolTableRecord
100
AcDbLinetypeTableRecord
2
ACISOTGB
70
0
3
__ . . __ . .
72
65
73
6
40
9
49
4
74
0
49
-1
74
0
49
1
74
0
49
-1
74
0
49
1
74
0
49
-1
74
0
0
LTYPE
5
4A
330
21
100
AcDbSymbolTableRecord
100
AcDbLinetypeTableRecord
2
ACISOTGL
70
0
3
_ _ _ _ _
72
65
73
2
40
3
49
2
74
0
49
-1
74
0
0
ENDTAB
0
TABLE
2
LAYER
5
22
330
0
100
AcDbSymbolTable
70
11
0
LAYER
5
4B
330
22
100
AcDbSymbolTableRecord
100
AcDbLayerTableRecord
2
0
70
0
62
7
6
Continuous
370
0
390
0
0
LAYER
5
4C
330
22
100
AcDbSymbolTableRecord
100
AcDbLayerTableRecord
2
CON
70
0
62
4
6
Continuous
370
0
390
0
0
LAYER
5
4D
330
22
100
AcDbSymbolTableRecord
100
AcDbLayerTableRecord
2
HID
70
0
62
2
6
HIDDEN
370
0
390
0
0
LAYER
5
4E
330
22
100
AcDbSymbolTableRecord
100
AcDbLayerTableRecord
2
DIM
70
0
62
3
6
Continuous
370
0
390
0
0
LAYER
5
4F
330
22
100
AcDbSymbolTableRecord
100
AcDbLayerTableRecord
2
CEN
70
0
62
1
6
CENTER
370
0
390
0
0
LAYER
5
50
330
22
100
AcDbSymbolTableRecord
100
AcDbLayerTableRecord
2
TEXT
70
0
62
7
6
Continuous
370
0
390
0
0
LAYER
5
51
330
22
100
AcDbSymbolTableRecord
100
AcDbLayerTableRecord
2
Defpoints
70
0
62
-7
6
Continuous
370
0
390
0
0
LAYER
5
52
330
22
100
AcDbSymbolTableRecord
100
AcDbLayerTableRecord
2
chinese
70
0
62
-252
6
Continuous
370
0
390
0
0
LAYER
5
53
330
22
100
AcDbSymbolTableRecord
100
AcDbLayerTableRecord
2
DCS
70
0
62
7
6
Continuous
370
0
390
0
0
LAYER
5
54
330
22
100
AcDbSymbolTableRecord
100
AcDbLayerTableRecord
2
TXT1
70
0
62
3
6
Continuous
370
0
390
0
0
LAYER
5
55
330
22
100
AcDbSymbolTableRecord
100
AcDbLayerTableRecord
2
LINE
70
0
62
4
6
Continuous
370
0
390
0
0
ENDTAB
0
TABLE
2
STYLE
5
23
330
0
100
AcDbSymbolTable
70
8
0
STYLE
5
56
330
23
100
AcDbSymbolTableRecord
100
AcDbTextStyleTableRecord
2
STANDARD
70
0
40
0
41
1
50
0
71
0
42
0.2
3
kaiu.ttf
4

0
STYLE
5
57
330
23
100
AcDbSymbolTableRecord
100
AcDbTextStyleTableRecord
2
ROMANS
70
0
40
0
41
0.8
50
0
71
0
42
1.630318727057329
3
romans
4

0
STYLE
5
58
330
23
100
AcDbSymbolTableRecord
100
AcDbTextStyleTableRecord
2
CHINA
70
0
40
0
41
0.85
50
0
71
0
42
3
3
ROMANS.shx
4

0
STYLE
5
59
330
23
100
AcDbSymbolTableRecord
100
AcDbTextStyleTableRecord
2
STYLE_B7A
70
0
40
0
41
1
50
0
71
0
42
2.3
3
ltypeshp.shx
4

0
STYLE
5
5A
330
23
100
AcDbSymbolTableRecord
100
AcDbTextStyleTableRecord
2
ACANSTS
70
0
40
1
41
1
50
0
71
0
42
2.3
3
romans.shx
4
chineset.shx
0
STYLE
5
5B
330
23
100
AcDbSymbolTableRecord
100
AcDbTextStyleTableRecord
2
ACANSGDT
70
0
40
0
41
1
50
0
71
0
42
2.3
3
amgdtans.shx
4

0
STYLE
5
5C
330
23
100
AcDbSymbolTableRecord
100
AcDbTextStyleTableRecord
2
ACISOTS
70
0
40
1
41
1
50
0
71
0
42
2.5
3
isocp.shx
4
chineset.shx
0
STYLE
5
5D
330
23
100
AcDbSymbolTableRecord
100
AcDbTextStyleTableRecord
2
ACISOGDT
70
0
40
0
41
1
50
0
71
0
42
2.5
3
amgdt.shx
4

0
ENDTAB
0
TABLE
2
VIEW
5
24
330
0
100
AcDbSymbolTable
70
0
0
ENDTAB
0
TABLE
2
UCS
5
25
330
0
100
AcDbSymbolTable
70
0
0
ENDTAB
0
TABLE
2
APPID
5
26
330
0
100
AcDbSymbolTable
70
1
0
APPID
5
22A
330
26
100
AcDbSymbolTableRecord
100
AcDbRegAppTableRecord
2
ACAD
70
0
0
ENDTAB
0
TABLE
2
DIMSTYLE
5
27
330
0
100
AcDbSymbolTable
70
1
100
AcDbDimStyleTable
0
DIMSTYLE
105
22B
330
27
100
AcDbSymbolTableRecord
100
AcDbDimStyleTableRecord
2
Standard
70
0
0
ENDTAB
0
TABLE
2
BLOCK_RECORD
5
28
330
0
100
AcDbSymbolTable
70
16
0
BLOCK_RECORD
5
2C
330
28
100
AcDbSymbolTableRecord
100
AcDbBlockTableRecord
2
*Model_Space
340
2E
0
BLOCK_RECORD
5
2D
330
28
100
AcDbSymbolTableRecord
100
AcDbBlockTableRecord
2
*Paper_Space
340
2F
0
BLOCK_RECORD
5
5E
330
28
100
AcDbSymbolTableRecord
100
AcDbBlockTableRecord
2
LAMP1
340
0
0
BLOCK_RECORD
5
5F
330
28
100
AcDbSymbolTableRecord
100
AcDbBlockTableRecord
2
ACAD1160
340
0
0
BLOCK_RECORD
5
60
330
28
100
AcDbSymbolTableRecord
100
AcDbBlockTableRecord
2
ACAD1700
340
0
0
BLOCK_RECORD
5
61
330
28
100
AcDbSymbolTableRecord
100
AcDbBlockTableRecord
2
ACAD3D7D
340
0
0
BLOCK_RECORD
5
62
330
28
100
AcDbSymbolTableRecord
100
AcDbBlockTableRecord
2
002
340
0
0
BLOCK_RECORD
5
63
330
28
100
AcDbSymbolTableRecord
100
AcDbBlockTableRecord
2
Q1
340
0
0
BLOCK_RECORD
5
64
330
28
100
AcDbSymbolTableRecord
100
AcDbBlockTableRecord
2
GENAXEH
340
0
0
BLOCK_RECORD
5
65
330
28
100
AcDbSymbolTableRecord
100
AcDbBlockTableRecord
2
A$C0B5D597B
340
0
0
BLOCK_RECORD
5
66
330
28
100
AcDbSymbolTableRecord
100
AcDbBlockTableRecord
2
A$C64CF62AB
340
0
0
BLOCK_RECORD
5
67
330
28
100
AcDbSymbolTableRecord
100
AcDbBlockTableRecord
2
A$C49383ED0
340
0
0
BLOCK_RECORD
5
68
330
28
100
AcDbSymbolTableRecord
100
AcDbBlockTableRecord
2
A$C79444D87
340
0
0
BLOCK_RECORD
5
101
330
28
100
AcDbSymbolTableRecord
100
AcDbBlockTableRecord
2
WMF6
340
0
0
BLOCK_RECORD
5
106
330
28
100
AcDbSymbolTableRecord
100
AcDbBlockTableRecord
2
test
340
0
0
BLOCK_RECORD
5
118
330
28
100
AcDbSymbolTableRecord
100
AcDbBlockTableRecord
2
00_FORM
340
0
0
ENDTAB
0
ENDSEC
0
SECTION
2
BLOCKS
0
BLOCK
5
30
330
2C
100
AcDbEntity
8
0
100
AcDbBlockBegin
2
*Model_Space
70
0
10
0
20
0
30
0
3
*Model_Space
1

0
ENDBLK
5
31
330
2C
100
AcDbEntity
8
0
100
AcDbBlockEnd
0
BLOCK
5
32
330
2D
100
AcDbEntity
67
1
8
0
100
AcDbBlockBegin
2
*Paper_Space
70
0
10
0
20
0
30
0
3
*Paper_Space
1

0
ENDBLK
5
33
330
2D
100
AcDbEntity
67
1
8
0
100
AcDbBlockEnd
0
BLOCK
5
1DB
330
5E
100
AcDbEntity
8
0
100
AcDbBlockBegin
2
LAMP1
70
0
10
0
20
0
30
0
3
LAMP1
1

0
LINE
5
1DC
330
5E
100
AcDbEntity
8
CON
100
AcDbLine
10
2.999999999999943
20
-2.8337284425049063
30
0
11
2.999999999999943
21
-5.833728442504906
31
0
0
LINE
5
1DD
330
5E
100
AcDbEntity
8
CON
100
AcDbLine
10
2.999999999999943
20
-5.833728442504906
30
0
11
8.999999999999943
21
-5.833728442504906
31
0
0
LINE
5
1DE
330
5E
100
AcDbEntity
8
CON
100
AcDbLine
10
8.999999999999943
20
-5.833728442504906
30
0
11
8.999999999999943
21
-2.8337284425049063
31
0
0
LINE
5
1DF
330
5E
100
AcDbEntity
8
CON
100
AcDbLine
10
8.999999999999943
20
-2.8337284425049063
30
0
11
2.999999999999943
21
-2.8337284425049063
31
0
0
SOLID
5
1E0
330
5E
100
AcDbEntity
8
CON
100
AcDbTrace
10
4.499999999999943
20
-2.8337284425049063
30
0
11
2.999999999999943
21
-2.8337284425049063
31
0
12
2.999999999999943
22
-4.333728442504906
32
0
13
2.999999999999943
23
-4.333728442504906
33
0
0
SOLID
5
1E1
330
5E
100
AcDbEntity
8
CON
100
AcDbTrace
10
2.999999999999943
20
-4.333728442504906
30
0
11
2.999999999999943
21
-5.833728442504906
31
0
12
4.499999999999943
22
-5.833728442504906
32
0
13
4.499999999999943
23
-5.833728442504906
33
0
0
SOLID
5
1E2
330
5E
100
AcDbEntity
8
CON
100
AcDbTrace
10
7.499999999999943
20
-2.8337284425049063
30
0
11
8.999999999999943
21
-2.8337284425049063
31
0
12
8.999999999999943
22
-4.333728442504906
32
0
13
8.999999999999943
23
-4.333728442504906
33
0
0
SOLID
5
1E3
330
5E
100
AcDbEntity
8
CON
100
AcDbTrace
10
8.999999999999943
20
-4.333728442504906
30
0
11
8.999999999999943
21
-5.833728442504906
31
0
12
7.499999999999943
22
-5.833728442504906
32
0
13
7.499999999999943
23
-5.833728442504906
33
0
0
LINE
5
1E4
330
5E
100
AcDbEntity
8
CON
100
AcDbLine
10
2.999999999999943
20
-2.8337284425049063
30
0
11
1.4999999999999432
21
-1.3337284425049063
31
0
0
LINE
5
1E5
330
5E
100
AcDbEntity
8
CON
100
AcDbLine
10
8.999999999999943
20
-2.8337284425049063
30
0
11
10.499999999999943
21
-1.3337284425049063
31
0
0
LINE
5
1E6
330
5E
100
AcDbEntity
8
CON
100
AcDbLine
10
8.999999999999943
20
-5.833728442504906
30
0
11
10.499999999999943
21
-7.333728442504906
31
0
0
LINE
5
1E7
330
5E
100
AcDbEntity
8
CON
100
AcDbLine
10
2.999999999999943
20
-5.833728442504906
30
0
11
1.4999999999999432
21
-7.333728442504906
31
0
0
ENDBLK
5
1E8
330
5E
100
AcDbEntity
8
0
100
AcDbBlockEnd
0
BLOCK
5
1E9
330
5F
100
AcDbEntity
8
0
100
AcDbBlockBegin
2
ACAD1160
70
0
10
0
20
0
30
0
3
ACAD1160
1

0
INSERT
5
1EA
330
5F
100
AcDbEntity
8
CON
100
AcDbBlockReference
2
ACAD1700
10
0.22458547612729263
20
0.2244580974694741
30
0
0
ENDBLK
5
1EB
330
5F
100
AcDbEntity
8
0
100
AcDbBlockEnd
0
BLOCK
5
1EC
330
60
100
AcDbEntity
8
0
100
AcDbBlockBegin
2
ACAD1700
70
0
10
0
20
0
30
0
3
ACAD1700
1

0
TEXT
5
1ED
330
60
100
AcDbEntity
8
CON
100
AcDbText
10
261.21119007319396
20
14.801747175563227
30
0
40
2.7
1
MAI-LIAO, HI-FONG PLANT
41
0.8
7
STANDARD
11
261.21119007319396
21
14.040973694900243
31
0
100
AcDbText
73
1
0
TEXT
5
1EE
330
60
100
AcDbEntity
8
CON
100
AcDbText
10
252.60073738270347
20
9.077925779172205
30
0
40
2.7
1
500T/H COAL/OIL FIRING BOILER
41
0.8
7
STANDARD
11
252.60073738270347
21
8.317152298509221
31
0
100
AcDbText
73
1
0
ENDBLK
5
1EF
330
60
100
AcDbEntity
8
0
100
AcDbBlockEnd
0
BLOCK
5
1F0
330
61
100
AcDbEntity
8
0
100
AcDbBlockBegin
2
ACAD3D7D
70
0
10
0
20
0
30
0
3
ACAD3D7D
1

0
TEXT
5
1F1
330
61
100
AcDbEntity
8
CON
100
AcDbText
10
125.3157766862803
20
16.76317884997611
30
0
40
2
1
`97-12-12
41
0.8
7
STANDARD
11
125.3157766862803
21
16.199642938373902
31
0
100
AcDbText
73
1
0
ENDBLK
5
1F2
330
61
100
AcDbEntity
8
0
100
AcDbBlockEnd
0
BLOCK
5
1F3
330
62
100
AcDbEntity
8
0
100
AcDbBlockBegin
2
002
70
0
10
0
20
0
30
0
3
002
1

0
MTEXT
5
1F4
330
62
100
AcDbEntity
8
CON
100
AcDbMText
10
3.2845400766710497
20
-0.931571290754956
30
0
40
1.863
41
7.6
71
1
72
5
1
{\f\U+FFB7s\U+FFB2\U+FFD3\U+FFA9\U+FFFA\U+FFC5\U+FFE9|b0|i0|c136|p54;\U+8521\U+660E\U+9713}
7
ROMANS
73
1
44
1
0
TEXT
5
1F5
330
62
100
AcDbEntity
8
CON
100
AcDbText
10
150.4674758573598
20
-4.767623208354591
30
0
40
2.7
1
FORMOSA PETROCHEMICAC 
41
0.8
7
STANDARD
11
150.4674758573598
21
-5.528396689017574
31
0
100
AcDbText
73
1
0
TEXT
5
1F6
330
62
100
AcDbEntity
8
CON
100
AcDbText
10
150.20980274214972
20
-9.269937017021645
30
0
40
2.7
1
CORP. LTD HP-5 500T/H 
41
0.8
7
STANDARD
11
150.20980274214972
21
-10.030710497684629
31
0
100
AcDbText
73
1
0
TEXT
5
1F7
330
62
100
AcDbEntity
8
CON
100
AcDbText
10
150.20980274214972
20
-13.772249497249588
30
0
40
2.7
1
COAL/OIL FIRING BOILER
41
0.8
7
STANDARD
11
150.20980274214972
21
-14.533022977912571
31
0
100
AcDbText
73
1
0
TEXT
5
1F8
330
62
100
AcDbEntity
8
CON
100
AcDbText
10
268.20422008948606
20
-5.417153495615244
30
0
40
3.6
1
HP5-M1-002
41
0.8
7
ROMANS
100
AcDbText
0
ENDBLK
5
1F9
330
62
100
AcDbEntity
8
0
100
AcDbBlockEnd
0
BLOCK
5
1FA
330
63
100
AcDbEntity
8
0
100
AcDbBlockBegin
2
Q1
70
0
10
0
20
0
30
0
3
Q1
1

0
MTEXT
5
1FB
330
63
100
AcDbEntity
8
CON
100
AcDbMText
10
-11.21843696617421
20
-11.783211013653837
30
0
40
1.863
41
7.6
71
1
72
5
1
{\f\U+FFB7s\U+FFB2\U+FFD3\U+FFA9\U+FFFA\U+FFC5\U+FFE9|b0|i0|c136|p54;\U+8521\U+660E\U+7965}
7
ROMANS
73
1
44
1
0
MTEXT
5
1FC
330
63
100
AcDbEntity
8
CON
100
AcDbMText
10
-11.21843696617421
20
-0.931571290754956
30
0
40
1.863
41
7.6
71
1
72
5
1
{\f\U+FFB7s\U+FFB2\U+FFD3\U+FFA9\U+FFFA\U+FFC5\U+FFE9|b0|i0|c136|p54;\U+5F90\U+660E\U+739F}
7
ROMANS
73
1
44
1
0
MTEXT
5
1FD
330
63
100
AcDbEntity
8
CON
100
AcDbMText
10
-11.21843696617421
20
-8.122416487013876
30
0
40
1.863
41
7.6
71
1
72
5
1
{\f\U+FFB7s\U+FFB2\U+FFD3\U+FFA9\U+FFFA\U+FFC5\U+FFE9|b0|i0|c136|p54;\U+8D99\U+5922\U+751F}
7
ROMANS
73
1
44
1
0
MTEXT
5
1FE
330
63
100
AcDbEntity
8
CON
100
AcDbMText
10
-11.21843696617421
20
-4.5923651343348375
30
0
40
1.863
41
7.6
71
1
72
5
1
{\f\U+FFB7s\U+FFB2\U+FFD3\U+FFA9\U+FFFA\U+FFC5\U+FFE9|b0|i0|c136|p54;\U+6797\U+898B\U+9577}
7
ROMANS
73
1
44
1
0
TEXT
5
1FF
330
63
100
AcDbEntity
8
DIM
62
4
100
AcDbText
10
3.945486247854194
20
-13.531470020869072
30
0
40
1.5
1
2005.03.04
41
0.75
7
STANDARD
72
4
11
7.923386800340381
21
-12.848804275012718
31
0
100
AcDbText
0
TEXT
5
200
330
63
100
AcDbEntity
8
DIM
62
4
100
AcDbText
10
3.945486247854194
20
-6.340624824610152
30
0
40
1.5
1
2005.03.03
41
0.75
7
STANDARD
72
4
11
7.923386800340381
21
-5.657959078753798
31
0
100
AcDbText
0
TEXT
5
201
330
63
100
AcDbEntity
8
DIM
62
4
100
AcDbText
10
3.945486247854194
20
-10.063973550324384
30
0
40
1.5
1
2005.03.04
41
0.75
7
STANDARD
72
4
11
7.923386800340381
21
-9.38130780446803
31
0
100
AcDbText
0
TEXT
5
202
330
63
100
AcDbEntity
8
DIM
62
4
100
AcDbText
10
3.945486247854194
20
-2.8731283540654635
30
0
40
1.5
1
2005.03.03
41
0.75
7
STANDARD
72
4
11
7.923386800340381
21
-2.19046260820911
31
0
100
AcDbText
0
ENDBLK
5
203
330
63
100
AcDbEntity
8
0
100
AcDbBlockEnd
0
BLOCK
5
204
330
64
100
AcDbEntity
8
0
100
AcDbBlockBegin
2
GENAXEH
70
0
10
0
20
0
30
0
3
GENAXEH
1

0
LINE
5
205
330
64
100
AcDbEntity
8
0
100
AcDbLine
10
-1
20
0
30
0
11
1
21
0
31
0
0
ENDBLK
5
206
330
64
100
AcDbEntity
8
0
100
AcDbBlockEnd
0
BLOCK
5
207
330
65
100
AcDbEntity
8
0
100
AcDbBlockBegin
2
A$C0B5D597B
70
0
10
0
20
0
30
0
3
A$C0B5D597B
1

0
SOLID
5
208
330
65
100
AcDbEntity
8
CON
370
9
100
AcDbTrace
10
-4.774486797032296e-7
20
12.286877865616134
30
0
11
-4.774486797032296e-7
21
11.286877865616134
31
0
12
2.9999995225513203
22
11.786877865616134
32
0
13
2.9999995225513203
23
11.786877865616134
33
0
0
SOLID
5
209
330
65
100
AcDbEntity
8
CON
370
9
100
AcDbTrace
10
-4.774486797032296e-7
20
3.0611899608027215
30
0
11
-4.774486797032296e-7
21
2.0611899608027215
31
0
12
2.9999995225513203
22
2.5611899608027215
32
0
13
2.9999995225513203
23
2.5611899608027215
33
0
0
TEXT
5
20A
330
65
100
AcDbEntity
8
CON
370
9
100
AcDbText
10
5.987448497226513
20
5.905588544941338
30
0
40
2.5
1
OR
41
0.8
7
ROMANS
72
4
11
8.03506754484556
21
7.155588544941338
31
0
100
AcDbText
0
LWPOLYLINE
5
20B
330
65
100
AcDbEntity
8
CON
100
AcDbPolyline
90
2
70
0
43
1
10
3.421081475950132
20
14.711225328775868
40
1
41
1
10
3.421081475950132
20
0
40
1
41
1
0
ENDBLK
5
20C
330
65
100
AcDbEntity
8
0
100
AcDbBlockEnd
0
BLOCK
5
20D
330
66
100
AcDbEntity
8
0
100
AcDbBlockBegin
2
A$C64CF62AB
70
0
10
0
20
0
30
0
3
A$C64CF62AB
1

0
LINE
5
20E
330
66
100
AcDbEntity
8
CON
370
15
100
AcDbLine
10
12.549112654708608
20
11.896872051101525
30
0
11
12.549112654708608
21
3.0109701834217617
31
0
0
LWPOLYLINE
5
20F
330
66
100
AcDbEntity
8
CON
370
15
100
AcDbPolyline
90
2
70
0
43
1
10
3.549112654708665
20
14.371962186551855
40
1
41
1
10
3.549112654708665
20
-2.0664492694777437e-7
40
1
41
1
0
LINE
5
210
330
66
100
AcDbEntity
8
CON
370
15
100
AcDbLine
10
12.549112654708551
20
3.0109701834217333
30
0
11
3.549112654708665
21
3.0109701834217333
31
0
0
TEXT
5
211
330
66
100
AcDbEntity
8
CON
370
15
100
AcDbText
10
5.2395888451848
20
6.182259007865582
30
0
40
2.5
1
AND
41
0.8
7
ROMANS
72
4
11
8.049112654708608
21
7.432259007865582
31
0
100
AcDbText
0
LINE
5
212
330
66
100
AcDbEntity
8
CON
370
15
100
AcDbLine
10
3.549112654708665
20
11.896872051101468
30
0
11
12.549112654708551
21
11.896872051101468
31
0
0
SOLID
5
213
330
66
100
AcDbEntity
8
CON
370
15
100
AcDbTrace
10
7.781043223076267e-7
20
3.4213548472596074
30
0
11
7.781043223076267e-7
21
2.4213548472596074
31
0
12
3.0000007781043223
22
2.9213548472596074
32
0
13
3.0000007781043223
23
2.9213548472596074
33
0
0
SOLID
5
214
330
66
100
AcDbEntity
8
CON
370
15
100
AcDbTrace
10
7.781043223076267e-7
20
12.079656021267823
30
0
11
7.781043223076267e-7
21
11.079656021267823
31
0
12
3.0000007781043223
22
11.579656021267823
32
0
13
3.0000007781043223
23
11.579656021267823
33
0
0
ENDBLK
5
215
330
66
100
AcDbEntity
8
0
100
AcDbBlockEnd
0
BLOCK
5
216
330
67
100
AcDbEntity
8
0
100
AcDbBlockBegin
2
A$C49383ED0
70
0
10
0
20
0
30
0
3
A$C49383ED0
1

0
TEXT
5
217
330
67
100
AcDbEntity
8
CON
370
9
100
AcDbText
10
9.681948291969945
20
5.433408766249887
30
0
40
1.56
1
ON TIMER
41
0.8
7
ROMANS
11
9.681948291969945
21
4.913408766249887
31
0
100
AcDbText
73
1
0
ARC
5
218
330
67
100
AcDbEntity
8
CON
370
9
100
AcDbCircle
10
4.199999437036553
20
4.7249998829793185
30
0
40
4.725
100
AcDbArc
50
270
51
90
0
TEXT
5
219
330
67
100
AcDbEntity
8
CON
370
9
100
AcDbText
10
4.319914135199715
20
5.582917451733778
30
0
40
1.75
1
5
41
0.8
7
ROMANS
72
4
11
4.986580801866381
21
6.457917451733778
31
0
100
AcDbText
0
TEXT
5
21A
330
67
100
AcDbEntity
8
CON
370
9
100
AcDbText
10
3.2416004869053476
20
2.922106768261415
30
0
40
1.75
1
MIN.
41
0.8
7
ROMANS
72
4
11
5.374933820238681
21
3.797106768261415
31
0
100
AcDbText
0
LINE
5
21B
330
67
100
AcDbEntity
8
CON
370
9
100
AcDbLine
10
2.0999994370365584
20
9.449999882979341
30
0
11
2.0999994370365584
21
-1.1702067581609299e-7
31
0
0
LINE
5
21C
330
67
100
AcDbEntity
8
CON
370
9
100
AcDbLine
10
2.0999994370365584
20
-1.1702067581609299e-7
30
0
11
4.199999437036553
21
-1.1702067581609299e-7
31
0
0
SOLID
5
21D
330
67
100
AcDbEntity
8
CON
370
9
100
AcDbTrace
10
-5.629634358683688e-7
20
5.074999882979313
30
0
11
-5.629634358683688e-7
21
4.374999882979324
31
0
12
2.0999994370365584
22
4.7249998829793185
32
0
13
2.0999994370365584
23
4.7249998829793185
33
0
0
LINE
5
21E
330
67
100
AcDbEntity
8
CON
370
9
100
AcDbLine
10
2.0999994370365584
20
9.449999882979341
30
0
11
4.199999437036553
21
9.449999882979341
31
0
0
ENDBLK
5
21F
330
67
100
AcDbEntity
8
0
100
AcDbBlockEnd
0
BLOCK
5
220
330
68
100
AcDbEntity
8
0
100
AcDbBlockBegin
2
A$C79444D87
70
0
10
0
20
0
30
0
3
A$C79444D87
1

0
LWPOLYLINE
5
221
330
68
100
AcDbEntity
8
CON
370
15
100
AcDbPolyline
90
2
70
1
43
0.75
10
0.3749993883729985
20
0.7499996082414668
40
0.75
41
0.75
42
1
10
1.1249993883729985
20
0.7499996082414668
40
0.75
41
0.75
42
1
0
ENDBLK
5
222
330
68
100
AcDbEntity
8
0
100
AcDbBlockEnd
0
BLOCK
5
223
330
101
100
AcDbEntity
8
0
100
AcDbBlockBegin
2
WMF6
70
0
10
290.05311517445585
20
-290.05311517445585
30
0
3
WMF6
1

0
ENDBLK
5
224
330
101
100
AcDbEntity
8
0
100
AcDbBlockEnd
0
BLOCK
5
225
330
106
100
AcDbEntity
8
0
100
AcDbBlockBegin
2
test
70
0
10
0
20
0
30
0
3
test
1

0
ENDBLK
5
226
330
106
100
AcDbEntity
8
0
100
AcDbBlockEnd
0
BLOCK
5
227
330
118
100
AcDbEntity
8
0
100
AcDbBlockBegin
2
00_FORM
70
0
10
0
20
0
30
0
3
00_FORM
1

0
ENDBLK
5
228
330
118
100
AcDbEntity
8
0
100
AcDbBlockEnd
0
ENDSEC
0
SECTION
2
ENTITIES
0
TEXT
5
69
330
2C
100
AcDbEntity
8
CON
100
AcDbText
10
755.2504434399202
20
543
30
0
40
3
1
    
41
0.8
7
ROMANS
72
4
11
760.0504434399202
21
543
31
0
100
AcDbText
0
TEXT
5
6A
330
2C
100
AcDbEntity
8
CON
100
AcDbText
10
786.8652514726374
20
287.43948469584313
30
0
40
3
1
    
7
ROMANS
72
4
11
792.8652514726374
21
287.43948469584313
31
0
100
AcDbText
0
TEXT
5
6B
330
2C
100
AcDbEntity
8
CON
100
AcDbText
10
774.8148080327171
20
369.4393092295795
30
0
40
3
1
    
7
ROMANS
72
4
11
780.8148080327171
21
369.4393092295795
31
0
100
AcDbText
0
TEXT
5
6C
330
2C
100
AcDbEntity
8
CON
100
AcDbText
10
753.8148080327171
20
513.4394846958431
30
0
40
3
1
    
7
ROMANS
72
4
11
759.8148080327171
21
513.4394846958431
31
0
100
AcDbText
0
TEXT
5
6D
330
2C
100
AcDbEntity
8
CON
100
AcDbText
10
148.40000000000006
20
190.1428571428572
30
0
40
3
1
   
41
0.8
7
ROMANS
72
4
11
152.00000000000006
21
190.1428571428572
31
0
100
AcDbText
0
TEXT
5
6E
330
2C
100
AcDbEntity
8
CON
100
AcDbText
10
184.76436459279694
20
459.7293007227441
30
0
40
3
1
  
7
ROMANS
72
4
11
187.76436459279694
21
459.7293007227441
31
0
100
AcDbText
0
TEXT
5
6F
330
2C
100
AcDbEntity
8
CON
100
AcDbText
10
182.75064090825902
20
454.40123929958537
30
0
40
3
1
    
7
ROMANS
72
4
11
188.75064090825902
21
454.40123929958537
31
0
100
AcDbText
0
TEXT
5
70
330
2C
100
AcDbEntity
8
CON
100
AcDbText
10
226.85044343992024
20
533.2857142857142
30
0
40
3
1
 
41
0.8
7
ROMANS
72
4
11
228.05044343992023
21
533.2857142857142
31
0
100
AcDbText
0
TEXT
5
71
330
2C
100
AcDbEntity
8
CON
100
AcDbText
10
226.85044343992024
20
538.1428571428571
30
0
40
3
1
 
41
0.8
7
ROMANS
72
4
11
228.05044343992023
21
538.1428571428571
31
0
100
AcDbText
0
TEXT
5
72
330
2C
100
AcDbEntity
8
CON
100
AcDbText
10
150.79999999999998
20
167
30
0
40
3
1
 
41
0.8
7
ROMANS
72
4
11
151.99999999999997
21
167
31
0
100
AcDbText
0
TEXT
5
73
330
2C
100
AcDbEntity
8
CON
100
AcDbText
10
150.8
20
190.14285714285714
30
0
40
3
1
 
41
0.8
7
ROMANS
72
4
11
152
21
190.14285714285714
31
0
100
AcDbText
0
TEXT
5
74
330
2C
100
AcDbEntity
8
CON
100
AcDbText
10
150.8
20
195
30
0
40
3
1
 
41
0.8
7
ROMANS
72
4
11
152
21
195
31
0
100
AcDbText
0
TEXT
5
75
330
2C
100
AcDbEntity
8
CON
100
AcDbText
10
226.85044343992024
20
543
30
0
40
3
1
 
41
0.8
7
ROMANS
72
4
11
228.05044343992023
21
543
31
0
100
AcDbText
0
TEXT
5
76
330
2C
100
AcDbEntity
8
CON
100
AcDbText
10
149.65044343992022
20
538.1428571428571
30
0
40
3
1
  
41
0.8
7
ROMANS
72
4
11
152.05044343992023
21
538.1428571428571
31
0
100
AcDbText
0
TEXT
5
77
330
2C
100
AcDbEntity
8
CON
100
AcDbText
10
149.65044343992022
20
533.2857142857142
30
0
40
3
1
  
41
0.8
7
ROMANS
72
4
11
152.05044343992023
21
533.2857142857142
31
0
100
AcDbText
0
TEXT
5
78
330
2C
100
AcDbEntity
8
CON
100
AcDbText
10
302.31480803271717
20
518.7294761890075
30
0
40
3
1
 
7
ROMANS
72
4
11
303.81480803271717
21
518.7294761890075
31
0
100
AcDbText
0
TEXT
5
79
330
2C
100
AcDbEntity
8
CON
100
AcDbText
10
323.31480803271717
20
374.7293007227439
30
0
40
3
1
 
7
ROMANS
72
4
11
324.81480803271717
21
374.7293007227439
31
0
100
AcDbText
0
TEXT
5
7A
330
2C
100
AcDbEntity
8
CON
100
AcDbText
10
335.3652514726374
20
292.7294761890075
30
0
40
3
1
 
7
ROMANS
72
4
11
336.8652514726374
21
292.7294761890075
31
0
100
AcDbText
0
TEXT
5
7B
330
2C
100
AcDbEntity
8
CON
100
AcDbText
10
302.85044343992024
20
533.2857142857142
30
0
40
3
1
 
41
0.8
7
ROMANS
72
4
11
304.05044343992023
21
533.2857142857142
31
0
100
AcDbText
0
TEXT
5
7C
330
2C
100
AcDbEntity
8
CON
100
AcDbText
10
302.85044343992024
20
538.1428571428571
30
0
40
3
1
 
41
0.8
7
ROMANS
72
4
11
304.05044343992023
21
538.1428571428571
31
0
100
AcDbText
0
TEXT
5
7D
330
2C
100
AcDbEntity
8
CON
100
AcDbText
10
302.85044343992024
20
543
30
0
40
3
1
 
41
0.8
7
ROMANS
72
4
11
304.05044343992023
21
543
31
0
100
AcDbText
0
TEXT
5
7E
330
2C
100
AcDbEntity
8
CON
100
AcDbText
10
319
20
368
30
0
40
3
1
 
41
4
7
ROMANS
72
5
11
331
21
368
31
0
100
AcDbText
0
TEXT
5
7F
330
2C
100
AcDbEntity
8
CON
100
AcDbText
10
226.79999999999998
20
167
30
0
40
3
1
 
41
0.8
7
ROMANS
72
4
11
227.99999999999997
21
167
31
0
100
AcDbText
0
TEXT
5
80
330
2C
100
AcDbEntity
8
CON
100
AcDbText
10
226.8
20
195
30
0
40
3
1
 
41
0.8
7
ROMANS
72
4
11
228
21
195
31
0
100
AcDbText
0
TEXT
5
81
330
2C
100
AcDbEntity
8
CON
100
AcDbText
10
226.31480803271717
20
518.7294761890075
30
0
40
3
1
 
7
ROMANS
72
4
11
227.81480803271717
21
518.7294761890075
31
0
100
AcDbText
0
TEXT
5
82
330
2C
100
AcDbEntity
8
CON
100
AcDbText
10
378.8
20
166.99999999999997
30
0
40
3
1
 
41
0.8
7
ROMANS
72
4
11
380
21
166.99999999999997
31
0
100
AcDbText
0
TEXT
5
83
330
2C
100
AcDbEntity
8
CON
100
AcDbText
10
378.8
20
195
30
0
40
3
1
 
41
0.8
7
ROMANS
72
4
11
380
21
195
31
0
100
AcDbText
0
TEXT
5
84
330
2C
100
AcDbEntity
8
CON
100
AcDbText
10
414.26436459279694
20
459.7293007227441
30
0
40
3
1
 
7
ROMANS
72
4
11
415.76436459279694
21
459.7293007227441
31
0
100
AcDbText
0
TEXT
5
85
330
2C
100
AcDbEntity
8
CON
100
AcDbText
10
415.250640908259
20
454.40123929958537
30
0
40
3
1
 
7
ROMANS
72
4
11
416.750640908259
21
454.40123929958537
31
0
100
AcDbText
0
TEXT
5
86
330
2C
100
AcDbEntity
8
CON
100
AcDbText
10
378.85044343992024
20
538.1428571428571
30
0
40
3
1
 
41
0.8
7
ROMANS
72
4
11
380.05044343992023
21
538.1428571428571
31
0
100
AcDbText
0
TEXT
5
87
330
2C
100
AcDbEntity
8
CON
100
AcDbText
10
490.26436459279694
20
459.7293007227441
30
0
40
3
1
 
7
ROMANS
72
4
11
491.76436459279694
21
459.7293007227441
31
0
100
AcDbText
0
TEXT
5
88
330
2C
100
AcDbEntity
8
CON
100
AcDbText
10
491.250640908259
20
454.40123929958537
30
0
40
3
1
 
7
ROMANS
72
4
11
492.750640908259
21
454.40123929958537
31
0
100
AcDbText
0
TEXT
5
89
330
2C
100
AcDbEntity
8
CON
100
AcDbText
10
530.8
20
166.99999999999997
30
0
40
3
1
 
41
0.8
7
ROMANS
72
4
11
532
21
166.99999999999997
31
0
100
AcDbText
0
TEXT
5
8A
330
2C
100
AcDbEntity
8
CON
100
AcDbText
10
530.8
20
195
30
0
40
3
1
 
41
0.8
7
ROMANS
72
4
11
532
21
195
31
0
100
AcDbText
0
TEXT
5
8B
330
2C
100
AcDbEntity
8
CON
100
AcDbText
10
566.2643645927969
20
459.7293007227441
30
0
40
3
1
 
7
ROMANS
72
4
11
567.7643645927969
21
459.7293007227441
31
0
100
AcDbText
0
TEXT
5
8C
330
2C
100
AcDbEntity
8
CON
100
AcDbText
10
567.250640908259
20
454.40123929958537
30
0
40
3
1
 
7
ROMANS
72
4
11
568.750640908259
21
454.40123929958537
31
0
100
AcDbText
0
TEXT
5
8D
330
2C
100
AcDbEntity
8
CON
100
AcDbText
10
366.6
20
369
30
0
40
3
1
  
41
0.8
7
ROMANS
72
4
11
369
21
369
31
0
100
AcDbText
0
TEXT
5
8E
330
2C
100
AcDbEntity
8
CON
100
AcDbText
10
110.25064090825903
20
454.4012392995854
30
0
40
3
1
 
7
ROMANS
72
4
11
111.75064090825903
21
454.4012392995854
31
0
100
AcDbText
0
TEXT
5
8F
330
2C
100
AcDbEntity
8
CON
100
AcDbText
10
110.26436459279695
20
459.72930072274414
30
0
40
3
1
 
7
ROMANS
72
4
11
111.76436459279695
21
459.72930072274414
31
0
100
AcDbText
0
TEXT
5
90
330
2C
100
AcDbEntity
8
CON
100
AcDbText
10
73.60000000000005
20
195.00000000000006
30
0
40
3
1
  
41
0.8
7
ROMANS
72
4
11
76.00000000000006
21
195.00000000000006
31
0
100
AcDbText
0
TEXT
5
91
330
2C
100
AcDbEntity
8
CON
100
AcDbText
10
73.60000000000005
20
190.1428571428572
30
0
40
3
1
  
41
0.8
7
ROMANS
72
4
11
76.00000000000006
21
190.1428571428572
31
0
100
AcDbText
0
TEXT
5
92
330
2C
100
AcDbEntity
8
CON
100
AcDbText
10
171
20
281.5714285714286
30
0
40
5
1
  
41
0.8
7
ROMANS
11
171
21
279.9047619047619
31
0
100
AcDbText
73
1
0
LINE
5
93
330
2C
100
AcDbEntity
8
HID
370
9
100
AcDbLine
10
17.89703428240739
20
300.03702925706307
30
0
11
128.64703428240762
21
300.03702925706307
31
0
0
LINE
5
94
330
2C
100
AcDbEntity
8
HID
370
9
100
AcDbLine
10
38.64703428240762
20
308.03911786466017
30
0
11
38.64703428240762
21
137.88621924397944
31
0
0
LINE
5
95
330
2C
100
AcDbEntity
8
HID
370
9
100
AcDbLine
10
61.14703428240762
20
308.03911786466017
30
0
11
61.14703428240762
21
43.537029257063125
31
0
0
LINE
5
96
330
2C
100
AcDbEntity
8
HID
370
9
100
AcDbLine
10
83.64703428240762
20
304.53702925706307
30
0
11
83.64703428240762
21
43.537029257063125
31
0
0
LINE
5
97
330
2C
100
AcDbEntity
8
HID
370
9
100
AcDbLine
10
128.64703428240756
20
304.53702925706307
30
0
11
128.64703428240762
21
43.537029257063125
31
0
0
LINE
5
98
330
2C
100
AcDbEntity
8
HID
370
9
100
AcDbLine
10
389.6470342824076
20
308.03911786466017
30
0
11
389.64703428240756
21
228.03702925706307
31
0
0
LINE
5
99
330
2C
100
AcDbEntity
8
HID
370
9
100
AcDbLine
10
367.1470342824076
20
308.03911786466017
30
0
11
367.1470342824077
21
43.537029257063125
31
0
0
LINE
5
9A
330
2C
100
AcDbEntity
8
HID
370
9
100
AcDbLine
10
326.6470342824076
20
304.53702925706307
30
0
11
326.6470342824077
21
43.537029257063125
31
0
0
LINE
5
9B
330
2C
100
AcDbEntity
8
HID
370
9
100
AcDbLine
10
326.6470342824076
20
300.03702925706307
30
0
11
407.89703428240966
21
300.03702925706307
31
0
0
LINE
5
9C
330
2C
100
AcDbEntity
8
HID
370
9
100
AcDbLine
10
17.89703428240739
20
273.03702925706307
30
0
11
128.64703428240762
21
273.03702925706307
31
0
0
LINE
5
9D
330
2C
100
AcDbEntity
8
HID
370
9
100
AcDbLine
10
17.89703428240739
20
264.03702925706307
30
0
11
128.64703428240762
21
264.03702925706307
31
0
0
LINE
5
9E
330
2C
100
AcDbEntity
8
HID
370
9
100
AcDbLine
10
17.89703428240739
20
255.03702925706307
30
0
11
128.64703428240762
21
255.03702925706307
31
0
0
LINE
5
9F
330
2C
100
AcDbEntity
8
HID
370
9
100
AcDbLine
10
17.89703428240739
20
246.03702925706307
30
0
11
128.64703428240762
21
246.03702925706307
31
0
0
LINE
5
A0
330
2C
100
AcDbEntity
8
HID
370
9
100
AcDbLine
10
17.89703428240739
20
219.03702925706307
30
0
11
128.64703428240762
21
219.03702925706307
31
0
0
LINE
5
A1
330
2C
100
AcDbEntity
8
HID
370
9
100
AcDbLine
10
17.89703428240739
20
210.03702925706307
30
0
11
128.64703428240762
21
210.0370292570631
31
0
0
LINE
5
A2
330
2C
100
AcDbEntity
8
HID
370
9
100
AcDbLine
10
17.89703428240739
20
201.03702925706307
30
0
11
128.64703428240762
21
201.03702925706307
31
0
0
LINE
5
A3
330
2C
100
AcDbEntity
8
HID
370
9
100
AcDbLine
10
17.89703428240739
20
173.85897503140984
30
0
11
128.64703428240762
21
173.85897503140984
31
0
0
LINE
5
A4
330
2C
100
AcDbEntity
8
HID
370
9
100
AcDbLine
10
17.89703428240739
20
147.03702925706307
30
0
11
128.64703428240762
21
147.03702925706307
31
0
0
LINE
5
A5
330
2C
100
AcDbEntity
8
HID
370
9
100
AcDbLine
10
17.89703428240739
20
138.03702925706307
30
0
11
128.64703428240762
21
138.03702925706307
31
0
0
LINE
5
A6
330
2C
100
AcDbEntity
8
HID
370
9
100
AcDbLine
10
17.89703428240739
20
84.03702925706307
30
0
11
128.64703428240762
21
84.03702925706307
31
0
0
LINE
5
A7
330
2C
100
AcDbEntity
8
HID
370
9
100
AcDbLine
10
17.89703428240739
20
119.57705519213269
30
0
11
128.64703428240762
21
119.57705519213269
31
0
0
LINE
5
A8
330
2C
100
AcDbEntity
8
HID
370
9
100
AcDbLine
10
326.6470342824076
20
246.03702925706307
30
0
11
407.89703428240966
21
246.03702925706307
31
0
0
LINE
5
A9
330
2C
100
AcDbEntity
8
HID
370
9
100
AcDbLine
10
326.6470342824076
20
201.03702925706307
30
0
11
407.89703428240966
21
201.03702925706307
31
0
0
LINE
5
AA
330
2C
100
AcDbEntity
8
HID
370
9
100
AcDbLine
10
326.6470342824076
20
192.0370292570631
30
0
11
407.89703428240966
21
192.03702925706307
31
0
0
LINE
5
AB
330
2C
100
AcDbEntity
8
HID
370
9
100
AcDbLine
10
326.6470342824076
20
75.03702925706307
30
0
11
407.89703428240966
21
75.03702925706307
31
0
0
LINE
5
AC
330
2C
100
AcDbEntity
8
HID
370
9
100
AcDbLine
10
326.6470342824076
20
66.03702925706307
30
0
11
407.89703428240966
21
66.03702925706307
31
0
0
LINE
5
AD
330
2C
100
AcDbEntity
8
HID
370
9
100
AcDbLine
10
326.6470342824076
20
119.53230354782823
30
0
11
407.89703428240966
21
119.53230354782823
31
0
0
TEXT
5
AE
330
2C
100
AcDbEntity
8
CON
370
9
100
AcDbText
10
53.83751047288381
20
294.28702925706307
30
0
40
2.5
1
 1
41
0.8
7
ROMANS
72
4
11
56.64703428240762
21
295.53702925706307
31
0
100
AcDbText
0
TEXT
5
AF
330
2C
100
AcDbEntity
8
CON
370
9
100
AcDbText
10
53.69465333002667
20
285.28702925706307
30
0
40
2.5
1
 2
41
0.8
7
ROMANS
72
4
11
56.64703428240762
21
286.53702925706307
31
0
100
AcDbText
0
TEXT
5
B0
330
2C
100
AcDbEntity
8
CON
370
9
100
AcDbText
10
53.69465333002666
20
276.28702925706307
30
0
40
2.5
1
 3
41
0.8
7
ROMANS
72
4
11
56.64703428240762
21
277.53702925706307
31
0
100
AcDbText
0
TEXT
5
B1
330
2C
100
AcDbEntity
8
CON
370
9
100
AcDbText
10
53.64703428240762
20
267.28702925706307
30
0
40
2.5
1
 4
41
0.8
7
ROMANS
72
4
11
56.64703428240762
21
268.53702925706307
31
0
100
AcDbText
0
TEXT
5
B2
330
2C
100
AcDbEntity
8
CON
370
9
100
AcDbText
10
53.69465333002667
20
258.28702925706307
30
0
40
2.5
1
 5
41
0.8
7
ROMANS
72
4
11
56.64703428240762
21
259.53702925706307
31
0
100
AcDbText
0
LINE
5
B3
330
2C
100
AcDbEntity
8
HID
370
9
100
AcDbLine
10
52.14703428240762
20
308.03911786466017
30
0
11
52.14703428240762
21
43.537029257063125
31
0
0
TEXT
5
B4
330
2C
100
AcDbEntity
8
CON
370
9
100
AcDbText
10
53.64703428240762
20
249.28702925706307
30
0
40
2.5
1
 6
41
0.8
7
ROMANS
72
4
11
56.64703428240762
21
250.53702925706307
31
0
100
AcDbText
0
TEXT
5
B5
330
2C
100
AcDbEntity
8
CON
370
9
100
AcDbText
10
53.69465333002667
20
240.28702925706307
30
0
40
2.5
1
 7
41
0.8
7
ROMANS
72
4
11
56.64703428240762
21
241.53702925706307
31
0
100
AcDbText
0
TEXT
5
B6
330
2C
100
AcDbEntity
8
CON
370
9
100
AcDbText
10
53.69465333002667
20
231.28702925706307
30
0
40
2.5
1
 8
41
0.8
7
ROMANS
72
4
11
56.64703428240762
21
232.53702925706307
31
0
100
AcDbText
0
TEXT
5
B7
330
2C
100
AcDbEntity
8
CON
370
9
100
AcDbText
10
53.74227237764571
20
222.28702925706307
30
0
40
2.5
1
 9
41
0.8
7
ROMANS
72
4
11
56.64703428240762
21
223.53702925706307
31
0
100
AcDbText
0
TEXT
5
B8
330
2C
100
AcDbEntity
8
CON
370
9
100
AcDbText
10
54.599415234788566
20
213.28702925706307
30
0
40
2.5
1
10
41
0.8
7
ROMANS
72
4
11
56.64703428240762
21
214.53702925706307
31
0
100
AcDbText
0
TEXT
5
B9
330
2C
100
AcDbEntity
8
CON
370
9
100
AcDbText
10
54.88512952050286
20
204.28702925706307
30
0
40
2.5
1
11
41
0.8
7
ROMANS
72
4
11
56.64703428240762
21
205.53702925706307
31
0
100
AcDbText
0
TEXT
5
BA
330
2C
100
AcDbEntity
8
CON
370
9
100
AcDbText
10
54.599415234788566
20
195.28702925706307
30
0
40
2.5
1
12
41
0.8
7
ROMANS
72
4
11
56.64703428240762
21
196.53702925706307
31
0
100
AcDbText
0
TEXT
5
BB
330
2C
100
AcDbEntity
8
CON
370
9
100
AcDbText
10
54.599415234788566
20
186.28702925706307
30
0
40
2.5
1
13
41
0.8
7
ROMANS
72
4
11
56.64703428240762
21
187.53702925706307
31
0
100
AcDbText
0
TEXT
5
BC
330
2C
100
AcDbEntity
8
CON
370
9
100
AcDbText
10
54.55179618716952
20
177.28702925706307
30
0
40
2.5
1
14
41
0.8
7
ROMANS
72
4
11
56.64703428240762
21
178.53702925706307
31
0
100
AcDbText
0
TEXT
5
BD
330
2C
100
AcDbEntity
8
CON
370
9
100
AcDbText
10
54.599415234788566
20
168.28702925706307
30
0
40
2.5
1
15
41
0.8
7
ROMANS
72
4
11
56.64703428240762
21
169.53702925706307
31
0
100
AcDbText
0
TEXT
5
BE
330
2C
100
AcDbEntity
8
CON
370
9
100
AcDbText
10
54.599415234788566
20
159.28702925706307
30
0
40
2.5
1
16
41
0.8
7
ROMANS
72
4
11
56.64703428240762
21
160.53702925706307
31
0
100
AcDbText
0
TEXT
5
BF
330
2C
100
AcDbEntity
8
CON
370
9
100
AcDbText
10
54.599415234788566
20
150.28702925706307
30
0
40
2.5
1
17
41
0.8
7
ROMANS
72
4
11
56.64703428240762
21
151.53702925706307
31
0
100
AcDbText
0
TEXT
5
C0
330
2C
100
AcDbEntity
8
CON
370
9
100
AcDbText
10
54.599415234788566
20
141.28702925706307
30
0
40
2.5
1
18
41
0.8
7
ROMANS
72
4
11
56.64703428240762
21
142.53702925706307
31
0
100
AcDbText
0
TEXT
5
C1
330
2C
100
AcDbEntity
8
CON
370
9
100
AcDbText
10
54.64703428240762
20
132.28702925706307
30
0
40
2.5
1
19
41
0.8
7
ROMANS
72
4
11
56.64703428240762
21
133.53702925706307
31
0
100
AcDbText
0
TEXT
5
C2
330
2C
100
AcDbEntity
8
CON
370
9
100
AcDbText
10
54.74227237764571
20
123.28702925706307
30
0
40
2.5
1
20
41
0.8
7
ROMANS
72
4
11
56.64703428240762
21
124.53702925706307
31
0
100
AcDbText
0
TEXT
5
C3
330
2C
100
AcDbEntity
8
CON
370
9
100
AcDbText
10
55.02798666336
20
114.28702925706307
30
0
40
2.5
1
21
41
0.8
7
ROMANS
72
4
11
56.64703428240762
21
115.53702925706307
31
0
100
AcDbText
0
TEXT
5
C4
330
2C
100
AcDbEntity
8
CON
370
9
100
AcDbText
10
54.74227237764571
20
105.28702925706307
30
0
40
2.5
1
22
41
0.8
7
ROMANS
72
4
11
56.64703428240762
21
106.53702925706307
31
0
100
AcDbText
0
TEXT
5
C5
330
2C
100
AcDbEntity
8
CON
370
9
100
AcDbText
10
54.74227237764571
20
96.28702925706307
30
0
40
2.5
1
23
41
0.8
7
ROMANS
72
4
11
56.64703428240762
21
97.53702925706307
31
0
100
AcDbText
0
TEXT
5
C6
330
2C
100
AcDbEntity
8
CON
370
9
100
AcDbText
10
54.69465333002667
20
87.28702925706307
30
0
40
2.5
1
24
41
0.8
7
ROMANS
72
4
11
56.64703428240762
21
88.53702925706307
31
0
100
AcDbText
0
TEXT
5
C7
330
2C
100
AcDbEntity
8
CON
370
9
100
AcDbText
10
54.74227237764571
20
78.28702925706307
30
0
40
2.5
1
25
41
0.8
7
ROMANS
72
4
11
56.64703428240762
21
79.53702925706307
31
0
100
AcDbText
0
TEXT
5
C8
330
2C
100
AcDbEntity
8
CON
370
9
100
AcDbText
10
54.74227237764571
20
69.28702925706307
30
0
40
2.5
1
26
41
0.8
7
ROMANS
72
4
11
56.64703428240762
21
70.53702925706307
31
0
100
AcDbText
0
TEXT
5
C9
330
2C
100
AcDbEntity
8
CON
370
9
100
AcDbText
10
54.74227237764571
20
60.28702925706307
30
0
40
2.5
1
27
41
0.8
7
ROMANS
72
4
11
56.64703428240762
21
61.53702925706307
31
0
100
AcDbText
0
TEXT
5
CA
330
2C
100
AcDbEntity
8
CON
370
9
100
AcDbText
10
54.74227237764571
20
51.28702925706307
30
0
40
2.5
1
28
41
0.8
7
ROMANS
72
4
11
56.64703428240762
21
52.53702925706307
31
0
100
AcDbText
0
LINE
5
CB
330
2C
100
AcDbEntity
8
HID
370
9
100
AcDbLine
10
376.1470342824076
20
308.03911786466017
30
0
11
376.14703428240756
21
43.537029257063125
31
0
0
TEXT
5
CC
330
2C
100
AcDbEntity
8
CON
370
9
100
AcDbText
10
369.7422723776457
20
60.28702925706307
30
0
40
2.5
1
77
41
0.8
7
ROMANS
72
4
11
371.6470342824076
21
61.53702925706307
31
0
100
AcDbText
0
TEXT
5
CD
330
2C
100
AcDbEntity
8
CON
370
9
100
AcDbText
10
369.7422723776457
20
69.28702925706307
30
0
40
2.5
1
76
41
0.8
7
ROMANS
72
4
11
371.6470342824076
21
70.53702925706307
31
0
100
AcDbText
0
TEXT
5
CE
330
2C
100
AcDbEntity
8
CON
370
9
100
AcDbText
10
369.7422723776457
20
78.28702925706307
30
0
40
2.5
1
75
41
0.8
7
ROMANS
72
4
11
371.6470342824076
21
79.53702925706307
31
0
100
AcDbText
0
TEXT
5
CF
330
2C
100
AcDbEntity
8
CON
370
9
100
AcDbText
10
369.69465333002665
20
87.28702925706307
30
0
40
2.5
1
74
41
0.8
7
ROMANS
72
4
11
371.6470342824076
21
88.53702925706307
31
0
100
AcDbText
0
TEXT
5
D0
330
2C
100
AcDbEntity
8
CON
370
9
100
AcDbText
10
369.7422723776457
20
96.28702925706307
30
0
40
2.5
1
73
41
0.8
7
ROMANS
72
4
11
371.6470342824076
21
97.53702925706307
31
0
100
AcDbText
0
TEXT
5
D1
330
2C
100
AcDbEntity
8
CON
370
9
100
AcDbText
10
369.7422723776457
20
105.28702925706307
30
0
40
2.5
1
72
41
0.8
7
ROMANS
72
4
11
371.6470342824076
21
106.53702925706307
31
0
100
AcDbText
0
TEXT
5
D2
330
2C
100
AcDbEntity
8
CON
370
9
100
AcDbText
10
370.02798666336
20
114.28702925706307
30
0
40
2.5
1
71
41
0.8
7
ROMANS
72
4
11
371.6470342824076
21
115.53702925706307
31
0
100
AcDbText
0
TEXT
5
D3
330
2C
100
AcDbEntity
8
CON
370
9
100
AcDbText
10
369.7422723776457
20
123.28702925706307
30
0
40
2.5
1
70
41
0.8
7
ROMANS
72
4
11
371.6470342824076
21
124.53702925706307
31
0
100
AcDbText
0
TEXT
5
D4
330
2C
100
AcDbEntity
8
CON
370
9
100
AcDbText
10
369.7422723776457
20
132.28702925706307
30
0
40
2.5
1
69
41
0.8
7
ROMANS
72
4
11
371.6470342824076
21
133.53702925706307
31
0
100
AcDbText
0
TEXT
5
D5
330
2C
100
AcDbEntity
8
CON
370
9
100
AcDbText
10
369.69465333002665
20
141.28702925706307
30
0
40
2.5
1
68
41
0.8
7
ROMANS
72
4
11
371.6470342824076
21
142.53702925706307
31
0
100
AcDbText
0
TEXT
5
D6
330
2C
100
AcDbEntity
8
CON
370
9
100
AcDbText
10
369.69465333002665
20
150.28702925706307
30
0
40
2.5
1
67
41
0.8
7
ROMANS
72
4
11
371.6470342824076
21
151.53702925706307
31
0
100
AcDbText
0
TEXT
5
D7
330
2C
100
AcDbEntity
8
CON
370
9
100
AcDbText
10
369.69465333002665
20
159.28702925706307
30
0
40
2.5
1
66
41
0.8
7
ROMANS
72
4
11
371.6470342824076
21
160.53702925706307
31
0
100
AcDbText
0
TEXT
5
D8
330
2C
100
AcDbEntity
8
CON
370
9
100
AcDbText
10
369.69465333002665
20
168.28702925706307
30
0
40
2.5
1
65
41
0.8
7
ROMANS
72
4
11
371.6470342824076
21
169.53702925706307
31
0
100
AcDbText
0
TEXT
5
D9
330
2C
100
AcDbEntity
8
CON
370
9
100
AcDbText
10
369.6470342824076
20
177.28702925706307
30
0
40
2.5
1
64
41
0.8
7
ROMANS
72
4
11
371.6470342824076
21
178.53702925706307
31
0
100
AcDbText
0
TEXT
5
DA
330
2C
100
AcDbEntity
8
CON
370
9
100
AcDbText
10
369.69465333002665
20
186.28702925706307
30
0
40
2.5
1
63
41
0.8
7
ROMANS
72
4
11
371.6470342824076
21
187.53702925706307
31
0
100
AcDbText
0
TEXT
5
DB
330
2C
100
AcDbEntity
8
CON
370
9
100
AcDbText
10
369.69465333002665
20
195.28702925706307
30
0
40
2.5
1
62
41
0.8
7
ROMANS
72
4
11
371.6470342824076
21
196.53702925706307
31
0
100
AcDbText
0
TEXT
5
DC
330
2C
100
AcDbEntity
8
CON
370
9
100
AcDbText
10
369.98036761574093
20
204.28702925706307
30
0
40
2.5
1
61
41
0.8
7
ROMANS
72
4
11
371.6470342824076
21
205.53702925706307
31
0
100
AcDbText
0
TEXT
5
DD
330
2C
100
AcDbEntity
8
CON
370
9
100
AcDbText
10
369.69465333002665
20
213.28702925706307
30
0
40
2.5
1
60
41
0.8
7
ROMANS
72
4
11
371.6470342824076
21
214.53702925706307
31
0
100
AcDbText
0
TEXT
5
DE
330
2C
100
AcDbEntity
8
CON
370
9
100
AcDbText
10
369.7898914252648
20
222.28702925706307
30
0
40
2.5
1
59
41
0.8
7
ROMANS
72
4
11
371.6470342824076
21
223.53702925706307
31
0
100
AcDbText
0
TEXT
5
DF
330
2C
100
AcDbEntity
8
CON
370
9
100
AcDbText
10
369.7422723776457
20
231.28702925706307
30
0
40
2.5
1
58
41
0.8
7
ROMANS
72
4
11
371.6470342824076
21
232.53702925706307
31
0
100
AcDbText
0
TEXT
5
E0
330
2C
100
AcDbEntity
8
CON
370
9
100
AcDbText
10
369.7422723776457
20
240.28702925706307
30
0
40
2.5
1
57
41
0.8
7
ROMANS
72
4
11
371.6470342824076
21
241.53702925706307
31
0
100
AcDbText
0
TEXT
5
E1
330
2C
100
AcDbEntity
8
CON
370
9
100
AcDbText
10
369.7422723776457
20
249.28702925706307
30
0
40
2.5
1
56
41
0.8
7
ROMANS
72
4
11
371.6470342824076
21
250.53702925706307
31
0
100
AcDbText
0
TEXT
5
E2
330
2C
100
AcDbEntity
8
CON
370
9
100
AcDbText
10
369.7422723776457
20
258.28702925706307
30
0
40
2.5
1
55
41
0.8
7
ROMANS
72
4
11
371.6470342824076
21
259.53702925706307
31
0
100
AcDbText
0
TEXT
5
E3
330
2C
100
AcDbEntity
8
CON
370
9
100
AcDbText
10
369.69465333002665
20
267.28702925706307
30
0
40
2.5
1
54
41
0.8
7
ROMANS
72
4
11
371.6470342824076
21
268.53702925706307
31
0
100
AcDbText
0
TEXT
5
E4
330
2C
100
AcDbEntity
8
CON
370
9
100
AcDbText
10
369.7422723776457
20
276.28702925706307
30
0
40
2.5
1
53
41
0.8
7
ROMANS
72
4
11
371.6470342824076
21
277.53702925706307
31
0
100
AcDbText
0
TEXT
5
E5
330
2C
100
AcDbEntity
8
CON
370
9
100
AcDbText
10
369.7422723776457
20
285.28702925706307
30
0
40
2.5
1
52
41
0.8
7
ROMANS
72
4
11
371.6470342824076
21
286.53702925706307
31
0
100
AcDbText
0
TEXT
5
E6
330
2C
100
AcDbEntity
8
CON
370
9
100
AcDbText
10
370.02798666336
20
294.28702925706307
30
0
40
2.5
1
51
41
0.8
7
ROMANS
72
4
11
371.6470342824076
21
295.53702925706307
31
0
100
AcDbText
0
TEXT
5
E7
330
2C
100
AcDbEntity
8
CON
370
9
100
AcDbText
10
21.09941523478857
20
303.28702925706307
30
0
40
2.5
1
FROM
41
0.8
7
ROMANS
72
4
11
25.147034282407617
21
304.53702925706307
31
0
100
AcDbText
0
TEXT
5
E8
330
2C
100
AcDbEntity
8
CON
370
9
100
AcDbText
10
39.45641748450515
20
303.1333509241687
30
0
40
2
1
LOCATION
41
0.8
7
ROMANS
11
39.45641748450515
21
302.46668425750204
31
0
100
AcDbText
73
1
0
TEXT
5
E9
330
2C
100
AcDbEntity
8
CON
370
9
100
AcDbText
10
54.12711489732878
20
302.1725313921969
30
0
40
2.5
1
NO.
41
0.8
7
ROMANS
72
4
11
56.69854346875735
21
303.4225313921969
31
0
100
AcDbText
0
LINE
5
EA
330
2C
100
AcDbEntity
8
HID
370
9
100
AcDbLine
10
61.14703428240762
20
304.53702925706307
30
0
11
367.1470342824076
21
304.53702925706307
31
0
0
TEXT
5
EB
330
2C
100
AcDbEntity
8
CON
370
9
100
AcDbText
10
376.9564174845052
20
303.1333509241687
30
0
40
2
1
LOCATION
41
0.8
7
ROMANS
11
376.9564174845052
21
302.46668425750204
31
0
100
AcDbText
73
1
0
TEXT
5
EC
330
2C
100
AcDbEntity
8
CON
370
9
100
AcDbText
10
369.07560571097906
20
303.28702925706307
30
0
40
2.5
1
NO.
41
0.8
7
ROMANS
72
4
11
371.6470342824076
21
304.53702925706307
31
0
100
AcDbText
0
TEXT
5
ED
330
2C
100
AcDbEntity
8
CON
370
9
100
AcDbText
10
340.62333429235446
20
300.6961742912737
30
0
40
2.5
1
SERVICE
41
0.8
7
ROMANS
72
4
11
346.6709533399735
21
301.9461742912737
31
0
100
AcDbText
0
TEXT
5
EE
330
2C
100
AcDbEntity
8
CON
370
9
100
AcDbText
10
65.38529333156926
20
300.73430841283175
30
0
40
2.5
1
TAG. NO. 
41
0.8
7
ROMANS
72
4
11
73.05195999823593
21
301.98430841283175
31
0
100
AcDbText
0
TEXT
5
EF
330
2C
100
AcDbEntity
8
CON
370
9
100
AcDbText
10
98.61175682004635
20
300.73430841283175
30
0
40
2.5
1
SERVICE
41
0.8
7
ROMANS
72
4
11
104.6593758676654
21
301.98430841283175
31
0
100
AcDbText
0
TEXT
5
F0
330
2C
100
AcDbEntity
8
CON
370
9
100
AcDbText
10
188.4087972175886
20
305.1743679255124
30
0
40
2.5
1
L     O     G     I     C  (I N T E R L O C K)
41
0.8
7
ROMANS
72
4
11
231.93260674139816
21
306.24579649694095
31
0
100
AcDbText
0
TEXT
5
F1
330
2C
100
AcDbEntity
8
CON
370
9
100
AcDbText
10
396.9327485681219
20
303.28702925706307
30
0
40
2.5
1
TO
41
0.8
7
ROMANS
72
4
11
398.6470342824076
21
304.53702925706307
31
0
100
AcDbText
0
TEXT
5
F2
330
2C
100
AcDbEntity
8
CON
100
AcDbText
10
171
20
479.5714285714286
30
0
40
5
1
 
41
0.8
7
ROMANS
11
171
21
477.9047619047619
31
0
100
AcDbText
73
1
0
TEXT
5
F3
330
2C
100
AcDbEntity
8
CON
100
AcDbText
10
171
20
191.57142857142856
30
0
40
5
1
 
41
0.8
7
ROMANS
11
171
21
189.9047619047619
31
0
100
AcDbText
73
1
0
TEXT
5
F4
330
2C
100
AcDbEntity
8
CON
100
AcDbText
10
171
20
443.5714285714286
30
0
40
5
1
 
41
0.8
7
ROMANS
11
171
21
441.9047619047619
31
0
100
AcDbText
73
1
0
TEXT
5
F5
330
2C
100
AcDbEntity
8
CON
100
AcDbText
10
193.12926509186707
20
157.8455125793207
30
0
40
5
1
 
41
0.8
7
ROMANS
72
4
11
195.12926509186707
21
157.8455125793207
31
0
100
AcDbText
0
TEXT
5
F6
330
2C
100
AcDbEntity
8
CON
100
AcDbText
10
193.12926509186707
20
121.84551257932071
30
0
40
5
1
 
41
0.8
7
ROMANS
72
4
11
195.12926509186707
21
121.84551257932071
31
0
100
AcDbText
0
LINE
5
F7
330
2C
100
AcDbEntity
8
HID
370
9
100
AcDbLine
10
17.89703428240739
20
75.03702925706307
30
0
11
128.64703428240762
21
75.03702925706307
31
0
0
LINE
5
F8
330
2C
100
AcDbEntity
8
HID
370
9
100
AcDbLine
10
326.6470342824076
20
255.03702925706307
30
0
11
407.89703428240966
21
255.03702925706307
31
0
0
LINE
5
F9
330
2C
100
AcDbEntity
8
HID
370
9
100
AcDbLine
10
38.64703428240762
20
137.88621924397944
30
0
11
38.64703428240762
21
84.03702925706307
31
0
0
LINE
5
FA
330
2C
100
AcDbEntity
8
HID
370
9
100
AcDbLine
10
389.64703428240756
20
228.03702925706307
30
0
11
389.6470342824076
21
43.537029257063125
31
0
0
LINE
5
FB
330
2C
100
AcDbEntity
8
HID
370
9
100
AcDbLine
10
17.89703428240739
20
193.17595785028533
30
0
11
128.64703428240762
21
193.17595785028533
31
0
0
LINE
5
FC
330
2C
100
AcDbEntity
8
HID
370
9
100
AcDbLine
10
17.89703428240739
20
128.7824042827202
30
0
11
128.64703428240762
21
128.7824042827202
31
0
0
LINE
5
FD
330
2C
100
AcDbEntity
8
HID
370
9
100
AcDbLine
10
38.64703428240762
20
84.03702925706307
30
0
11
38.64703428240762
21
43.537029257063125
31
0
0
LINE
5
FE
330
2C
100
AcDbEntity
8
HID
370
9
100
AcDbLine
10
17.89703428240739
20
155.21345093948062
30
0
11
128.64703428240762
21
155.21345093948062
31
0
0
LINE
5
FF
330
2C
100
AcDbEntity
8
HID
370
9
100
AcDbLine
10
17.89703428240739
20
66.03702925706307
30
0
11
128.64703428240762
21
66.03702925706307
31
0
0
TEXT
5
100
330
2C
100
AcDbEntity
8
CON
370
9
100
AcDbText
10
369.7422723776457
20
51.38453841143391
30
0
40
2.5
1
78
41
0.8
7
ROMANS
72
4
11
371.6470342824076
21
52.63453841143391
31
0
100
AcDbText
0
INSERT
5
102
330
2C
100
AcDbEntity
8
CON
100
AcDbBlockReference
2
WMF6
10
0
20
0
30
0
0
LINE
5
103
330
2C
100
AcDbEntity
8
HID
370
9
100
AcDbLine
10
326.6470342824076
20
56.43960096715705
30
0
11
407.89703428240966
21
56.43960096715705
31
0
0
LINE
5
104
330
2C
100
AcDbEntity
8
HID
370
9
100
AcDbLine
10
17.89703428240739
20
56.736614934003455
30
0
11
128.64703428240762
21
56.736614934003455
31
0
0
LINE
5
105
330
2C
100
AcDbEntity
8
HID
370
9
100
AcDbLine
10
17.89703428240739
20
93.07311684873218
30
0
11
128.64703428240762
21
93.07311684873218
31
0
0
INSERT
5
107
330
2C
100
AcDbEntity
8
CON
100
AcDbBlockReference
2
test
10
0
20
0
30
0
0
TEXT
5
108
330
2C
100
AcDbEntity
8
chinese
100
AcDbText
10
67.83474967321627
20
171.93585050100575
30
0
40
2
1
(\U+6E05\U+7210\U+689D\U+4EF6\U+5141\U+8A31)
7
STANDARD
11
67.83474967321627
21
172.93585050100575
31
0
100
AcDbText
73
2
0
TEXT
5
109
330
2C
100
AcDbEntity
8
chinese
100
AcDbText
10
67.83474967321627
20
100.56452157122925
30
0
40
2
1
(\U+4E3B\U+71C3\U+6599\U+8DF3\U+812B\U+4FE1\U+865F\U+7121\U+767C\U+751F)
7
STANDARD
11
67.83474967321627
21
101.56452157122925
31
0
100
AcDbText
73
2
0
TEXT
5
10A
330
2C
100
AcDbEntity
8
chinese
100
AcDbText
10
67.83474967321627
20
63.80590766929407
30
0
40
2
1
(\U+4E3B\U+71C3\U+6599\U+8DF3\U+812B)
7
STANDARD
11
67.83474967321627
21
64.80590766929407
31
0
100
AcDbText
73
2
0
TEXT
5
10B
330
2C
100
AcDbEntity
8
chinese
100
AcDbText
10
67.83474967321627
20
80.7095040674572
30
0
40
2
1
(\U+7210\U+6EAB>650%%DC,\U+5141\U+8A31\U+514D\U+6E05\U+7210)
7
STANDARD
11
67.83474967321627
21
81.7095040674572
31
0
100
AcDbText
73
2
0
TEXT
5
10C
330
2C
100
AcDbEntity
8
chinese
100
AcDbText
10
322.0341584747423
20
252.27441224975195
30
0
40
2
1
(\U+6E05\U+7210\U+52D5\U+4F5C\U+9032\U+884C\U+4E2D)
7
STANDARD
11
322.0341584747423
21
253.27441224975195
31
0
100
AcDbText
73
2
0
TEXT
5
10D
330
2C
100
AcDbEntity
8
chinese
100
AcDbText
10
310.6677884339515
20
235.77415086891386
30
0
40
2
1
(\U+5FA9\U+6B78\U+9996\U+51FA\U+689D\U+4EF6)
7
STANDARD
11
310.6677884339515
21
236.77415086891386
31
0
100
AcDbText
73
2
0
TEXT
5
10E
330
2C
100
AcDbEntity
8
chinese
100
AcDbText
10
310.6677884339515
20
217.55957688336906
30
0
40
2
1
(\U+6E96\U+5099\U+6E05\U+7210)
7
STANDARD
11
310.6677884339515
21
218.55957688336906
31
0
100
AcDbText
73
2
0
TEXT
5
10F
330
2C
100
AcDbEntity
8
chinese
100
AcDbText
10
309.80615011111263
20
185.44226576005684
30
0
40
2
1
(\U+71C3\U+71D2\U+5668\U+4E8C\U+6B21\U+98A8\U+9580\U+81F3\U+5439\U+6383\U+4F4D\U+7F6E\U+547D\U+4EE4)
7
STANDARD
11
309.80615011111263
21
186.44226576005684
31
0
100
AcDbText
73
2
0
TEXT
5
110
330
2C
100
AcDbEntity
8
chinese
100
AcDbText
10
310.6677884339515
20
172.60041963972498
30
0
40
2
1
(\U+6E05\U+7210\U+52D5\U+4F5C\U+5B8C\U+6210)
7
STANDARD
11
310.6677884339515
21
173.60041963972498
31
0
100
AcDbText
73
2
0
TEXT
5
111
330
2C
100
AcDbEntity
8
chinese
100
AcDbText
10
323.9849714610093
20
161.9551525791499
30
0
40
2
1
(\U+6E05\U+7210\U+52D5\U+4F5C\U+5B8C\U+6210)
7
STANDARD
11
323.9849714610093
21
162.9551525791499
31
0
100
AcDbText
73
2
0
TEXT
5
112
330
2C
100
AcDbEntity
8
chinese
100
AcDbText
10
322.10451037242933
20
135.62163306156805
30
0
40
2
1
(\U+6E05\U+7210\U+52D5\U+4F5C\U+8A08\U+66425\U+5206\U+9418)
7
STANDARD
11
322.10451037242933
21
136.62163306156805
31
0
100
AcDbText
73
2
0
TEXT
5
113
330
2C
100
AcDbEntity
8
chinese
100
AcDbText
10
68.33387755377885
20
280.4174744777226
30
0
40
2
1
(\U+6E05\U+7210\U+958B\U+59CB\U+6309\U+9375)
7
STANDARD
11
68.33387755377885
21
281.4174744777226
31
0
100
AcDbText
73
2
0
TEXT
5
114
330
2C
100
AcDbEntity
8
chinese
100
AcDbText
10
66.87573470639563
20
297.2983035141211
30
0
40
2
1
(B1008\U+71C3\U+71D2\U+5668\U+4E8C\U+6B21\U+98A8\U+9580\U+5728\U+5439\U+6383\U+4F4D\U+7F6E)
7
STANDARD
11
66.87573470639563
21
298.2983035141211
31
0
100
AcDbText
73
2
0
TEXT
5
115
330
2C
100
AcDbEntity
8
chinese
100
AcDbText
10
66.87573470639563
20
288.2927876027198
30
0
40
2
1
(B1009\U+71C3\U+71D2\U+5668\U+4E8C\U+6B21\U+98A8\U+9580\U+5728\U+5439\U+6383\U+4F4D\U+7F6E)
7
STANDARD
11
66.87573470639563
21
289.2927876027198
31
0
100
AcDbText
73
2
0
TEXT
5
116
330
2C
100
AcDbEntity
8
chinese
100
AcDbText
10
66.87573470639563
20
271.35704179181715
30
0
40
2
1
(B1008\U+71C3\U+71D2\U+5668\U+64CB\U+677F\U+5168\U+958B\U+4F4D\U+7F6E)
7
STANDARD
11
66.87573470639563
21
272.35704179181715
31
0
100
AcDbText
73
2
0
TEXT
5
117
330
2C
100
AcDbEntity
8
chinese
100
AcDbText
10
66.87573470639563
20
262.62034738339077
30
0
40
2
1
(B1009\U+71C3\U+71D2\U+5668\U+64CB\U+677F\U+5168\U+958B\U+4F4D\U+7F6E)
7
STANDARD
11
66.87573470639563
21
263.62034738339077
31
0
100
AcDbText
73
2
0
INSERT
5
119
330
2C
100
AcDbEntity
8
0
100
AcDbBlockReference
2
00_FORM
10
0.2103552512819249
20
18.056637780463788
30
0
0
TEXT
5
11A
330
2C
100
AcDbEntity
8
TXT1
370
9
100
AcDbText
10
84.8392275718025
20
287.5595467156795
30
0
40
2.2
1
IDF STOPPED
41
0.7
7
ROMANS
100
AcDbText
0
TEXT
5
11B
330
2C
100
AcDbEntity
8
TXT1
370
9
100
AcDbText
10
39.47655565294211
20
286.91072667579573
30
0
40
2.2
1
HVP SOFT
41
0.7
7
ROMANS
72
1
11
45.379888986275446
21
286.91072667579573
31
0
100
AcDbText
0
TEXT
5
11C
330
2C
100
AcDbEntity
8
TXT1
370
9
100
AcDbText
10
84.8392275718026
20
233.55954669969566
30
0
40
2.2
1
SAF STOPPED
41
0.7
7
ROMANS
100
AcDbText
0
TEXT
5
11D
330
2C
100
AcDbEntity
8
TXT1
370
9
100
AcDbText
10
84.83922757180255
20
179.55954668371163
30
0
40
2.2
1
FAB A STOPPED
41
0.7
7
ROMANS
100
AcDbText
0
TEXT
5
11E
330
2C
100
AcDbEntity
8
TXT1
370
9
100
AcDbText
10
84.83922757180255
20
170.2088173201173
30
0
40
2.2
1
FAB B STOPPED
41
0.7
7
ROMANS
100
AcDbText
0
TEXT
5
11F
330
2C
100
AcDbEntity
8
TXT1
370
9
100
AcDbText
10
84.8392275718025
20
107.05029671356311
30
0
40
2.2
1
PAF STOPPED
41
0.7
7
ROMANS
100
AcDbText
0
TEXT
5
120
330
2C
100
AcDbEntity
8
TXT1
370
9
100
AcDbText
10
23.803579498272057
20
285.6717002944872
30
0
40
2.2
1
25A-58
41
0.7
7
ROMANS
72
1
11
28.350246164938724
21
285.6717002944872
31
0
100
AcDbText
0
TEXT
5
121
330
2C
100
AcDbEntity
8
TXT1
370
9
100
AcDbText
10
23.988477934593313
20
231.62873995751318
30
0
40
2.2
1
27A-58
41
0.7
7
ROMANS
72
1
11
28.53514460125998
21
231.62873995751318
31
0
100
AcDbText
0
TEXT
5
122
330
2C
100
AcDbEntity
8
TXT1
370
9
100
AcDbText
10
23.829316088005413
20
105.23907783243385
30
0
40
2.2
1
26A-58
41
0.7
7
ROMANS
72
1
11
28.37598275467208
21
105.23907783243385
31
0
100
AcDbText
0
LWPOLYLINE
5
123
330
2C
100
AcDbEntity
8
CON
62
1
370
9
100
AcDbPolyline
90
4
70
1
10
131.72289355232826
20
300.8390071277838
10
146.1645756924207
20
300.8390071277838
10
146.1645756924207
20
293.3129327721657
10
131.72289355232826
20
293.3129327721657
0
TEXT
5
124
330
2C
100
AcDbEntity
8
CON
62
1
370
9
100
AcDbText
10
135.22197681006995
20
295.3496332242078
30
0
40
3.7500000011100005
1
IRP
41
0.8
7
ROMANS
72
4
11
138.86483395400538
21
297.22463322476284
31
0
100
AcDbText
0
LINE
5
125
330
2C
100
AcDbEntity
8
CON
100
AcDbLine
10
128.63990648968672
20
286.2468408570071
30
0
11
326.6399065482948
21
286.24684085700716
31
0
0
SOLID
5
126
330
2C
100
AcDbEntity
8
CON
370
9
100
AcDbTrace
10
323.63990654740684
20
286.7468408571552
30
0
11
323.63990654740684
21
285.7468408568591
31
0
12
326.6399065482948
22
286.24684085700716
32
0
13
326.6399065482948
23
286.24684085700716
33
0
0
SOLID
5
127
330
2C
100
AcDbEntity
8
CON
370
9
100
AcDbTrace
10
323.639906547407
20
260.1852014300406
30
0
11
323.639906547407
21
259.18520142974455
31
0
12
326.63990654829496
22
259.6852014298926
32
0
13
326.63990654829496
23
259.6852014298926
33
0
0
LINE
5
128
330
2C
100
AcDbEntity
8
CON
100
AcDbLine
10
326.63990654829496
20
259.6852014298926
30
0
11
298.2915714594088
21
259.6852014298926
31
0
0
SOLID
5
129
330
2C
100
AcDbEntity
8
CON
370
9
100
AcDbTrace
10
323.639906547407
20
269.18520143270456
30
0
11
323.639906547407
21
268.1852014324085
31
0
12
326.63990654829496
22
268.6852014325565
32
0
13
326.63990654829496
23
268.6852014325565
33
0
0
LINE
5
12A
330
2C
100
AcDbEntity
8
CON
100
AcDbLine
10
326.63990654829496
20
268.6852014325565
30
0
11
298.29157145940866
21
268.6852014325565
31
0
0
LINE
5
12B
330
2C
100
AcDbEntity
8
CON
100
AcDbLine
10
298.2915714594087
20
259.6852014298926
30
0
11
298.29157145940866
21
286.2468408570071
31
0
0
LWPOLYLINE
5
12C
330
2C
100
AcDbEntity
8
CON
370
15
100
AcDbPolyline
90
2
70
1
43
0.75
10
297.9026794128463
20
286.2483254929195
40
0.75
41
0.75
42
1
10
298.6526794128463
20
286.2483254929195
40
0.75
41
0.75
42
1
0
LWPOLYLINE
5
12D
330
2C
100
AcDbEntity
8
CON
370
15
100
AcDbPolyline
90
2
70
1
43
0.75
10
297.85400806255075
20
268.7098232796748
40
0.75
41
0.75
42
1
10
298.60400806255075
20
268.7098232796748
40
0.75
41
0.75
42
1
0
LINE
5
12E
330
2C
100
AcDbEntity
8
CON
100
AcDbLine
10
128.60085488482025
20
231.82532575715993
30
0
11
326.6008549434283
21
231.82532575716
31
0
0
SOLID
5
12F
330
2C
100
AcDbEntity
8
CON
370
9
100
AcDbTrace
10
323.60085494254037
20
232.325325757308
30
0
11
323.60085494254037
21
231.3253257570119
31
0
12
326.6008549434283
22
231.82532575716
32
0
13
326.6008549434283
23
231.82532575716
33
0
0
SOLID
5
130
330
2C
100
AcDbEntity
8
CON
370
9
100
AcDbTrace
10
323.60085494254054
20
205.76368633019342
30
0
11
323.60085494254054
21
204.76368632989738
31
0
12
326.6008549434285
22
205.2636863300454
32
0
13
326.6008549434285
23
205.2636863300454
33
0
0
LINE
5
131
330
2C
100
AcDbEntity
8
CON
100
AcDbLine
10
326.6008549434285
20
205.2636863300454
30
0
11
298.2525198545423
21
205.2636863300454
31
0
0
SOLID
5
132
330
2C
100
AcDbEntity
8
CON
370
9
100
AcDbTrace
10
323.60085494254054
20
214.7636863328574
30
0
11
323.60085494254054
21
213.76368633256135
31
0
12
326.6008549434285
22
214.2636863327093
32
0
13
326.6008549434285
23
214.2636863327093
33
0
0
LINE
5
133
330
2C
100
AcDbEntity
8
CON
100
AcDbLine
10
326.6008549434285
20
214.2636863327093
30
0
11
298.2525198545422
21
214.2636863327093
31
0
0
LINE
5
134
330
2C
100
AcDbEntity
8
CON
100
AcDbLine
10
298.25251985454224
20
205.2636863300454
30
0
11
298.2525198545422
21
231.82532575715993
31
0
0
LWPOLYLINE
5
135
330
2C
100
AcDbEntity
8
CON
370
15
100
AcDbPolyline
90
2
70
1
43
0.75
10
297.8636278079798
20
231.82681039307232
40
0.75
41
0.75
42
1
10
298.6136278079798
20
231.82681039307232
40
0.75
41
0.75
42
1
0
LWPOLYLINE
5
136
330
2C
100
AcDbEntity
8
CON
370
15
100
AcDbPolyline
90
2
70
1
43
0.75
10
297.8149564576843
20
214.28830817982765
40
0.75
41
0.75
42
1
10
298.5649564576843
20
214.28830817982765
40
0.75
41
0.75
42
1
0
LINE
5
137
330
2C
100
AcDbEntity
8
CON
100
AcDbLine
10
128.68878974289998
20
106.38116299691148
30
0
11
326.68878980150805
21
106.38116299691154
31
0
0
SOLID
5
138
330
2C
100
AcDbEntity
8
CON
370
9
100
AcDbTrace
10
323.6887898006201
20
106.88116299705956
30
0
11
323.6887898006201
21
105.88116299676346
31
0
12
326.68878980150805
22
106.38116299691154
32
0
13
326.68878980150805
23
106.38116299691154
33
0
0
SOLID
5
139
330
2C
100
AcDbEntity
8
CON
370
9
100
AcDbTrace
10
323.68878980062027
20
80.31952356994498
30
0
11
323.68878980062027
21
79.31952356964894
31
0
12
326.6887898015082
22
79.81952356979696
32
0
13
326.6887898015082
23
79.81952356979696
33
0
0
LINE
5
13A
330
2C
100
AcDbEntity
8
CON
100
AcDbLine
10
326.6887898015082
20
79.81952356979696
30
0
11
298.34045471262203
21
79.81952356979696
31
0
0
SOLID
5
13B
330
2C
100
AcDbEntity
8
CON
370
9
100
AcDbTrace
10
323.68878980062027
20
89.31952357260894
30
0
11
323.68878980062027
21
88.3195235723129
31
0
12
326.6887898015082
22
88.81952357246087
32
0
13
326.6887898015082
23
88.81952357246087
33
0
0
LINE
5
13C
330
2C
100
AcDbEntity
8
CON
100
AcDbLine
10
326.6887898015082
20
88.81952357246087
30
0
11
298.3404547126219
21
88.81952357246087
31
0
0
LINE
5
13D
330
2C
100
AcDbEntity
8
CON
100
AcDbLine
10
298.340454712622
20
79.81952356979696
30
0
11
298.3404547126219
21
106.38116299691148
31
0
0
LWPOLYLINE
5
13E
330
2C
100
AcDbEntity
8
CON
370
15
100
AcDbPolyline
90
2
70
1
43
0.75
10
297.95156266605954
20
106.38264763282388
40
0.75
41
0.75
42
1
10
298.70156266605954
20
106.38264763282388
40
0.75
41
0.75
42
1
0
LWPOLYLINE
5
13F
330
2C
100
AcDbEntity
8
CON
370
15
100
AcDbPolyline
90
2
70
1
43
0.75
10
297.902891315764
20
88.8441454195792
40
0.75
41
0.75
42
1
10
298.652891315764
20
88.8441454195792
40
0.75
41
0.75
42
1
0
LINE
5
140
330
2C
100
AcDbEntity
8
CON
100
AcDbLine
10
298.47335342150313
20
178.8386846513273
30
0
11
324.98355931361925
21
178.83868465132736
31
0
0
SOLID
5
141
330
2C
100
AcDbEntity
8
CON
370
9
100
AcDbTrace
10
323.61164580831917
20
179.33868465147543
30
0
11
323.61164580831917
21
178.33868465117928
31
0
12
326.6116458092071
22
178.83868465132736
32
0
13
326.6116458092071
23
178.83868465132736
33
0
0
SOLID
5
142
330
2C
100
AcDbEntity
8
CON
370
9
100
AcDbTrace
10
323.61164580831934
20
152.7770452243608
30
0
11
323.61164580831934
21
151.77704522406475
31
0
12
326.6116458092073
22
152.27704522421277
32
0
13
326.6116458092073
23
152.27704522421277
33
0
0
LINE
5
143
330
2C
100
AcDbEntity
8
CON
100
AcDbLine
10
324.0118906166522
20
152.27704522421277
30
0
11
298.47335342150313
21
152.27704522421277
31
0
0
SOLID
5
144
330
2C
100
AcDbEntity
8
CON
370
9
100
AcDbTrace
10
323.61164580831934
20
161.77704522702476
30
0
11
323.61164580831934
21
160.77704522672872
31
0
12
326.6116458092073
22
161.27704522687674
32
0
13
326.6116458092073
23
161.27704522687674
33
0
0
LINE
5
145
330
2C
100
AcDbEntity
8
CON
100
AcDbLine
10
325.63134006250993
20
161.27704522687674
30
0
11
298.47335342150313
21
161.27704522687674
31
0
0
LINE
5
146
330
2C
100
AcDbEntity
8
CON
100
AcDbLine
10
298.47335342150313
20
152.27704522421277
30
0
11
298.47335342150313
21
178.8386846513273
31
0
0
LINE
5
147
330
2C
100
AcDbEntity
8
CON
370
9
100
AcDbLine
10
231.28299767955164
20
178.83546441406395
30
0
11
231.28299767955164
21
169.74455532046392
31
0
0
LWPOLYLINE
5
148
330
2C
100
AcDbEntity
8
CON
370
9
100
AcDbPolyline
90
2
70
0
43
1.0101010103999999
10
222.07228044175164
20
181.165713646837
40
1.0101010103999999
41
1.0101010103999999
10
222.07228044175164
20
167.74731086303768
40
1.0101010103999999
41
1.0101010103999999
0
LINE
5
149
330
2C
100
AcDbEntity
8
CON
370
9
100
AcDbLine
10
231.26743027614307
20
169.75280179578334
30
0
11
222.17630334643104
21
169.75280179578334
31
0
0
TEXT
5
14A
330
2C
100
AcDbEntity
8
CON
370
9
100
AcDbText
10
223.89964029400883
20
173.02738360426386
30
0
40
2.525252526
1
AND
41
0.8
7
ROMANS
72
4
11
226.73754313275168
21
174.29000986726385
31
0
100
AcDbText
0
LINE
5
14B
330
2C
100
AcDbEntity
8
CON
370
9
100
AcDbLine
10
231.26743027614307
20
178.8386846513273
30
0
11
222.17630334643104
21
178.8386846513273
31
0
0
SOLID
5
14C
330
2C
100
AcDbEntity
8
CON
370
9
100
AcDbTrace
10
218.88275321383964
20
179.34373515652726
30
0
11
218.88275321383964
21
178.33363414612728
31
0
12
221.91305624503966
22
178.8386846513273
32
0
13
221.91305624503966
23
178.8386846513273
33
0
0
SOLID
5
14D
330
2C
100
AcDbEntity
8
CON
370
9
100
AcDbTrace
10
218.75762204870134
20
170.25785230098336
30
0
11
218.75762204870134
21
169.24775129058338
31
0
12
221.78792507990127
22
169.75280179578334
32
0
13
221.78792507990127
23
169.75280179578334
33
0
0
LINE
5
14E
330
2C
100
AcDbEntity
8
CON
100
AcDbLine
10
221.78792507990127
20
169.75280179578334
30
0
11
128.6966884517431
21
169.75280179578328
31
0
0
LINE
5
14F
330
2C
100
AcDbEntity
8
CON
100
AcDbLine
10
231.28299767955164
20
174.29000986726396
30
0
11
265.0346446542013
21
174.29000986726396
31
0
0
LINE
5
150
330
2C
100
AcDbEntity
8
CON
100
AcDbLine
10
271.92858405018137
20
174.29000986726396
30
0
11
298.47335342150313
21
174.29000986726396
31
0
0
LINE
5
151
330
2C
100
AcDbEntity
8
CON
100
AcDbLine
10
221.91305624503966
20
178.8386846513273
30
0
11
128.6966884517431
21
178.8386846513273
31
0
0
TEXT
5
152
330
2C
100
AcDbEntity
8
CON
370
9
100
AcDbText
10
261.57779297875777
20
180.44548487242446
30
0
40
2.525252526
1
ON DELAY
41
0.7
7
ROMANS
11
261.57779297875777
21
179.60373403042445
31
0
100
AcDbText
73
1
0
ARC
5
153
330
2C
100
AcDbEntity
8
CON
370
9
100
AcDbCircle
10
267.15585677604145
20
174.2900098672639
30
0
40
4.772727274139999
100
AcDbArc
50
270
51
90
0
TEXT
5
154
330
2C
100
AcDbEntity
8
CON
370
9
100
AcDbText
10
266.37270182926915
20
175.0303306440027
30
0
40
2.0202020207999998
1
60
41
0.8
7
ROMANS
72
4
11
267.95038340741775
21
176.0404316544027
31
0
100
AcDbText
0
TEXT
5
155
330
2C
100
AcDbEntity
8
CON
370
9
100
AcDbText
10
265.3408286921191
20
171.8702235861427
30
0
40
2.0202020207999998
1
SEC.
41
0.8
7
ROMANS
72
4
11
267.9959513480277
21
172.88032459654272
31
0
100
AcDbText
0
LINE
5
156
330
2C
100
AcDbEntity
8
CON
370
9
100
AcDbLine
10
265.0346446542013
20
179.06273714140394
30
0
11
265.0346446542013
21
169.51728259312387
31
0
0
LINE
5
157
330
2C
100
AcDbEntity
8
CON
370
9
100
AcDbLine
10
265.0346446542013
20
169.51728259312387
30
0
11
267.15585677604145
21
169.51728259312387
31
0
0
SOLID
5
158
330
2C
100
AcDbEntity
8
CON
370
9
100
AcDbTrace
10
262.9134325323613
20
174.6435452209039
30
0
11
262.9134325323613
21
173.93647451362392
31
0
12
265.0346446542013
22
174.2900098672639
32
0
13
265.0346446542013
23
174.2900098672639
33
0
0
LINE
5
159
330
2C
100
AcDbEntity
8
CON
370
9
100
AcDbLine
10
265.0346446542013
20
179.06273714140394
30
0
11
267.15585677604145
21
179.06273714140394
31
0
0
SOLID
5
15A
330
2C
100
AcDbEntity
8
CON
370
9
100
AcDbTrace
10
323.6116458083194
20
143.7770452216967
30
0
11
323.6116458083194
21
142.77704522140067
31
0
12
326.61164580920735
22
143.27704522154863
32
0
13
326.61164580920735
23
143.27704522154863
33
0
0
LINE
5
15B
330
2C
100
AcDbEntity
8
CON
100
AcDbLine
10
325.39968488130876
20
143.27704522154863
30
0
11
163.7612842405688
21
143.27704522154863
31
0
0
SOLID
5
15C
330
2C
100
AcDbEntity
8
CON
370
9
100
AcDbTrace
10
323.61164580831917
20
134.77704521903271
30
0
11
323.61164580831917
21
133.77704521873667
31
0
12
326.6116458092071
22
134.27704521888467
32
0
13
326.6116458092071
23
134.27704521888467
33
0
0
LINE
5
15D
330
2C
100
AcDbEntity
8
CON
100
AcDbLine
10
325.34593271372864
20
134.27704521888467
30
0
11
154.26740493483555
21
134.27704521888467
31
0
0
LINE
5
15E
330
2C
100
AcDbEntity
8
CON
100
AcDbLine
10
163.76128424056884
20
178.8386846513273
30
0
11
163.76128424056884
21
123.69315728131176
31
0
0
LINE
5
15F
330
2C
100
AcDbEntity
8
CON
100
AcDbLine
10
154.26740493483558
20
169.7528017957833
30
0
11
154.26740493483555
21
115.01412566003796
31
0
0
LWPOLYLINE
5
160
330
2C
100
AcDbEntity
8
CON
370
15
100
AcDbPolyline
90
2
70
1
43
0.75
10
298.06930466202675
20
174.31231247120746
40
0.75
41
0.75
42
1
10
298.81930466202675
20
174.31231247120746
40
0.75
41
0.75
42
1
0
LWPOLYLINE
5
161
330
2C
100
AcDbEntity
8
CON
370
15
100
AcDbPolyline
90
2
70
1
43
0.75
10
298.0223851503556
20
161.37471623575794
40
0.75
41
0.75
42
1
10
298.7723851503556
20
161.37471623575794
40
0.75
41
0.75
42
1
0
LWPOLYLINE
5
162
330
2C
100
AcDbEntity
8
CON
370
15
100
AcDbPolyline
90
2
70
1
43
0.75
10
153.85768750656257
20
169.80935088628968
40
0.75
41
0.75
42
1
10
154.60768750656257
20
169.80935088628968
40
0.75
41
0.75
42
1
0
LWPOLYLINE
5
163
330
2C
100
AcDbEntity
8
CON
370
15
100
AcDbPolyline
90
2
70
1
43
0.75
10
163.36707958846637
20
178.82830740190303
40
0.75
41
0.75
42
1
10
164.11707958846637
20
178.82830740190303
40
0.75
41
0.75
42
1
0
TEXT
5
164
330
2C
100
AcDbEntity
8
TXT1
370
9
100
AcDbText
10
379.6294528759334
20
267.8195419183904
30
0
40
2.2
1
SER
41
0.7
7
ROMANS
72
1
11
381.8294528759334
21
267.8195419183904
31
0
100
AcDbText
0
TEXT
5
165
330
2C
100
AcDbEntity
8
TXT1
370
9
100
AcDbText
10
328.0025162760004
20
269.4967429723298
30
0
40
2.2
1
IDF STOPPED
41
0.7
7
ROMANS
100
AcDbText
0
TEXT
5
166
330
2C
100
AcDbEntity
8
TXT1
370
9
100
AcDbText
10
380.17629810071
20
258.77829066622303
30
0
40
2.2
1
IRP
41
0.7
7
ROMANS
72
1
11
382.04629810071003
21
258.77829066622303
31
0
100
AcDbText
0
TEXT
5
167
330
2C
100
AcDbEntity
8
TXT1
370
9
100
AcDbText
10
390.5491221770824
20
260.8458643065246
30
0
40
2.2
1
03A-02
41
0.6
7
ROMANS
100
AcDbText
0
TEXT
5
168
330
2C
100
AcDbEntity
8
TXT1
370
9
100
AcDbText
10
328.00251627600034
20
260.4967429696658
30
0
40
2.2
1
IDF STOPPED
41
0.7
7
ROMANS
100
AcDbText
0
TEXT
5
169
330
2C
100
AcDbEntity
8
TXT1
370
9
100
AcDbText
10
337.66571785529476
20
287.47804349714704
30
0
40
2.2
1
IDF STOPPED
41
0.7
7
ROMANS
100
AcDbText
0
INSERT
5
16A
330
2C
100
AcDbEntity
8
CON
370
9
100
AcDbBlockReference
2
LAMP1
10
325.7033023809973
20
291.0960162350006
30
0
0
TEXT
5
16B
330
2C
100
AcDbEntity
8
TXT1
370
9
100
AcDbText
10
390.3360577580617
20
257.57401543562673
30
0
40
2.2
1
03D-18,25B-24
41
0.6
7
ROMANS
100
AcDbText
0
TEXT
5
16C
330
2C
100
AcDbEntity
8
TXT1
370
9
100
AcDbText
10
380.80413649274783
20
233.52911119446514
30
0
40
2.2
1
CRT
41
0.7
7
ROMANS
72
1
11
383.0041364927478
21
233.52911119446514
31
0
100
AcDbText
0
TEXT
5
16D
330
2C
100
AcDbEntity
8
TXT1
370
9
100
AcDbText
10
379.7041364927478
20
230.37911119446517
30
0
40
2.2
1
(ANN)
41
0.7
7
ROMANS
72
1
11
383.0041364927478
21
230.37911119446517
31
0
100
AcDbText
0
TEXT
5
16E
330
2C
100
AcDbEntity
8
TXT1
370
9
100
AcDbText
10
380.68929906790873
20
213.6919961066019
30
0
40
2.2
1
SER
41
0.7
7
ROMANS
72
1
11
382.8892990679087
21
213.6919961066019
31
0
100
AcDbText
0
TEXT
5
16F
330
2C
100
AcDbEntity
8
TXT1
370
9
100
AcDbText
10
327.92899243389957
20
214.95802216770835
30
0
40
2.2
1
SAF STOPPED
41
0.7
7
ROMANS
100
AcDbText
0
TEXT
5
170
330
2C
100
AcDbEntity
8
TXT1
370
9
100
AcDbText
10
381.1820566844473
20
204.89985065551923
30
0
40
2.2
1
IRP
41
0.7
7
ROMANS
72
1
11
383.0520566844473
21
204.89985065551923
31
0
100
AcDbText
0
TEXT
5
171
330
2C
100
AcDbEntity
8
TXT1
370
9
100
AcDbText
10
394.02431858606724
20
204.51874881746755
30
0
40
2.2
1
03A-03
41
0.7
7
ROMANS
100
AcDbText
0
TEXT
5
172
330
2C
100
AcDbEntity
8
TXT1
370
9
100
AcDbText
10
327.9289924338995
20
205.95802216504433
30
0
40
2.2
1
SAF STOPPED
41
0.7
7
ROMANS
100
AcDbText
0
TEXT
5
173
330
2C
100
AcDbEntity
8
TXT1
370
9
100
AcDbText
10
337.59219401319393
20
233.04668805862218
30
0
40
2.2
1
SAF STOPPED
41
0.7
7
ROMANS
100
AcDbText
0
INSERT
5
174
330
2C
100
AcDbEntity
8
CON
370
9
100
AcDbBlockReference
2
LAMP1
10
325.62977853889646
20
236.83518314842252
30
0
0
TEXT
5
175
330
2C
100
AcDbEntity
8
TXT1
370
9
100
AcDbText
10
380.44715710380206
20
179.32720937470407
30
0
40
2.2
1
CRT
41
0.7
7
ROMANS
72
1
11
382.64715710380204
21
179.32720937470407
31
0
100
AcDbText
0
TEXT
5
176
330
2C
100
AcDbEntity
8
TXT1
370
9
100
AcDbText
10
379.34715710380203
20
176.17720937470403
30
0
40
2.2
1
(ANN)
41
0.7
7
ROMANS
72
1
11
382.64715710380204
21
176.17720937470403
31
0
100
AcDbText
0
TEXT
5
177
330
2C
100
AcDbEntity
8
TXT1
370
9
100
AcDbText
10
380.44353050536125
20
159.2023700384034
30
0
40
2.2
1
SER
41
0.7
7
ROMANS
72
1
11
382.64353050536124
21
159.2023700384034
31
0
100
AcDbText
0
TEXT
5
178
330
2C
100
AcDbEntity
8
TXT1
370
9
100
AcDbText
10
327.9163957255982
20
161.4726871588399
30
0
40
2.2
1
ALL FAB  STOPPED
41
0.7
7
ROMANS
100
AcDbText
0
TEXT
5
179
330
2C
100
AcDbEntity
8
TXT1
370
9
100
AcDbText
10
380.6388945088462
20
150.04493338525992
30
0
40
2.2
1
IRP
41
0.7
7
ROMANS
72
1
11
382.5088945088462
21
150.04493338525992
31
0
100
AcDbText
0
TEXT
5
17A
330
2C
100
AcDbEntity
8
TXT1
370
9
100
AcDbText
10
394.2160244057661
20
149.9360472656458
30
0
40
2.2
1
03A-04
41
0.7
7
ROMANS
100
AcDbText
0
TEXT
5
17B
330
2C
100
AcDbEntity
8
TXT1
370
9
100
AcDbText
10
327.91639572559814
20
151.85857832635668
30
0
40
2.2
1
ALL FAB  STOPPED
41
0.7
7
ROMANS
100
AcDbText
0
TEXT
5
17C
330
2C
100
AcDbEntity
8
TXT1
370
9
100
AcDbText
10
337.57959730489256
20
179.47268716416778
30
0
40
2.2
1
ALL FAB STOPPED
41
0.7
7
ROMANS
100
AcDbText
0
INSERT
5
17D
330
2C
100
AcDbEntity
8
CON
370
9
100
AcDbBlockReference
2
LAMP1
10
325.6171818305951
20
182.81785702006346
30
0
0
TEXT
5
17E
330
2C
100
AcDbEntity
8
TXT1
370
9
100
AcDbText
10
327.91639572559797
20
143.4726871535118
30
0
40
2.2
1
FAB A  STOPPED
41
0.7
7
ROMANS
100
AcDbText
0
TEXT
5
17F
330
2C
100
AcDbEntity
8
TXT1
370
9
100
AcDbText
10
380.306683277637
20
141.5951856305826
30
0
40
2.2
1
SER
41
0.7
7
ROMANS
72
1
11
382.50668327763697
21
141.5951856305826
31
0
100
AcDbText
0
TEXT
5
180
330
2C
100
AcDbEntity
8
TXT1
370
9
100
AcDbText
10
327.9163957255982
20
134.4726871508478
30
0
40
2.2
1
FAB B  STOPPED
41
0.7
7
ROMANS
100
AcDbText
0
TEXT
5
181
330
2C
100
AcDbEntity
8
TXT1
370
9
100
AcDbText
10
380.12860233026805
20
132.6143115643995
30
0
40
2.2
1
SER
41
0.7
7
ROMANS
72
1
11
382.32860233026804
21
132.6143115643995
31
0
100
AcDbText
0
TEXT
5
182
330
2C
100
AcDbEntity
8
TXT1
370
9
100
AcDbText
10
379.90483021578353
20
107.06097868801186
30
0
40
2.2
1
CRT
41
0.7
7
ROMANS
72
1
11
382.1048302157835
21
107.06097868801186
31
0
100
AcDbText
0
TEXT
5
183
330
2C
100
AcDbEntity
8
TXT1
370
9
100
AcDbText
10
378.8048302157835
20
103.91097868801188
30
0
40
2.2
1
(ANN)
41
0.7
7
ROMANS
72
1
11
382.1048302157835
21
103.91097868801188
31
0
100
AcDbText
0
TEXT
5
184
330
2C
100
AcDbEntity
8
TXT1
370
9
100
AcDbText
10
379.90483021578365
20
87.49856473994305
30
0
40
2.2
1
SER
41
0.7
7
ROMANS
72
1
11
382.10483021578364
21
87.49856473994305
31
0
100
AcDbText
0
TEXT
5
185
330
2C
100
AcDbEntity
8
TXT1
370
9
100
AcDbText
10
328.0610483910739
20
89.20645647214772
30
0
40
2.2
1
PAF STOPPED
41
0.7
7
ROMANS
100
AcDbText
0
TEXT
5
186
330
2C
100
AcDbEntity
8
TXT1
370
9
100
AcDbText
10
380.2348302157836
20
78.4711119440714
30
0
40
2.2
1
IRP
41
0.7
7
ROMANS
72
1
11
382.1048302157836
21
78.4711119440714
31
0
100
AcDbText
0
TEXT
5
187
330
2C
100
AcDbEntity
8
TXT1
370
9
100
AcDbText
10
393.5045517790099
20
78.83638471027956
30
0
40
2.2
1
03A-05
41
0.7
7
ROMANS
100
AcDbText
0
TEXT
5
188
330
2C
100
AcDbEntity
8
TXT1
370
9
100
AcDbText
10
328.0610483910739
20
80.20645646948373
30
0
40
2.2
1
PAF STOPPED
41
0.7
7
ROMANS
100
AcDbText
0
TEXT
5
189
330
2C
100
AcDbEntity
8
TXT1
370
9
100
AcDbText
10
337.7242499703683
20
107.20645647747557
30
0
40
2.2
1
PAF STOPPED
41
0.7
7
ROMANS
100
AcDbText
0
INSERT
5
18A
330
2C
100
AcDbEntity
8
CON
370
9
100
AcDbBlockReference
2
LAMP1
10
325.76183449607083
20
110.55162633337125
30
0
0
LWPOLYLINE
5
18B
330
2C
100
AcDbEntity
8
CEN
100
AcDbPolyline
90
2
70
0
43
0.5
10
326.6705734386119
20
290.9769717044602
40
0.5
41
0.5
10
407.75869943230464
20
290.9769717044602
40
0.5
41
0.5
0
LWPOLYLINE
5
18C
330
2C
100
AcDbEntity
8
CEN
100
AcDbPolyline
90
2
70
0
43
0.5
10
326.6557434695367
20
282.04821343353126
40
0.5
41
0.5
10
407.74386946322943
20
282.04821343353126
40
0.5
41
0.5
0
LWPOLYLINE
5
18D
330
2C
100
AcDbEntity
8
CEN
100
AcDbPolyline
90
2
70
0
43
0.5
10
326.64983930427434
20
273.0889335640136
40
0.5
41
0.5
10
407.7379652979671
20
273.0889335640136
40
0.5
41
0.5
0
LWPOLYLINE
5
18E
330
2C
100
AcDbEntity
8
CEN
100
AcDbPolyline
90
2
70
0
43
0.5
10
326.64459511145765
20
264.081771348223
40
0.5
41
0.5
10
407.7327211051504
20
264.081771348223
40
0.5
41
0.5
0
LWPOLYLINE
5
18F
330
2C
100
AcDbEntity
8
CEN
100
AcDbPolyline
90
2
70
0
43
0.5
10
326.67051844090815
20
237.07563734929602
40
0.5
41
0.5
10
407.7586444346009
20
237.07563734929602
40
0.5
41
0.5
0
LWPOLYLINE
5
190
330
2C
100
AcDbEntity
8
CEN
100
AcDbPolyline
90
2
70
0
43
0.5
10
326.64552845484286
20
228.0439551848989
40
0.5
41
0.5
10
407.7336544485356
20
228.0439551848989
40
0.5
41
0.5
0
LWPOLYLINE
5
191
330
2C
100
AcDbEntity
8
CEN
100
AcDbPolyline
90
2
70
0
43
0.5
10
326.65980035898247
20
219.07992516250226
40
0.5
41
0.5
10
407.7479263526752
20
219.07992516250226
40
0.5
41
0.5
0
LWPOLYLINE
5
192
330
2C
100
AcDbEntity
8
CEN
100
AcDbPolyline
90
2
70
0
43
0.5
10
326.6478399759826
20
210.04735721999452
40
0.5
41
0.5
10
407.73596596967536
20
210.04735721999452
40
0.5
41
0.5
0
LWPOLYLINE
5
193
330
2C
100
AcDbEntity
8
CEN
100
AcDbPolyline
90
2
70
0
43
0.5
10
326.6473013220011
20
183.06978453230363
40
0.5
41
0.5
10
407.73542731569387
20
183.06978453230363
40
0.5
41
0.5
0
LWPOLYLINE
5
194
330
2C
100
AcDbEntity
8
CEN
100
AcDbPolyline
90
2
70
0
43
0.5
10
326.64755528198634
20
174.03785240400782
40
0.5
41
0.5
10
407.7356812756791
20
174.03785240400782
40
0.5
41
0.5
0
LWPOLYLINE
5
195
330
2C
100
AcDbEntity
8
CEN
100
AcDbPolyline
90
2
70
0
43
0.5
10
326.63819920202013
20
165.0413572717705
40
0.5
41
0.5
10
407.7263251957129
20
165.0413572717705
40
0.5
41
0.5
0
LWPOLYLINE
5
196
330
2C
100
AcDbEntity
8
CEN
100
AcDbPolyline
90
2
70
0
43
0.5
10
326.6485549461322
20
155.8019022628954
40
0.5
41
0.5
10
407.73668093982496
20
155.8019022628954
40
0.5
41
0.5
0
LWPOLYLINE
5
197
330
2C
100
AcDbEntity
8
CEN
100
AcDbPolyline
90
2
70
0
43
0.5
10
326.65206347611957
20
147.1103043706339
40
0.5
41
0.5
10
407.7401894698123
20
147.1103043706339
40
0.5
41
0.5
0
LWPOLYLINE
5
198
330
2C
100
AcDbEntity
8
CEN
100
AcDbPolyline
90
2
70
0
43
0.5
10
326.6549023281841
20
138.06199121892757
40
0.5
41
0.5
10
407.74302832187686
20
138.06199121892757
40
0.5
41
0.5
0
LWPOLYLINE
5
199
330
2C
100
AcDbEntity
8
CEN
100
AcDbPolyline
90
2
70
0
43
0.5
10
326.66552497291786
20
129.0645423653723
40
0.5
41
0.5
10
407.7536509666106
20
129.0645423653723
40
0.5
41
0.5
0
LWPOLYLINE
5
19A
330
2C
100
AcDbEntity
8
CEN
100
AcDbPolyline
90
2
70
0
43
0.5
10
326.6475294007141
20
111.0469232592784
40
0.5
41
0.5
10
326.6475294007141
20
147.03569685733328
40
0.5
41
0.5
0
LWPOLYLINE
5
19B
330
2C
100
AcDbEntity
8
CEN
100
AcDbPolyline
90
2
70
0
43
0.5
10
326.58033514729027
20
155.78332273150397
40
0.5
41
0.5
10
326.58033514729027
20
183.06978453230363
40
0.5
41
0.5
0
LWPOLYLINE
5
19C
330
2C
100
AcDbEntity
8
CEN
100
AcDbPolyline
90
2
70
0
43
0.5
10
326.68982748768553
20
210.11491038300164
40
0.5
41
0.5
10
326.68982748768553
20
237.07563734929602
40
0.5
41
0.5
0
LWPOLYLINE
5
19D
330
2C
100
AcDbEntity
8
CEN
100
AcDbPolyline
90
2
70
0
43
0.5
10
326.6423531462376
20
264.1122409408998
40
0.5
41
0.5
10
326.6423531462376
20
290.9769717044602
40
0.5
41
0.5
0
LWPOLYLINE
5
19E
330
2C
100
AcDbEntity
8
CEN
100
AcDbPolyline
90
2
70
0
43
0.5
10
326.5934019546846
20
84.03094405408535
40
0.5
41
0.5
10
326.5934019546846
20
111.02997505202711
40
0.5
41
0.5
0
LWPOLYLINE
5
19F
330
2C
100
AcDbEntity
8
CEN
100
AcDbPolyline
90
2
70
0
43
0.5
10
326.5297146136684
20
84.05962363683057
40
0.5
41
0.5
10
407.61784060736113
20
84.05962363683057
40
0.5
41
0.5
0
LWPOLYLINE
5
1A0
330
2C
100
AcDbEntity
8
CEN
100
AcDbPolyline
90
2
70
0
43
0.5
10
326.6635304973647
20
92.65721245547161
40
0.5
41
0.5
10
407.7516564910575
20
92.65721245547161
40
0.5
41
0.5
0
LWPOLYLINE
5
1A1
330
2C
100
AcDbEntity
8
CEN
100
AcDbPolyline
90
2
70
0
43
0.5
10
326.6363567789424
20
102.03245741645947
40
0.5
41
0.5
10
407.72448277263516
20
102.03245741645947
40
0.5
41
0.5
0
LWPOLYLINE
5
1A2
330
2C
100
AcDbEntity
8
CEN
100
AcDbPolyline
90
2
70
0
43
0.5
10
326.6493346194627
20
111.07895874930318
40
0.5
41
0.5
10
407.73746061315546
20
111.07895874930318
40
0.5
41
0.5
0
LWPOLYLINE
5
1A3
330
2C
100
AcDbEntity
8
CEN
100
AcDbPolyline
90
2
70
0
43
0.5
10
18.12740853229502
20
291.0572084383101
40
0.5
41
0.5
10
128.6730406872125
20
291.0572084383101
40
0.5
41
0.5
0
LWPOLYLINE
5
1A4
330
2C
100
AcDbEntity
8
CEN
100
AcDbPolyline
90
2
70
0
43
0.5
10
18.180393967180862
20
282.02720304516595
40
0.5
41
0.5
10
128.5135861680617
20
282.02720304516595
40
0.5
41
0.5
0
LWPOLYLINE
5
1A5
330
2C
100
AcDbEntity
8
CEN
100
AcDbPolyline
90
2
70
0
43
0.5
10
18.16579692955702
20
237.0053807176805
40
0.5
41
0.5
10
128.5519745653237
20
237.0053807176805
40
0.5
41
0.5
0
LWPOLYLINE
5
1A6
330
2C
100
AcDbEntity
8
CEN
100
AcDbPolyline
90
2
70
0
43
0.5
10
18.21878236444286
20
227.97537532453634
40
0.5
41
0.5
10
128.5519745653237
20
227.97537532453634
40
0.5
41
0.5
0
LWPOLYLINE
5
1A7
330
2C
100
AcDbEntity
8
CEN
100
AcDbPolyline
90
2
70
0
43
0.5
10
18.104387140510426
20
183.06616592740863
40
0.5
41
0.5
10
128.66221099229983
20
183.06616592740863
40
0.5
41
0.5
0
LWPOLYLINE
5
1A8
330
2C
100
AcDbEntity
8
CEN
100
AcDbPolyline
90
2
70
0
43
0.5
10
18.157372575396266
20
164.2700617879583
40
0.5
41
0.5
10
128.4905647762771
20
164.2700617879583
40
0.5
41
0.5
0
LWPOLYLINE
5
1A9
330
2C
100
AcDbEntity
8
CEN
100
AcDbPolyline
90
2
70
0
43
0.5
10
18.18688369623078
20
110.58932896138481
40
0.5
41
0.5
10
128.57306133199745
20
110.58932896138481
40
0.5
41
0.5
0
LWPOLYLINE
5
1AA
330
2C
100
AcDbEntity
8
CEN
100
AcDbPolyline
90
2
70
0
43
0.5
10
18.23986913111662
20
101.91163761769849
40
0.5
41
0.5
10
128.57306133199745
20
101.91163761769849
40
0.5
41
0.5
0
LWPOLYLINE
5
1AB
330
2C
100
AcDbEntity
8
CEN
100
AcDbPolyline
90
2
70
0
43
0.5
10
128.64334030957366
20
101.81151533302693
40
0.5
41
0.5
10
128.64334030957366
20
110.58932896138481
40
0.5
41
0.5
0
LWPOLYLINE
5
1AC
330
2C
100
AcDbEntity
8
CEN
100
AcDbPolyline
90
2
70
0
43
0.5
10
128.66221099229983
20
164.1563508618177
40
0.5
41
0.5
10
128.66221099229983
20
183.06616592740863
40
0.5
41
0.5
0
LWPOLYLINE
5
1AD
330
2C
100
AcDbEntity
8
CEN
100
AcDbPolyline
90
2
70
0
43
0.5
10
128.57947503481
20
228.02656675664855
40
0.5
41
0.5
10
128.57947503481
20
236.80438038500643
40
0.5
41
0.5
0
LWPOLYLINE
5
1AE
330
2C
100
AcDbEntity
8
CEN
100
AcDbPolyline
90
2
70
0
43
0.5
10
128.6730406872125
20
282.0142493791037
40
0.5
41
0.5
10
128.6730406872125
20
291.1039349112532
40
0.5
41
0.5
0
TEXT
5
1AF
330
2C
100
AcDbEntity
8
TXT1
370
9
100
AcDbText
10
390.7985833992948
20
285.42240366006774
30
0
40
2.2
1
05-5,25A-26
41
0.7
7
ROMANS
100
AcDbText
0
TEXT
5
1B0
330
2C
100
AcDbEntity
8
TXT1
370
9
100
AcDbText
10
390.5816379262862
20
231.39143708101608
30
0
40
2.2
1
05-8,27A-26
41
0.7
7
ROMANS
72
1
11
398.64830459295285
21
231.39143708101608
31
0
100
AcDbText
0
TEXT
5
1B1
330
2C
100
AcDbEntity
8
TXT1
370
9
100
AcDbText
10
395.16914158495325
20
177.49353522053082
30
0
40
2.2
1
05-11
41
0.7
7
ROMANS
72
1
11
398.83580825161994
21
177.49353522053082
31
0
100
AcDbText
0
TEXT
5
1B2
330
2C
100
AcDbEntity
8
TXT1
370
9
100
AcDbText
10
389.89856289191965
20
105.53753049861302
30
0
40
2.2
1
05-14,26A-26
41
0.7
7
ROMANS
72
1
11
398.69856289191966
21
105.53753049861302
31
0
100
AcDbText
0
TEXT
5
1B3
330
2C
100
AcDbEntity
8
TXT1
370
9
100
AcDbText
10
23.98282840883124
20
177.07141060326967
30
0
40
2.2
1
28A-58
41
0.7
7
ROMANS
72
1
11
28.529495075497906
21
177.07141060326967
31
0
100
AcDbText
0
TEXT
5
1B4
330
2C
100
AcDbEntity
8
TXT1
370
9
100
AcDbText
10
23.150643293142984
20
167.95001251181918
30
0
40
2.2
1
(28A-58)
41
0.7
7
ROMANS
72
1
11
28.723976626476315
21
167.95001251181918
31
0
100
AcDbText
0
TEXT
5
1B5
330
2C
100
AcDbEntity
8
DCS
6
ByBlock
100
AcDbText
10
344.3847501037493
20
283.87384257454937
30
0
40
2.1
1
S3 I.0043
41
0.8
7
ROMANS
100
AcDbText
0
TEXT
5
1B6
330
2C
100
AcDbEntity
8
DCS
6
ByBlock
100
AcDbText
10
344.3847501037493
20
229.32995915986317
30
0
40
2.1
1
S3 I.0523
41
0.8
7
ROMANS
100
AcDbText
0
TEXT
5
1B7
330
2C
100
AcDbEntity
8
DCS
6
ByBlock
100
AcDbText
10
344.3847501037493
20
175.70353838707842
30
0
40
2.1
1
S4 I.0569
41
0.8
7
ROMANS
100
AcDbText
0
TEXT
5
1B8
330
2C
100
AcDbEntity
8
DCS
6
ByBlock
100
AcDbText
10
344.3847501037493
20
103.40551214593631
30
0
40
2.1
1
S3 I.0363
41
0.8
7
ROMANS
100
AcDbText
0
TEXT
5
1B9
330
2C
100
AcDbEntity
8
TXT1
370
9
100
AcDbText
10
380.80413649274783
20
287.21580660246036
30
0
40
2.2
1
CRT
41
0.7
7
ROMANS
72
1
11
383.0041364927478
21
287.21580660246036
31
0
100
AcDbText
0
TEXT
5
1BA
330
2C
100
AcDbEntity
8
TXT1
370
9
100
AcDbText
10
379.7041364927478
20
284.0658066024604
30
0
40
2.2
1
(ANN)
41
0.7
7
ROMANS
72
1
11
383.0041364927478
21
284.0658066024604
31
0
100
AcDbText
0
TEXT
5
1BB
330
2C
100
AcDbEntity
8
TXT1
370
9
100
AcDbText
10
40.57655565294211
20
283.45164487344545
30
0
40
2.2
1
STARTER
41
0.7
7
ROMANS
72
1
11
45.379888986275446
21
283.45164487344545
31
0
100
AcDbText
0
TEXT
5
1BC
330
2C
100
AcDbEntity
8
TXT1
370
9
100
AcDbText
10
39.47655565294211
20
232.91491147005155
30
0
40
2.2
1
HVP SOFT
41
0.7
7
ROMANS
72
1
11
45.379888986275446
21
232.91491147005155
31
0
100
AcDbText
0
TEXT
5
1BD
330
2C
100
AcDbEntity
8
TXT1
370
9
100
AcDbText
10
40.57655565294211
20
229.45582966770127
30
0
40
2.2
1
STARTER
41
0.7
7
ROMANS
72
1
11
45.379888986275446
21
229.45582966770127
31
0
100
AcDbText
0
TEXT
5
1BE
330
2C
100
AcDbEntity
8
TXT1
370
9
100
AcDbText
10
39.47655565294211
20
178.72892659943403
30
0
40
2.2
1
HVP SOFT
41
0.7
7
ROMANS
72
1
11
45.379888986275446
21
178.72892659943403
31
0
100
AcDbText
0
TEXT
5
1BF
330
2C
100
AcDbEntity
8
TXT1
370
9
100
AcDbText
10
40.57655565294211
20
175.26984479708375
30
0
40
2.2
1
STARTER
41
0.7
7
ROMANS
72
1
11
45.379888986275446
21
175.26984479708375
31
0
100
AcDbText
0
TEXT
5
1C0
330
2C
100
AcDbEntity
8
TXT1
370
9
100
AcDbText
10
39.47655565294211
20
169.50810217560417
30
0
40
2.2
1
HVP SOFT
41
0.7
7
ROMANS
72
1
11
45.379888986275446
21
169.50810217560417
31
0
100
AcDbText
0
TEXT
5
1C1
330
2C
100
AcDbEntity
8
TXT1
370
9
100
AcDbText
10
40.57655565294211
20
166.04902037325388
30
0
40
2.2
1
STARTER
41
0.7
7
ROMANS
72
1
11
45.379888986275446
21
166.04902037325388
31
0
100
AcDbText
0
TEXT
5
1C2
330
2C
100
AcDbEntity
8
TXT1
370
9
100
AcDbText
10
39.47655565294211
20
106.76859061431361
30
0
40
2.2
1
HVP SOFT
41
0.7
7
ROMANS
72
1
11
45.379888986275446
21
106.76859061431361
31
0
100
AcDbText
0
TEXT
5
1C3
330
2C
100
AcDbEntity
8
TXT1
370
9
100
AcDbText
10
40.57655565294211
20
103.30950881196333
30
0
40
2.2
1
STARTER
41
0.7
7
ROMANS
72
1
11
45.379888986275446
21
103.30950881196333
31
0
100
AcDbText
0
TEXT
5
1C4
330
2C
100
AcDbEntity
8
TXT1
370
9
100
AcDbText
10
380.44715710380206
20
124.79240127001714
30
0
40
2.2
1
CRT
41
0.7
7
ROMANS
72
1
11
382.64715710380204
21
124.79240127001714
31
0
100
AcDbText
0
TEXT
5
1C5
330
2C
100
AcDbEntity
8
TXT1
370
9
100
AcDbText
10
379.34715710380203
20
121.6424012700171
30
0
40
2.2
1
(ANN)
41
0.7
7
ROMANS
72
1
11
382.64715710380204
21
121.6424012700171
31
0
100
AcDbText
0
TEXT
5
1C6
330
2C
100
AcDbEntity
8
TXT1
370
9
100
AcDbText
10
337.57959730489256
20
124.93787905948085
30
0
40
2.2
1
FAB A  STOPPED
41
0.7
7
ROMANS
100
AcDbText
0
INSERT
5
1C7
330
2C
100
AcDbEntity
8
CON
370
9
100
AcDbBlockReference
2
LAMP1
10
325.6171818305951
20
128.28304891537653
30
0
0
TEXT
5
1C8
330
2C
100
AcDbEntity
8
TXT1
370
9
100
AcDbText
10
380.44715710380206
20
115.88965840725956
30
0
40
2.2
1
CRT
41
0.7
7
ROMANS
72
1
11
382.64715710380204
21
115.88965840725956
31
0
100
AcDbText
0
TEXT
5
1C9
330
2C
100
AcDbEntity
8
TXT1
370
9
100
AcDbText
10
379.34715710380203
20
112.73965840725953
30
0
40
2.2
1
(ANN)
41
0.7
7
ROMANS
72
1
11
382.64715710380204
21
112.73965840725953
31
0
100
AcDbText
0
TEXT
5
1CA
330
2C
100
AcDbEntity
8
TXT1
370
9
100
AcDbText
10
337.57959730489256
20
116.03513619672327
30
0
40
2.2
1
FAB B  STOPPED
41
0.7
7
ROMANS
100
AcDbText
0
INSERT
5
1CB
330
2C
100
AcDbEntity
8
CON
370
9
100
AcDbBlockReference
2
LAMP1
10
325.6171818305951
20
119.38030605261895
30
0
0
LWPOLYLINE
5
1CC
330
2C
100
AcDbEntity
8
CEN
100
AcDbPolyline
90
2
70
0
43
0.5
10
326.65206347611957
20
119.52609624628019
40
0.5
41
0.5
10
407.7401894698123
20
119.52609624628019
40
0.5
41
0.5
0
SOLID
5
1CD
330
2C
100
AcDbEntity
8
CON
370
9
100
AcDbTrace
10
323.6116458083194
20
124.19315728145983
30
0
11
323.6116458083194
21
123.19315728116379
31
0
12
326.61164580920735
22
123.69315728131176
32
0
13
326.61164580920735
23
123.69315728131176
33
0
0
LINE
5
1CE
330
2C
100
AcDbEntity
8
CON
100
AcDbLine
10
325.39968488130876
20
123.69315728131176
30
0
11
163.76128424056884
21
123.69315728131176
31
0
0
SOLID
5
1CF
330
2C
100
AcDbEntity
8
CON
370
9
100
AcDbTrace
10
323.6116458083194
20
115.51412566018604
30
0
11
323.6116458083194
21
114.51412565989
31
0
12
326.61164580920735
22
115.01412566003796
32
0
13
326.61164580920735
23
115.01412566003796
33
0
0
LINE
5
1D0
330
2C
100
AcDbEntity
8
CON
100
AcDbLine
10
325.39968488130876
20
115.01412566003796
30
0
11
154.26740493483555
21
115.01412566003796
31
0
0
LWPOLYLINE
5
1D1
330
2C
100
AcDbEntity
8
CON
370
15
100
AcDbPolyline
90
2
70
1
43
0.75
10
153.80120279297148
20
134.304793516183
40
0.75
41
0.75
42
1
10
154.55120279297148
20
134.304793516183
40
0.75
41
0.75
42
1
0
LWPOLYLINE
5
1D2
330
2C
100
AcDbEntity
8
CON
370
15
100
AcDbPolyline
90
2
70
1
43
0.75
10
163.36707958846637
20
143.2461731117682
40
0.75
41
0.75
42
1
10
164.11707958846637
20
143.2461731117682
40
0.75
41
0.75
42
1
0
TEXT
5
1D3
330
2C
100
AcDbEntity
8
CON
370
9
100
AcDbText
10
418.4017869871416
20
25.53002612013563
30
0
40
3
1
DITL-03B
41
0.8
7
ROMANS
11
418.4017869871416
21
24.53002612013563
31
0
100
AcDbText
73
1
0
TEXT
5
1D4
330
2C
100
AcDbEntity
8
CON
370
9
100
AcDbText
10
157.1646594071401
20
29.872508761028598
30
0
40
2
1
MASTER FUEL TRIP (2)
41
0.8
7
ROMANS
11
157.1646594071401
21
30.872508761028598
31
0
100
AcDbText
73
2
0
TEXT
5
1D5
330
2C
100
AcDbEntity
8
CON
370
9
100
AcDbText
10
465.39484200798597
20
24.021492043493936
30
0
40
3
1
9
41
0.8
7
ROMANS
11
465.39484200798597
21
23.021492043493936
31
0
100
AcDbText
73
1
0
TEXT
5
1D6
330
2C
100
AcDbEntity
8
TXT1
370
9
100
AcDbText
10
394.2160244057661
20
123.1603501175124
30
0
40
2.2
1
28A-29
41
0.7
7
ROMANS
100
AcDbText
0
TEXT
5
1D7
330
2C
100
AcDbEntity
8
TXT1
370
9
100
AcDbText
10
394.2160244057661
20
114.19525747555963
30
0
40
2.2
1
(28A-29)
41
0.7
7
ROMANS
100
AcDbText
0
TEXT
5
1D8
330
2C
100
AcDbEntity
8
DCS
6
ByBlock
100
AcDbText
10
344.3847501037493
20
121.1332659734968
30
0
40
2.1
1
S3 I.0049
41
0.8
7
ROMANS
100
AcDbText
0
TEXT
5
1D9
330
2C
100
AcDbEntity
8
DCS
6
ByBlock
100
AcDbText
10
344.3847501037493
20
112.43588147429955
30
0
40
2.1
1
S3 I.0369
41
0.8
7
ROMANS
100
AcDbText
0
VIEWPORT
5
1DA
330
2D
100
AcDbEntity
67
1
8
0
100
AcDbViewport
10
5.2499996395561634
20
5.4607272434417045
30
0
40
15.337152293689813
41
11.914454465437002
68
1
69
1
12
5.2499996395561634
22
5.4607272434417045
13
0
23
0
14
10
24
10
15
10
25
10
16
0
26
0
36
1
17
0
27
0
37
0
42
50
43
0
44
0
45
11.914454465437002
50
0
51
0
72
1000
90
32800
1

281
0
71
1
74
0
110
0
120
0
130
0
111
1
121
0
131
0
112
0
122
1
132
0
79
0
146
0
0
ENDSEC
0
SECTION
2
OBJECTS
0
DICTIONARY
5
29
330
0
100
AcDbDictionary
281
1
3
ACAD_GROUP
350
2A
3
ACAD_LAYOUT
350
2B
0
DICTIONARY
5
2A
330
29
100
AcDbDictionary
281
1
0
DICTIONARY
5
2B
330
29
100
AcDbDictionary
281
1
3
Layout1
350
2F
3
Model
350
2E
0
LAYOUT
5
2E
330
2B
100
AcDbPlotSettings
1

4
A3
6

40
7.5
41
20
42
7.5
43
20
44
420
45
297
46
0
47
0
48
0
49
0
140
0
141
0
142
1
143
1
70
1024
72
1
73
0
74
5
7

75
16
76
0
77
2
78
300
147
1
148
0
149
0
100
AcDbLayout
1
Model
70
1
71
0
10
0.1196939928364798
20
-0.0001498107616976438
11
390.8849
21
313.67945555593246
12
0
22
0
32
0
14
0
24
0
34
0
15
786.8652514726374
25
543
35
0
146
0
13
0
23
0
33
0
16
1
26
0
36
0
17
0
27
1
37
0
76
1
330
2C
0
LAYOUT
5
2F
330
2B
100
AcDbPlotSettings
1

4
A3
6

40
7.5
41
20
42
7.5
43
20
44
420
45
297
46
0
47
0
48
0
49
0
140
0
141
0
142
1
143
1
70
0
72
1
73
0
74
5
7

75
16
76
0
77
2
78
300
147
1
148
0
149
0
100
AcDbLayout
1
Layout1
70
1
71
1
10
0.1196939928364798
20
-0.0001498107616976438
11
390.8849
21
313.67945555593246
12
0
22
0
32
0
14
-2.4185765072887433
24
-0.4964999892767965
34
0
15
12.918575786401071
25
11.417954476160205
35
0
146
0
13
0
23
0
33
0
16
1
26
0
36
0
17
0
27
1
37
0
76
1
330
2D
0
ENDSEC
0
EOF
